<?xml version="1.0" encoding="UTF-8"?>
<svg id="Layer_1" xmlns="http://www.w3.org/2000/svg" version="1.1" xmlns:xlink="http://www.w3.org/1999/xlink" viewBox="0 0 500 500">
  <!-- Generator: Adobe Illustrator 29.1.0, SVG Export Plug-In . SVG Version: 2.1.0 Build 142)  -->
  <defs>
    <style>
      .st0 {
        fill: #374acc;
      }

      .st1 {
        stroke-width: 1.3px;
      }

      .st1, .st2, .st3, .st4, .st5, .st6 {
        fill: none;
      }

      .st1, .st2, .st4, .st5, .st6 {
        stroke-linecap: round;
        stroke-linejoin: round;
      }

      .st1, .st2, .st6 {
        stroke: #262626;
      }

      .st7 {
        fill: #5d6ff4;
      }

      .st8 {
        isolation: isolate;
        opacity: .5;
      }

      .st8, .st9 {
        fill: #d6d6d6;
      }

      .st10 {
        fill: #94e261;
      }

      .st11 {
        fill: #262626;
      }

      .st12 {
        fill: #4450e4;
      }

      .st13 {
        fill: #eaa418;
      }

      .st14 {
        fill: #ff7129;
      }

      .st15 {
        fill: #fec02d;
      }

      .st16 {
        fill: #ff7769;
      }

      .st17 {
        fill: #f7a99c;
      }

      .st4 {
        stroke: #ff7129;
      }

      .st18 {
        fill: #3897e9;
      }

      .st19 {
        fill: #1282d6;
      }

      .st5 {
        stroke: #fff;
      }

      .st20 {
        fill: #f5f5f5;
      }

      .st21 {
        fill: #fdb6d6;
      }

      .st6 {
        stroke-width: .5px;
      }

      .st22 {
        clip-path: url(#clippath);
      }

      .st23 {
        fill: #ff94ca;
      }
    </style>
    <clipPath id="clippath">
      <path class="st3" d="M438.4,349.8h-27.5v-29c0-7.6,6.2-13.8,13.8-13.8s13.8,6.2,13.8,13.8v29h0Z"/>
    </clipPath>
  </defs>
  <g id="OBJECT">
    <path class="st14" d="M460.1,399.1H62c-4.2,0-7.7-3.4-7.7-7.7h0c0-4.2,3.4-7.7,7.7-7.7h398.1c4.2,0,7.7,3.4,7.7,7.7h0c0,4.2-3.4,7.7-7.7,7.7Z"/>
    <g>
      <path class="st20" d="M421.8,307h-250.2c-12.2,0-22.1-9.9-22.1-22.1V117.9c0-12.2,9.9-22.1,22.1-22.1h250.2c12.2,0,22.1,9.9,22.1,22.1v167c0,12.2-9.9,22.1-22.1,22.1Z"/>
      <path class="st8" d="M443.9,127.9H149.5v-10c0-12.2,9.9-22.1,22.1-22.1h250.2c12.2,0,22.1,9.9,22.1,22.1v10h0Z"/>
      <path class="st20" d="M394.6,116.7h-174.2c-2.7,0-4.8-2.2-4.8-4.8h0c0-2.7,2.2-4.8,4.8-4.8h174.2c2.7,0,4.8,2.2,4.8,4.8h0c0,2.7-2.2,4.8-4.8,4.8Z"/>
      <path class="st20" d="M170.6,111.9c0,2.2-1.8,4-4,4s-4-1.8-4-4,1.8-4,4-4,4,1.8,4,4Z"/>
      <path class="st20" d="M185.4,111.9c0,2.2-1.8,4-4,4s-4-1.8-4-4,1.8-4,4-4,4,1.8,4,4Z"/>
      <path class="st20" d="M199.9,111.9c0,2.2-1.8,4-4,4s-4-1.8-4-4,1.8-4,4-4,4,1.8,4,4Z"/>
      <polygon class="st9" points="317.7 174.2 292.8 199.1 267.9 174.2 252.9 189.2 277.8 214.1 252.9 239 267.9 254 292.8 229.1 317.7 254 332.7 239 307.8 214.1 332.7 189.2 317.7 174.2"/>
    </g>
    <g>
      <g>
        <path class="st19" d="M396.1,383.7h-102l8.1-115.3c.5-6.9,6.4-12.5,13.3-12.5h77c6.9,0,12.1,5.6,11.6,12.5l-8.1,115.3Z"/>
        <path class="st18" d="M381.1,383.7h-102l8.1-115.3c.5-6.9,6.4-12.5,13.3-12.5h77c6.9,0,12.1,5.6,11.6,12.5l-8.1,115.3Z"/>
      </g>
      <path class="st19" d="M339.8,255.9c3.8,3.5,5.3,6.9,5.9,9.5,1.3,5.2.2,12.2.2,12.3h0c2,2.3,4.5,5.5,7.2,9.4,0,0,6,8.7,10.3,17.6,5.3,11.2,13.9,29.4,9.9,48.7-3.1,14.8-13.5,30.4-13.5,30.4h-58l7.1-127.8h31Z"/>
      <path class="st11" d="M231.3,183.6c.3-.9,5-15.3,15.9-20.1,5.2-2.3,11.2-2.6,11.2-2.6.6,0,3.1,0,6.5.5,0,0,7.8.9,13.6,5,10.1,7.1,15.9,25,14.8,40.6-.4,5.5-1.7,11.2,1.9,15.5,1.9,2.3,5.2,3.1,9.7,4.4,9.5,2.9,25.1,6.6,31.3,19.3,6.3,12.7,7,30.6,2.9,35.5-4.1,4.9-102.6,4.4-106.1.6-3.5-3.8-9.9-22.3-10.7-37-.7-13,8.5-18.4,10.7-34.5,1.5-11.2-.1-20.7-1.7-27Z"/>
      <path class="st2" d="M287.5,182.1c1.9,3.7,4.6,9.6,6.6,17.3,3.1,12.1.7,14.1,3.5,18.8,6.4,10.4,20.1,4,33.3,15.9,7.4,6.6,10,14.8,10.8,17.7,3.8,12.5.3,23.3-1.2,27.2"/>
      <path class="st2" d="M234.9,206.4c-1.8,4.2-4.8,10.8-8.7,18.8-7.1,14.7-9.1,17.4-8.6,22.6.9,9.1,8.7,18.6,8.7,18.6"/>
      <path class="st15" d="M249.9,238.3h25.4c20.1,0,42.1,14.4,55.3,28.4,10.6,11.2,18.3,24.9,24.2,39.1,7.6,18.6,15.1,44.3,5.8,63.5-1.4,2.9-4.6,9.2-11.3,12.6-7.4,3.7-15.1,1.5-17.5,1.5-15.6,0-153.8,0-153.8,0-3.7-35.9,3.4-62.9,8.6-77.7,4.8-13.7,10.4-29.2,24.9-43.9,14-14.1,29.3-20.6,38.4-23.6Z"/>
      <polygon class="st13" points="248.8 238.3 231.1 384.1 219.6 384 237.4 242.9 248.8 238.3"/>
      <g>
        <path class="st17" d="M262.6,249.1h0c7.1,0,12.9-5.7,12.9-12.8v-27.7c.1,0-25.6,0-25.6,0v27.7c-.1,7.1,5.6,12.9,12.7,12.9Z"/>
        <path class="st16" d="M249.8,228.4l16.8-8.6c-.2,1.5-1.1,8.3-7.1,13-3.8,3-7.8,3.7-9.7,3.9v-8.2Z"/>
        <path class="st17" d="M276.2,199.9c0-.4,1.2-1.1,1.5-1.3.6-.4,1.2-.7,1.8-.9,1.3-.4,2.6-.5,3.9-.2,2.6.6,4.8,2.7,5.3,5.4.2,1.5-.1,3.1-.8,4.5-1,2.1-2.7,3.9-4.7,5.1-1.7,1-3.6,1.5-5.5,1.6-.4,0-4.3,0-4.3-.2.9-4.7,1.8-9.4,2.7-14.1Z"/>
        <path class="st17" d="M279.8,200.2c-.3,2.1-2.1,13-12,20.7-1.8,1.4-13.8,10.9-24.9,6.2-14.2-5.9-12.6-29.2-12.5-30.4.3-4.3,1.3-16.8,11.7-23.5,8.5-5.5,17.7-3.5,19-3.1,1.4.3,10.1,2.5,15.5,11.1,4.9,7.8,3.7,15.6,3.2,19Z"/>
        <path class="st11" d="M238.5,196.7c-.2,1.8-1.6,3.1-3.1,2.9s-2.5-1.8-2.3-3.6,1.6-3.1,3.1-2.9c1.5.2,2.5,1.8,2.3,3.6Z"/>
        <path class="st11" d="M254.8,198.8c-.2,1.8-1.6,3.1-3.1,2.9-1.5-.2-2.5-1.8-2.3-3.6s1.6-3.1,3.1-2.9,2.5,1.8,2.3,3.6Z"/>
        <path class="st1" d="M243.4,199.5l-2.5,3.4c-.5.6-.3,1.5.4,1.9l2.3,1.4"/>
        <path class="st16" d="M260.3,207.3c-.3,2-2.1,3.5-4.1,3.2-2-.3-3.5-2.1-3.2-4.1s2.1-3.5,4.1-3.2c2,.3,3.5,2.1,3.2,4.1Z"/>
        <path class="st1" d="M278,209.3c0-.4,0-3.2,2.2-5.2,1.7-1.6,3.8-1.7,4.3-1.7"/>
        <path class="st1" d="M279.9,204.6c.1,0,1.6-.2,2.6.9.9.9.8,2.1.8,2.3"/>
        <path class="st16" d="M232.4,201.5c-.7,0-1.4,0-2,.3,0,2,.3,4.4.7,7,.1,0,.2,0,.4,0,2,.3,3.9-1.2,4.1-3.2.3-2-1.2-3.9-3.2-4.1Z"/>
        <path class="st1" d="M240,212.9c.4-.5,1.8-2,4.1-2.6,2.6-.7,4.7.3,5.3.6"/>
        <path class="st11" d="M229.3,190.3h16.2s.6-5.3,2.2-7.9,4.1-4.2,4.1-4.2c-.4.9-.8,2.2-1.1,3.6-.2,1.1-.5,2.5-.5,4.3,0,0,0,.7.4,4.1h14.1c-.3-.9-1-3-.4-5.7.5-2.4,1.8-3.9,2.4-4.6-.5,4.2,0,7.6.6,9.7.9,3.7,2.4,6.4,3.5,8.5,1.1,2,2.1,3.5,2.9,4.6,0,0,1.9-2.4,3.5-3.3,1.5-.9,3.1-1.8,3.1-1.8.4-1.8.7-4.6.2-8-1-6.8-4.8-11.3-6.4-13-5.4-5.7-11.8-6.9-14.2-7.4-5-.9-9-.2-10.4.2-1.1.2-3.6.9-6.5,2.4-2,1.1-7.8,4.1-11.2,10.9-.8,1.6-1.9,4.1-2.3,7.5Z"/>
      </g>
      <path class="st21" d="M246.5,239.6s-15.7,64.3-17.5,85.8c-1.8,21.6-2.5,58.8-2.5,58.8l-48.5-.6c-1-7-1.9-16.4-1.5-27.6.8-26.2,7.8-45.7,10.5-52.7,6.5-16.6,14.3-36.7,34.6-51.4,9.4-6.8,18.5-10.3,24.9-12.2Z"/>
      <polygon class="st23" points="214.6 280.1 194.4 383.7 206.4 383.7 214.6 280.1"/>
      <path class="st2" d="M218.1,261.6c-1.1,6.2-2.8,16.6-4.4,29.7-1.9,15.9-1.6,19.8-4.7,60.5-.9,12.2-2.5,31.9-2.5,31.9h0"/>
      <g>
        <path class="st17" d="M262.1,360.6c1.8,1.9,2.9,3.7,3.5,5,1.9,4,2,7.7,2,10.4,0,1.6,0,2.9-.2,3.8,0,0-23.7-7.6-27.2-7.3-3.1.3-18.5,4.2-22.2,5.2-.5.1-1,.1-1.5,0l-5.2-1.6-4.9.2c-1.8,0-3-1.7-2.2-3.3.2-.4.4-.8.7-1.3,2.1-3.2,4.3-5.5,4.3-5.5l-7.9,1.4c-.8,0-2-.1-2.4-.9-.6-1.1.9-3.1,2-4.4,2.5-3,5.2-4.6,6.1-5.1,3.1-1.8,5.9-3.4,10.6-4.9,3.7-1.1,13.9-4.3,26.4-1.2,8.2,2.1,14.2,6.2,18.1,9.5Z"/>
        <path class="st16" d="M260.8,359.5c.1.8.7,5.7-2.9,9.9-3.9,4.7-9.6,4.5-10.3,4.5l19.8,5.9s.1-7.1-.2-8.8-1.6-5.8-2.8-7.5c-1.3-1.7-3.6-4-3.6-4Z"/>
        <path class="st2" d="M211.3,376c2.3-2.5,6.2-6.2,12-9.1,5.5-2.7,10.5-3.7,13.7-4.1"/>
        <path class="st2" d="M206.4,376.2c3.6-6.1,7.6-9.3,10.5-11.1,0,0,2.2-1.3,13.5-5.6h0"/>
        <path class="st2" d="M208.8,366.1c2.9-4.3,5.9-6.2,8.1-7.2,3.9-1.8,9.8-2.8,9.8-2.8h0"/>
      </g>
      <path class="st21" d="M278,238.3s-5,36.8-5.6,58.8-1.4,59.6-1.4,59.6l-8.9,3.8s4.2,12.5,4.5,16.4c.3,3.9,0,7.2,0,7.2,13-.3,23.5,0,30.8.4,6.2.3,15.3.3,33.7.5,6.5,0,12,0,18.2-3,.7-.4,7-3.5,11.6-9.8,3-4.1,7.7-12.7,5-34.2-1.1-9-4.9-37.2-26.8-64-12.5-15.3-24.8-22.7-28.3-24.7-10.4-6-19.6-8.4-21.5-8.9-4.5-1.2-8.4-1.8-11.4-2.1Z"/>
      <path class="st23" d="M307.8,308.7c.2,5.8-.2,16.1-5.5,27.3-2.8,6-6.3,10.5-9.2,13.8,6.3-1.6,12.6-3.3,19-4.9l-4.3-36.2Z"/>
      <path class="st2" d="M333.6,340.1s-55.3,13.6-62.7,16.7-8.9,3.8-8.9,3.8"/>
      <path class="st5" d="M337.9,282.7s27.2,51.2,19.1,72.2c-1.2,3.2-4,10.1-10.8,15.2-6.4,4.7-13.3,5.5-25.3,5.8-10.4.3-24.3.2-40.8-1.1"/>
      <path class="st2" d="M330,264.1c-11.2,4.4-16.5,10.4-19.1,14.5,0,0-8.1,12.5,1.9,66.7h0"/>
      <g>
        <path class="st0" d="M264.6,385h-74.3v-8.9h78.1v5.1c0,2.1-1.7,3.8-3.8,3.8Z"/>
        <path class="st0" d="M198.4,385h-102.5c-2.3,0-4.5-1.9-4.8-4.2l-9.3-76.1c-.3-2.3,1.4-4.2,3.7-4.2h102.5c2.3,0,4.5,1.9,4.8,4.2l9.3,76.1c.3,2.3-1.4,4.2-3.7,4.2Z"/>
        <path class="st12" d="M192.4,385h-102.5c-2.3,0-4.5-1.9-4.8-4.2l-9.3-76.1c-.3-2.3,1.4-4.2,3.7-4.2h102.5c2.3,0,4.5,1.9,4.8,4.2l9.3,76.1c.3,2.3-1.4,4.2-3.7,4.2Z"/>
        <path class="st7" d="M75.9,304.6c.7-.2,3.5,23.5,19,44.9,2.7,3.7,7.5,10.3,15.7,16.7,0,0,8.4,6.5,39.5,18.8h-48c-2.7,0-5.3,0-8,0-2.1,0-4.8.5-6.7-.7-1.6-1-2.3-2.9-2.5-4.8-.2-1.3-.1-2.6-.3-3.9-.1-1.3-.4-2.6-.6-3.9-.3-2.8-.7-5.6-1-8.4-.6-4.6-1.1-9.2-1.7-13.8-.6-5-1.2-9.9-1.8-14.9-.6-4.6-1.1-9.2-1.7-13.8-.4-3.5-.8-7.1-1.3-10.6-.6-4.1-.9-5.4-.7-5.5Z"/>
        <path class="st2" d="M85.2,380.8"/>
        <path class="st2" d="M90,385"/>
        <path class="st2" d="M192.4,385"/>
        <path class="st2" d="M79.6,300.4h102.5c2.3,0,4.5,1.9,4.8,4.2l9.3,76.1"/>
        <path class="st2" d="M75.9,304.6"/>
        <path class="st15" d="M139,340.6c0,3.3-2.6,5.9-5.9,5.9s-5.9-2.6-5.9-5.9,2.6-5.9,5.9-5.9c3.3,0,5.9,2.6,5.9,5.9Z"/>
      </g>
      <path class="st5" d="M357.8,262.9h11.4c5,0,8.9,4.2,8.6,9.2l-3.5,46.3"/>
    </g>
    <g>
      <path class="st20" d="M163,316.4H44.7c-5.8,0-10.5-4.7-10.5-10.5v-79c0-5.8,4.7-10.5,10.5-10.5h118.4c5.8,0,10.5,4.7,10.5,10.5v79c0,5.8-4.7,10.5-10.5,10.5Z"/>
      <path class="st8" d="M173.5,231.7H34.2v-4.7c0-5.8,4.7-10.5,10.5-10.5h118.4c5.8,0,10.5,4.7,10.5,10.5v4.7Z"/>
      <path class="st20" d="M150.2,226.4h-82.4c-1.3,0-2.3-1-2.3-2.3h0c0-1.3,1-2.3,2.3-2.3h82.4c1.3,0,2.3,1,2.3,2.3h0c0,1.3-1,2.3-2.3,2.3Z"/>
      <path class="st20" d="M44.2,224.1c0,1-.8,1.9-1.9,1.9s-1.9-.8-1.9-1.9.8-1.9,1.9-1.9,1.9.8,1.9,1.9Z"/>
      <path class="st20" d="M51.2,224.1c0,1-.8,1.9-1.9,1.9s-1.9-.8-1.9-1.9.8-1.9,1.9-1.9,1.9.8,1.9,1.9Z"/>
      <path class="st20" d="M58.1,224.1c0,1-.8,1.9-1.9,1.9s-1.9-.8-1.9-1.9.8-1.9,1.9-1.9,1.9.8,1.9,1.9Z"/>
      <polygon class="st9" points="113.8 253.6 102 265.3 90.2 253.6 83.1 260.7 94.9 272.5 83.1 284.2 90.2 291.3 102 279.6 113.8 291.3 120.9 284.2 109.1 272.5 120.9 260.7 113.8 253.6"/>
      <path class="st2" d="M163,316.4H44.7c-5.8,0-10.5-4.7-10.5-10.5v-79c0-5.8,4.7-10.5,10.5-10.5h118.4c5.8,0,10.5,4.7,10.5,10.5v79c0,5.8-4.7,10.5-10.5,10.5Z"/>
    </g>
    <g>
      <line class="st4" x1="211.9" y1="162.3" x2="227.3" y2="168.7"/>
      <line class="st4" x1="211.2" y1="145.3" x2="230.8" y2="163.9"/>
      <line class="st4" x1="228.2" y1="145.1" x2="235.4" y2="160.2"/>
    </g>
    <path class="st21" d="M415.5,228.1c1.4-3.7,2.8-6.5,4.2-8.6,1.4-2,3.3-3.7,5.6-4.9,1.4-.8,2.8-1.3,4.3-1.7,1.5-.4,2.9-.8,4.3-1.3,1.3-.5,2.6-1.2,3.7-2.1,1.1-.9,2-2.2,2.7-4,1.2-3.1,1.1-5.5,0-7.4s-3-3.2-5.3-4.1c-3.3-1.3-5.9-1.2-7.9.2-2,1.4-3.7,3.5-5.2,6.5l-12.1-4.6c1.2-3.1,2.7-5.6,4.7-7.8,1.9-2.1,4.2-3.7,6.7-4.7,2.5-1,5.2-1.5,8.2-1.5,2.9,0,6,.7,9.1,1.9,6.7,2.6,11.5,6,14.4,10.2,2.8,4.2,3.1,9.4.7,15.6-.8,2-1.6,3.7-2.6,5-1,1.3-2.1,2.5-3.4,3.4-1.3.9-2.7,1.7-4.3,2.3-1.6.6-3.3,1.2-5.3,1.7-1.8.5-3.3,1.1-4.4,1.7-1.2.6-2.2,1.3-3,2.1-.8.8-1.5,1.8-2,2.8-.5,1-1.1,2.3-1.6,3.6l-11.4-4.4ZM408.3,246l4.7-12.3,12.6,4.8-4.7,12.3-12.6-4.8Z"/>
    <path class="st21" d="M90,164.8c-.9-2.3-1.4-4.2-1.6-5.7s0-3.1.5-4.6c.3-.9.7-1.8,1.3-2.6.5-.8,1-1.6,1.4-2.4.4-.8.7-1.6.8-2.5.2-.9,0-1.9-.4-3-.7-1.9-1.8-3-3.1-3.4s-2.7-.2-4.2.3c-2.1.8-3.2,1.9-3.6,3.4-.3,1.4-.2,3.2.4,5.2l-7.5,2.9c-.7-1.9-1.1-3.7-1.1-5.5,0-1.8.4-3.5,1.1-5,.7-1.5,1.8-2.9,3.2-4.1,1.4-1.2,3-2.2,5-3,4.2-1.6,7.8-2.1,10.9-1.3,3.1.8,5.4,3.1,6.9,6.9.5,1.2.8,2.4.9,3.4.1,1,0,2-.1,3-.2,1-.6,1.9-1,2.9-.5.9-1,2-1.7,3-.6,1-1,1.9-1.3,2.6-.3.8-.5,1.5-.5,2.2,0,.7,0,1.4.2,2.2.2.7.4,1.5.8,2.3l-7.1,2.8ZM94.2,176.1l-3-7.6,7.8-3.1,3,7.6-7.8,3.1Z"/>
    <polygon class="st15" points="440.6 383.7 408.7 383.7 406.6 349.8 442.7 349.8 440.6 383.7"/>
    <path class="st10" d="M438.4,349.8h-27.5v-29c0-7.6,6.2-13.8,13.8-13.8h0c7.6,0,13.8,6.2,13.8,13.8v29h0Z"/>
    <g class="st22">
      <g>
        <path class="st6" d="M415.9,311.2c0,3.9-2.3,3.9-2.3,7.7s2.3,3.9,2.3,7.7-2.3,3.9-2.3,7.7,2.3,3.9,2.3,7.7-2.3,3.9-2.3,7.7"/>
        <path class="st6" d="M422,307.6c0,4.2-2.5,4.2-2.5,8.4s2.5,4.2,2.5,8.4-2.5,4.2-2.5,8.4,2.5,4.2,2.5,8.4-2.5,4.2-2.5,8.4"/>
        <path class="st6" d="M430.9,308c0,4.2-2.5,4.2-2.5,8.4s2.5,4.2,2.5,8.4-2.5,4.2-2.5,8.4,2.5,4.2,2.5,8.4-2.5,4.2-2.5,8.4"/>
        <path class="st6" d="M437.1,313c0,3.7-2.2,3.7-2.2,7.3s2.2,3.7,2.2,7.3-2.2,3.7-2.2,7.3,2.2,3.7,2.2,7.4-2.2,3.7-2.2,7.4"/>
      </g>
    </g>
    <path class="st13" d="M442.7,349.8l-2.1,34h-31.9c4.3-1.2,12.6-4,20.5-11.4,9.1-8.5,12.3-18.2,13.5-22.5Z"/>
    <path class="st6" d="M440.9,355.2c-1.3,3.2-3.5,7.6-7.2,12.2-3.7,4.6-7.5,7.7-10.4,9.6"/>
  </g>
</svg>