<?xml version="1.0" standalone="no"?>
<!DOCTYPE svg PUBLIC "-//W3C//DTD SVG 1.1//EN" "http://www.w3.org/Graphics/SVG/1.1/DTD/svg11.dtd">
<svg xmlns="http://www.w3.org/2000/svg" version="1.1" viewBox="0 0 500 500" width="500" height="500">
  <!-- Generator: Adobe Illustrator 29.1.0, SVG Export Plug-In . SVG Version: 2.1.0 Build 142)  -->
  <defs>
    <style>
      .st0 {
        fill: #fafafa;
      }

      .st1 {
        fill: #009b2a;
      }

      .st2 {
        fill: #263238;
      }

      .st3 {
        opacity: .3;
      }

      .st4 {
        fill: #fff;
      }

      .st5 {
        fill: #ddd9f0;
      }

      .st6 {
        fill: #ff996c;
      }

      .st7 {
        fill: #ffbe9d;
      }

      .st8 {
        fill: #e0e0e0;
      }

      .st9 {
        fill: #455a64;
      }

      .st10 {
        fill: #00438f;
      }

      .st11 {
        fill: #006dd7;
      }

      .st12 {
        fill: #ffbe9c;
      }

      .st13 {
        fill: #00d546;
      }

      .st14 {
        fill: #eb996e;
      }

      .st15 {
        fill: #ff725e;
      }
    </style>
  </defs>
  <g id="Background_Complete">
    <g>
      <path class="st5" d="M214.62,291.68l5.95,2.73s2.3-5,7.53-2.7c2.72,1.19,3.31,3.6,3.25,5.22-.06,1.88-1.08,3.58-2.64,4.63-1.77,1.2-4.68,1.7-8.37-.85l-6.16,13.43,5.89,2.7,3.61-7.87s9.24,1.66,13.42-7.44c4-8.71-2.88-14.32-6.23-15.85-2.56-1.17-11.55-4.55-16.26,6Z"/>
      <rect class="st5" x="211.32" y="317.98" width="6.58" height="6.14" transform="translate(153.53 -60.26) rotate(24.66)"/>
    </g>
    <g>
      <path class="st5" d="M442.21,225.31l-5.17,1.75s1.47,4.34-3.02,5.94c-2.33.83-4.06-.29-4.95-1.3-1.03-1.17-1.39-2.78-1.05-4.31.39-1.74,1.87-3.7,5.56-4.27l-3.94-11.65-5.11,1.73,2.31,6.83s-6.54,4.27-3.87,12.17c2.55,7.56,9.92,7.02,12.82,6.04,2.22-.75,9.59-3.84,6.42-12.92Z"/>
      <rect class="st5" x="422.71" y="204.96" width="5.47" height="5.11" transform="translate(894.92 267.98) rotate(161.34)"/>
    </g>
    <g>
      <path class="st5" d="M224.33,132.27l2.32.08s.07-1.95,2.09-1.91c1.05.02,1.57.73,1.77,1.26.23.62.13,1.32-.23,1.87-.42.63-1.3,1.19-2.85.86l-.19,5.23,2.29.08.11-3.06s3.25-.71,3.37-4.26c.12-3.39-2.89-4.29-4.19-4.34-1-.04-4.39.08-4.5,4.17Z"/>
      <rect class="st5" x="227.16" y="140.79" width="2.33" height="2.17" transform="translate(5.29 -8.17) rotate(2.08)"/>
    </g>
  </g>
  <g id="Character">
    <g>
      <g>
        <g>
          <polygon class="st2" points="412.16 365.51 431.61 476.28 427.54 476.28 404.87 367.05 412.16 365.51"/>
          <polygon class="st2" points="377.17 365.51 396.43 476.28 392.36 476.28 369.88 367.05 377.17 365.51"/>
          <polygon class="st2" points="347.01 367.61 332.44 476.28 336.52 476.14 354.34 368.89 347.01 367.61"/>
          <path class="st10" d="M330.03,375.34s89.58-4.25,94.1-11.02c4.52-6.78-3.68-105.12-11.59-107.38-7.91-2.26-54.05-2.54-54.05-2.54l.77,108.62-37.56,6.32s-.71,6.62,8.33,6Z"/>
          <path class="st2" d="M404.87,255.89s.07.06.17.2c.1.14.24.35.41.63.34.56.81,1.42,1.33,2.57,1.04,2.28,2.27,5.72,3.28,10.09,1.06,4.36,1.8,9.66,2.45,15.54.66,5.89,1.15,12.38,1.58,19.19.85,13.64,1.22,26,1.44,34.95.1,4.47.15,8.1.17,10.6,0,1.22,0,2.18,0,2.88,0,.3-.01.55-.01.75,0,.17-.01.26-.02.26,0,0-.02-.09-.03-.25-.01-.2-.02-.45-.04-.75-.02-.7-.06-1.66-.1-2.88-.08-2.55-.2-6.15-.34-10.59-.31-8.94-.74-21.3-1.59-34.93-.43-6.81-.91-13.3-1.54-19.17-.63-5.88-1.32-11.16-2.33-15.51-.96-4.36-2.13-7.79-3.1-10.09-.48-1.15-.92-2.02-1.23-2.6-.15-.26-.27-.48-.37-.65-.09-.15-.13-.22-.12-.23Z"/>
        </g>
        <path class="st2" d="M415.1,353.54s-.08.03-.23.06c-.19.04-.42.08-.7.13-.66.11-1.56.27-2.69.46-2.38.39-5.75.94-9.89,1.62-8.35,1.37-19.89,3.29-32.61,5.53-12.72,2.24-24.22,4.38-32.54,5.95-4.12.78-7.48,1.41-9.85,1.85-1.13.2-2.02.37-2.68.49-.28.05-.51.08-.7.11-.16.02-.24.03-.24.02,0,0,.08-.03.23-.07.19-.04.41-.1.69-.17.65-.14,1.54-.34,2.66-.58,2.37-.49,5.71-1.17,9.82-2.02,8.3-1.66,19.79-3.86,32.52-6.1,12.72-2.24,24.27-4.1,32.64-5.37,4.15-.61,7.53-1.1,9.92-1.46,1.14-.15,2.04-.27,2.7-.36.28-.03.51-.06.7-.08.16-.02.24-.02.24,0Z"/>
      </g>
      <g>
        <g>
          <path class="st13" d="M406.42,302.37c-4.12-9.91-14.74-21.98-14.74-21.98,0,0-26.83-30.96-37.34-37.81-10.51-6.86-27.62-7.13-27.62-7.13-19.43.91-47.43,16.27-47.43,16.27l58.5,69.76s40.25,4.16,45.57,3.75c11.42-.89,29.17-4.15,29.17-4.15,0,0-2.9-10.96-6.12-18.7Z"/>
          <g class="st3">
            <path d="M358.67,265.5c-2.51,1.93-3.41,5.24-4.22,8.3-4.46,16.77-10.87,33.02-19.05,48.33l1.39-1c7.18-4.66,12.74-11.49,17.1-18.86,3.28-5.55,5.96-11.54,7.08-17.89,1.11-6.35.58-13.11-2.29-18.88Z"/>
          </g>
          <path class="st2" d="M397.1,309.56s-.15.13-.46.33c-.37.23-.82.52-1.38.86-.6.38-1.34.82-2.23,1.28-.89.47-1.88,1.04-3.03,1.55-1.14.54-2.4,1.13-3.78,1.66-1.37.59-2.88,1.08-4.45,1.63-3.19,1.01-6.75,1.92-10.56,2.55-3.82.59-7.49.84-10.83.87-1.67-.03-3.26-.03-4.74-.16-1.48-.07-2.86-.24-4.11-.4-1.26-.13-2.38-.36-3.37-.53-.99-.16-1.83-.35-2.52-.53-.64-.16-1.16-.29-1.58-.39-.36-.1-.54-.15-.54-.17,0-.02.2,0,.57.07.42.08.95.18,1.59.29.69.14,1.53.3,2.52.43.99.14,2.11.35,3.36.45,1.25.14,2.62.28,4.09.33,1.47.11,3.05.1,4.71.11,3.32-.06,6.97-.32,10.75-.9,3.78-.62,7.33-1.51,10.5-2.49,1.57-.53,3.08-1.01,4.44-1.57,1.39-.51,2.64-1.07,3.79-1.59,1.16-.49,2.16-1.03,3.05-1.47.9-.43,1.65-.85,2.26-1.2.58-.31,1.05-.57,1.42-.78.33-.17.51-.26.52-.24Z"/>
          <g class="st3">
            <path d="M391.31,310.43c-14.03,6.16-29.54,8.94-44.84,8.05v.28c14.69,2.3,30.52,1.13,44.31-6.06.45-.24.88-.58,1.07-1.06.19-.47-.04-1.14-.54-1.21Z"/>
          </g>
          <g class="st3">
            <path d="M338.89,250.25c-1.22-3.59-4.08-6.46-7.38-8.31-2.9-1.62-9.18-3.68-12.44-3.07l-6.06,10.38c.71,1.64,3.41,4.37,4.68,5.64,1.27,1.26,2.55,2.62,3.12,4.31.36,1.07.44,2.27,1.15,3.14.84,1.03,2.28,1.28,3.6,1.39,3.96.33,8.32-.15,11.17-2.92,2.72-2.65,3.39-6.97,2.17-10.56Z"/>
          </g>
        </g>
        <g>
          <polygon class="st8" points="318.37 367.61 303.81 476.28 307.88 476.14 325.71 368.89 318.37 367.61"/>
          <g>
            <polygon class="st7" points="260.14 406.25 256.58 463.33 281.22 466.23 289 419.03 260.14 406.25"/>
            <g>
              <path class="st15" d="M256.84,455.79l-.22,1.64s-29.18,7.57-30.15,12.79l55.12,6.82,1.52-18.44c-8.66,2.78-17.3,2.15-26.27-2.81Z"/>
              <path class="st1" d="M256.84,455.79l-.22,1.64s-29.18,7.57-30.15,12.79l55.12,6.82,1.52-18.44c-8.66,2.78-17.3,2.15-26.27-2.81Z"/>
            </g>
            <path class="st2" d="M246.75,464.9c.21.08.69-1.07.24-2.44-.44-1.38-1.5-2.03-1.62-1.84-.16.18.48.97.83,2.1.38,1.13.32,2.14.55,2.19Z"/>
            <path class="st4" d="M276.81,463.78c1.03.42,1.62,1.71,1.24,2.76-.38,1.05-1.69,1.66-2.73,1.25-1.04-.41-1.79-1.93-1.3-2.93.5-1,2.07-1.63,2.98-.99"/>
            <path class="st2" d="M281.6,477.04l.37-4.43-52.97-4.91s-2.59.76-2.52,2.53l55.12,6.82Z"/>
            <path class="st2" d="M256.42,457.56c-.02.27,1.31.56,2.52,1.59,1.24,1,1.78,2.25,2.04,2.17.25-.02.05-1.68-1.44-2.9-1.48-1.23-3.15-1.11-3.12-.86Z"/>
            <path class="st2" d="M250.34,459.24c-.09.25,1.02.85,1.79,2.11.81,1.23.89,2.49,1.16,2.51.25.07.63-1.48-.36-3.02-.98-1.55-2.55-1.85-2.58-1.6Z"/>
          </g>
          <g>
            <polygon class="st7" points="291.28 410.47 298.33 467.23 323.08 465.52 321.94 415.04 291.28 410.47"/>
            <path class="st13" d="M297.19,459.77l.09,1.65s-27.28,12.83-27.27,18.15l55.43-3.49-1.92-18.4c-8,4.34-16.6,5.31-26.34,2.1Z"/>
            <path class="st2" d="M288.96,470.58c.22.04.48-1.18-.22-2.44-.69-1.27-1.84-1.72-1.93-1.51-.12.2.65.86,1.2,1.91.58,1.04.71,2.04.95,2.05Z"/>
            <path class="st4" d="M318.29,463.92c1.09.23,1.91,1.39,1.73,2.48-.18,1.1-1.35,1.94-2.45,1.73-1.09-.21-2.12-1.57-1.82-2.64.3-1.07,1.73-1.99,2.75-1.52"/>
            <path class="st2" d="M325.45,476.07l-.46-4.43-52.96,4.97s-2.4,1.23-2.01,2.95l55.43-3.49Z"/>
            <path class="st2" d="M297.1,461.58c.03.27,1.39.31,2.77,1.09,1.41.75,2.17,1.88,2.41,1.76.25-.07-.26-1.66-1.95-2.58-1.69-.94-3.3-.51-3.23-.27Z"/>
            <path class="st2" d="M291.43,464.35c-.05.27,1.16.65,2.15,1.74,1.02,1.06,1.33,2.28,1.6,2.25.26.03.34-1.57-.91-2.9-1.25-1.34-2.85-1.35-2.84-1.09Z"/>
          </g>
          <g>
            <path class="st11" d="M412.54,321.07l-74.74.41s-29.82,10.2-38.62,12.94c-11.7,3.66-11.67,9.59-13.41,16.43-1.96,7.71,5.79,68.86,5.49,70.57-.05.29-.89.27-.92,1.4-.06,2.34.7,6.48.7,6.48l35.22-.61s.08-7.25.08-8.39-.91-2.5-.91-2.5l-2.37-48.49,75.11-13.03s6.85-2.28,12.55-11.98c5.71-9.7,1.8-23.22,1.8-23.22Z"/>
            <path class="st11" d="M317.38,321.07s-33.87,8.32-39.71,13.35c-5.84,5.03-10.29,9.48-11.78,21.37-1.49,11.88-7.1,58.35-7.1,58.35,0,0-1.17,1.52-1.66,6.24-.47,4.44.1,3.23.1,3.23l30.54,6.02,1.89-8.62-.54-1.44,3.5-22.19,11.63-39.85,57.92-21.04-44.8-15.41Z"/>
            <path class="st9" d="M340.97,325.33s-.11.04-.34.09c-.25.05-.59.12-1.01.2-.92.19-2.21.45-3.87.79-3.39.72-8.23,1.74-14.2,3-3,.66-6.27,1.38-9.79,2.16-3.51.81-7.27,1.64-11.16,2.73-1.93.52-3.8,1.45-5.61,2.51-1.79,1.09-3.49,2.43-4.91,4.08-1.42,1.64-2.52,3.6-3.22,5.74-.72,2.13-1.07,4.41-1.24,6.73-.41,9.31.48,18.22,1.4,26.26.96,8.04,2.01,15.27,2.68,21.37.7,6.09,1.11,11.04,1.32,14.47.12,1.71.16,3.04.2,3.94.01.43.03.77.03,1.03,0,.23,0,.35,0,.35,0,0-.03-.12-.05-.35-.02-.26-.05-.6-.09-1.02-.07-.93-.17-2.25-.3-3.94-.27-3.42-.74-8.35-1.49-14.44-.8-6.09-1.75-13.32-2.8-21.35-.95-8.05-1.86-16.96-1.45-26.35.17-2.34.53-4.67,1.27-6.86.72-2.19,1.86-4.22,3.33-5.91,1.46-1.7,3.21-3.07,5.04-4.18,1.85-1.08,3.74-2.01,5.73-2.54,3.92-1.08,7.69-1.9,11.2-2.69,3.52-.78,6.81-1.48,9.81-2.1,6-1.25,10.87-2.21,14.24-2.84,1.69-.31,3-.55,3.89-.69.42-.06.76-.11,1.02-.15.23-.03.35-.04.35-.03Z"/>
            <path class="st9" d="M325.45,417.79s-.09.09-.28.21c-.19.13-.5.29-.9.48-.81.37-2.02.79-3.55,1.16-1.53.38-3.38.73-5.43,1.05-2.05.31-4.3.71-6.69.96-4.78.53-9.14.53-12.28.48-1.57-.03-2.84-.07-3.72-.11-.88-.04-1.36-.08-1.36-.12,0-.04.49-.07,1.36-.09.98-.02,2.23-.03,3.72-.06,3.14-.05,7.47-.11,12.22-.63,2.38-.24,4.62-.63,6.68-.91,2.05-.29,3.89-.6,5.42-.93,1.53-.32,2.74-.68,3.56-.99.82-.31,1.24-.55,1.26-.5Z"/>
            <path class="st9" d="M289.13,419.56s-.44-.03-1.2-.19c-.76-.16-1.87-.37-3.24-.62-2.74-.51-6.54-1.06-10.76-1.64-4.22-.58-8.03-1.19-10.76-1.8-1.37-.3-2.46-.57-3.21-.79-.75-.22-1.16-.35-1.15-.39,0-.04.44.03,1.2.19.76.16,1.87.37,3.24.62,2.74.51,6.55,1.06,10.76,1.64,4.22.58,8.03,1.19,10.76,1.8,1.37.3,2.46.57,3.21.79.75.22,1.16.35,1.15.39Z"/>
          </g>
        </g>
        <g>
          <g>
            <path class="st8" d="M300.55,177.76c-2.45-5.34-8.84-8.53-14.58-7.28-1.5.33-2.98.93-4.52.85-1.26-.07-2.45-.58-3.68-.83-3.97-.79-8.34,1.61-9.79,5.39-1.37,3.55-3.5-.16-7.83,4.61-3.59,3.95-.19,6.88-.19,6.88-4.59,1.19-7.91,6.05-7.37,10.76.35,2.99,1.98,6.26.34,8.78-.79,1.22-2.21,1.93-3.05,3.12-1.57,2.21-.7,5.29.54,7.7,1.24,2.41,2.86,4.86,2.66,7.56-.34,4.43-5.49,7.73-4.9,12.13.28,2.08,1.84,4.2.91,6.08-.37.76-1.09,1.27-1.7,1.85-2.49,2.34-3.54,6.1-2.61,9.39s3.8,5.95,7.15,6.63c.93.19,2.01.3,2.58,1.06.64.85.3,2.04.13,3.09-.64,3.84,1.52,7.97,5.03,9.64,3.52,1.66,8.08.71,10.64-2.22,2.61,2.5,6.23,3.92,9.84,3.86,1.66-.03,3.37-.37,4.74-1.32,1.1-.76,1.92-1.85,2.62-2.98,3.36-5.4,7.91-13.47,6.48-19.66l6.56-75.07Z"/>
            <path class="st0" d="M265.19,212.83c.02.06-.76.41-2.13.62-1.36.21-3.31.2-5.35-.37-2.04-.58-3.71-1.6-4.75-2.49-1.05-.9-1.54-1.61-1.48-1.65.07-.07.66.53,1.75,1.31,1.08.78,2.7,1.69,4.65,2.25,1.95.55,3.81.63,5.14.53,1.33-.1,2.15-.3,2.18-.2Z"/>
            <path class="st0" d="M264,197.96c.06.03-.22.77-.96,1.8-.73,1.03-1.97,2.31-3.62,3.32-1.66,1.01-3.37,1.52-4.61,1.69-1.25.18-2.03.09-2.03.02-.03-.19,3.14-.25,6.34-2.23,3.23-1.93,4.74-4.72,4.89-4.6Z"/>
            <path class="st0" d="M262.61,273.82s-.07.02-.2.03c-.13.01-.33.02-.59,0-.52-.03-1.29-.11-2.22-.46-.93-.34-2.01-.96-2.98-2.01-.96-1.04-1.74-2.56-1.91-4.36-.09-.89-.04-1.85.22-2.8.23-.96.75-1.87,1.27-2.75.52-.88,1.1-1.78,1.34-2.79.25-1-.03-2.09-.78-2.88-.74-.81-1.77-1.39-2.78-2.07-.51-.34-1.02-.71-1.48-1.16-.46-.47-.85-1.01-1.14-1.6-1.11-2.38-.7-5.59,1.43-7.51,1.08-.94,2.38-1.36,3.46-2,.54-.32,1.03-.69,1.37-1.16.33-.47.53-1.03.51-1.61-.02-1.16-.65-2.25-1.37-3.16-.74-.91-1.64-1.72-2.36-2.66-.73-.93-1.28-2.07-1.24-3.26.01-1.18.51-2.24,1.11-3.1,1.25-1.75,2.99-2.75,4.42-3.7,1.46-.94,2.71-1.92,3.45-3.06.73-1.13.92-2.36.83-3.3-.09-.95-.48-1.63-.83-1.99-.34-.37-.6-.49-.57-.52,0,0,.27.08.66.44.39.35.84,1.05.97,2.05.13.99-.02,2.28-.77,3.51-.76,1.22-2.05,2.25-3.5,3.23-1.44.98-3.1,1.98-4.25,3.64-.56.81-.99,1.78-.99,2.81-.02,1.03.46,2.04,1.15,2.92.69.89,1.57,1.68,2.37,2.64.76.96,1.48,2.12,1.51,3.52.02.69-.21,1.39-.62,1.96-.41.57-.98.99-1.55,1.33-1.15.68-2.42,1.11-3.37,1.94-1.91,1.69-2.3,4.67-1.3,6.81.26.54.6,1.02,1.01,1.44.42.41.9.76,1.4,1.1.98.67,2.05,1.27,2.88,2.18.85.89,1.19,2.24.89,3.37-.28,1.14-.9,2.05-1.42,2.93-.54.87-1.02,1.71-1.25,2.61-.25.89-.32,1.79-.24,2.64.14,1.7.84,3.16,1.74,4.17.9,1.02,1.93,1.65,2.82,2.02,1.8.73,2.94.56,2.92.64Z"/>
          </g>
          <g>
            <path class="st12" d="M304.19,186.86l-1.41-4.29-27.27,4.12c-8.17,1.93-13.92,12.83-11.64,20.91,2.53,8.98,5.98,19.85,9.32,26.04,6.72,12.45,17.42,10.58,17.42,10.58l9.94,26.35,19.73-33.78-16.09-49.92Z"/>
            <path class="st2" d="M270.03,215.93c.28.9,1.28,1.41,2.23,1.13.95-.28,1.49-1.23,1.21-2.14-.28-.9-1.28-1.41-2.23-1.13-.95.28-1.49,1.23-1.21,2.14Z"/>
            <path class="st2" d="M268.63,212.22c.29.15,1.23-1.25,3.06-1.89,1.81-.66,3.47-.19,3.59-.48.06-.13-.29-.46-1.02-.67-.72-.22-1.84-.29-2.97.12-1.13.4-1.94,1.16-2.34,1.78-.41.63-.46,1.09-.32,1.15Z"/>
            <path class="st2" d="M287.48,210.59c.28.9,1.28,1.41,2.23,1.13.95-.28,1.49-1.23,1.21-2.14-.28-.9-1.28-1.41-2.23-1.13-.95.28-1.49,1.23-1.21,2.14Z"/>
            <path class="st2" d="M286.63,206.28c.29.15,1.24-1.25,3.06-1.89,1.81-.66,3.47-.19,3.59-.49.06-.13-.29-.46-1.02-.67-.72-.22-1.84-.29-2.97.12-1.13.4-1.94,1.16-2.34,1.78-.41.63-.46,1.09-.32,1.15Z"/>
            <path class="st2" d="M284.77,222.09c-.03-.11-1.23.1-3.14.51-.48.12-.95.18-1.14-.11-.23-.3-.21-.87-.17-1.49.04-1.28.09-2.62.13-4.02.14-5.71.06-10.33-.16-10.34-.23,0-.53,4.62-.67,10.33-.02,1.4-.05,2.74-.07,4.02,0,.59-.08,1.29.4,1.91.25.3.68.44,1,.41.33-.01.59-.1.83-.17,1.88-.55,3.03-.94,3-1.05Z"/>
            <path class="st6" d="M290.63,244.25s9.51-2.73,16.44-11.1c0,0-1.21,10.79-15.28,14.38l-1.16-3.28Z"/>
            <path class="st6" d="M287.08,226.21c.35-1.1,1.33-1.97,2.51-2.25.82-.19,1.75-.09,2.46.38s1.13,1.35.91,2.12c-.25.86-1.22,1.38-2.17,1.44-.96.06-1.9-.25-2.81-.57-.25-.09-.51-.18-.71-.36-.2-.17-.32-.45-.23-.68"/>
            <path class="st8" d="M293.85,199.59c-.24-.5-2.13-.06-4.41-.1-2.28,0-4.16-.47-4.41.03-.11.24.26.7,1.04,1.12.78.43,1.99.79,3.36.8,1.37,0,2.58-.33,3.37-.75.79-.42,1.17-.87,1.06-1.11Z"/>
            <path class="st8" d="M271.89,204c-.54-.1-1.24,1.11-2.43,2.18-1.15,1.11-2.41,1.73-2.34,2.28.04.26.49.45,1.21.37.71-.07,1.66-.46,2.47-1.21.8-.75,1.25-1.68,1.38-2.38.13-.71-.03-1.17-.28-1.23Z"/>
            <path class="st8" d="M255.49,192.48c3.58,4.01,10.53,9.49,15.8,8.42,5.27-1.06,9.84-5.08,11.58-10.17,2.02,3.52,6.88,4.14,10.89,3.5,2.84-.45,5.68-1.36,7.88-3.22,2.2-1.85,3.63-4.78,3.15-7.61-.48-2.83-6.51-8.18-9.36-7.79"/>
          </g>
          <path class="st2" d="M293.23,224.15c.11.27-1.38.93-3.16,1.71-1.77.8-3.25,1.47-3.44,1.24-.18-.21,1.03-1.26,2.92-2.12,1.9-.84,3.59-1.08,3.68-.84Z"/>
          <path class="st14" d="M296.9,209.52c.12.07-.57,1.28-1.98,2.19-1.41.92-2.8,1.05-2.81.91-.03-.15,1.21-.5,2.52-1.36,1.32-.84,2.14-1.84,2.27-1.74Z"/>
          <path class="st14" d="M281.5,200.58c.12.07-.85,1.56-2.75,2.56-1.88,1.02-3.67.99-3.66.86-.02-.16,1.64-.37,3.41-1.33,1.78-.93,2.88-2.2,3-2.09Z"/>
          <path class="st14" d="M279.46,200.35c.12.08-.5,1-1.71,1.52-1.21.53-2.3.35-2.28.21,0-.16.99-.22,2.07-.7,1.09-.46,1.81-1.13,1.92-1.03Z"/>
          <path class="st14" d="M295.99,225.23c-.15-.02-.2-.44-.3-.93-.1-.48-.22-.89-.09-.97.12-.08.49.27.61.86.12.59-.08,1.06-.22,1.04Z"/>
        </g>
        <g>
          <g>
            <path class="st13" d="M278.11,252.86s-1.99,2.29-2.46,9.92-1.09,24.2-1.09,24.2l8.66-2.14.28-29.76-5.39-2.22Z"/>
            <path class="st12" d="M297.92,252.07l21.13,46.38,6.87-18.38,28.42-3.73s-18.67,58.49-28.21,58.08c-3.23-.14-6.01-.52-8.27-.96-4.13-.8-7.49-3.81-8.8-7.81l-18.45-56.07,7.31-17.52Z"/>
            <g>
              <path class="st12" d="M283.42,261.99l-.2,22.85-6.44,1.59s-.15,30.99,3.41,35.59c3.56,4.6,2.25,7.07,9.45,7.6,7.2.53,10.2-1.06,10.38-1.59.18-.53,5.31-13.74,5.31-13.74l-9.56-49.98-12.35-2.32Z"/>
              <g>
                <path class="st7" d="M293.05,265.97l-21.9-34.68s-1.06-.72-1.54,1.65c-.48,2.37,2.39,16.87,2.39,16.87l11.41,12.18"/>
                <path class="st14" d="M283.42,261.99s-.09-.06-.23-.2c-.17-.17-.38-.37-.63-.62-.58-.6-1.36-1.4-2.35-2.42-2.04-2.15-4.91-5.16-8.36-8.79l-.04-.04v-.06c-.56-2.76-1.14-5.81-1.67-9.08-.26-1.64-.52-3.33-.7-5.08-.07-.89-.19-1.75-.08-2.73.08-.46.2-.92.45-1.37.13-.22.3-.45.58-.58.29-.14.63-.13.92.05l.04.03.03.05c.39.62.81,1.28,1.23,1.95,5.67,9.04,10.8,17.21,14.55,23.19,1.82,2.94,3.3,5.34,4.36,7.06.48.8.87,1.45,1.16,1.93.26.45.39.68.37.69-.02,0-.18-.21-.47-.64-.31-.47-.73-1.1-1.25-1.88-1.09-1.69-2.62-4.06-4.5-6.97-3.78-5.96-8.96-14.1-14.68-23.11-.42-.67-.84-1.33-1.23-1.95l.08.08c-.24-.15-.55,0-.75.36-.19.34-.32.77-.39,1.19-.1.81,0,1.73.08,2.58.18,1.73.43,3.42.68,5.06.52,3.27,1.07,6.32,1.59,9.08l-.06-.11c3.4,3.68,6.22,6.74,8.23,8.92.95,1.05,1.7,1.88,2.26,2.5.23.27.42.49.58.67.13.15.19.24.18.24Z"/>
              </g>
              <g>
                <path class="st7" d="M307.09,319.66l-15.78-49.09s-14.27-20.17-15.44-22.8c-1.17-2.63-5.85-12.28-3.95-14.62,0,0-2.51-4.97-.45-5.7,2.06-.73,3.52,1.9,3.52,1.9,0,0-.79-2.79.22-3.46,1.56-1.04,3.29,1.12,3.29,1.12h0s1.61-1.75,4.24,1.32c0,0,13.01,15.05,14.32,15.93,1.32.88,3.07-2.92,3.07-2.92,0,0,1.17-7.02,1.75-7.45.58-.44,1.9-.88,1.9-.88,0,0,.73,9.94,0,13.01-.73,3.07-1.63,12.53-1.63,12.53l16.9,39.9"/>
                <path class="st14" d="M319.06,298.45s-.12-.23-.33-.7c-.21-.49-.52-1.18-.91-2.08-.8-1.85-1.96-4.54-3.44-7.98-2.96-6.94-7.22-16.9-12.41-29.06l-.02-.05v-.05c.4-3.85.76-7.92,1.54-12.17.46-2.06.39-4.27.38-6.5-.04-2.23-.16-4.52-.32-6.83l.32.22c-.35.12-.71.26-1.06.42-.17.08-.34.16-.51.26-.08.05-.16.09-.23.15-.07.07-.05.06-.1.15-.29.67-.46,1.49-.65,2.27-.35,1.59-.66,3.24-.94,4.9v.04s-.02.03-.02.03c-.27.56-.57,1.1-.92,1.62-.37.51-.73,1.05-1.35,1.4-.29.18-.78.27-1.14.02-.29-.21-.52-.44-.74-.66-.45-.44-.87-.9-1.31-1.36-1.71-1.85-3.42-3.76-5.14-5.7-1.71-1.95-3.45-3.93-5.2-5.93-.88-.98-1.74-2.07-2.65-2.98-.47-.44-1-.83-1.59-.99-.57-.19-1.23-.05-1.63.33l-.22.21-.19-.22c-.26-.31-.6-.63-.97-.88-.39-.26-.83-.44-1.26-.42-.21.02-.42.06-.6.18-.19.1-.28.21-.36.42-.27.83-.07,1.89.15,2.8l.41,1.7-.9-1.49c-.43-.71-1.04-1.39-1.77-1.71-.68-.32-1.72-.22-1.94.46-.25.7-.05,1.61.18,2.41.24.82.56,1.63.93,2.39l.07.15-.1.14c-.49.67-.42,1.72-.3,2.63.14.94.38,1.87.66,2.78.56,1.83,1.27,3.6,2.01,5.33.38.86.76,1.72,1.14,2.57.38.87.77,1.66,1.27,2.44.97,1.56,1.98,3.08,2.98,4.58,4.02,5.98,7.94,11.58,11.6,16.79l.02.03v.03c4.72,14.78,8.64,27.06,11.38,35.66,1.35,4.28,2.41,7.65,3.14,9.96.35,1.13.62,2.01.81,2.63.18.59.25.91.25.91,0,0-.12-.3-.32-.89-.2-.61-.5-1.48-.87-2.61-.76-2.31-1.86-5.66-3.26-9.93-2.79-8.59-6.76-20.85-11.55-35.61l.03.06c-3.68-5.2-7.61-10.79-11.65-16.77-1.01-1.5-2.02-3.01-3-4.59-.51-.77-.94-1.65-1.3-2.49-.38-.85-.76-1.71-1.15-2.58-.75-1.74-1.46-3.52-2.04-5.38-.29-.93-.53-1.88-.68-2.86-.07-.49-.11-1-.08-1.51.03-.51.14-1.06.49-1.53l-.03.29c-.39-.8-.72-1.62-.97-2.48-.13-.43-.23-.87-.28-1.33-.06-.45-.05-.94.12-1.43.15-.5.73-.89,1.19-.93.49-.1,1.01-.02,1.46.18.9.41,1.53,1.14,2.02,1.94l-.49.2c-.23-1.01-.48-2.02-.13-3.14.08-.27.34-.57.6-.69.25-.16.55-.22.84-.25.6-.02,1.13.22,1.58.51.42.29.78.62,1.09.99h-.41c.6-.59,1.45-.72,2.16-.5.72.21,1.31.64,1.81,1.12.99.99,1.79,2.02,2.68,3.02,1.75,2,3.49,3.98,5.2,5.93,1.72,1.94,3.42,3.86,5.12,5.7.43.45.85.92,1.29,1.35.22.23.44.43.65.59.18.12.39.09.62-.04.46-.25.84-.76,1.17-1.24.33-.49.63-1.02.88-1.55l-.02.06c.29-1.67.59-3.32.95-4.93.19-.81.35-1.58.69-2.39.03-.09.17-.27.25-.33.09-.07.18-.12.27-.17.18-.1.37-.19.55-.28.37-.17.73-.31,1.11-.43l.3-.1.02.32c.16,2.33.26,4.61.3,6.86.02,1.12.02,2.24-.02,3.34-.04,1.09-.13,2.22-.38,3.27-.78,4.19-1.16,8.29-1.57,12.12l-.02-.1c5.12,12.19,9.32,22.17,12.24,29.13,1.44,3.46,2.56,6.16,3.34,8.03.37.91.66,1.61.86,2.1.19.48.27.73.27.73Z"/>
              </g>
              <path class="st13" d="M340.63,245.12c-9.63.62-13.2,6.82-16.35,18.86-3.15,12.04-3.18,19.53-3.18,19.53l32.19,5.22s6.39-28.26,5.68-32.88c-.71-4.63-7.48-11.44-18.34-10.73Z"/>
              <path class="st14" d="M289.63,243.69s-.89-.72-2.1-2.08c-1.22-1.36-2.79-3.35-4.32-5.69-1.53-2.34-2.74-4.56-3.55-6.2-.81-1.64-1.23-2.69-1.17-2.72.07-.03.61.95,1.5,2.54.89,1.59,2.14,3.76,3.66,6.08,1.52,2.32,3.02,4.32,4.16,5.74,1.13,1.42,1.87,2.27,1.81,2.33Z"/>
              <path class="st14" d="M285.15,246.11c-.06.04-.72-.81-1.74-2.23-1.01-1.42-2.38-3.41-3.79-5.67-1.41-2.27-2.56-4.39-3.33-5.96-.76-1.57-1.15-2.58-1.09-2.61.07-.03.58.92,1.43,2.44.84,1.52,2.04,3.6,3.44,5.86,1.37,2.16,2.62,4.12,3.65,5.74.93,1.47,1.48,2.4,1.42,2.44Z"/>
              <path class="st14" d="M280.18,247.96s-.74-.63-1.7-1.84c-.96-1.21-2.17-3-3.29-5.08-1.12-2.08-1.97-4.05-2.52-5.5-.55-1.45-.81-2.37-.75-2.39.16-.06,1.51,3.51,3.74,7.63,1.11,2.06,2.25,3.85,3.13,5.11.87,1.26,1.46,2.02,1.4,2.07Z"/>
              <path class="st14" d="M324.43,308.9c-.16.03-.66-2.7-2.19-5.72-1.5-3.03-3.4-5.06-3.28-5.17.08-.1,2.21,1.81,3.76,4.93,1.57,3.1,1.84,5.96,1.71,5.96Z"/>
              <path class="st2" d="M358.49,254.4s.47.83.74,2.53c.28,1.7.16,4.23-.42,7.29-1.1,6.13-2.83,14.73-5.27,24.57l-.06.23-.24-.04c-4.01-.7-8.34-1.46-12.8-2.25-7.26-1.29-14.13-2.51-20.2-3.59l-.23-.04.03-.23c1.15-8.09,2.75-14.81,4.05-19.48.65-2.34,1.21-4.16,1.62-5.41.2-.59.36-1.06.48-1.42.11-.32.18-.48.19-.48.01,0-.03.18-.12.5-.1.36-.24.84-.41,1.44-.36,1.26-.88,3.1-1.49,5.44-1.21,4.68-2.74,11.4-3.85,19.47l-.2-.27c6.08,1.06,12.95,2.27,20.21,3.54,4.47.79,8.79,1.56,12.8,2.27l-.29.19c2.47-9.82,4.26-18.4,5.45-24.51.62-3.05.79-5.53.57-7.21-.21-1.68-.61-2.53-.56-2.55Z"/>
              <path class="st14" d="M283.5,261.32s.03.18.04.52c0,.4,0,.89.01,1.48,0,1.37-.02,3.21-.03,5.45-.03,4.67-.07,10.99-.11,17.97-.05,7.02-.13,13.37-.27,17.97-.06,2.3-.13,4.16-.2,5.44-.04.59-.06,1.08-.09,1.48-.03.34-.05.52-.07.51-.02,0-.03-.18-.04-.52,0-.4,0-.89-.01-1.48,0-1.37.02-3.21.03-5.45.03-4.67.07-10.99.11-17.97.05-7.02.13-13.37.27-17.97.06-2.3.13-4.16.2-5.44.04-.59.06-1.08.09-1.48.03-.34.05-.52.07-.51Z"/>
            </g>
          </g>
          <path class="st14" d="M296.63,271.38s.15-.09.27-.3c.12-.2.18-.62-.05-.98-.23-.39-.74-.65-1.3-1.1-.27-.23-.55-.53-.68-.96-.14-.46.06-.92.15-1.23.2-.61-.3-1.18-.77-1.59-.49-.42-1.01-.88-1.15-1.47-.12-.59.13-1.05.39-1.23.28-.19.47-.12.46-.1,0,.04-.16.06-.32.25-.16.18-.3.57-.17.98.14.41.58.78,1.1,1.2.26.22.55.47.77.82.23.33.34.85.2,1.28-.12.42-.24.69-.16.96.07.27.28.52.5.73.46.4,1.04.75,1.3,1.28.27.54.1,1.06-.11,1.29-.23.24-.44.2-.44.18Z"/>
        </g>
        <g>
          <path class="st8" d="M318.04,247.95c1.57,4.24,6.05,7.2,10.56,6.98.94,3.54,4.66,6.13,8.31,5.76,3.65-.36,6.79-3.62,7.01-7.28.06-.96-.05-1.96.29-2.85.8-2.06,3.45-2.51,5.26-3.77,3.26-2.28,3.46-7.19,1.9-10.84-.31-.72-.68-1.43-.79-2.21-.24-1.59.59-3.11,1.09-4.63,2.06-6.27-1.75-13.29-7.27-16.9-1.84-1.21-4.05-2.38-4.57-4.51-.29-1.19.03-2.44.13-3.66.3-3.97-2.11-8-5.76-9.61-.56-.25-1.18-.47-1.51-.99-.21-.33-.26-.73-.33-1.11-1.06-5.78-7.29-10.08-13.07-9.02-.35.06-.7.15-1.05.08-1-.18-1.38-1.36-1.79-2.28-1.08-2.45-4.49-6.59-6.94-7.65-6.8-2.95-10.87,2.39-12.2,4.72,0,0,1.91,19.42,3.67,22.6,1.76,3.19,6.86,10.91,7.05,15.07.19,4.16.98,12.56,3.61,15.56,2.62,3,6.4,16.56,6.4,16.56Z"/>
          <path class="st0" d="M320.18,182.94s-.16.31-.54.79c-.37.49-.96,1.16-1.74,1.94-1.56,1.56-3.98,3.47-7.01,4.98-3.03,1.5-6.02,2.26-8.21,2.56-1.09.15-1.98.22-2.6.21-.62,0-.96-.01-.96-.06,0-.1,1.35-.17,3.49-.57,2.13-.4,5.04-1.21,8.01-2.68,2.96-1.47,5.38-3.29,6.98-4.75,1.61-1.46,2.49-2.49,2.57-2.43Z"/>
          <path class="st0" d="M322.33,183.7s.02.43-.06,1.21c-.03.39-.09.86-.21,1.4-.11.54-.21,1.17-.42,1.83-.35,1.35-.94,2.91-1.75,4.57-.84,1.64-1.93,3.37-3.28,5.03-1.37,1.64-2.87,3.03-4.32,4.17-1.48,1.11-2.9,1.98-4.16,2.58-.61.33-1.21.55-1.72.76-.51.22-.96.36-1.34.47-.75.22-1.16.32-1.17.28-.04-.11,1.62-.59,4.04-1.89,1.22-.64,2.59-1.53,4.01-2.64,1.41-1.14,2.86-2.51,4.2-4.11,1.32-1.62,2.39-3.3,3.25-4.9.82-1.61,1.44-3.13,1.84-4.44.82-2.62.97-4.34,1.09-4.32Z"/>
          <path class="st0" d="M333.58,254.57s.23-.06.62-.27c.38-.21.9-.63,1.26-1.39.36-.74.53-1.79.2-2.93-.3-1.14-1.03-2.31-1.85-3.58-.79-1.27-1.8-2.79-1.76-4.72.03-1.91,1.02-3.67,1.83-5.48.4-.91.78-1.86.87-2.85.12-.99-.24-1.99-.93-2.74-.69-.75-1.7-1.21-2.74-1.56-1.05-.36-2.17-.62-3.29-1.02-1.1-.39-2.24-.95-2.99-1.94-.76-.98-.9-2.3-.67-3.41.45-2.22,1.64-4.09,1.47-6.03-.12-1.94-1.5-3.44-2.86-4.49-1.4-1.07-2.89-1.8-4.27-2.45-1.38-.66-2.59-1.35-3.58-2.07-.98-.73-1.73-1.5-2.21-2.23-.48-.72-.68-1.38-.79-1.81-.08-.45-.1-.68-.08-.69.08-.03.09.99,1.06,2.37.96,1.39,3.01,2.81,5.78,4.04,1.38.62,2.92,1.35,4.39,2.44.73.55,1.44,1.19,2.02,2,.59.79,1.01,1.78,1.09,2.84.19,2.18-1.05,4.12-1.44,6.18-.2,1.02-.08,2.12.57,2.95.63.84,1.64,1.35,2.71,1.73,1.07.38,2.19.64,3.28,1.02,1.08.37,2.18.86,2.98,1.73.8.86,1.21,2.07,1.07,3.18-.11,1.12-.52,2.11-.94,3.03-.84,1.83-1.79,3.53-1.83,5.26-.06,1.73.86,3.2,1.62,4.48.8,1.28,1.53,2.51,1.82,3.73.32,1.21.1,2.35-.31,3.12-.41.79-.99,1.21-1.41,1.39-.43.18-.67.16-.67.16Z"/>
        </g>
      </g>
    </g>
  </g>
  <g id="Floor">
    <path class="st2" d="M454.63,476.28c0,.15-90.65.27-202.46.27s-202.48-.12-202.48-.27,90.64-.27,202.48-.27,202.46.12,202.46.27Z"/>
  </g>
  <g id="Speech_Bubbles">
    <circle class="st0" cx="213.69" cy="182.21" r="22.04" transform="translate(-24.97 34.2) rotate(-8.65)"/>
    <g>
      <path class="st2" d="M238.55,195.51s-.23.06-.61.26c-.37.2-.87.6-1.2,1.28-.16.34-.28.74-.28,1.17,0,.43.12.9.38,1.31.51.82,1.6,1.46,2.72,1.28,1.12-.2,1.94-1.16,2.15-2.11.12-.48.07-.96-.07-1.37-.15-.41-.39-.75-.66-1.01-.54-.53-1.14-.75-1.55-.81-.42-.07-.66-.03-.66-.05,0,0,.06-.02.17-.03.06,0,.13-.01.21-.01.08,0,.18,0,.29.02.43.04,1.07.25,1.64.79.28.27.55.62.71,1.06.16.44.22.96.09,1.47-.11.51-.38,1.02-.77,1.43-.39.42-.93.73-1.53.84-.6.09-1.21-.02-1.72-.29-.51-.26-.93-.65-1.2-1.09-.28-.44-.4-.95-.39-1.42.01-.47.15-.89.33-1.24.37-.7.9-1.1,1.29-1.28.1-.05.19-.08.27-.11.08-.03.15-.05.2-.06.11-.02.17-.03.17-.03Z"/>
      <path class="st2" d="M246.23,201.64s-.14.05-.37.18c-.23.13-.53.38-.74.8-.21.41-.27,1.02.07,1.54.32.51.99.9,1.68.79.69-.12,1.19-.72,1.32-1.3.15-.6-.11-1.15-.44-1.47-.33-.33-.7-.47-.96-.52-.26-.05-.41-.03-.41-.05,0,0,.15-.06.42-.03.27.02.68.15,1.05.49.18.17.35.4.46.68.1.28.14.61.06.94-.14.65-.68,1.31-1.47,1.46-.79.12-1.53-.32-1.87-.89-.18-.28-.26-.61-.25-.91,0-.3.1-.57.21-.79.24-.45.58-.7.83-.81.25-.11.41-.12.41-.11Z"/>
      <path class="st2" d="M235.86,181.52s-.02-.12-.04-.36c-.02-.24-.05-.59-.1-1.05-.02-.23-.04-.49-.07-.77-.04-.28-.11-.59-.17-.92-.06-.33-.13-.69-.2-1.07-.03-.19-.08-.39-.14-.58-.06-.2-.12-.4-.18-.61-.44-1.7-1.3-3.7-2.63-5.8-1.34-2.1-3.24-4.27-5.8-6.09-.32-.22-.65-.45-.98-.68-.34-.21-.7-.4-1.06-.6-.18-.1-.36-.2-.54-.3-.18-.1-.36-.21-.56-.29-.38-.17-.77-.34-1.16-.51-.2-.09-.39-.18-.59-.26-.21-.07-.41-.14-.62-.2-.41-.14-.83-.27-1.25-.41-.43-.13-.87-.2-1.31-.31-.22-.05-.44-.1-.67-.15-.11-.02-.22-.05-.34-.07l-.34-.04c-.92-.1-1.84-.26-2.8-.24-.48,0-.96-.03-1.44-.01-.48.04-.97.08-1.46.12-.24.02-.49.03-.73.07-.24.05-.49.09-.73.14-.49.1-.99.17-1.48.29-.96.29-1.97.52-2.91.95-.24.1-.48.19-.72.29-.12.05-.24.09-.36.15l-.35.18c-.46.24-.93.49-1.4.73-.46.27-.89.57-1.35.86-.22.15-.46.28-.67.45l-.63.51c-.88.64-1.64,1.44-2.43,2.2-.36.42-.72.84-1.08,1.27l-.27.32c-.08.11-.16.23-.24.34l-.48.69-.49.69-.42.74-.42.74-.21.37c-.06.13-.12.26-.18.39-.23.52-.47,1.05-.7,1.58-.18.55-.36,1.1-.55,1.65-.65,2.23-.97,4.59-.92,6.99.1,2.39.56,4.73,1.35,6.92.22.54.43,1.08.65,1.61.27.51.53,1.02.8,1.53l.2.38.23.36.47.72.47.71.53.66.53.66.26.33.29.3c.39.4.77.8,1.16,1.2.84.72,1.65,1.46,2.57,2.05l.66.47c.22.16.46.27.69.41.47.26.92.54,1.4.78.48.22.97.43,1.44.64l.36.16c.12.05.25.08.37.13.25.08.49.16.74.25.97.37,1.98.54,2.97.77.5.09,1,.13,1.49.19.25.03.49.06.74.09.25.02.49.02.74.02.49.01.98.02,1.46.03.48,0,.96-.07,1.44-.1.95-.03,1.87-.25,2.78-.41l.34-.06c.11-.03.22-.06.33-.09.22-.06.44-.13.66-.19.43-.13.87-.24,1.29-.39.41-.17.82-.33,1.23-.49.2-.08.4-.16.6-.24.19-.1.38-.2.57-.29.38-.2.76-.39,1.13-.58.19-.09.36-.2.54-.32.17-.11.35-.23.52-.34.34-.23.69-.44,1.02-.67.31-.25.62-.5.93-.74,2.44-1.97,4.21-4.26,5.41-6.43.15-.27.31-.54.45-.8.12-.27.24-.54.36-.81.12-.26.23-.52.35-.78.05-.13.12-.25.16-.38.04-.13.09-.26.13-.38.17-.51.33-.99.49-1.45.14-.47.22-.92.33-1.35.05-.21.1-.42.14-.62.05-.2.09-.4.11-.59.05-.39.09-.75.14-1.08.04-.34.09-.64.11-.93,0-.28.01-.54.02-.78.01-.46.02-.81.03-1.05,0-.24.02-.36.02-.36,0,0,0,.12,0,.36,0,.24,0,.59-.01,1.05,0,.23,0,.49-.01.78-.02.29-.06.6-.1.93-.04.34-.08.7-.13,1.09-.02.2-.05.39-.1.6-.04.2-.09.41-.14.63-.1.43-.18.89-.32,1.36-.15.47-.31.95-.48,1.46-.04.13-.08.26-.13.39-.05.13-.11.25-.16.38-.11.26-.23.52-.35.78-.12.27-.24.54-.36.81-.14.27-.3.53-.45.81-1.2,2.19-2.97,4.5-5.42,6.49-.31.25-.62.5-.94.75-.33.23-.68.45-1.02.68-.17.11-.35.23-.52.34-.17.12-.35.23-.54.32-.37.2-.75.39-1.13.59-.19.1-.38.2-.58.3-.2.08-.4.16-.61.25-.41.16-.82.33-1.23.5-.42.15-.86.26-1.3.39-.22.06-.44.13-.66.19-.11.03-.22.07-.33.09l-.34.06c-.91.16-1.84.38-2.8.42-.48.03-.96.09-1.45.1-.49,0-.98-.02-1.47-.03-.25,0-.5,0-.74-.02-.25-.03-.5-.06-.74-.09-.5-.07-1-.11-1.5-.19-.99-.23-2.01-.4-2.99-.77-.25-.08-.5-.16-.75-.25-.12-.04-.25-.08-.37-.13l-.36-.16c-.48-.21-.97-.43-1.46-.65-.48-.24-.94-.52-1.41-.78-.23-.14-.48-.26-.7-.41l-.67-.47c-.92-.59-1.74-1.34-2.59-2.06-.39-.4-.78-.8-1.17-1.21l-.29-.3-.27-.33-.53-.67-.53-.67-.47-.72-.47-.72-.24-.36-.2-.38c-.27-.51-.53-1.03-.8-1.55-.22-.54-.44-1.08-.65-1.63-.79-2.21-1.26-4.57-1.36-6.98-.04-2.41.28-4.8.93-7.05.19-.56.37-1.11.55-1.67.24-.53.47-1.06.71-1.59.06-.13.12-.27.18-.39l.21-.38.42-.75.43-.74.49-.7.49-.7c.08-.12.16-.23.25-.35l.27-.32c.37-.43.73-.85,1.09-1.28.81-.77,1.57-1.57,2.46-2.22l.64-.51c.21-.17.45-.3.67-.45.46-.29.9-.6,1.36-.87.47-.25.95-.49,1.42-.74l.35-.18c.12-.05.24-.1.37-.15.24-.1.49-.19.73-.29.95-.43,1.97-.66,2.94-.96.49-.12,1-.19,1.49-.29.25-.05.49-.09.74-.14.25-.04.49-.05.74-.07.49-.04.98-.08,1.47-.12.49-.02.97.01,1.45.01.96-.02,1.9.14,2.82.24l.34.04c.11.02.23.05.34.07.22.05.45.1.67.15.44.11.89.19,1.32.31.42.14.85.28,1.26.42.21.07.42.14.62.21.2.08.4.18.59.26.39.18.78.35,1.17.52.2.08.38.18.56.29.18.1.36.21.54.31.36.21.72.4,1.06.61.33.23.66.46.98.69,2.57,1.84,4.48,4.03,5.81,6.15,1.32,2.12,2.18,4.13,2.61,5.84.06.21.12.42.18.62.06.2.11.39.14.59.07.38.13.74.19,1.08.06.33.12.64.16.92.02.29.04.54.06.78.03.46.06.81.08,1.05.02.24.02.36.02.36Z"/>
    </g>
    <g>
      <path class="st11" d="M207.79,178h3.15s0-2.66,2.74-2.71c1.43-.03,2.17.9,2.47,1.62.35.83.25,1.78-.22,2.55-.53.88-1.7,1.69-3.82,1.32l.03,7.1h3.12s-.01-4.17-.01-4.17c0,0,4.36-1.15,4.35-5.96-.02-4.61-4.15-5.66-5.92-5.66-1.35,0-5.96.35-5.88,5.91Z"/>
      <rect class="st11" x="212.14" y="189.34" width="3.16" height="2.95" transform="translate(-.69 .77) rotate(-.21)"/>
    </g>
    <circle class="st0" cx="347.24" cy="140.98" r="23.68" transform="translate(-27.03 121.68) rotate(-19.15)"/>
    <g>
      <path class="st2" d="M325.74,162.33s.26,0,.7.09c.44.09,1.08.35,1.63.95.27.3.52.67.65,1.12.13.45.16.96,0,1.47-.27,1-1.19,2-2.41,2.16-1.22.14-2.35-.6-2.86-1.51-.27-.45-.37-.96-.35-1.43.02-.47.17-.89.36-1.25.39-.71.94-1.12,1.35-1.31.41-.2.67-.23.66-.25,0,0-.06,0-.19.02-.06,0-.14.02-.22.05-.09.02-.19.06-.29.1-.43.18-1.02.58-1.45,1.32-.21.37-.37.81-.41,1.31-.03.5.07,1.05.36,1.54.27.49.7.93,1.23,1.23.53.31,1.18.47,1.83.39.65-.09,1.24-.4,1.68-.83.44-.42.75-.95.9-1.5.16-.54.12-1.1-.03-1.58-.16-.48-.42-.87-.72-1.17-.59-.61-1.27-.86-1.72-.92-.11-.02-.22-.03-.31-.03-.09,0-.17,0-.23,0-.12.01-.19.02-.18.03Z"/>
      <path class="st2" d="M319.73,171.01s.16,0,.44.07c.27.06.67.23,1.01.6.34.36.59.97.4,1.6-.17.62-.74,1.23-1.48,1.33-.75.09-1.45-.37-1.76-.93-.34-.57-.24-1.22,0-1.65.24-.44.58-.7.83-.83.25-.13.41-.15.41-.17,0,0-.17-.01-.45.1-.27.11-.65.36-.93.83-.13.23-.24.52-.27.84-.02.32.04.67.22.99.34.63,1.11,1.14,1.97,1.05.85-.12,1.47-.8,1.65-1.49.1-.35.08-.71-.02-1.01-.1-.31-.27-.56-.46-.75-.38-.39-.81-.54-1.1-.58-.3-.04-.46,0-.46.01Z"/>
      <path class="st2" d="M324.2,147.09s-.02-.13-.07-.38c-.05-.26-.13-.63-.22-1.11-.05-.24-.11-.52-.17-.82-.05-.3-.07-.64-.11-1-.04-.36-.08-.75-.12-1.17-.03-.21-.04-.42-.03-.65,0-.22,0-.45,0-.69-.07-1.89.2-4.21.92-6.78.73-2.57,2.02-5.4,4.1-8.06.26-.33.53-.66.79-1,.29-.32.6-.63.9-.95.15-.16.31-.32.46-.48.15-.16.31-.32.48-.46.34-.29.69-.59,1.04-.89.18-.15.35-.3.53-.45.19-.13.38-.27.57-.4.38-.27.77-.54,1.16-.81.4-.26.83-.48,1.25-.72.21-.12.43-.24.64-.36.11-.06.21-.12.32-.18l.34-.15c.91-.39,1.82-.84,2.81-1.11.49-.15.97-.33,1.48-.45.51-.11,1.02-.22,1.54-.33.26-.05.52-.12.78-.15.26-.03.53-.06.79-.09.53-.05,1.07-.13,1.61-.16,1.08,0,2.19-.07,3.29.08.28.03.55.05.83.08.14.01.28.02.42.04l.41.08c.55.11,1.11.21,1.67.32.55.13,1.1.32,1.65.47.27.09.56.15.83.26l.81.33c1.1.39,2.13.97,3.18,1.52.5.32,1,.65,1.5.97l.38.24c.12.09.24.19.36.28l.71.56.71.56.66.63.66.64.33.32c.1.11.2.23.3.35.4.47.8.94,1.21,1.41.36.51.71,1.02,1.07,1.53,1.36,2.1,2.41,4.43,3.1,6.91.63,2.49.88,5.04.74,7.54-.06.62-.11,1.24-.17,1.86-.12.61-.23,1.22-.35,1.82l-.09.45-.13.44-.26.88-.26.88-.34.84-.34.84-.17.42-.21.4c-.28.53-.55,1.06-.82,1.59-.65,1-1.25,2.01-2.01,2.9l-.54.68c-.18.23-.39.42-.59.64-.4.41-.79.84-1.2,1.23-.43.37-.86.74-1.29,1.11l-.32.27c-.11.09-.23.16-.34.24-.23.16-.46.32-.69.48-.88.68-1.88,1.16-2.82,1.71-.48.24-.99.44-1.47.66-.24.11-.49.21-.73.32-.25.1-.5.17-.75.25-.5.16-1,.32-1.49.48-.5.14-1.01.23-1.51.34-.99.26-2,.32-2.99.43l-.37.04c-.12,0-.25,0-.37,0-.25,0-.49,0-.73,0-.49,0-.97.03-1.45,0-.48-.04-.95-.09-1.41-.13-.23-.02-.47-.04-.7-.06-.23-.04-.46-.08-.68-.13-.45-.09-.9-.17-1.34-.25-.22-.03-.44-.1-.65-.16-.21-.06-.43-.12-.64-.19-.42-.13-.84-.24-1.25-.37-.4-.16-.8-.32-1.19-.48-3.12-1.28-5.65-3.09-7.56-4.96-.24-.23-.48-.46-.71-.68-.21-.24-.42-.49-.62-.72-.2-.24-.4-.47-.6-.69-.1-.11-.2-.22-.29-.34-.08-.12-.17-.24-.25-.36-.33-.47-.65-.92-.95-1.35-.29-.44-.51-.88-.75-1.29-.12-.21-.23-.4-.34-.6-.11-.19-.22-.38-.29-.58-.17-.38-.33-.74-.47-1.07-.14-.33-.29-.64-.4-.92-.1-.29-.18-.56-.26-.79-.16-.47-.27-.83-.36-1.07-.08-.24-.13-.36-.13-.36,0,0,.03.13.11.37.08.25.19.61.34,1.08.07.24.16.5.25.8.11.29.25.59.39.93.14.33.3.7.47,1.08.08.2.18.39.29.58.11.2.22.4.34.6.24.41.46.86.75,1.3.3.43.62.88.94,1.36.08.12.17.24.25.36.09.12.19.23.29.34.2.23.39.46.6.7.2.24.41.48.62.73.23.23.47.46.71.69,1.91,1.89,4.44,3.72,7.58,5.01.39.16.79.32,1.19.48.41.14.84.25,1.26.38.21.06.43.13.64.19.21.07.43.13.66.17.45.09.9.17,1.35.26.23.04.46.09.69.13.23.02.47.04.7.06.47.04.95.09,1.42.13.48.03.97,0,1.46,0,.25,0,.49,0,.74,0,.12,0,.25,0,.37,0l.37-.04c.99-.12,2.01-.17,3.01-.43.5-.11,1.02-.2,1.52-.34.5-.16,1-.32,1.51-.48.25-.09.51-.15.76-.25.25-.11.49-.21.74-.32.49-.22,1-.42,1.49-.66.95-.55,1.95-1.03,2.84-1.72.23-.16.46-.32.69-.48.11-.08.23-.16.35-.25l.32-.28c.43-.37.87-.74,1.3-1.12.42-.39.8-.83,1.21-1.24.2-.21.41-.41.59-.64l.55-.69c.77-.89,1.38-1.92,2.03-2.92.28-.53.55-1.07.83-1.61l.21-.4.17-.42.34-.85.34-.85.26-.88.26-.89.13-.45.09-.46c.12-.61.23-1.22.35-1.84.06-.62.11-1.25.17-1.88.14-2.52-.11-5.09-.75-7.61-.7-2.5-1.76-4.85-3.13-6.97-.36-.52-.72-1.03-1.08-1.54-.41-.48-.81-.95-1.22-1.42-.1-.12-.2-.24-.31-.35l-.34-.32-.67-.64-.67-.64-.72-.57-.72-.57c-.12-.09-.24-.19-.36-.28l-.38-.25c-.51-.33-1.01-.65-1.52-.98-1.07-.55-2.1-1.13-3.21-1.53l-.82-.33c-.27-.11-.56-.17-.83-.26-.56-.16-1.11-.34-1.67-.47-.56-.11-1.13-.21-1.68-.32l-.42-.08c-.14-.02-.28-.03-.42-.04-.28-.03-.56-.05-.84-.08-1.12-.15-2.23-.08-3.32-.08-.55.03-1.08.11-1.62.16-.27.03-.54.06-.8.09-.26.03-.52.11-.78.16-.52.11-1.04.22-1.55.33-.51.13-1,.31-1.49.46-1,.27-1.91.73-2.83,1.12l-.34.15c-.11.05-.22.12-.33.18-.22.12-.43.24-.64.36-.42.25-.86.46-1.26.73-.39.28-.78.55-1.17.82-.19.14-.39.27-.58.41-.18.15-.35.3-.53.45-.35.3-.7.6-1.04.9-.18.14-.33.31-.49.47-.16.16-.31.32-.46.48-.3.32-.62.63-.9.96-.27.34-.53.68-.8,1.01-2.08,2.68-3.37,5.53-4.09,8.12-.71,2.59-.97,4.93-.88,6.82,0,.24,0,.47,0,.69,0,.22,0,.44.04.65.05.42.09.81.13,1.17.05.36.07.7.12,1,.07.3.13.57.18.82.11.48.19.85.25,1.11.06.25.09.37.09.37Z"/>
    </g>
    <g>
      <path class="st11" d="M341.09,137.01l3.17-.15s-.13-2.66,2.64-2.84c1.44-.09,2.23.81,2.56,1.52.39.82.33,1.78-.1,2.58-.5.91-1.64,1.77-3.79,1.5l.34,7.15,3.14-.15-.2-4.19s4.34-1.35,4.11-6.19c-.22-4.64-4.43-5.52-6.21-5.43-1.36.06-5.98.61-5.66,6.21Z"/>
      <rect class="st11" x="346.04" y="148.17" width="3.19" height="2.98" transform="translate(-6.7 16.63) rotate(-2.71)"/>
    </g>
    <circle class="st0" cx="386.23" cy="201.04" r="20.3" transform="translate(.76 403.54) rotate(-55.21)"/>
    <g>
      <path class="st2" d="M360.63,205.43s.19.12.45.41c.26.28.58.78.67,1.47.04.34.03.73-.09,1.11-.13.38-.36.75-.72,1.04-.69.57-1.82.81-2.75.33-.92-.5-1.35-1.58-1.26-2.47.04-.45.21-.86.46-1.17.25-.32.56-.54.87-.7.62-.31,1.21-.32,1.59-.26.38.06.58.17.59.15,0,0-.04-.03-.14-.08-.05-.03-.11-.05-.18-.07-.07-.03-.16-.05-.26-.07-.39-.09-1-.1-1.66.21-.33.15-.66.38-.93.72-.27.33-.47.77-.51,1.25-.05.48.03,1,.26,1.47.22.48.6.91,1.09,1.18.5.26,1.07.33,1.59.25.52-.08,1-.3,1.37-.61.38-.3.63-.71.76-1.12.13-.41.13-.82.08-1.18-.12-.72-.47-1.23-.75-1.5-.07-.07-.14-.13-.2-.17-.06-.05-.11-.09-.16-.11-.09-.05-.14-.08-.14-.07Z"/>
      <path class="st2" d="M352.13,208.55s.11.09.27.27c.16.18.36.49.41.92.06.42-.06.97-.51,1.32-.42.35-1.13.5-1.7.2-.57-.31-.83-.97-.78-1.52.04-.57.43-.97.81-1.16.39-.19.75-.21.99-.17.24.03.37.1.37.08,0,0-.11-.09-.36-.15-.24-.06-.64-.07-1.06.12-.21.1-.42.24-.6.46-.17.21-.3.49-.33.8-.07.61.22,1.35.86,1.7.66.34,1.43.16,1.9-.23.24-.2.4-.46.48-.72.08-.26.08-.53.04-.75-.08-.46-.3-.78-.49-.95-.19-.17-.32-.22-.33-.21Z"/>
      <path class="st2" d="M367.06,193.98s.05-.1.14-.3c.09-.2.22-.5.39-.89.08-.2.18-.41.28-.66.12-.24.27-.48.41-.76.15-.27.31-.57.49-.88.08-.16.18-.31.3-.47.11-.16.22-.32.34-.48.88-1.36,2.21-2.85,3.99-4.31,1.78-1.44,4.08-2.79,6.84-3.63.35-.1.7-.21,1.05-.31.36-.08.73-.15,1.1-.22.19-.04.37-.07.56-.11.19-.04.38-.08.57-.09.38-.04.77-.07,1.16-.11.2-.02.39-.04.59-.05.2,0,.4,0,.6,0,.4,0,.81,0,1.22,0,.41.01.82.08,1.23.11.21.02.42.04.63.06.1.01.21.02.31.04l.31.06c.83.18,1.69.31,2.51.61.42.14.85.25,1.26.41.41.17.82.35,1.24.53.21.09.42.17.62.28.2.11.4.22.6.33.4.23.81.43,1.21.68.76.54,1.57,1.03,2.27,1.68.18.15.36.31.55.46.09.08.18.15.27.24l.25.26c.34.35.67.7,1.01,1.05.32.37.61.76.93,1.15.15.2.32.38.45.59l.41.63c.58.82,1.01,1.73,1.49,2.63.19.47.38.95.58,1.42l.14.36c.04.12.07.25.11.37l.22.74.22.75.15.77.15.77.08.39c.02.13.03.26.04.39.05.53.1,1.05.15,1.58,0,.53,0,1.07,0,1.6-.08,2.14-.5,4.3-1.23,6.37-.79,2.06-1.87,3.97-3.19,5.65-.35.41-.69.82-1.04,1.22-.38.37-.76.74-1.14,1.11l-.29.27-.31.25-.62.49-.61.49-.65.43-.65.42-.33.21-.34.18c-.46.24-.91.47-1.36.71-.95.38-1.87.8-2.84,1.04l-.72.21c-.24.07-.49.1-.73.16-.49.09-.97.2-1.45.27-.49.05-.97.09-1.45.14l-.36.03c-.12,0-.24,0-.36,0-.24,0-.48,0-.72,0-.96.04-1.89-.11-2.82-.19-.46-.07-.91-.18-1.36-.26-.22-.05-.45-.09-.67-.14-.22-.05-.44-.13-.65-.19-.43-.13-.86-.27-1.29-.4-.42-.15-.82-.34-1.23-.51-.82-.31-1.56-.76-2.31-1.17l-.28-.15c-.09-.05-.17-.12-.26-.18-.17-.12-.35-.24-.52-.36-.34-.24-.69-.46-1.01-.71-.31-.26-.62-.53-.93-.79-.15-.13-.31-.26-.46-.39-.14-.14-.28-.28-.42-.42-.27-.28-.55-.56-.82-.84-.14-.13-.26-.28-.38-.44-.12-.15-.24-.3-.36-.45-.23-.3-.47-.58-.69-.88-.2-.31-.4-.62-.6-.92-1.56-2.44-2.44-4.95-2.86-7.2-.05-.28-.11-.56-.16-.83-.03-.28-.05-.55-.08-.81-.03-.27-.05-.53-.08-.78-.01-.13-.03-.25-.03-.38,0-.13,0-.25,0-.37,0-.49,0-.96,0-1.41.01-.45.08-.87.11-1.28.02-.2.04-.4.06-.59.01-.19.04-.37.08-.55.07-.35.14-.68.2-.99.06-.3.11-.59.17-.84.08-.25.15-.48.21-.68.12-.41.22-.72.28-.93.06-.21.09-.32.09-.32,0,0-.04.1-.11.31-.07.21-.17.52-.3.92-.06.2-.14.43-.22.68-.07.25-.12.54-.18.84-.06.31-.13.64-.21.99-.04.18-.07.36-.08.55-.02.19-.04.39-.06.59-.04.4-.1.83-.12,1.28,0,.45,0,.92,0,1.42,0,.12,0,.25,0,.37,0,.13.02.25.03.38.02.26.05.52.07.79.03.27.05.54.08.82.05.27.1.55.16.84.41,2.27,1.29,4.8,2.85,7.25.2.31.4.61.6.93.22.3.46.59.7.89.12.15.24.3.36.45.12.15.24.3.38.44.27.28.54.56.82.85.14.14.27.29.42.43.15.13.31.26.46.39.31.26.62.53.93.79.32.26.68.48,1.02.72.17.12.35.24.52.36.09.06.17.12.26.18l.28.15c.75.41,1.49.87,2.32,1.18.41.17.81.36,1.23.51.43.13.86.27,1.3.4.22.06.43.14.66.2.22.05.45.09.68.14.45.09.91.2,1.37.27.93.08,1.88.24,2.84.2.24,0,.48,0,.72,0,.12,0,.24,0,.36,0l.36-.03c.48-.05.97-.09,1.46-.14.49-.07.97-.18,1.46-.27.24-.05.49-.08.73-.16l.72-.21c.98-.25,1.91-.67,2.86-1.05.46-.24.91-.48,1.37-.72l.35-.18.33-.21.66-.43.66-.43.62-.49.62-.49.31-.25.29-.28c.38-.37.77-.74,1.15-1.12.35-.41.7-.82,1.05-1.23,1.34-1.7,2.43-3.63,3.23-5.71.74-2.1,1.16-4.27,1.24-6.43,0-.54,0-1.08,0-1.62-.05-.53-.1-1.07-.15-1.6-.01-.13-.02-.27-.04-.4l-.08-.39-.15-.78-.16-.78-.22-.75-.22-.75c-.04-.12-.07-.25-.11-.37l-.15-.36c-.2-.48-.39-.96-.58-1.44-.48-.91-.92-1.83-1.5-2.66l-.41-.63c-.14-.21-.31-.4-.46-.59-.31-.39-.61-.79-.94-1.15-.34-.35-.68-.71-1.02-1.06l-.25-.26c-.09-.08-.18-.16-.28-.24-.18-.16-.37-.31-.55-.47-.71-.66-1.52-1.15-2.29-1.69-.4-.25-.81-.46-1.22-.68-.2-.11-.4-.22-.61-.33-.2-.11-.42-.18-.63-.28-.42-.18-.84-.36-1.25-.53-.42-.16-.85-.27-1.27-.41-.83-.3-1.7-.43-2.53-.61l-.31-.06c-.1-.02-.21-.02-.32-.03-.21-.02-.42-.04-.63-.06-.42-.04-.83-.1-1.24-.11-.41,0-.82,0-1.23,0-.2,0-.4,0-.6,0-.2.01-.4.04-.6.06-.39.04-.79.08-1.17.11-.19.01-.38.05-.57.09-.19.04-.38.07-.56.11-.37.08-.74.14-1.11.23-.36.11-.71.21-1.06.32-2.78.86-5.09,2.22-6.87,3.68-1.78,1.47-3.11,2.98-3.98,4.35-.11.17-.23.33-.33.49-.11.16-.21.31-.29.47-.17.32-.33.61-.48.89-.15.28-.29.52-.41.76-.1.24-.19.46-.28.66-.16.39-.29.69-.37.9-.08.2-.12.31-.12.31Z"/>
    </g>
    <g>
      <path class="st11" d="M391.02,205.34h-2.72s0,2.29-2.38,2.33c-1.23.02-1.87-.79-2.13-1.41-.3-.72-.21-1.54.19-2.2.46-.76,1.47-1.45,3.31-1.13v-6.14h-2.69v3.6s-3.77.98-3.77,5.14c0,3.98,3.57,4.9,5.1,4.9,1.17,0,5.15-.28,5.1-5.08Z"/>
      <rect class="st11" x="384.57" y="192.98" width="2.73" height="2.55" transform="translate(771.87 388.51) rotate(180)"/>
    </g>
    <circle class="st0" cx="272.85" cy="121.41" r="25.72" transform="translate(89.3 357) rotate(-76.07)"/>
    <g>
      <path class="st2" d="M276.25,154.14s.17-.22.55-.54c.38-.31,1.03-.67,1.91-.73.43-.03.92.02,1.39.21.47.19.92.52,1.25,1,.66.91.87,2.37.18,3.51-.71,1.12-2.11,1.58-3.23,1.39-.57-.08-1.07-.34-1.45-.68-.38-.34-.64-.76-.81-1.16-.33-.81-.3-1.56-.19-2.04.11-.48.26-.72.24-.73,0,0-.04.05-.11.17-.04.06-.07.13-.11.22-.04.09-.08.19-.11.32-.14.48-.2,1.26.13,2.12.17.43.43.87.83,1.24.4.37.94.65,1.54.75.6.11,1.27.04,1.88-.2.62-.24,1.2-.68,1.58-1.28.37-.61.51-1.32.45-1.98-.05-.66-.29-1.29-.65-1.78-.35-.5-.85-.85-1.36-1.05-.51-.19-1.02-.23-1.48-.19-.92.09-1.59.49-1.96.83-.1.08-.17.17-.24.24-.07.07-.12.14-.15.19-.07.11-.11.17-.1.17Z"/>
      <path class="st2" d="M279.48,165.14s.12-.13.36-.32c.24-.19.65-.41,1.19-.44.53-.04,1.22.16,1.63.75.41.57.54,1.46.11,2.16-.44.69-1.3.97-1.99.86-.71-.1-1.2-.63-1.4-1.13-.21-.5-.2-.97-.13-1.27.06-.3.15-.46.13-.47,0,0-.13.13-.22.44-.09.3-.14.8.07,1.35.1.27.27.56.53.8.26.24.6.42.99.48.76.14,1.72-.16,2.23-.95.48-.8.33-1.79-.14-2.42-.23-.32-.55-.55-.87-.67-.33-.12-.66-.15-.95-.12-.59.06-1.01.32-1.24.54-.24.22-.31.39-.3.4Z"/>
      <path class="st2" d="M262.32,145.05s-.12-.07-.37-.2c-.25-.13-.62-.32-1.09-.57-.24-.12-.51-.26-.8-.41-.29-.17-.59-.38-.92-.59-.33-.21-.69-.45-1.07-.69-.2-.12-.38-.26-.57-.41-.19-.15-.38-.31-.58-.47-1.64-1.23-3.42-3.04-5.11-5.4-1.67-2.37-3.18-5.39-4.02-8.95-.1-.45-.2-.9-.31-1.35-.08-.46-.12-.93-.19-1.41-.03-.24-.06-.48-.09-.72-.03-.24-.07-.48-.06-.73-.01-.49-.03-.98-.04-1.48,0-.25-.02-.5-.02-.75.02-.25.03-.5.05-.76.04-.51.07-1.02.11-1.54.05-.52.16-1.03.25-1.55.04-.26.09-.52.13-.78.02-.13.04-.26.07-.39l.11-.39c.29-1.03.53-2.11.98-3.13.21-.51.39-1.05.62-1.56.26-.5.51-1.01.77-1.52.13-.25.25-.52.4-.76.16-.24.31-.49.47-.73.32-.48.62-.99.96-1.47.74-.91,1.43-1.89,2.31-2.73.21-.22.42-.43.63-.65.11-.11.21-.22.32-.33l.35-.3c.47-.4.94-.79,1.41-1.19.49-.38,1.02-.71,1.53-1.07.26-.17.51-.37.78-.52l.83-.46c1.08-.66,2.27-1.13,3.45-1.66.61-.2,1.23-.41,1.85-.61l.46-.15c.16-.04.32-.07.48-.11l.96-.22.96-.22.98-.13.99-.13.5-.06c.17-.01.33-.01.5-.02.67-.02,1.34-.04,2.01-.06.67.05,1.35.09,2.02.14,2.7.28,5.39.99,7.95,2.09,2.54,1.17,4.86,2.7,6.88,4.51.49.47.97.94,1.46,1.41.44.51.87,1.03,1.3,1.54l.32.38.28.41.57.82.56.82.48.86.48.86.24.43.2.45c.26.6.52,1.19.78,1.78.4,1.23.85,2.43,1.08,3.68l.21.92c.07.31.09.62.14.93.07.62.17,1.24.22,1.85.02.62.04,1.23.06,1.85v.46c.01.15,0,.3-.01.46-.02.3-.04.61-.06.91-.03,1.21-.3,2.38-.48,3.54-.13.57-.3,1.13-.45,1.7-.08.28-.15.56-.23.84-.08.28-.2.54-.3.81-.21.53-.41,1.07-.61,1.59-.22.52-.5,1.01-.74,1.51-.46,1.02-1.1,1.91-1.67,2.82l-.22.34c-.08.11-.16.21-.25.32-.17.21-.33.42-.49.62-.33.41-.64.84-.99,1.22-.36.37-.72.74-1.07,1.11-.18.18-.35.37-.53.55-.19.16-.38.33-.57.49-.38.32-.76.64-1.13.96-.18.17-.38.3-.58.44-.2.14-.4.28-.59.41-.4.27-.78.55-1.17.8-.41.23-.81.46-1.21.68-3.21,1.77-6.46,2.67-9.34,3.01-.36.04-.71.1-1.06.13-.35.01-.7.02-1.03.03-.34.01-.67.02-.99.03-.16,0-.32.02-.48.01-.16-.01-.32-.02-.47-.03-.62-.04-1.22-.08-1.78-.12-.57-.05-1.1-.17-1.6-.24-.25-.04-.5-.08-.74-.12-.24-.03-.47-.08-.69-.15-.44-.12-.85-.23-1.23-.33-.38-.11-.74-.19-1.05-.29-.31-.12-.59-.22-.85-.32-.5-.19-.89-.33-1.15-.43-.26-.1-.4-.14-.4-.14,0,0,.13.06.39.16.26.1.64.26,1.14.45.25.1.53.21.84.33.32.11.67.19,1.05.3.38.11.79.22,1.23.34.22.07.45.11.69.15.24.04.49.08.74.13.51.08,1.04.2,1.61.26.57.04,1.17.08,1.79.13.16.01.31.02.47.03.16,0,.32,0,.48,0,.33,0,.66-.02,1-.03.34,0,.69-.02,1.04-.03.35-.03.71-.09,1.07-.13,2.9-.33,6.17-1.22,9.41-2.99.4-.22.81-.45,1.22-.68.4-.25.78-.53,1.18-.81.2-.14.4-.27.6-.41.2-.14.4-.27.59-.44.38-.32.76-.64,1.14-.96.19-.16.39-.32.58-.49.18-.18.35-.37.53-.55.36-.37.72-.74,1.08-1.11.35-.39.66-.82,1-1.23.17-.21.33-.42.5-.63.08-.11.17-.21.25-.32l.22-.34c.58-.92,1.22-1.82,1.69-2.84.25-.5.53-1,.75-1.52.21-.53.41-1.07.62-1.6.1-.27.22-.54.3-.81.08-.28.15-.56.23-.84.15-.57.33-1.13.45-1.71.18-1.17.45-2.35.49-3.57.02-.3.04-.61.06-.92,0-.15.02-.31.03-.46v-.46c-.03-.62-.05-1.24-.07-1.86-.05-.62-.15-1.24-.22-1.87-.05-.31-.06-.63-.14-.94l-.21-.93c-.23-1.26-.68-2.47-1.09-3.71-.26-.6-.53-1.2-.79-1.8l-.2-.45-.24-.43-.48-.87-.49-.87-.57-.83-.57-.83-.29-.41-.32-.39c-.44-.51-.87-1.03-1.31-1.55-.49-.47-.98-.95-1.47-1.43-2.04-1.83-4.38-3.38-6.94-4.56-2.59-1.11-5.3-1.82-8.03-2.1-.68-.05-1.36-.09-2.04-.14-.68.02-1.36.04-2.03.06-.17,0-.34,0-.5.02l-.5.06-1,.13-.99.13-.97.22-.97.22c-.16.04-.32.07-.48.11l-.47.15c-.62.21-1.25.41-1.86.62-1.19.53-2.39,1.01-3.48,1.68l-.83.47c-.28.15-.53.35-.79.53-.51.37-1.04.71-1.54,1.09-.48.4-.95.81-1.42,1.2l-.35.3c-.11.11-.21.22-.32.33-.21.22-.43.44-.64.66-.89.84-1.58,1.83-2.33,2.75-.35.48-.65.99-.97,1.48-.16.25-.32.49-.47.74-.15.25-.27.51-.4.77-.26.52-.52,1.03-.78,1.53-.24.52-.42,1.05-.63,1.57-.45,1.03-.69,2.11-.98,3.15l-.11.39c-.03.13-.05.27-.07.4-.04.26-.09.53-.13.79-.08.53-.19,1.04-.24,1.56-.03.52-.07,1.04-.1,1.55-.02.26-.03.51-.05.76,0,.25.01.51.02.76.02.5.03,1,.05,1.49,0,.25.03.49.06.73.03.24.06.48.09.72.07.48.11.95.19,1.42.11.46.21.91.31,1.36.85,3.59,2.38,6.62,4.07,8.99,1.71,2.37,3.51,4.18,5.16,5.4.2.16.4.31.59.46.19.15.38.3.57.41.38.24.74.47,1.08.69.34.21.64.42.93.58.3.15.57.28.81.41.48.24.85.42,1.1.55.25.12.38.18.38.18Z"/>
    </g>
    <g>
      <path class="st11" d="M279.17,128.31h-3.87s0,3.25-3.38,3.31c-1.76.03-2.67-1.12-3.03-2-.43-1.02-.3-2.19.28-3.14.66-1.08,2.1-2.07,4.71-1.61v-8.73h-3.83v5.12s-5.37,1.39-5.37,7.31,5.08,6.98,7.25,6.98c1.66,0,7.33-.4,7.25-7.23Z"/>
      <rect class="st11" x="269.99" y="110.72" width="3.89" height="3.63" transform="translate(543.87 225.06) rotate(180)"/>
    </g>
  </g>
</svg>