<?xml version="1.0" encoding="utf-8"?>
<!-- Generator: Adobe Illustrator 27.5.0, SVG Export Plug-In . SVG Version: 6.00 Build 0)  -->
<svg version="1.1" xmlns="http://www.w3.org/2000/svg" xmlns:xlink="http://www.w3.org/1999/xlink" x="0px" y="0px"
	 viewBox="0 0 3710 3710" style="enable-background:new 0 0 3710 3710;" xml:space="preserve">
<g id="Background">
	<g>
		<g>
			<rect style="fill:#FFFFFF;" width="3710" height="3710"/>
		</g>
	</g>
</g>
<g id="Illustration">
	<g>
		<path style="fill:#F4F7FA;" d="M1222.213,434.505c-198.928,27.755-377.859,135.516-495.588,298.249
			S562.199,1099.38,598.26,1296.972c112.93,618.796-918.5,1886.738,481.836,2073.393
			C2480.432,3557.022,3199.822,3052.6,3233.3,2593.35C3265.205,2155.658,3393.579,131.554,1222.213,434.505z"/>
		<g>
			<g>
				<g>
					<linearGradient id="SVGID_1_" gradientUnits="userSpaceOnUse" x1="2096.8506" y1="2091.4543" x2="3156.0259" y2="2091.4543">
						<stop  offset="0.0036" style="stop-color:#E38DDD"/>
						<stop  offset="1" style="stop-color:#9571F6"/>
					</linearGradient>
					<path style="fill:url(#SVGID_1_);" d="M2283.469,2826.521c-16.781-2.64-50.958-23.178-57.661-32.205
						c-44.602-60.074-135.417-167.124-128.593-245.926c1.165-13.458,61.753-24.313,70.537-36.453
						c36.949-16.297,50.778-19.659,78.294-52.408c81.234-96.684-92.71-287.221,117.418-346.725
						c153.916-43.585,281.357,12.534,271.465-224.816s189.85-663.862,435.448-491.724c140.95,98.791-10.333,296.231,59.443,446.858
						c66.305,143.135,3.246,257.733-149.091,338.342s-74,147.961-34.1,283.348c47.928,162.628-200.811,184.361-316.503,184.598
						C2536.961,2649.601,2299.862,2712.941,2283.469,2826.521z"/>
					<g>
						<defs>
							<path id="SVGID_00000183949108829287421870000010769429959069957046_" d="M2059.635,2526.945
								c32.998,112.009,61.96,227.346,94.581,340.322c66.238,7.209,144.329,14.076,161.266-67.14
								c23.548-112.916,221.759-151.227,314.846-150.922c115.214,0.377,364.324-21.952,316.311-184.424
								c-39.971-135.257-118.231-202.749,34.098-283.327c152.329-80.579,215.358-195.191,149.081-338.342
								c-69.747-150.644,81.494-347.984-59.443-446.852c-245.576-172.272-445.41,254.623-435.409,491.635
								s-117.947,182.293-271.401,224.651c-209.499,57.829-37.889,254.49-116.854,344.847
								C2184.806,2528.227,2137.95,2513.689,2059.635,2526.945z"/>
						</defs>
						<clipPath id="SVGID_00000139290312134495973350000018431873882027234433_">
							<use xlink:href="#SVGID_00000183949108829287421870000010769429959069957046_"  style="overflow:visible;"/>
						</clipPath>
						<g style="clip-path:url(#SVGID_00000139290312134495973350000018431873882027234433_);">
							<path style="fill:#FCFDFE;" d="M2163.441,2678.238l-1.519-3.34c254.586-115.507,466.92-305.883,614.045-550.549
								c139.993-232.801,219.383-510.081,229.592-801.865l3.668,0.129c-10.234,292.405-89.806,570.293-230.115,803.628
								C2631.6,2371.545,2418.704,2562.423,2163.441,2678.238z"/>
							<path style="fill:#FCFDFE;" d="M2974.292,2530.148c-143.231-51.406-384.951-59.351-538.827-17.721l-0.96-3.539
								c154.5-41.8,397.198-33.81,541.027,17.808L2974.292,2530.148z"/>
							<path style="fill:#FCFDFE;" d="M2262.392,2631.968l-2.379-2.79c63.01-53.804,96.401-137.398,99.241-248.459
								c2.084-81.435-12.003-175.472-41.869-279.495l3.525-1.014c29.97,104.385,44.104,198.792,42.012,280.604
								C2360.053,2492.958,2326.229,2577.458,2262.392,2631.968z"/>
							<path style="fill:#FCFDFE;" d="M2797.734,2092.353l-2.522-2.665c113.576-107.544,276.121-132.67,392.48-134.812l0.064,3.668
								C3072.05,1960.673,2910.458,1985.614,2797.734,2092.353z"/>
							<path style="fill:#FCFDFE;" d="M2938.719,1763.231l-3.646-0.365c7.54-75.248-0.423-228.728-138.51-411.212l2.923-2.214
								C2938.329,1532.922,2946.317,1687.45,2938.719,1763.231z"/>
						</g>
					</g>
				</g>
			</g>
			<g>
				<g>
					<defs>
						<path id="SVGID_00000013151100237711770060000015172870949735766160_" d="M2453.295,2547.553
							c-91.171-12.276-182.276-26.645-273.24-43.101c-1.46,1.353-33.698-196.105,59.005-300.993
							c183.368-203.239,56.014-382.093,19.012-488.539c-58.972-150.02-31.915-333.558,134.501-301.267
							c162.081,27.581,182.562-305.657,151.528-561.808c-25.342-124.546,90.601-277.447,207.721-313.493
							c119.526-39.811,240.227,37.232,279.952,285.618c59.06,287.433-149.085,463.734-225.186,609.128
							c-74.883,142.732,104.726,255.293-37.188,382.678c-119.296,113.105-270.384,195.208-213.05,334.762
							C2615.189,2288.486,2602.885,2402.001,2453.295,2547.553z"/>
					</defs>
					<clipPath id="SVGID_00000106857559846265453950000011112065894004446872_">
						<use xlink:href="#SVGID_00000013151100237711770060000015172870949735766160_"  style="overflow:visible;"/>
					</clipPath>
					
						<linearGradient id="SVGID_00000154415061520622784240000006186006404359465128_" gradientUnits="userSpaceOnUse" x1="2343.1841" y1="577.2747" x2="1689.6868" y2="2434.585" gradientTransform="matrix(-0.8734 -0.487 -0.487 0.8734 5080.3042 1215.7589)">
						<stop  offset="0" style="stop-color:#FF9085"/>
						<stop  offset="1" style="stop-color:#FB6FBB"/>
					</linearGradient>
					
						<path style="clip-path:url(#SVGID_00000106857559846265453950000011112065894004446872_);fill:url(#SVGID_00000154415061520622784240000006186006404359465128_);" d="
						M2453.295,2547.553c-91.171-12.276-182.276-26.645-273.24-43.101c-1.46,1.353-33.698-196.105,59.005-300.993
						c183.368-203.239,56.014-382.093,19.012-488.539c-58.397-149.915-30.631-313.361,122.623-317.637
						c169.936-8.071,197.335-289.839,163.406-545.438c-25.342-124.546,90.601-277.447,207.721-313.493
						c119.526-39.811,240.227,37.232,279.952,285.618c59.06,287.433-149.085,463.734-225.186,609.128
						c-74.883,142.732,104.726,255.293-37.188,382.678c-119.296,113.105-270.384,195.208-213.05,334.762
						C2615.189,2288.486,2602.885,2402.001,2453.295,2547.553z"/>
					<g style="clip-path:url(#SVGID_00000106857559846265453950000011112065894004446872_);">
						<path style="fill:#FCFDFE;" d="M2331.717,2560.781l-3.664-0.012c-0.05-1.757,81.829-418.917,226.891-825.852
							c19.908-65.834,41.601-132.252,62.58-196.482c56.179-172.001,114.275-349.859,140.738-526.568
							c29.58-197.521,16.022-374.931-41.447-542.368l3.467-1.189c57.669,168.007,71.277,345.985,41.608,544.1
							c-26.51,177.014-84.652,355.019-140.878,527.165c-20.976,64.212-42.661,130.608-62.587,196.489
							C2420.098,2124.123,2332.745,2547.784,2331.717,2560.781z"/>
						<path style="fill:#FCFDFE;" d="M2722.288,1206.048l-2.758-2.421c100.09-113.965,220.562-275.659,285.28-362.526
							c52.06-69.873,52.4-69.796,54.535-69.488l-0.516,3.632l0.258-1.816l0.767,1.626c-2.654,1.868-24.476,31.156-52.103,68.236
							C2943,930.201,2822.475,1091.973,2722.288,1206.048z"/>
						<path style="fill:#FCFDFE;" d="M2751.097,1051.074c-22.566-128.952-76.808-213.29-118.336-261.333
							c-45.881-53.081-87.79-75.917-92.049-76.378c0.014,0.007,0.423,0.032,0.863-0.27l-2.078-3.023
							c0.917-0.627,2.002-0.489,4.467,0.544c11.287,4.742,53.575,30.475,98.281,84.675c56.312,68.263,95.201,156.493,112.462,255.15
							L2751.097,1051.074z"/>
						<path style="fill:#FCFDFE;" d="M2472.584,2000.913l-3.646-0.39c12.848-120.376-16.738-249.33-87.929-383.28
							c-37.13-69.859-84.229-138.166-139.989-203.028c-4.041-4.699-5.462-6.365-5.914-7.124l3.152-1.877
							c0.33,0.543,2.629,3.22,5.545,6.61c55.936,65.066,103.188,133.601,140.444,203.698
							C2455.788,1750.129,2485.511,1879.793,2472.584,2000.913z"/>
						<path style="fill:#FCFDFE;" d="M2512.057,1873.856l-3.145-1.891c107.028-177.709,336.942-192.68,338.848-192.08l1.386,1.701
							l-1.236,1.816l-0.598-1.708l-0.136,1.795c-0.004,0-0.011,0-0.018,0C2844.146,1683.489,2617.491,1698.791,2512.057,1873.856z
							 M2846.699,1679.943l0.605,1.725L2846.699,1679.943z"/>
						<path style="fill:#FCFDFE;" d="M2346.084,2492.71l-3.668-0.09c1.286-52.357-18.508-141.34-120.11-267.918
							c-5.509-6.861-5.509-6.861-5.376-7.893l3.639,0.477l-1.82-0.238l1.673-0.708c0.29,0.521,2.353,3.091,4.742,6.066
							C2327.461,2349.847,2347.384,2439.74,2346.084,2492.71z"/>
						<path style="fill:#FCFDFE;" d="M2367.991,2393.846l-3.532-0.978c11.05-39.944,55.502-118.487,229.04-195.712
							c2.396-1.065,3.94-1.75,4.488-2.04l1.719,3.242c-0.58,0.306-2.196,1.03-4.718,2.151
							C2422.827,2277.12,2378.873,2354.525,2367.991,2393.846z"/>
					</g>
				</g>
			</g>
		</g>
		<g>
			<g>
				
					<linearGradient id="SVGID_00000109001765070179675220000017116215773498633917_" gradientUnits="userSpaceOnUse" x1="2655.325" y1="4588.8828" x2="893.5441" y2="6187.6802" gradientTransform="matrix(0 -1 1 0 -3755.802 3738.6064)">
					<stop  offset="0.0036" style="stop-color:#26264F"/>
					<stop  offset="1" style="stop-color:#444B8C"/>
				</linearGradient>
				<path style="fill:url(#SVGID_00000109001765070179675220000017116215773498633917_);" d="M2544.053,3019.242
					c0,48.863-34.669,90.641-77.419,93.137l-1649.128,96.255c-48.977,2.859-88.963-37.565-88.963-90.119V752.84
					c0-52.556,39.985-93.694,88.963-91.709l1649.128,66.831c42.75,1.733,77.419,42.892,77.419,91.757V3019.242z"/>
				
					<linearGradient id="SVGID_00000028301108145236243330000000929855551458362017_" gradientUnits="userSpaceOnUse" x1="812.285" y1="1936.2983" x2="2821.53" y2="1880.3134">
					<stop  offset="0" style="stop-color:#444B8C"/>
					<stop  offset="0.9964" style="stop-color:#26264F"/>
				</linearGradient>
				<path style="fill:url(#SVGID_00000028301108145236243330000000929855551458362017_);" d="M2592.472,3019.242
					c0,48.863-34.669,90.641-77.419,93.137l-1649.129,96.255c-48.977,2.859-88.962-37.565-88.962-90.119V752.84
					c0-52.556,39.985-93.694,88.962-91.709l1649.129,66.831c42.75,1.733,77.419,42.892,77.419,91.757V3019.242z"/>
				
					<linearGradient id="SVGID_00000173137369561490809560000012194760813345031329_" gradientUnits="userSpaceOnUse" x1="1324.4037" y1="5990.0615" x2="2319.7078" y2="4773.5786" gradientTransform="matrix(0 -1 1 0 -3755.802 3738.6064)">
					<stop  offset="0" style="stop-color:#444B8C"/>
					<stop  offset="0.9964" style="stop-color:#26264F"/>
				</linearGradient>
				<path style="fill:url(#SVGID_00000173137369561490809560000012194760813345031329_);" d="M818.451,754.368v2361.876
					c0,28.09,21.277,49.657,47.474,48.173l1304.283-73.889l344.844-19.536c22.906-1.297,41.443-23.586,41.443-49.784V818.394
					c0-26.199-18.536-48.156-41.443-49.045l-357.295-13.866L865.924,705.348C839.727,704.331,818.451,726.278,818.451,754.368z"/>
				<path style="fill:#D8DEE8;" d="M2533.639,2919.345c0,9.745-7.812,18.073-17.417,18.564l-1651.634,84.454
					c-10.975,0.561-19.914-7.465-19.914-17.894V754.415c0-10.429,8.939-18.578,19.914-18.165l1651.634,62.114
					c9.605,0.361,17.417,8.585,17.417,18.33V2919.345z"/>
				
					<linearGradient id="SVGID_00000095340141697663087080000000933183375497353374_" gradientUnits="userSpaceOnUse" x1="1732.4393" y1="2921.0669" x2="1699.2155" y2="3174.0781">
					<stop  offset="0" style="stop-color:#444B8C"/>
					<stop  offset="0.9964" style="stop-color:#26264F"/>
				</linearGradient>
				<path style="fill:url(#SVGID_00000095340141697663087080000000933183375497353374_);" d="M1884.313,3065.775l-335.374,18.444
					c-17.931,0.986-32.485-11.447-32.485-27.771v-1.226c0-16.324,14.554-30.323,32.485-31.266l335.374-17.638
					c17.429-0.917,31.541,11.364,31.541,27.428v1.206C1915.854,3051.017,1901.742,3064.816,1884.313,3065.775z"/>
				
					<linearGradient id="SVGID_00000044868476045475367410000015008362207762708116_" gradientUnits="userSpaceOnUse" x1="1709.2262" y1="729.0215" x2="1728.0427" y2="749.7562">
					<stop  offset="0" style="stop-color:#FF9085"/>
					<stop  offset="1" style="stop-color:#FB6FBB"/>
				</linearGradient>
				<path style="fill:url(#SVGID_00000044868476045475367410000015008362207762708116_);" d="M1734.92,739.073
					c0,8.684-7.682,15.431-17.165,15.069c-9.49-0.362-17.189-7.706-17.189-16.401c0-8.696,7.698-15.442,17.189-15.068
					C1727.238,723.046,1734.92,730.389,1734.92,739.073z"/>
			</g>
			<g style="opacity:0.3;">
				<path style="fill:#FFFFFF;" d="M2155.971,2864.419c-6.723-144.15,153.552-228.694,138.155-432.046
					c-1.389-18.347-15.712-175.712-142.365-282.378c-113.733-95.785-209.328-59.747-419.83-136.147
					c-147.532-53.545-313.387-113.743-380.468-234.521c-133.214-239.849,247.451-479.418,169.538-789.924
					c-22.326-88.974-85.361-198.036-251.85-311.931l-403.227-16.341c-48.977-1.985-88.962,39.152-88.962,91.708v2365.672
					c0,52.556,39.985,92.98,88.962,90.121l1502.587-87.702C2208.466,3028.411,2159.474,2939.525,2155.971,2864.419z"/>
			</g>
		</g>
		<g>
			<g>
				
					<linearGradient id="SVGID_00000010290839695263257920000004238823230061259689_" gradientUnits="userSpaceOnUse" x1="1391.3596" y1="3592.9041" x2="2000.0376" y2="-269.5503">
					<stop  offset="0.0036" style="stop-color:#F36F56"/>
					<stop  offset="1" style="stop-color:#FFC444"/>
				</linearGradient>
				<polygon style="fill:url(#SVGID_00000010290839695263257920000004238823230061259689_);" points="2415.688,2842.278 
					931.678,2951.724 939.651,709.888 2415.688,745.159 				"/>
				<polygon style="fill:#FFFFFF;" points="1703.157,1024.296 1031.153,1017.32 1031.743,830.524 1703.451,842.964 				"/>
				<polygon style="fill:#FFFFFF;" points="1420.545,1497.427 1204.871,1499.742 1205.514,1264.139 1421.066,1264.167 				"/>
				<polygon style="fill:#FFFFFF;" points="2248.133,1375.525 1489.67,1380.134 1489.911,1263.835 2248.171,1263.182 				"/>
				<polygon style="fill:#FFFFFF;" points="1419.493,1968.236 1203.575,1975.289 1204.219,1739.174 1420.015,1734.475 				"/>
				<polygon style="fill:#FFFFFF;" points="2247.977,1828.886 1488.695,1849.481 1488.937,1732.932 2248.015,1716.31 				"/>
				<polygon style="fill:#FFFFFF;" points="1418.439,2440.06 1202.276,2451.87 1202.921,2215.242 1418.962,2205.795 				"/>
				<polygon style="fill:#FFFFFF;" points="2247.82,2283.186 1487.718,2319.835 1487.961,2203.036 2247.859,2170.377 				"/>
			</g>
			<path style="opacity:0.3;fill:#FFFFFF;" d="M1823.175,2882.224l-890.678,65.696l7.556-2241.833l550.186,13.148
				c-107.58,185.033-238.854,554.647,136.556,901.057C2008.33,1972.352,2161.283,2510.576,1823.175,2882.224z"/>
			
				<linearGradient id="SVGID_00000040576543512324247480000015417828617323144856_" gradientUnits="userSpaceOnUse" x1="-94.6685" y1="5521.9556" x2="1804.8379" y2="1491.2898">
				<stop  offset="0.0036" style="stop-color:#F36F56"/>
				<stop  offset="1" style="stop-color:#FFC444"/>
			</linearGradient>
			<polygon style="fill:url(#SVGID_00000040576543512324247480000015417828617323144856_);" points="2467.039,620.803 
				2467.039,2717.946 1874.525,2761.681 983.847,2827.377 991.404,585.544 1541.589,598.691 			"/>
			<path style="opacity:0.5;fill:#FFFFFF;" d="M1874.525,2761.681l-890.678,65.696l7.556-2241.833l550.186,13.148
				c-107.58,185.033-238.854,554.647,136.556,901.057C2059.681,1851.809,2212.633,2390.033,1874.525,2761.681z"/>
			
				<linearGradient id="SVGID_00000053522330781467492000000002246526914013386406_" gradientUnits="userSpaceOnUse" x1="1084.1243" y1="803.0629" x2="1756.4227" y2="803.0629">
				<stop  offset="0" style="stop-color:#FF9085"/>
				<stop  offset="1" style="stop-color:#FB6FBB"/>
			</linearGradient>
			<polygon style="opacity:0.6;fill:url(#SVGID_00000053522330781467492000000002246526914013386406_);" points="1756.128,899.949 
				1084.124,892.972 1084.715,706.177 1756.423,718.617 			"/>
			
				<linearGradient id="SVGID_00000041277358913861547100000018350999604575579277_" gradientUnits="userSpaceOnUse" x1="1272.9775" y1="1273.1365" x2="1489.172" y2="1273.1365">
				<stop  offset="0" style="stop-color:#FF9085"/>
				<stop  offset="1" style="stop-color:#FB6FBB"/>
			</linearGradient>
			<polygon style="opacity:0.6;fill:url(#SVGID_00000041277358913861547100000018350999604575579277_);" points="1488.651,1388.623 
				1272.978,1390.938 1273.62,1155.335 1489.172,1155.363 			"/>
			<polygon style="opacity:0.5;fill:#FFFFFF;" points="2316.239,1266.721 1557.776,1271.33 1558.017,1155.031 2316.277,1154.378 			
				"/>
			
				<linearGradient id="SVGID_00000044171173735329628430000003793516470255254709_" gradientUnits="userSpaceOnUse" x1="1271.681" y1="1746.0781" x2="1488.1213" y2="1746.0781">
				<stop  offset="0" style="stop-color:#FF9085"/>
				<stop  offset="1" style="stop-color:#FB6FBB"/>
			</linearGradient>
			<polygon style="opacity:0.6;fill:url(#SVGID_00000044171173735329628430000003793516470255254709_);" points="1487.599,1859.432 
				1271.681,1866.485 1272.325,1630.37 1488.121,1625.671 			"/>
			<polygon style="opacity:0.5;fill:#FFFFFF;" points="2316.083,1720.082 1556.801,1740.677 1557.043,1624.128 2316.121,1607.506 
							"/>
			
				<linearGradient id="SVGID_00000063629158289280660770000005597642316411563692_" gradientUnits="userSpaceOnUse" x1="1270.3817" y1="2220.0286" x2="1487.0684" y2="2220.0286">
				<stop  offset="0" style="stop-color:#FF9085"/>
				<stop  offset="1" style="stop-color:#FB6FBB"/>
			</linearGradient>
			<polygon style="opacity:0.6;fill:url(#SVGID_00000063629158289280660770000005597642316411563692_);" points="1486.545,2331.256 
				1270.382,2343.066 1271.027,2106.438 1487.068,2096.991 			"/>
			<polygon style="opacity:0.5;fill:#FFFFFF;" points="2315.926,2174.382 1555.824,2211.031 1556.067,2094.232 2315.965,2061.573 
							"/>
		</g>
		<g>
			
				<linearGradient id="SVGID_00000106134882377143018450000015948891645873343671_" gradientUnits="userSpaceOnUse" x1="10575.5703" y1="-556.7772" x2="10833.5303" y2="-393.9513" gradientTransform="matrix(0.1014 0.9949 0.9949 -0.1014 1778.6556 -7410.6538)">
				<stop  offset="0" style="stop-color:#AB316D"/>
				<stop  offset="1" style="stop-color:#792D3D"/>
			</linearGradient>
			<path style="fill:url(#SVGID_00000106134882377143018450000015948891645873343671_);" d="M3077.891,3194.192
				c12.156-37.105,8.536-72.601-10.86-106.488l-1474.452,150.37l10.86,106.488L3077.891,3194.192z"/>
			
				<linearGradient id="SVGID_00000039831490315820937900000017484947987938070407_" gradientUnits="userSpaceOnUse" x1="10775.7109" y1="-540.0099" x2="10598.1699" y2="-514.3853" gradientTransform="matrix(0.1014 0.9949 0.9949 -0.1014 1778.6556 -7410.6538)">
				<stop  offset="0" style="stop-color:#AB316D"/>
				<stop  offset="1" style="stop-color:#792D3D"/>
			</linearGradient>
			<path style="fill:url(#SVGID_00000039831490315820937900000017484947987938070407_);" d="M3080.448,3119.442
				c3.644,13.116,5.057,26.46,4.238,40.031l-1484.681,151.413l-4.084-40.047L3080.448,3119.442z"/>
			
				<linearGradient id="SVGID_00000056394148381267007890000015407002246150338209_" gradientUnits="userSpaceOnUse" x1="10661.8057" y1="-1602.7101" x2="10574.2295" y2="-729.1359" gradientTransform="matrix(0.1014 0.9949 0.9949 -0.1014 1778.6556 -7410.6538)">
				<stop  offset="0" style="stop-color:#FFC444"/>
				<stop  offset="0.9964" style="stop-color:#F36F56"/>
			</linearGradient>
			<path style="fill:url(#SVGID_00000056394148381267007890000015407002246150338209_);" d="M1603.439,3344.562
				c16.933-37.185,13.549-72.701-10.86-106.488l-328.689,83.821c-3.758,1.109-3.198,6.596,0.706,6.924L1603.439,3344.562z"/>
			
				<linearGradient id="SVGID_00000023994433967993936140000014069687097980654773_" gradientUnits="userSpaceOnUse" x1="10632.8096" y1="-1679.062" x2="10625.4912" y2="-1364.3611" gradientTransform="matrix(0.1014 0.9949 0.9949 -0.1014 1778.6556 -7410.6538)">
				<stop  offset="0" style="stop-color:#AB316D"/>
				<stop  offset="1" style="stop-color:#792D3D"/>
			</linearGradient>
			<path style="fill:url(#SVGID_00000023994433967993936140000014069687097980654773_);" d="M1263.89,3321.895l127.772-32.584
				c5.377,14.897,6.923,30.109,4.708,45.63l-131.774-6.123C1260.692,3328.491,1260.132,3323.003,1263.89,3321.895z"/>
		</g>
		<g>
			
				<linearGradient id="SVGID_00000175294256895583681550000007314882397378490524_" gradientUnits="userSpaceOnUse" x1="957.1368" y1="2633.0349" x2="808.5947" y2="3821.3745">
				<stop  offset="0" style="stop-color:#444B8C"/>
				<stop  offset="0.9964" style="stop-color:#26264F"/>
			</linearGradient>
			<path style="fill:url(#SVGID_00000175294256895583681550000007314882397378490524_);" d="M1260.274,3060.831
				c36.682,18.624,82.765,1.524,102.931-38.194c20.166-39.718,6.777-87.015-29.905-105.638c-1.9-0.966-3.839-1.776-5.785-2.552
				c6.816-21.978,11.954-44.128,15.399-66.286c2.103-0.006,4.213-0.041,6.357-0.232c41.85-3.731,75.065-42.186,74.189-85.897
				c-0.876-43.709-35.513-76.12-77.363-72.39c-2.188,0.196-4.336,0.542-6.472,0.921c-4.372-21.661-10.361-42.821-17.918-63.3
				c1.925-1.126,3.841-2.29,5.712-3.601c35.804-25.084,47.252-74.595,25.568-110.583c-21.684-35.988-68.289-44.826-104.093-19.743
				c-1.835,1.287-3.561,2.675-5.266,4.083c-14.143-15.633-29.652-30.121-46.434-43.344c1.179-1.935,2.335-3.895,3.38-5.952
				c20.166-39.719,46.518-83.105,9.549-101.152c-85.52-41.749-122.219-6.01-142.385,33.708c-1.044,2.057-1.944,4.147-2.81,6.241
				c-20.577-5.746-41.426-9.719-62.393-11.911c0.132-2.208,0.233-4.42,0.19-6.661c-0.878-43.708,12.091-67.362-29.916-68.178
				c-91.605-1.781-122.514,37.979-121.637,81.688c0.046,2.285,0.237,4.519,0.463,6.737c-20.993,5.983-41.609,13.634-61.677,22.888
				c-0.954-1.949-1.944-3.887-3.076-5.77c-21.684-35.988-68.289-44.825-104.094-19.74c-35.805,25.086-47.252,74.594-25.568,110.582
				c1.111,1.844,2.328,3.568,3.563,5.269c-15.855,15.858-30.706,33.077-44.426,51.548c-1.775-1.113-3.574-2.201-5.474-3.165
				c-36.682-18.624-82.766-1.524-102.932,38.194s-6.777,87.015,29.905,105.639c1.9,0.965,3.841,1.775,5.786,2.551
				c-6.815,21.978-11.954,44.128-15.4,66.286c-2.103,0.006-4.212,0.041-6.355,0.23c-41.851,3.733-75.066,42.189-74.19,85.899
				c0.876,43.71,35.514,76.118,77.364,72.387c2.186-0.195,4.336-0.538,6.471-0.92c4.372,21.662,10.361,42.822,17.918,63.301
				c-1.924,1.126-3.841,2.29-5.711,3.602c-35.805,25.083-47.252,74.594-25.568,110.582c21.684,35.989,93.473,52.708,129.277,27.623
				c1.835-1.286-21.624-10.555-19.917-11.964c14.143,15.633,29.653,30.121,46.433,43.344c-1.179,1.935-2.334,3.895-3.379,5.952
				c-20.166,39.719-6.777,87.015,29.904,105.638c36.682,18.624,82.766,1.523,102.932-38.195c1.044-2.057,1.945-4.147,2.81-6.24
				c20.578,5.745,41.427,9.718,62.393,11.91c-0.13,2.208-0.232,4.42-0.188,6.661c0.876,43.708,35.513,76.118,77.363,72.387
				c41.85-3.731,75.066-42.188,74.189-85.897c-0.047-2.284-0.237-4.518-0.463-6.737c20.994-5.983,41.61-13.634,61.677-22.888
				c0.953,1.949,1.944,3.887,3.076,5.767c21.684,35.988,68.288,44.828,104.093,19.742c35.805-25.086,47.252-74.594,25.569-110.584
				c-1.111-1.842-2.328-3.566-3.564-5.267c15.856-15.857,30.706-33.077,44.427-51.548
				C1256.574,3058.779,1258.373,3059.867,1260.274,3060.831z M803.003,3066.634c-133.182-67.619-181.793-239.34-108.575-383.55
				c73.218-144.21,240.539-206.298,373.721-138.678c133.182,67.62,181.793,239.341,108.575,383.55
				C1103.506,3072.166,936.186,3134.253,803.003,3066.634z"/>
			
				<linearGradient id="SVGID_00000009576306730108624650000009320435875344614820_" gradientUnits="userSpaceOnUse" x1="1173.3199" y1="2660.0581" x2="1024.7775" y2="3848.4009">
				<stop  offset="0" style="stop-color:#444B8C"/>
				<stop  offset="0.9964" style="stop-color:#26264F"/>
			</linearGradient>
			<path style="fill:url(#SVGID_00000009576306730108624650000009320435875344614820_);" d="M1349.271,2847.929
				c41.85-3.732,75.065-42.189,74.189-85.899c-0.876-43.708-35.513-76.12-77.363-72.388c-2.188,0.195-4.336,0.542-6.472,0.921
				c-4.371-21.663-10.361-42.82-17.918-63.3c1.925-1.125,3.841-2.29,5.712-3.602c35.804-25.084,80.101-85.697,54.841-119.269
				c-47.944-63.72-97.562-36.139-133.365-11.055c-1.835,1.287-3.561,2.674-5.266,4.082c-14.143-15.633-29.653-30.12-46.435-43.343
				c1.179-1.935,2.335-3.894,3.38-5.95c10.975-21.618,11.944-45.45,4.695-65.712c-34.583,60.869-68.701,121.993-102.207,183.449
				c106.249,77.857,140.075,231.288,73.663,362.094c-56.278,110.847-168.149,173.087-277.383,165.288
				c-4.873,12.637-9.657,25.343-14.875,37.857c-14.16,33.963-30.245,67.226-46.352,100.445c10.13,1.91,20.304,3.413,30.506,4.481
				c-0.13,2.21-0.232,4.422-0.188,6.662c0.876,43.709,27.414,80.846,103.261,76.823c41.957-2.225,49.168-46.622,48.291-90.332
				c-0.047-2.283-0.236-4.517-0.462-6.736c20.993-5.983,41.609-13.635,61.677-22.888c0.953,1.95,1.944,3.887,3.077,5.767
				c21.684,35.99,96.907,51.28,132.713,26.194c35.806-25.086,18.632-81.046-3.051-117.036c-1.111-1.843-2.328-3.567-3.563-5.269
				c15.855-15.857,30.705-33.076,44.426-51.546c1.775,1.114,3.574,2.202,5.474,3.164c36.682,18.627,82.765,1.524,102.932-38.194
				c20.165-39.717,6.777-87.015-29.905-105.638c-1.901-0.965-3.84-1.775-5.786-2.551c6.816-21.978,11.954-44.129,15.399-66.284
				C1345.017,2848.154,1347.127,2848.118,1349.271,2847.929z"/>
			
				<linearGradient id="SVGID_00000031925427501045326360000007862243982072028086_" gradientUnits="userSpaceOnUse" x1="1359.2614" y1="3296.6992" x2="-43.6073" y2="1519.7344">
				<stop  offset="0" style="stop-color:#AA80F9"/>
				<stop  offset="0.9964" style="stop-color:#6165D7"/>
			</linearGradient>
			<path style="fill:url(#SVGID_00000031925427501045326360000007862243982072028086_);" d="M1299.726,3065.318
				c36.682,18.624,82.765,1.524,102.931-38.195s6.778-87.015-29.904-105.639c-1.901-0.965-3.84-1.775-5.786-2.551
				c6.815-21.978,11.953-44.127,15.4-66.286c2.102-0.005,4.212-0.041,6.357-0.231c41.85-3.731,75.064-42.187,74.188-85.897
				c-0.875-43.711-35.513-76.12-77.362-72.39c-2.188,0.196-4.336,0.541-6.473,0.921c-4.371-21.661-10.361-42.821-17.918-63.299
				c1.926-1.126,3.841-2.29,5.712-3.602c35.805-25.083,47.252-74.594,25.568-110.583c-21.684-35.988-68.288-44.826-104.093-19.742
				c-1.835,1.286-3.561,2.674-5.266,4.083c-14.142-15.633-29.652-30.121-46.434-43.344c1.179-1.934,2.334-3.895,3.38-5.952
				c20.166-39.719,6.778-87.015-29.904-105.638c-36.682-18.624-82.765-1.524-102.931,38.195c-1.045,2.057-1.946,4.147-2.812,6.24
				c-20.578-5.745-41.427-9.718-62.392-11.91c0.13-2.209,0.232-4.42,0.188-6.661c-0.877-43.709-35.513-76.118-77.365-72.387
				c-41.85,3.73-75.066,42.188-74.189,85.896c0.046,2.285,0.237,4.518,0.463,6.737c-20.993,5.985-41.609,13.635-61.677,22.888
				c-0.954-1.949-1.943-3.887-3.076-5.77c-21.684-35.988-68.289-44.826-104.094-19.74c-35.806,25.086-47.252,74.595-25.568,110.582
				c1.111,1.844,2.328,3.569,3.563,5.27c-15.855,15.858-30.706,33.076-44.427,51.548c-1.774-1.113-3.574-2.201-5.474-3.166
				c-36.681-18.625-82.765-1.523-102.931,38.195c-20.167,39.718-6.777,87.015,29.904,105.638c1.901,0.966,3.841,1.776,5.786,2.552
				c-6.815,21.978-11.954,44.127-15.4,66.285c-2.103,0.007-4.213,0.041-6.356,0.231c-41.851,3.733-75.065,42.188-74.189,85.899
				c0.876,43.709,35.514,76.117,77.364,72.387c2.185-0.195,4.335-0.539,6.471-0.92c4.371,21.662,10.361,42.821,17.917,63.301
				c-1.924,1.125-3.84,2.289-5.71,3.601c-35.805,25.084-47.253,74.595-25.568,110.583c21.684,35.988,68.288,44.826,104.092,19.743
				c1.834-1.287,3.562-2.675,5.266-4.083c14.143,15.633,29.653,30.121,46.434,43.344c-1.179,1.935-2.335,3.895-3.38,5.952
				c-20.166,39.718-6.777,87.014,29.904,105.639c36.681,18.624,82.765,1.523,102.931-38.196c1.045-2.057,1.945-4.147,2.81-6.24
				c20.578,5.746,41.427,9.718,62.394,11.91c-0.131,2.208-0.232,4.421-0.188,6.662c0.877,43.707,35.513,76.117,77.364,72.387
				c41.85-3.731,75.066-42.189,74.188-85.897c-0.045-2.284-0.237-4.518-0.463-6.737c20.993-5.983,41.61-13.635,61.677-22.888
				c0.954,1.949,1.944,3.887,3.077,5.767c21.684,35.988,68.287,44.828,104.092,19.742c35.806-25.086,47.252-74.594,25.57-110.584
				c-1.112-1.842-2.329-3.566-3.565-5.267c15.856-15.857,30.705-33.076,44.428-51.547
				C1296.027,3063.265,1297.826,3064.352,1299.726,3065.318z M842.457,3071.12c-133.182-67.62-181.794-239.34-108.575-383.551
				c73.219-144.209,240.539-206.296,373.721-138.677s181.793,239.34,108.575,383.55
				C1142.958,3076.652,975.639,3138.739,842.457,3071.12z"/>
		</g>
		<g>
			
				<linearGradient id="SVGID_00000083082216438001595540000005455645628935742627_" gradientUnits="userSpaceOnUse" x1="666.23" y1="1839.9012" x2="573.1287" y2="2584.7129">
				<stop  offset="0" style="stop-color:#444B8C"/>
				<stop  offset="0.9964" style="stop-color:#26264F"/>
			</linearGradient>
			<path style="fill:url(#SVGID_00000083082216438001595540000005455645628935742627_);" d="M856.226,2108.03
				c22.991,11.673,51.875,0.955,64.514-23.939c12.639-24.894,4.248-54.538-18.743-66.211c-1.191-0.605-2.406-1.113-3.626-1.6
				c4.272-13.775,7.492-27.658,9.652-41.546c1.318-0.004,2.641-0.025,3.984-0.146c26.23-2.338,47.048-26.441,46.499-53.838
				c-0.549-27.396-22.258-47.71-48.489-45.371c-1.372,0.123-2.718,0.339-4.057,0.578c-2.74-13.577-6.494-26.839-11.23-39.674
				c1.207-0.706,2.407-1.436,3.58-2.257c22.441-15.722,29.616-46.754,16.025-69.309c-13.591-22.556-42.801-28.095-65.242-12.374
				c-1.15,0.806-2.232,1.676-3.301,2.559c-8.864-9.798-18.585-18.879-29.103-27.166c0.739-1.213,1.463-2.441,2.118-3.73
				c12.639-24.895,29.156-52.088,5.985-63.399c-53.601-26.167-76.603-3.767-89.243,21.127c-0.654,1.289-1.219,2.599-1.761,3.911
				c-12.897-3.601-25.965-6.091-39.106-7.465c0.083-1.384,0.146-2.771,0.119-4.175c-0.55-27.395,7.579-42.22-18.75-42.732
				c-57.415-1.116-76.788,23.804-76.238,51.199c0.029,1.432,0.148,2.832,0.29,4.223c-13.158,3.75-26.079,8.545-38.657,14.345
				c-0.598-1.222-1.218-2.436-1.928-3.616c-13.591-22.556-42.801-28.095-65.243-12.372c-22.442,15.723-29.616,46.753-16.025,69.309
				c0.696,1.156,1.459,2.236,2.233,3.302c-9.938,9.939-19.245,20.732-27.845,32.309c-1.112-0.698-2.24-1.38-3.431-1.984
				c-22.991-11.673-51.875-0.955-64.514,23.939c-12.639,24.894-4.248,54.538,18.743,66.211c1.191,0.605,2.407,1.113,3.626,1.599
				c-4.271,13.775-7.492,27.658-9.652,41.546c-1.318,0.004-2.64,0.026-3.983,0.144c-26.231,2.34-47.049,26.442-46.5,53.839
				c0.549,27.396,22.259,47.708,48.489,45.37c1.37-0.122,2.717-0.338,4.056-0.577c2.74,13.577,6.494,26.839,11.23,39.675
				c-1.206,0.706-2.407,1.435-3.58,2.257c-22.441,15.721-29.616,46.753-16.025,69.309c13.591,22.557,58.586,33.036,81.026,17.313
				c1.15-0.806-13.553-6.616-12.483-7.499c8.864,9.799,18.585,18.879,29.103,27.167c-0.739,1.212-1.463,2.441-2.118,3.731
				c-12.639,24.894-4.248,54.538,18.743,66.211c22.991,11.673,51.875,0.955,64.514-23.939c0.655-1.29,1.219-2.599,1.761-3.911
				c12.898,3.601,25.965,6.091,39.106,7.465c-0.082,1.384-0.146,2.771-0.118,4.175c0.549,27.395,22.258,47.708,48.489,45.37
				c26.23-2.338,47.049-26.442,46.499-53.837c-0.029-1.431-0.148-2.832-0.29-4.222c13.158-3.75,26.08-8.545,38.657-14.345
				c0.597,1.222,1.218,2.437,1.928,3.615c13.591,22.556,42.8,28.097,65.242,12.374c22.442-15.723,29.616-46.753,16.026-69.311
				c-0.696-1.154-1.459-2.235-2.234-3.301c9.938-9.939,19.245-20.731,27.846-32.308
				C853.907,2106.743,855.035,2107.425,856.226,2108.03z M569.624,2111.667c-83.474-42.382-113.942-150.01-68.051-240.396
				c45.891-90.386,150.762-129.301,234.236-86.919c83.474,42.382,113.942,150.011,68.051,240.396
				C757.969,2115.134,653.099,2154.048,569.624,2111.667z"/>
			
				<linearGradient id="SVGID_00000031184722384809049290000000440668511819258045_" gradientUnits="userSpaceOnUse" x1="801.7264" y1="1856.8385" x2="708.6249" y2="2601.6523">
				<stop  offset="0" style="stop-color:#444B8C"/>
				<stop  offset="0.9964" style="stop-color:#26264F"/>
			</linearGradient>
			<path style="fill:url(#SVGID_00000031184722384809049290000000440668511819258045_);" d="M912.007,1974.589
				c26.23-2.339,47.048-26.442,46.499-53.838c-0.549-27.395-22.258-47.71-48.489-45.37c-1.371,0.122-2.718,0.339-4.057,0.577
				c-2.74-13.577-6.494-26.838-11.23-39.674c1.207-0.705,2.407-1.436,3.58-2.257c22.441-15.722,50.205-53.712,34.372-74.754
				c-30.05-39.938-61.148-22.651-83.589-6.929c-1.15,0.806-2.232,1.676-3.3,2.558c-8.865-9.799-18.585-18.878-29.104-27.166
				c0.739-1.213,1.463-2.44,2.118-3.729c6.879-13.549,7.486-28.487,2.943-41.186c-21.675,38.151-43.059,76.461-64.06,114.98
				c66.593,48.798,87.794,144.963,46.169,226.948c-35.273,69.475-105.39,108.485-173.855,103.597
				c-3.054,7.921-6.052,15.884-9.323,23.728c-8.875,21.287-18.957,42.135-29.052,62.956c6.349,1.197,12.726,2.139,19.12,2.808
				c-0.082,1.385-0.146,2.771-0.118,4.176c0.549,27.395,17.182,50.672,64.721,48.15c26.297-1.395,30.817-29.221,30.267-56.617
				c-0.029-1.431-0.148-2.831-0.29-4.222c13.158-3.75,26.079-8.546,38.657-14.346c0.597,1.222,1.218,2.436,1.929,3.615
				c13.591,22.558,60.738,32.141,83.18,16.418c22.442-15.723,11.678-50.797-1.913-73.354c-0.696-1.155-1.459-2.236-2.233-3.302
				c9.938-9.939,19.245-20.731,27.845-32.308c1.112,0.698,2.24,1.38,3.431,1.983c22.991,11.675,51.875,0.955,64.514-23.939
				c12.639-24.893,4.248-54.538-18.743-66.211c-1.191-0.605-2.407-1.113-3.626-1.599c4.272-13.775,7.492-27.659,9.652-41.545
				C909.341,1974.731,910.663,1974.708,912.007,1974.589z"/>
			
				<linearGradient id="SVGID_00000127759493511800169060000002326873156574589066_" gradientUnits="userSpaceOnUse" x1="918.2682" y1="2255.864" x2="38.9969" y2="1142.1215">
				<stop  offset="0" style="stop-color:#AA80F9"/>
				<stop  offset="0.9964" style="stop-color:#6165D7"/>
			</linearGradient>
			<path style="fill:url(#SVGID_00000127759493511800169060000002326873156574589066_);" d="M880.954,2110.842
				c22.991,11.673,51.875,0.955,64.514-23.939c12.639-24.895,4.248-54.538-18.743-66.211c-1.191-0.605-2.407-1.113-3.626-1.599
				c4.272-13.775,7.492-27.657,9.652-41.546c1.318-0.003,2.64-0.025,3.984-0.145c26.23-2.339,47.048-26.441,46.499-53.838
				c-0.549-27.397-22.258-47.71-48.488-45.371c-1.371,0.123-2.718,0.339-4.057,0.577c-2.74-13.577-6.494-26.839-11.23-39.674
				c1.207-0.706,2.407-1.436,3.58-2.258c22.441-15.721,29.616-46.753,16.025-69.309c-13.591-22.556-42.801-28.096-65.242-12.374
				c-1.15,0.806-2.232,1.676-3.301,2.559c-8.864-9.798-18.585-18.879-29.103-27.166c0.739-1.212,1.463-2.441,2.118-3.73
				c12.639-24.894,4.248-54.538-18.743-66.211c-22.991-11.673-51.875-0.955-64.514,23.939c-0.655,1.289-1.22,2.599-1.762,3.911
				c-12.897-3.601-25.965-6.091-39.105-7.465c0.082-1.385,0.145-2.771,0.118-4.175c-0.55-27.395-22.258-47.708-48.49-45.37
				c-26.23,2.338-47.049,26.442-46.499,53.837c0.029,1.432,0.148,2.832,0.29,4.222c-13.158,3.751-26.079,8.546-38.657,14.346
				c-0.598-1.221-1.218-2.436-1.928-3.616c-13.591-22.556-42.801-28.095-65.242-12.372c-22.442,15.723-29.616,46.754-16.025,69.309
				c0.696,1.156,1.459,2.237,2.233,3.303c-9.938,9.939-19.245,20.731-27.845,32.308c-1.112-0.698-2.24-1.38-3.431-1.984
				c-22.991-11.673-51.875-0.955-64.514,23.939c-12.64,24.894-4.248,54.538,18.743,66.211c1.191,0.605,2.407,1.113,3.627,1.6
				c-4.272,13.775-7.493,27.657-9.652,41.545c-1.318,0.004-2.641,0.026-3.984,0.145c-26.231,2.34-47.049,26.442-46.499,53.839
				c0.549,27.396,22.259,47.707,48.489,45.37c1.37-0.122,2.717-0.338,4.056-0.576c2.74,13.577,6.494,26.839,11.23,39.675
				c-1.206,0.705-2.407,1.435-3.579,2.257c-22.442,15.722-29.616,46.754-16.025,69.309c13.591,22.556,42.801,28.096,65.242,12.374
				c1.15-0.807,2.233-1.676,3.301-2.559c8.864,9.799,18.585,18.879,29.103,27.166c-0.739,1.213-1.464,2.441-2.118,3.73
				c-12.639,24.894-4.248,54.538,18.743,66.211c22.99,11.673,51.875,0.955,64.514-23.94c0.655-1.29,1.219-2.599,1.761-3.911
				c12.898,3.601,25.965,6.091,39.106,7.465c-0.082,1.384-0.146,2.771-0.118,4.175c0.55,27.394,22.258,47.708,48.489,45.37
				c26.23-2.338,47.049-26.443,46.499-53.837c-0.028-1.432-0.148-2.832-0.29-4.222c13.158-3.75,26.08-8.546,38.657-14.345
				c0.598,1.221,1.218,2.436,1.929,3.614c13.591,22.556,42.8,28.097,65.242,12.374c22.442-15.723,29.616-46.753,16.026-69.311
				c-0.697-1.154-1.459-2.235-2.234-3.301c9.938-9.939,19.245-20.731,27.846-32.308
				C878.635,2109.555,879.763,2110.237,880.954,2110.842z M594.352,2114.478c-83.474-42.382-113.942-150.01-68.051-240.397
				c45.892-90.385,150.762-129.3,234.236-86.918c83.474,42.382,113.942,150.01,68.051,240.396
				C782.697,2117.946,677.827,2156.86,594.352,2114.478z"/>
		</g>
	</g>
</g>
</svg>
