<?xml version="1.0" encoding="UTF-8"?>
<svg id="Layer_1" xmlns="http://www.w3.org/2000/svg" version="1.1" xmlns:xlink="http://www.w3.org/1999/xlink" viewBox="0 0 3710 3710">
  <!-- Generator: Adobe Illustrator 29.1.0, SVG Export Plug-In . SVG Version: 2.1.0 Build 142)  -->
  <defs>
    <style>
      .st0 {
        fill: url(#linear-gradient2);
      }

      .st1 {
        fill: url(#linear-gradient21);
      }

      .st2, .st3, .st4 {
        fill: #fff;
      }

      .st5 {
        fill: url(#linear-gradient10);
      }

      .st5, .st6, .st3, .st7, .st4, .st8 {
        isolation: isolate;
      }

      .st5, .st6, .st7, .st8 {
        opacity: .6;
      }

      .st9 {
        fill: url(#linear-gradient1);
      }

      .st10 {
        fill: url(#linear-gradient18);
      }

      .st6 {
        fill: url(#linear-gradient11);
      }

      .st11 {
        fill: url(#linear-gradient8);
      }

      .st12 {
        fill: none;
      }

      .st3, .st13 {
        opacity: .3;
      }

      .st14 {
        fill: url(#linear-gradient16);
      }

      .st15 {
        clip-path: url(#clippath-1);
      }

      .st16 {
        fill: url(#linear-gradient22);
      }

      .st7 {
        fill: url(#linear-gradient12);
      }

      .st17 {
        fill: url(#linear-gradient19);
      }

      .st4 {
        opacity: .5;
      }

      .st18 {
        fill: url(#linear-gradient7);
      }

      .st19 {
        fill: url(#linear-gradient20);
      }

      .st20 {
        fill: url(#linear-gradient4);
      }

      .st21 {
        fill: #d8dee8;
      }

      .st22 {
        fill: url(#linear-gradient14);
      }

      .st23 {
        fill: url(#linear-gradient5);
      }

      .st24 {
        fill: url(#linear-gradient3);
      }

      .st25 {
        fill: url(#linear-gradient15);
      }

      .st26 {
        fill: url(#linear-gradient17);
      }

      .st8 {
        fill: url(#linear-gradient9);
      }

      .st27 {
        fill: url(#linear-gradient6);
      }

      .st28 {
        clip-path: url(#clippath-2);
      }

      .st29 {
        fill: url(#linear-gradient13);
      }

      .st30 {
        fill: #fcfdfe;
      }

      .st31 {
        fill: url(#linear-gradient);
      }

      .st32 {
        clip-path: url(#clippath);
      }

      .st33 {
        fill: #f4f7fa;
      }
    </style>
    <linearGradient id="linear-gradient" x1="2096.9" y1="1618.5" x2="3156" y2="1618.5" gradientTransform="translate(0 3710) scale(1 -1)" gradientUnits="userSpaceOnUse">
      <stop offset="0" stop-color="#e38ddd"/>
      <stop offset="1" stop-color="#9571f6"/>
    </linearGradient>
    <clipPath id="clippath">
      <path class="st12" d="M2059.6,2526.9c33,112,62,227.3,94.6,340.3,66.2,7.2,144.3,14.1,161.3-67.1,23.5-112.9,221.8-151.2,314.8-150.9,115.2.4,364.3-22,316.3-184.4-40-135.3-118.2-202.7,34.1-283.3,152.3-80.6,215.4-195.2,149.1-338.3-69.7-150.6,81.5-348-59.4-446.9-245.6-172.3-445.4,254.6-435.4,491.6s-117.9,182.3-271.4,224.7c-209.5,57.8-37.9,254.5-116.9,344.8-61.9,70.8-108.8,56.3-187.1,69.6Z"/>
    </clipPath>
    <clipPath id="clippath-1">
      <path class="st12" d="M2453.3,2547.6c-91.2-12.3-182.3-26.6-273.2-43.1-1.5,1.4-33.7-196.1,59-301,183.4-203.2,56-382.1,19-488.5-59-150-31.9-333.6,134.5-301.3,162.1,27.6,182.6-305.7,151.5-561.8-25.3-124.5,90.6-277.4,207.7-313.5,119.5-39.8,240.2,37.2,280,285.6,59.1,287.4-149.1,463.7-225.2,609.1-74.9,142.7,104.7,255.3-37.2,382.7-119.3,113.1-270.4,195.2-213.1,334.8,58.8,137.9,46.5,251.5-103.1,397Z"/>
    </clipPath>
    <linearGradient id="linear-gradient1" x1="4660.3" y1="2530.4" x2="4006.8" y2="673.1" gradientTransform="translate(5590.6 5058.4) rotate(-150.9)" gradientUnits="userSpaceOnUse">
      <stop offset="0" stop-color="#ff9085"/>
      <stop offset="1" stop-color="#fb6fbb"/>
    </linearGradient>
    <clipPath id="clippath-2">
      <path class="st12" d="M2453.3,2547.6c-91.2-12.3-182.3-26.6-273.2-43.1-1.5,1.4-33.7-196.1,59-301,183.4-203.2,56-382.1,19-488.5-59-150-31.9-333.6,134.5-301.3,162.1,27.6,182.6-305.7,151.5-561.8-25.3-124.5,90.6-277.4,207.7-313.5,119.5-39.8,240.2,37.2,280,285.6,59.1,287.4-149.1,463.7-225.2,609.1-74.9,142.7,104.7,255.3-37.2,382.7-119.3,113.1-270.4,195.2-213.1,334.8,58.8,137.9,46.5,251.5-103.1,397Z"/>
    </clipPath>
    <linearGradient id="linear-gradient2" x1="4865.3" y1="-1298.9" x2="3103.5" y2="-2897.7" gradientTransform="translate(-465.8 5948.6) rotate(-90) scale(1 -1)" gradientUnits="userSpaceOnUse">
      <stop offset="0" stop-color="#26264f"/>
      <stop offset="1" stop-color="#444b8c"/>
    </linearGradient>
    <linearGradient id="linear-gradient3" x1="812.3" y1="1773.7" x2="2821.5" y2="1829.7" gradientTransform="translate(0 3710) scale(1 -1)" gradientUnits="userSpaceOnUse">
      <stop offset="0" stop-color="#444b8c"/>
      <stop offset="1" stop-color="#26264f"/>
    </linearGradient>
    <linearGradient id="linear-gradient4" x1="3534.4" y1="-2700.1" x2="4529.7" y2="-1483.6" gradientTransform="translate(-465.8 5948.6) rotate(-90) scale(1 -1)" gradientUnits="userSpaceOnUse">
      <stop offset="0" stop-color="#444b8c"/>
      <stop offset="1" stop-color="#26264f"/>
    </linearGradient>
    <linearGradient id="linear-gradient5" x1="1732.4" y1="788.9" x2="1699.2" y2="535.9" gradientTransform="translate(0 3710) scale(1 -1)" gradientUnits="userSpaceOnUse">
      <stop offset="0" stop-color="#444b8c"/>
      <stop offset="1" stop-color="#26264f"/>
    </linearGradient>
    <linearGradient id="linear-gradient6" x1="1709.2" y1="2981" x2="1728" y2="2960.2" gradientTransform="translate(0 3710) scale(1 -1)" gradientUnits="userSpaceOnUse">
      <stop offset="0" stop-color="#ff9085"/>
      <stop offset="1" stop-color="#fb6fbb"/>
    </linearGradient>
    <linearGradient id="linear-gradient7" x1="1391.4" y1="117.1" x2="2000" y2="3979.6" gradientTransform="translate(0 3710) scale(1 -1)" gradientUnits="userSpaceOnUse">
      <stop offset="0" stop-color="#f36f56"/>
      <stop offset="1" stop-color="#ffc444"/>
    </linearGradient>
    <linearGradient id="linear-gradient8" x1="-94.7" y1="-1812" x2="1804.8" y2="2218.7" gradientTransform="translate(0 3710) scale(1 -1)" gradientUnits="userSpaceOnUse">
      <stop offset="0" stop-color="#f36f56"/>
      <stop offset="1" stop-color="#ffc444"/>
    </linearGradient>
    <linearGradient id="linear-gradient9" x1="1084.1" y1="2906.9" x2="1756.4" y2="2906.9" gradientTransform="translate(0 3710) scale(1 -1)" gradientUnits="userSpaceOnUse">
      <stop offset="0" stop-color="#ff9085"/>
      <stop offset="1" stop-color="#fb6fbb"/>
    </linearGradient>
    <linearGradient id="linear-gradient10" x1="1273" y1="2436.9" x2="1489.2" y2="2436.9" gradientTransform="translate(0 3710) scale(1 -1)" gradientUnits="userSpaceOnUse">
      <stop offset="0" stop-color="#ff9085"/>
      <stop offset="1" stop-color="#fb6fbb"/>
    </linearGradient>
    <linearGradient id="linear-gradient11" x1="1271.7" y1="1963.9" x2="1488.1" y2="1963.9" gradientTransform="translate(0 3710) scale(1 -1)" gradientUnits="userSpaceOnUse">
      <stop offset="0" stop-color="#ff9085"/>
      <stop offset="1" stop-color="#fb6fbb"/>
    </linearGradient>
    <linearGradient id="linear-gradient12" x1="1270.4" y1="1490" x2="1487.1" y2="1490" gradientTransform="translate(0 3710) scale(1 -1)" gradientUnits="userSpaceOnUse">
      <stop offset="0" stop-color="#ff9085"/>
      <stop offset="1" stop-color="#fb6fbb"/>
    </linearGradient>
    <linearGradient id="linear-gradient13" x1="10071.7" y1="3708.8" x2="10329.6" y2="3546" gradientTransform="translate(4965.7 -7228.9) rotate(84.2)" gradientUnits="userSpaceOnUse">
      <stop offset="0" stop-color="#ab316d"/>
      <stop offset="1" stop-color="#792d3d"/>
    </linearGradient>
    <linearGradient id="linear-gradient14" x1="10271.8" y1="3692" x2="10094.3" y2="3666.4" gradientTransform="translate(4965.7 -7228.9) rotate(84.2)" gradientUnits="userSpaceOnUse">
      <stop offset="0" stop-color="#ab316d"/>
      <stop offset="1" stop-color="#792d3d"/>
    </linearGradient>
    <linearGradient id="linear-gradient15" x1="10157.9" y1="4754.7" x2="10070.3" y2="3881.1" gradientTransform="translate(4965.7 -7228.9) rotate(84.2)" gradientUnits="userSpaceOnUse">
      <stop offset="0" stop-color="#ffc444"/>
      <stop offset="1" stop-color="#f36f56"/>
    </linearGradient>
    <linearGradient id="linear-gradient16" x1="10128.9" y1="4831.1" x2="10121.6" y2="4516.4" gradientTransform="translate(4965.7 -7228.9) rotate(84.2)" gradientUnits="userSpaceOnUse">
      <stop offset="0" stop-color="#ab316d"/>
      <stop offset="1" stop-color="#792d3d"/>
    </linearGradient>
    <linearGradient id="linear-gradient17" x1="957.1" y1="1077" x2="808.6" y2="-111.4" gradientTransform="translate(0 3710) scale(1 -1)" gradientUnits="userSpaceOnUse">
      <stop offset="0" stop-color="#444b8c"/>
      <stop offset="1" stop-color="#26264f"/>
    </linearGradient>
    <linearGradient id="linear-gradient18" x1="1173.3" y1="1049.9" x2="1024.8" y2="-138.4" gradientTransform="translate(0 3710) scale(1 -1)" gradientUnits="userSpaceOnUse">
      <stop offset="0" stop-color="#444b8c"/>
      <stop offset="1" stop-color="#26264f"/>
    </linearGradient>
    <linearGradient id="linear-gradient19" x1="1359.3" y1="413.3" x2="-43.6" y2="2190.3" gradientTransform="translate(0 3710) scale(1 -1)" gradientUnits="userSpaceOnUse">
      <stop offset="0" stop-color="#aa80f9"/>
      <stop offset="1" stop-color="#6165d7"/>
    </linearGradient>
    <linearGradient id="linear-gradient20" x1="666.2" y1="1870.1" x2="573.1" y2="1125.3" gradientTransform="translate(0 3710) scale(1 -1)" gradientUnits="userSpaceOnUse">
      <stop offset="0" stop-color="#444b8c"/>
      <stop offset="1" stop-color="#26264f"/>
    </linearGradient>
    <linearGradient id="linear-gradient21" x1="801.7" y1="1853.2" x2="708.6" y2="1108.3" gradientTransform="translate(0 3710) scale(1 -1)" gradientUnits="userSpaceOnUse">
      <stop offset="0" stop-color="#444b8c"/>
      <stop offset="1" stop-color="#26264f"/>
    </linearGradient>
    <linearGradient id="linear-gradient22" x1="918.3" y1="1454.1" x2="39" y2="2567.9" gradientTransform="translate(0 3710) scale(1 -1)" gradientUnits="userSpaceOnUse">
      <stop offset="0" stop-color="#aa80f9"/>
      <stop offset="1" stop-color="#6165d7"/>
    </linearGradient>
  </defs>
  <g id="Illustration">
    <g>
      <path class="st33" d="M1222.2,434.5c-198.9,27.8-377.9,135.5-495.6,298.2s-164.4,366.6-128.4,564.2c112.9,618.8-918.5,1886.7,481.8,2073.4,1400.3,186.7,2119.7-317.8,2153.2-777,31.9-437.7,160.3-2461.8-2011.1-2158.8Z"/>
      <g>
        <g>
          <path class="st31" d="M2283.5,2826.5c-16.8-2.6-51-23.2-57.7-32.2-44.6-60.1-135.4-167.1-128.6-245.9,1.2-13.5,61.8-24.3,70.5-36.5,36.9-16.3,50.8-19.7,78.3-52.4,81.2-96.7-92.7-287.2,117.4-346.7,153.9-43.6,281.4,12.5,271.5-224.8s189.9-663.9,435.4-491.7c140.9,98.8-10.3,296.2,59.4,446.9,66.3,143.1,3.2,257.7-149.1,338.3s-74,148-34.1,283.3c47.9,162.6-200.8,184.4-316.5,184.6-93.2.2-330.3,63.5-346.7,177.1Z"/>
          <g class="st32">
            <g>
              <path class="st30" d="M2163.4,2678.2l-1.5-3.3c254.6-115.5,466.9-305.9,614-550.5,140-232.8,219.4-510.1,229.6-801.9h3.7c-10.2,292.5-89.8,570.4-230.1,803.8-147.5,245.3-360.4,436.2-615.7,552Z"/>
              <path class="st30" d="M2974.3,2530.1c-143.2-51.4-385-59.4-538.8-17.7l-1-3.5c154.5-41.8,397.2-33.8,541,17.8l-1.2,3.5Z"/>
              <path class="st30" d="M2262.4,2632l-2.4-2.8c63-53.8,96.4-137.4,99.2-248.5,2.1-81.4-12-175.5-41.9-279.5l3.5-1c30,104.4,44.1,198.8,42,280.6-2.9,112.1-36.7,196.6-100.5,251.2Z"/>
              <path class="st30" d="M2797.7,2092.4l-2.5-2.7c113.6-107.5,276.1-132.7,392.5-134.8v3.7c-115.6,2.1-277.2,27.1-390,133.8Z"/>
              <path class="st30" d="M2938.7,1763.2l-3.6-.4c7.5-75.2-.4-228.7-138.5-411.2l2.9-2.2c138.8,183.5,146.8,338,139.2,413.8Z"/>
            </g>
          </g>
        </g>
        <g>
          <g class="st15">
            <path class="st9" d="M2453.3,2547.6c-91.2-12.3-182.3-26.6-273.2-43.1-1.5,1.4-33.7-196.1,59-301,183.4-203.2,56-382.1,19-488.5-58.4-149.9-30.6-313.4,122.6-317.6,169.9-8.1,197.3-289.8,163.4-545.4-25.3-124.5,90.6-277.4,207.7-313.5,119.5-39.8,240.2,37.2,280,285.6,59.1,287.4-149.1,463.7-225.2,609.1-74.9,142.7,104.7,255.3-37.2,382.7-119.3,113.1-270.4,195.2-213.1,334.8,58.8,137.9,46.5,251.5-103.1,397Z"/>
          </g>
          <g class="st28">
            <g>
              <path class="st30" d="M2331.7,2560.8h-3.7c0-1.8,81.8-418.9,226.9-825.9,19.9-65.8,41.6-132.3,62.6-196.5,56.2-172,114.3-349.9,140.7-526.6,29.6-197.5,16-374.9-41.4-542.4l3.5-1.2c57.7,168,71.3,346,41.6,544.1-26.5,177-84.7,355-140.9,527.2-21,64.2-42.7,130.6-62.6,196.5-138.3,388.1-225.7,811.7-226.7,824.7Z"/>
              <path class="st30" d="M2722.3,1206l-2.8-2.4c100.1-114,220.6-275.7,285.3-362.5,52.1-69.9,52.4-69.8,54.5-69.5l-.5,3.6.3-1.8.8,1.6c-2.7,1.9-24.5,31.2-52.1,68.2-64.8,86.9-185.3,248.7-285.5,362.8Z"/>
              <path class="st30" d="M2751.1,1051.1c-22.6-129-76.8-213.3-118.3-261.3-45.9-53.1-87.8-75.9-92-76.4,0,0,.4,0,.9-.3l-2.1-3c.9-.6,2-.5,4.5.5,11.3,4.7,53.6,30.5,98.3,84.7,56.3,68.3,95.2,156.5,112.5,255.2l-3.6.6Z"/>
              <path class="st30" d="M2472.6,2000.9l-3.6-.4c12.8-120.4-16.7-249.3-87.9-383.3-37.1-69.9-84.2-138.2-140-203-4-4.7-5.5-6.4-5.9-7.1l3.2-1.9c.3.5,2.6,3.2,5.5,6.6,55.9,65.1,103.2,133.6,140.4,203.7,71.5,134.6,101.3,264.3,88.3,385.4Z"/>
              <path class="st30" d="M2512.1,1873.9l-3.1-1.9c107-177.7,336.9-192.7,338.8-192.1l1.4,1.7-1.2,1.8-.6-1.7v1.8h-.2c-3,0-229.7,15.3-335.1,190.4ZM2846.7,1679.9l.6,1.7-.6-1.7Z"/>
              <path class="st30" d="M2346.1,2492.7h-3.7c1.3-52.4-18.5-141.4-120.1-268q-5.5-6.9-5.4-7.9l3.6.5-1.8-.2,1.7-.7c.3.5,2.4,3.1,4.7,6.1,102.3,127.4,122.2,217.3,120.9,270.3Z"/>
              <path class="st30" d="M2368,2393.8l-3.5-1c11.1-39.9,55.5-118.5,229-195.7,2.4-1.1,3.9-1.8,4.5-2l1.7,3.2c-.6.3-2.2,1-4.7,2.2-172.2,76.6-216.1,154-227,193.3Z"/>
            </g>
          </g>
        </g>
      </g>
      <g>
        <g>
          <path class="st0" d="M2544.1,3019.2c0,48.9-34.7,90.6-77.4,93.1l-1649.1,96.3c-49,2.9-89-37.6-89-90.1V752.8c0-52.6,40-93.7,89-91.7l1649.1,66.8c42.8,1.7,77.4,42.9,77.4,91.8v2199.5Z"/>
          <path class="st24" d="M2592.5,3019.2c0,48.9-34.7,90.6-77.4,93.1l-1649.1,96.3c-49,2.9-89-37.6-89-90.1V752.8c0-52.6,40-93.7,89-91.7l1649.1,66.8c42.8,1.7,77.4,42.9,77.4,91.8v2199.5Z"/>
          <path class="st20" d="M818.5,754.4v2361.9c0,28.1,21.3,49.7,47.5,48.2l1304.3-73.9,344.8-19.5c22.9-1.3,41.4-23.6,41.4-49.8V818.4c0-26.2-18.5-48.2-41.4-49l-357.3-13.9-1291.8-50.1c-26.2-1-47.5,20.9-47.5,49Z"/>
          <path class="st21" d="M2533.6,2919.3c0,9.7-7.8,18.1-17.4,18.6l-1651.6,84.5c-11,.6-19.9-7.5-19.9-17.9V754.4c0-10.4,8.9-18.6,19.9-18.2l1651.6,62.1c9.6.4,17.4,8.6,17.4,18.3v2102.7Z"/>
          <path class="st23" d="M1884.3,3065.8l-335.4,18.4c-17.9,1-32.5-11.4-32.5-27.8v-1.2c0-16.3,14.6-30.3,32.5-31.3l335.4-17.6c17.4-.9,31.5,11.4,31.5,27.4v1.2c0,16.1-14.1,29.9-31.5,30.8Z"/>
          <path class="st27" d="M1734.9,739.1c0,8.7-7.7,15.4-17.2,15.1-9.5-.4-17.2-7.7-17.2-16.4s7.7-15.4,17.2-15.1c9.5.4,17.2,7.7,17.2,16.4Z"/>
        </g>
        <g class="st13">
          <path class="st2" d="M2156,2864.4c-6.7-144.1,153.6-228.7,138.2-432-1.4-18.3-15.7-175.7-142.4-282.4-113.7-95.8-209.3-59.7-419.8-136.1-147.5-53.5-313.4-113.7-380.5-234.5-133.2-239.8,247.5-479.4,169.5-789.9-22.3-89-85.4-198-251.8-311.9l-403.2-16.3c-49-2-89,39.2-89,91.7v2365.7c0,52.6,40,93,89,90.1l1502.6-87.7c-160-92.5-209-181.4-212.5-256.5Z"/>
        </g>
      </g>
      <g>
        <g>
          <polygon class="st18" points="2415.7 2842.3 931.7 2951.7 939.7 709.9 2415.7 745.2 2415.7 2842.3"/>
          <polygon class="st2" points="1703.2 1024.3 1031.2 1017.3 1031.7 830.5 1703.5 843 1703.2 1024.3"/>
          <polygon class="st2" points="1420.5 1497.4 1204.9 1499.7 1205.5 1264.1 1421.1 1264.2 1420.5 1497.4"/>
          <polygon class="st2" points="2248.1 1375.5 1489.7 1380.1 1489.9 1263.8 2248.2 1263.2 2248.1 1375.5"/>
          <polygon class="st2" points="1419.5 1968.2 1203.6 1975.3 1204.2 1739.2 1420 1734.5 1419.5 1968.2"/>
          <polygon class="st2" points="2248 1828.9 1488.7 1849.5 1488.9 1732.9 2248 1716.3 2248 1828.9"/>
          <polygon class="st2" points="1418.4 2440.1 1202.3 2451.9 1202.9 2215.2 1419 2205.8 1418.4 2440.1"/>
          <polygon class="st2" points="2247.8 2283.2 1487.7 2319.8 1488 2203 2247.9 2170.4 2247.8 2283.2"/>
        </g>
        <path class="st3" d="M1823.2,2882.2l-890.7,65.7,7.6-2241.8,550.2,13.1c-107.6,185-238.9,554.6,136.6,901.1,381.5,352.1,534.5,890.3,196.4,1261.9Z"/>
        <polygon class="st11" points="2467 620.8 2467 2717.9 1874.5 2761.7 983.8 2827.4 991.4 585.5 1541.6 598.7 2467 620.8"/>
        <path class="st4" d="M1874.5,2761.7l-890.7,65.7,7.6-2241.8,550.2,13.1c-107.6,185-238.9,554.6,136.6,901.1,381.5,352.1,534.5,890.3,196.4,1261.9Z"/>
        <polygon class="st8" points="1756.1 899.9 1084.1 893 1084.7 706.2 1756.4 718.6 1756.1 899.9"/>
        <polygon class="st5" points="1488.7 1388.6 1273 1390.9 1273.6 1155.3 1489.2 1155.4 1488.7 1388.6"/>
        <polygon class="st4" points="2316.2 1266.7 1557.8 1271.3 1558 1155 2316.3 1154.4 2316.2 1266.7"/>
        <polygon class="st6" points="1487.6 1859.4 1271.7 1866.5 1272.3 1630.4 1488.1 1625.7 1487.6 1859.4"/>
        <polygon class="st4" points="2316.1 1720.1 1556.8 1740.7 1557 1624.1 2316.1 1607.5 2316.1 1720.1"/>
        <polygon class="st7" points="1486.5 2331.3 1270.4 2343.1 1271 2106.4 1487.1 2097 1486.5 2331.3"/>
        <polygon class="st4" points="2315.9 2174.4 1555.8 2211 1556.1 2094.2 2316 2061.6 2315.9 2174.4"/>
      </g>
      <g>
        <path class="st29" d="M3077.9,3194.2c12.2-37.1,8.5-72.6-10.9-106.5l-1474.5,150.4,10.9,106.5,1474.5-150.4Z"/>
        <path class="st22" d="M3080.4,3119.4c3.6,13.1,5.1,26.5,4.2,40l-1484.7,151.4-4.1-40,1484.5-151.4Z"/>
        <path class="st25" d="M1603.4,3344.6c16.9-37.2,13.5-72.7-10.9-106.5l-328.7,83.8c-3.8,1.1-3.2,6.6.7,6.9l338.8,15.7Z"/>
        <path class="st14" d="M1263.9,3321.9l127.8-32.6c5.4,14.9,6.9,30.1,4.7,45.6l-131.8-6.1c-3.9-.3-4.5-5.8-.7-6.9Z"/>
      </g>
      <g>
        <path class="st26" d="M1260.3,3060.8c36.7,18.6,82.8,1.5,102.9-38.2s6.8-87-29.9-105.6c-1.9-1-3.8-1.8-5.8-2.6,6.8-22,12-44.1,15.4-66.3,2.1,0,4.2,0,6.4-.2,41.8-3.7,75.1-42.2,74.2-85.9-.9-43.7-35.5-76.1-77.4-72.4-2.2.2-4.3.5-6.5.9-4.4-21.7-10.4-42.8-17.9-63.3,1.9-1.1,3.8-2.3,5.7-3.6,35.8-25.1,47.3-74.6,25.6-110.6s-68.3-44.8-104.1-19.7c-1.8,1.3-3.6,2.7-5.3,4.1-14.1-15.6-29.7-30.1-46.4-43.3,1.2-1.9,2.3-3.9,3.4-6,20.2-39.7,46.5-83.1,9.5-101.2-85.5-41.7-122.2-6-142.4,33.7-1,2.1-1.9,4.1-2.8,6.2-20.6-5.7-41.4-9.7-62.4-11.9.1-2.2.2-4.4.2-6.7-.9-43.7,12.1-67.4-29.9-68.2-91.6-1.8-122.5,38-121.6,81.7,0,2.3.2,4.5.5,6.7-21,6-41.6,13.6-61.7,22.9-1-1.9-1.9-3.9-3.1-5.8-21.7-36-68.3-44.8-104.1-19.7-35.8,25.1-47.3,74.6-25.6,110.6,1.1,1.8,2.3,3.6,3.6,5.3-15.9,15.9-30.7,33.1-44.4,51.5-1.8-1.1-3.6-2.2-5.5-3.2-36.7-18.6-82.8-1.5-102.9,38.2s-6.8,87,29.9,105.6c1.9,1,3.8,1.8,5.8,2.6-6.8,22-12,44.1-15.4,66.3-2.1,0-4.2,0-6.4.2-41.9,3.7-75.1,42.2-74.2,85.9s35.5,76.1,77.4,72.4c2.2-.2,4.3-.5,6.5-.9,4.4,21.7,10.4,42.8,17.9,63.3-1.9,1.1-3.8,2.3-5.7,3.6-35.8,25.1-47.3,74.6-25.6,110.6,21.7,36,93.5,52.7,129.3,27.6,1.8-1.3-21.6-10.6-19.9-12,14.1,15.6,29.7,30.1,46.4,43.3-1.2,1.9-2.3,3.9-3.4,6-20.2,39.7-6.8,87,29.9,105.6,36.7,18.6,82.8,1.5,102.9-38.2,1-2.1,1.9-4.1,2.8-6.2,20.6,5.7,41.4,9.7,62.4,11.9-.1,2.2-.2,4.4-.2,6.7.9,43.7,35.5,76.1,77.4,72.4s75.1-42.2,74.2-85.9c0-2.3-.2-4.5-.5-6.7,21-6,41.6-13.6,61.7-22.9,1,1.9,1.9,3.9,3.1,5.8,21.7,36,68.3,44.8,104.1,19.7s47.3-74.6,25.6-110.6c-1.1-1.8-2.3-3.6-3.6-5.3,15.9-15.9,30.7-33.1,44.4-51.5,1.8,1.1,3.6,2.2,5.5,3.2ZM803,3066.6c-133.2-67.6-181.8-239.3-108.6-383.6s240.5-206.3,373.7-138.7c133.2,67.6,181.8,239.3,108.6,383.6-73.2,144.2-240.5,206.3-373.7,138.7Z"/>
        <path class="st10" d="M1349.3,2847.9c41.8-3.7,75.1-42.2,74.2-85.9-.9-43.7-35.5-76.1-77.4-72.4-2.2.2-4.3.5-6.5.9-4.4-21.7-10.4-42.8-17.9-63.3,1.9-1.1,3.8-2.3,5.7-3.6,35.8-25.1,80.1-85.7,54.8-119.3-47.9-63.7-97.6-36.1-133.4-11.1-1.8,1.3-3.6,2.7-5.3,4.1-14.1-15.6-29.7-30.1-46.4-43.3,1.2-1.9,2.3-3.9,3.4-5.9,11-21.6,11.9-45.4,4.7-65.7-34.6,60.9-68.7,122-102.2,183.4,106.2,77.9,140.1,231.3,73.7,362.1-56.3,110.8-168.1,173.1-277.4,165.3-4.9,12.6-9.7,25.3-14.9,37.9-14.2,34-30.2,67.2-46.4,100.4,10.1,1.9,20.3,3.4,30.5,4.5-.1,2.2-.2,4.4-.2,6.7.9,43.7,27.4,80.8,103.3,76.8,42-2.2,49.2-46.6,48.3-90.3,0-2.3-.2-4.5-.5-6.7,21-6,41.6-13.6,61.7-22.9,1,1.9,1.9,3.9,3.1,5.8,21.7,36,96.9,51.3,132.7,26.2s18.6-81-3.1-117c-1.1-1.8-2.3-3.6-3.6-5.3,15.9-15.9,30.7-33.1,44.4-51.5,1.8,1.1,3.6,2.2,5.5,3.2,36.7,18.6,82.8,1.5,102.9-38.2,20.2-39.7,6.8-87-29.9-105.6-1.9-1-3.8-1.8-5.8-2.6,6.8-22,12-44.1,15.4-66.3,2.1,0,4.2,0,6.4-.2Z"/>
        <path class="st17" d="M1299.7,3065.3c36.7,18.6,82.8,1.5,102.9-38.2s6.8-87-29.9-105.6c-1.9-1-3.8-1.8-5.8-2.6,6.8-22,12-44.1,15.4-66.3,2.1,0,4.2,0,6.4-.2,41.8-3.7,75.1-42.2,74.2-85.9-.9-43.7-35.5-76.1-77.4-72.4-2.2.2-4.3.5-6.5.9-4.4-21.7-10.4-42.8-17.9-63.3,1.9-1.1,3.8-2.3,5.7-3.6,35.8-25.1,47.3-74.6,25.6-110.6-21.7-36-68.3-44.8-104.1-19.7-1.8,1.3-3.6,2.7-5.3,4.1-14.1-15.6-29.7-30.1-46.4-43.3,1.2-1.9,2.3-3.9,3.4-6,20.2-39.7,6.8-87-29.9-105.6-36.7-18.6-82.8-1.5-102.9,38.2-1,2.1-1.9,4.1-2.8,6.2-20.6-5.7-41.4-9.7-62.4-11.9.1-2.2.2-4.4.2-6.7-.9-43.7-35.5-76.1-77.4-72.4-41.8,3.7-75.1,42.2-74.2,85.9,0,2.3.2,4.5.5,6.7-21,6-41.6,13.6-61.7,22.9-1-1.9-1.9-3.9-3.1-5.8-21.7-36-68.3-44.8-104.1-19.7-35.8,25.1-47.3,74.6-25.6,110.6,1.1,1.8,2.3,3.6,3.6,5.3-15.9,15.9-30.7,33.1-44.4,51.5-1.8-1.1-3.6-2.2-5.5-3.2-36.7-18.6-82.8-1.5-102.9,38.2-20.2,39.7-6.8,87,29.9,105.6,1.9,1,3.8,1.8,5.8,2.6-6.8,22-12,44.1-15.4,66.3-2.1,0-4.2,0-6.4.2-41.9,3.7-75.1,42.2-74.2,85.9.9,43.7,35.5,76.1,77.4,72.4,2.2-.2,4.3-.5,6.5-.9,4.4,21.7,10.4,42.8,17.9,63.3-1.9,1.1-3.8,2.3-5.7,3.6-35.8,25.1-47.3,74.6-25.6,110.6,21.7,36,68.3,44.8,104.1,19.7,1.8-1.3,3.6-2.7,5.3-4.1,14.1,15.6,29.7,30.1,46.4,43.3-1.2,1.9-2.3,3.9-3.4,6-20.2,39.7-6.8,87,29.9,105.6,36.7,18.6,82.8,1.5,102.9-38.2,1-2.1,1.9-4.1,2.8-6.2,20.6,5.7,41.4,9.7,62.4,11.9-.1,2.2-.2,4.4-.2,6.7.9,43.7,35.5,76.1,77.4,72.4,41.8-3.7,75.1-42.2,74.2-85.9,0-2.3-.2-4.5-.5-6.7,21-6,41.6-13.6,61.7-22.9,1,1.9,1.9,3.9,3.1,5.8,21.7,36,68.3,44.8,104.1,19.7,35.8-25.1,47.3-74.6,25.6-110.6-1.1-1.8-2.3-3.6-3.6-5.3,15.9-15.9,30.7-33.1,44.4-51.5,1.8,1.1,3.6,2.2,5.5,3.2ZM842.5,3071.1c-133.2-67.6-181.8-239.3-108.6-383.6,73.2-144.2,240.5-206.3,373.7-138.7,133.2,67.6,181.8,239.3,108.6,383.6-73.2,144.2-240.5,206.3-373.7,138.7Z"/>
      </g>
      <g>
        <path class="st19" d="M856.2,2108c23,11.7,51.9,1,64.5-23.9s4.2-54.5-18.7-66.2c-1.2-.6-2.4-1.1-3.6-1.6,4.3-13.8,7.5-27.7,9.7-41.5,1.3,0,2.6,0,4-.1,26.2-2.3,47-26.4,46.5-53.8-.5-27.4-22.3-47.7-48.5-45.4-1.4.1-2.7.3-4.1.6-2.7-13.6-6.5-26.8-11.2-39.7,1.2-.7,2.4-1.4,3.6-2.3,22.4-15.7,29.6-46.8,16-69.3-13.6-22.6-42.8-28.1-65.2-12.4-1.2.8-2.2,1.7-3.3,2.6-8.9-9.8-18.6-18.9-29.1-27.2.7-1.2,1.5-2.4,2.1-3.7,12.6-24.9,29.2-52.1,6-63.4-53.6-26.2-76.6-3.8-89.2,21.1-.7,1.3-1.2,2.6-1.8,3.9-12.9-3.6-26-6.1-39.1-7.5,0-1.4.1-2.8.1-4.2-.5-27.4,7.6-42.2-18.8-42.7-57.4-1.1-76.8,23.8-76.2,51.2,0,1.4.1,2.8.3,4.2-13.2,3.8-26.1,8.5-38.7,14.3-.6-1.2-1.2-2.4-1.9-3.6-13.6-22.6-42.8-28.1-65.2-12.4-22.4,15.7-29.6,46.8-16,69.3.7,1.2,1.5,2.2,2.2,3.3-9.9,9.9-19.2,20.7-27.8,32.3-1.1-.7-2.2-1.4-3.4-2-23-11.7-51.9-1-64.5,23.9-12.6,24.9-4.2,54.5,18.7,66.2,1.2.6,2.4,1.1,3.6,1.6-4.3,13.8-7.5,27.7-9.7,41.5-1.3,0-2.6,0-4,.1-26.2,2.3-47,26.4-46.5,53.8.5,27.4,22.3,47.7,48.5,45.4,1.4-.1,2.7-.3,4.1-.6,2.7,13.6,6.5,26.8,11.2,39.7-1.2.7-2.4,1.4-3.6,2.3-22.4,15.7-29.6,46.8-16,69.3,13.6,22.6,58.6,33,81,17.3,1.1-.8-13.6-6.6-12.5-7.5,8.9,9.8,18.6,18.9,29.1,27.2-.7,1.2-1.5,2.4-2.1,3.7-12.6,24.9-4.2,54.5,18.7,66.2,23,11.7,51.9,1,64.5-23.9.7-1.3,1.2-2.6,1.8-3.9,12.9,3.6,26,6.1,39.1,7.5,0,1.4-.1,2.8-.1,4.2.5,27.4,22.3,47.7,48.5,45.4,26.2-2.3,47-26.4,46.5-53.8,0-1.4-.1-2.8-.3-4.2,13.2-3.8,26.1-8.5,38.7-14.3.6,1.2,1.2,2.4,1.9,3.6,13.6,22.6,42.8,28.1,65.2,12.4s29.6-46.8,16-69.3c-.7-1.2-1.5-2.2-2.2-3.3,9.9-9.9,19.2-20.7,27.8-32.3,1.1.7,2.2,1.4,3.4,2ZM569.6,2111.7c-83.5-42.4-113.9-150-68.1-240.4s150.8-129.3,234.2-86.9c83.5,42.4,113.9,150,68.1,240.4-45.9,90.4-150.8,129.3-234.2,86.9Z"/>
        <path class="st1" d="M912,1974.6c26.2-2.3,47-26.4,46.5-53.8-.5-27.4-22.3-47.7-48.5-45.4-1.4.1-2.7.3-4.1.6-2.7-13.6-6.5-26.8-11.2-39.7,1.2-.7,2.4-1.4,3.6-2.3,22.4-15.7,50.2-53.7,34.4-74.8-30-39.9-61.1-22.7-83.6-6.9-1.2.8-2.2,1.7-3.3,2.6-8.9-9.8-18.6-18.9-29.1-27.2.7-1.2,1.5-2.4,2.1-3.7,6.9-13.5,7.5-28.5,2.9-41.2-21.7,38.2-43.1,76.5-64.1,115,66.6,48.8,87.8,145,46.2,226.9-35.3,69.5-105.4,108.5-173.9,103.6-3.1,7.9-6.1,15.9-9.3,23.7-8.9,21.3-19,42.1-29.1,63,6.3,1.2,12.7,2.1,19.1,2.8,0,1.4-.1,2.8-.1,4.2.5,27.4,17.2,50.7,64.7,48.1,26.3-1.4,30.8-29.2,30.3-56.6,0-1.4-.1-2.8-.3-4.2,13.2-3.8,26.1-8.5,38.7-14.3.6,1.2,1.2,2.4,1.9,3.6,13.6,22.6,60.7,32.1,83.2,16.4,22.4-15.7,11.7-50.8-1.9-73.4-.7-1.2-1.5-2.2-2.2-3.3,9.9-9.9,19.2-20.7,27.8-32.3,1.1.7,2.2,1.4,3.4,2,23,11.7,51.9,1,64.5-23.9,12.6-24.9,4.2-54.5-18.7-66.2-1.2-.6-2.4-1.1-3.6-1.6,4.3-13.8,7.5-27.7,9.7-41.5,1.3,0,2.6,0,4-.1Z"/>
        <path class="st16" d="M881,2110.8c23,11.7,51.9,1,64.5-23.9,12.6-24.9,4.2-54.5-18.7-66.2-1.2-.6-2.4-1.1-3.6-1.6,4.3-13.8,7.5-27.7,9.7-41.5,1.3,0,2.6,0,4-.1,26.2-2.3,47-26.4,46.5-53.8-.5-27.4-22.3-47.7-48.5-45.4-1.4.1-2.7.3-4.1.6-2.7-13.6-6.5-26.8-11.2-39.7,1.2-.7,2.4-1.4,3.6-2.3,22.4-15.7,29.6-46.8,16-69.3-13.6-22.6-42.8-28.1-65.2-12.4-1.2.8-2.2,1.7-3.3,2.6-8.9-9.8-18.6-18.9-29.1-27.2.7-1.2,1.5-2.4,2.1-3.7,12.6-24.9,4.2-54.5-18.7-66.2-23-11.7-51.9-1-64.5,23.9-.7,1.3-1.2,2.6-1.8,3.9-12.9-3.6-26-6.1-39.1-7.5,0-1.4.1-2.8.1-4.2-.5-27.4-22.3-47.7-48.5-45.4-26.2,2.3-47,26.4-46.5,53.8,0,1.4.1,2.8.3,4.2-13.2,3.8-26.1,8.5-38.7,14.3-.6-1.2-1.2-2.4-1.9-3.6-13.6-22.6-42.8-28.1-65.2-12.4-22.4,15.7-29.6,46.8-16,69.3.7,1.2,1.5,2.2,2.2,3.3-9.9,9.9-19.2,20.7-27.8,32.3-1.1-.7-2.2-1.4-3.4-2-23-11.7-51.9-1-64.5,23.9-12.6,24.9-4.2,54.5,18.7,66.2,1.2.6,2.4,1.1,3.6,1.6-4.3,13.8-7.5,27.7-9.7,41.5-1.3,0-2.6,0-4,.1-26.2,2.3-47,26.4-46.5,53.8.5,27.4,22.3,47.7,48.5,45.4,1.4-.1,2.7-.3,4.1-.6,2.7,13.6,6.5,26.8,11.2,39.7-1.2.7-2.4,1.4-3.6,2.3-22.4,15.7-29.6,46.8-16,69.3,13.6,22.6,42.8,28.1,65.2,12.4,1.1-.8,2.2-1.7,3.3-2.6,8.9,9.8,18.6,18.9,29.1,27.2-.7,1.2-1.5,2.4-2.1,3.7-12.6,24.9-4.2,54.5,18.7,66.2,23,11.7,51.9,1,64.5-23.9.7-1.3,1.2-2.6,1.8-3.9,12.9,3.6,26,6.1,39.1,7.5,0,1.4-.1,2.8-.1,4.2.5,27.4,22.3,47.7,48.5,45.4,26.2-2.3,47-26.4,46.5-53.8,0-1.4-.1-2.8-.3-4.2,13.2-3.8,26.1-8.5,38.7-14.3.6,1.2,1.2,2.4,1.9,3.6,13.6,22.6,42.8,28.1,65.2,12.4s29.6-46.8,16-69.3c-.7-1.2-1.5-2.2-2.2-3.3,9.9-9.9,19.2-20.7,27.8-32.3,1.1.7,2.2,1.4,3.4,2ZM594.4,2114.5c-83.5-42.4-113.9-150-68.1-240.4,45.9-90.4,150.8-129.3,234.2-86.9,83.5,42.4,113.9,150,68.1,240.4-45.9,90.4-150.8,129.3-234.2,86.9Z"/>
      </g>
    </g>
  </g>
</svg>