<?xml version="1.0" encoding="UTF-8"?>
<svg id="Layer_1" xmlns="http://www.w3.org/2000/svg" version="1.1" viewBox="0 0 2984 1080">
  <!-- Generator: Adobe Illustrator 29.1.0, SVG Export Plug-In . SVG Version: 2.1.0 Build 142)  -->
  <defs>
    <style>
      .st0 {
        fill: #a00070;
      }

      .st1 {
        fill: #bc2e2e;
      }

      .st2 {
        fill: #3d0046;
      }

      .st3 {
        fill: #030044;
      }
    </style>
  </defs>
  <g>
    <path class="st1" d="M2926.9,366.7c-108.3,0,0,130.5,0,130.5,0,0,108.3-130.5,0-130.5ZM2926.9,449.2c-20.2,0-36.6-16.4-36.6-36.6s16.4-36.6,36.6-36.6,36.6,16.4,36.6,36.6-16.4,36.6-36.6,36.6Z"/>
    <path class="st0" d="M2926.9,381c-17.5,0-31.6,14.1-31.6,31.6s14.1,31.6,31.6,31.6,31.6-14.2,31.6-31.6-14.2-31.6-31.6-31.6ZM2926.9,439.1c-14.6,0-26.5-11.9-26.5-26.5s11.9-26.5,26.5-26.5,26.5,11.9,26.5,26.5-11.9,26.5-26.5,26.5Z"/>
    <path class="st2" d="M2939.1,522.6c0,6.8-5.5,12.3-12.3,12.3s-12.3-5.5-12.3-12.3,5.5-12.3,12.3-12.3,12.3,5.5,12.3,12.3Z"/>
  </g>
  <path class="st3" d="M155,906h0c10.8-4.5,18.4-14.3,19.9-25.9l15.7-118c1.1-8.2,6.4-15.2,14-18.4l41.8-17.7c10.4-4.4,19.7-11.1,27.1-19.6l4.8-5.5c3.9-4.4,1-11.3-4.9-11.7l-7.3-.5c-11.3-.8-22.6,1.1-33.1,5.3l-42.1,17c-7.7,3.1-16.4,1.9-22.9-3.1l-94.5-72.4c-9.3-7.1-21.6-8.7-32.4-4.3h0c39.6,32.1,73.8,78.6,87.4,98.2,1.9,2.7.7,6.4-2.3,7.6h0l-5.9-7.9c-2.9-3.8-8.3-4.8-12.3-2.2l-10.9,7c-1.5.9-2.6,2.4-3.2,4h0c-.6,1.7-1.8,3.2-3.4,4.1l-4,2.4,5.1-1.1c1.6-.4,3.2-.2,4.7.4l2.5,1,4.1,1.6-8.9,3.6c-5.7,2.3-11.2,5.3-16.1,9l-25,18.5-23.6-25.5c-5.1-5.5-13.2-6.7-19.7-3l-9.8,5.6,34.3,36.8-7,5.2c-1.1.8-.4,2.7,1,2.4l8.6-1.3,1.7,50.3,10.9-3c7.1-1.9,12-8.5,11.8-15.9l-1-34.9,30.4-4.5c6.1-.9,12.1-2.6,17.8-5l8.9-3.8-1.8,4-1,2.5c-.6,1.5-1.7,2.8-3.1,3.6l-4.4,2.8,4.5-1.1c1.8-.4,3.6-.2,5.3.5h0c1.6.8,3.4,1,5.1.6l12.6-2.7c4.7-1,7.8-5.5,7.2-10.3l-1.4-9.8h0c3-1.3,6.4.6,7,3.8,4.2,23.5,12.8,80.6,7.5,131.3Z"/>
  <g>
    <path class="st3" d="M356.4,658.2c-2.7,0-5.3-1.6-6.4-4.2-1.6-3.5,0-7.7,3.6-9.3,6.8-3,13.5-6.5,20.1-10.4,3.3-2,7.6-.9,9.6,2.5,2,3.3.9,7.6-2.5,9.6-7,4.1-14.2,7.9-21.5,11.1-.9.4-1.9.6-2.9.6Z"/>
    <path class="st3" d="M2549.5,738.2c-6.7,0-13.4-.2-19.9-.7-3.9-.3-6.8-3.6-6.5-7.5.3-3.9,3.6-6.8,7.5-6.5,14.7,1,30,.8,45.4-.6,3.9-.4,7.3,2.5,7.6,6.4.3,3.9-2.5,7.3-6.4,7.6-9.3.8-18.6,1.3-27.6,1.3ZM1058.8,734.8c-.2,0-.5,0-.7,0-16.5-1.7-32.7-6.3-46.9-13.4-3.5-1.7-4.9-6-3.1-9.4,1.7-3.5,6-4.9,9.4-3.1,12.7,6.4,27.2,10.5,42,12,3.9.4,6.7,3.8,6.3,7.7-.4,3.6-3.4,6.3-7,6.3ZM1104.9,730.9c-3.1,0-5.9-2-6.8-5.1-1.1-3.7,1.1-7.6,4.8-8.7,14.6-4.2,27.4-11.5,36.9-21.1,2.7-2.8,7.2-2.8,9.9,0,2.8,2.7,2.8,7.2,0,9.9-11.2,11.3-26.1,19.8-43,24.7-.6.2-1.3.3-1.9.3ZM2484.1,730.3c-.6,0-1.2,0-1.8-.2-15.9-4.1-31-9.7-44.9-16.8-3.5-1.7-4.9-6-3.1-9.4,1.7-3.5,6-4.9,9.4-3.1,13,6.6,27.2,11.9,42.1,15.7,3.8,1,6,4.8,5.1,8.6-.8,3.2-3.7,5.3-6.8,5.3ZM2622.3,729.5c-3.2,0-6.1-2.2-6.8-5.4-.9-3.8,1.4-7.6,5.2-8.5,12.2-2.9,24.3-6.6,36-10.9,2.5-.9,5-1.9,7.4-2.8,3.6-1.4,7.7.4,9.1,4,1.4,3.6-.4,7.7-4,9.1-2.6,1-5.1,2-7.7,2.9-12.2,4.5-24.8,8.3-37.5,11.3-.5.1-1.1.2-1.6.2ZM1446.6,700.1c-3.8,0-7-3.1-7-6.9,0-3.9,3.1-7.1,6.9-7.1,14-.2,28.5-3.1,42.9-8.7,3.6-1.4,7.7.4,9.1,4,1.4,3.6-.4,7.7-4,9.1-16,6.2-32.1,9.5-47.8,9.7,0,0,0,0,0,0ZM2709,696.1c-2.5,0-5-1.4-6.2-3.8-1.8-3.4-.5-7.7,3-9.5,12.9-6.8,26.3-14.5,39.7-23.1,3.3-2.1,7.6-1.1,9.7,2.1,2.1,3.3,1.1,7.6-2.1,9.7-13.7,8.8-27.4,16.7-40.7,23.7-1,.5-2.2.8-3.2.8ZM977.5,693.9c-1.9,0-3.7-.7-5.1-2.2-10.6-11.2-20-24.4-27.9-39.3-1.8-3.4-.6-7.7,2.9-9.5,3.4-1.8,7.7-.6,9.5,2.9,7.4,13.8,16.1,26,25.8,36.3,2.7,2.8,2.5,7.3-.3,9.9-1.4,1.3-3.1,1.9-4.8,1.9ZM1401.6,690.2c-1.1,0-2.1-.2-3.2-.8-2.8-1.4-5.6-3-8.3-4.7-10.7-6.9-20.2-15.8-29-27.3-2.4-3.1-1.8-7.5,1.3-9.9,3.1-2.4,7.5-1.8,9.9,1.3,7.8,10.2,16.1,18.1,25.5,24,2.3,1.5,4.7,2.8,7.1,4,3.5,1.8,4.8,6,3.1,9.4-1.2,2.4-3.7,3.9-6.3,3.9ZM2402,688.3c-1.6,0-3.3-.6-4.6-1.7-12-10.3-22.9-22.3-32.4-35.4-2.3-3.1-1.6-7.5,1.6-9.8,3.1-2.3,7.5-1.6,9.8,1.6,8.9,12.3,19,23.4,30.2,33,2.9,2.5,3.3,7,.7,9.9-1.4,1.6-3.4,2.4-5.3,2.4ZM1166.9,667.8c-.6,0-1.3,0-1.9-.3-3.7-1.1-5.9-5-4.8-8.7,4-13.8,6.1-29,8-44.7.5-3.8,4-6.6,7.8-6.1,3.9.5,6.6,4,6.1,7.8-2,16.3-4.2,32.1-8.5,46.8-.9,3.1-3.7,5.1-6.7,5.1ZM1532.1,667.7c-2.1,0-4.1-.9-5.5-2.6-2.4-3-1.9-7.4,1.1-9.9,5.2-4.2,10.1-8.8,14.6-13.5,5.4-5.9,10.7-12.3,15.5-19.2,2.2-3.2,6.6-3.9,9.8-1.7,3.2,2.2,3.9,6.6,1.7,9.8-5.2,7.3-10.8,14.3-16.7,20.6-4.9,5.3-10.3,10.3-16.1,14.9-1.3,1-2.9,1.5-4.4,1.5ZM2787.5,646.4c-2.2,0-4.3-1-5.7-2.9-2.3-3.1-1.6-7.5,1.5-9.8,11.5-8.4,23.5-17.7,36.6-28.2,3-2.4,7.5-1.9,9.9,1.1,2.4,3,1.9,7.4-1.1,9.9-13.3,10.7-25.4,20-37.1,28.6-1.3.9-2.7,1.4-4.1,1.4ZM1342.8,620.2c-2.6,0-5-1.4-6.3-3.8-1.6-3.1-3.1-6.1-4.6-9.2-4.7-9.4-9.6-19-14.7-28-.7-1.1-1.3-2.3-2-3.4-2-3.3-1-7.6,2.3-9.7,3.3-2,7.6-1,9.7,2.3.8,1.3,1.5,2.5,2.3,3.8,5.4,9.3,10.3,19.2,15.1,28.7,1.5,3,3.1,6.1,4.6,9.1,1.8,3.5.4,7.7-3.1,9.4-1,.5-2.1.8-3.2.8ZM414.4,619.6c-1.9,0-3.8-.8-5.2-2.3-2.6-2.9-2.4-7.3.4-9.9,10.5-9.7,20.9-20.9,30.7-33.4,2.4-3,6.8-3.6,9.9-1.1,3,2.4,3.6,6.8,1.1,9.9-10.3,13-21.2,24.8-32.3,35-1.3,1.2-3.1,1.9-4.7,1.9ZM2347.6,613.8c-2.7,0-5.2-1.5-6.4-4.1-6.2-13.7-11.7-28.7-16.2-44.7-1.1-3.7,1.1-7.6,4.8-8.7,3.7-1.1,7.6,1.1,8.7,4.8,4.4,15.3,9.6,29.7,15.5,42.7,1.6,3.5,0,7.7-3.5,9.3-.9.4-1.9.6-2.9.6ZM933,613.2c-3,0-5.8-1.9-6.7-5-4.4-14.4-8-30-10.6-46.3-.6-3.8,2-7.4,5.8-8,3.8-.6,7.4,2,8,5.8,2.5,15.7,5.9,30.6,10.2,44.3,1.1,3.7-.9,7.6-4.6,8.8-.7.2-1.4.3-2.1.3ZM1586.5,593.3c-1,0-2-.2-3-.7-3.5-1.6-5-5.8-3.4-9.3,5.7-12.3,11.1-25.8,17-42.5,1.3-3.7,5.3-5.6,9-4.3,3.7,1.3,5.6,5.3,4.3,9-6,17.2-11.6,31.1-17.5,43.8-1.2,2.6-3.7,4.1-6.4,4.1ZM1182.8,576.1c-.6,0-1.2,0-1.8-.2-3.8-1-6-4.8-5-8.6,5.2-19.8,13.2-33.6,25.2-43.2,3-2.4,7.4-2,9.9,1,2.4,3,2,7.4-1,9.9-9.5,7.7-16,19.1-20.4,35.9-.8,3.2-3.7,5.2-6.8,5.2ZM472.5,547.3c-1.3,0-2.5-.3-3.7-1.1-3.3-2-4.3-6.4-2.3-9.7,7.6-12.2,15-25.3,22.6-40,1.8-3.4,6-4.8,9.5-3,3.4,1.8,4.8,6,3,9.5-7.8,15.1-15.4,28.5-23.2,41-1.3,2.1-3.6,3.3-6,3.3ZM1290.6,544.2c-1.6,0-3.1-.5-4.4-1.6-12.5-10.1-25.7-16.4-38.1-18.1-3.8-.5-6.5-4.1-6-7.9.5-3.8,4.1-6.5,7.9-6,15,2.1,30.5,9.4,45,21.1,3,2.4,3.5,6.9,1,9.9-1.4,1.7-3.4,2.6-5.5,2.6ZM2321.5,524.7c-3.4,0-6.3-2.4-6.9-5.8-2.5-14.6-4.5-29.9-6.1-46.7-.4-3.9,2.5-7.3,6.3-7.7,3.9-.3,7.3,2.5,7.7,6.3,1.6,16.5,3.5,31.4,5.9,45.6.7,3.8-1.9,7.5-5.7,8.1-.4,0-.8.1-1.2.1ZM917.3,521.6c-3.6,0-6.7-2.8-7-6.4-.8-9.7-1.5-19.6-2.2-29.1-.4-5.8-.8-11.5-1.2-17.3-.3-3.9,2.6-7.2,6.5-7.5,3.9-.3,7.2,2.6,7.5,6.5.4,5.8.8,11.6,1.2,17.4.7,9.5,1.4,19.3,2.1,29,.3,3.9-2.6,7.3-6.4,7.6-.2,0-.4,0-.6,0ZM1618.3,505.9c-.7,0-1.4-.1-2.2-.3-3.7-1.2-5.7-5.2-4.5-8.8l.6-1.9c4.9-15.3,9.6-29.1,14.2-42.4,1.3-3.7,5.3-5.6,8.9-4.3,3.7,1.3,5.6,5.3,4.3,8.9-4.6,13.2-9.2,26.9-14.1,42.1l-.6,1.9c-1,3-3.7,4.9-6.7,4.9ZM516,465.1c-1,0-2.1-.2-3.1-.7-3.5-1.7-5-5.9-3.3-9.4l2.4-4.9c5.9-12.2,11.9-24.7,18.1-37,1.7-3.5,6-4.9,9.4-3.1,3.5,1.7,4.9,6,3.1,9.4-6.1,12.2-12.2,24.7-18,36.8l-2.4,4.9c-1.2,2.5-3.7,4-6.3,4ZM2312.4,432.2c-3.7,0-6.8-2.9-7-6.7l-.6-13.5c-.5-10.9-1-21.9-1.6-33-.2-3.9,2.8-7.2,6.6-7.4,3.8-.2,7.2,2.8,7.4,6.6.6,11.1,1.1,22.1,1.6,33.1l.6,13.5c.2,3.9-2.8,7.2-6.7,7.4-.1,0-.2,0-.3,0ZM909.4,428.9c-3.5,0-6.5-2.6-7-6.1-1.7-13.1-3.8-24.8-6.3-35.8-.7-3-1.4-6-2.2-9-1-3.8,1.2-7.6,5-8.6,3.7-1,7.6,1.2,8.6,5,.8,3.1,1.6,6.3,2.3,9.4,2.6,11.5,4.7,23.6,6.5,37.1.5,3.8-2.2,7.4-6,7.9-.3,0-.6,0-.9,0ZM1649.1,418.1c-.8,0-1.7-.2-2.5-.5-3.6-1.4-5.4-5.5-4-9.1,5.8-15,11.9-29.6,17.9-43.3,1.6-3.6,5.7-5.2,9.3-3.6,3.6,1.6,5.2,5.7,3.6,9.3-5.9,13.5-11.9,27.8-17.6,42.7-1.1,2.8-3.7,4.5-6.6,4.5ZM558.5,382.4c-1.2,0-2.4-.3-3.5-1-3.4-2-4.5-6.3-2.5-9.6,8.6-14.7,17.1-27.6,25.9-39.5,2.3-3.1,6.7-3.8,9.8-1.5,3.1,2.3,3.8,6.7,1.5,9.8-8.5,11.5-16.7,24-25,38.3-1.3,2.2-3.7,3.5-6.1,3.5ZM884.8,339.6c-2.6,0-5.1-1.5-6.3-4-6.8-14.1-14.7-26.9-23.7-38-2.4-3-2-7.4,1-9.9,3-2.4,7.4-2,9.9,1,9.7,11.9,18.2,25.6,25.5,40.7,1.7,3.5.2,7.7-3.3,9.4-1,.5-2,.7-3,.7ZM2306.7,339.3c-3.6,0-6.6-2.7-7-6.3-1.6-16.7-3.6-31.6-6.1-45.6-.7-3.8,1.9-7.5,5.7-8.1,3.8-.7,7.5,1.9,8.1,5.7,2.5,14.3,4.6,29.6,6.2,46.6.4,3.9-2.5,7.3-6.3,7.7-.2,0-.5,0-.7,0ZM1686.8,333.1c-1.1,0-2.2-.2-3.2-.8-3.5-1.8-4.8-6-3.1-9.4,7.3-14.3,14.9-28.1,22.7-41.2,2-3.3,6.3-4.4,9.6-2.4,3.3,2,4.4,6.3,2.4,9.6-7.6,12.8-15.1,26.3-22.2,40.3-1.2,2.4-3.7,3.8-6.3,3.8ZM614.3,308.3c-1.8,0-3.7-.7-5-2.1-2.7-2.8-2.6-7.2.1-9.9,11.4-11.1,24-21.1,37.5-29.8,3.3-2.1,7.6-1.2,9.7,2.1,2.1,3.3,1.2,7.6-2.1,9.7-12.7,8.1-24.5,17.6-35.3,28-1.4,1.3-3.1,2-4.9,2ZM826,269c-1.3,0-2.7-.4-3.9-1.2-6.7-4.4-13.8-8.2-21.1-11.2-6.2-2.6-12.6-4.6-19.2-6.1-3.8-.9-6.1-4.7-5.3-8.4.9-3.8,4.6-6.1,8.4-5.3,7.3,1.7,14.5,4,21.4,6.8,8.1,3.4,16,7.5,23.4,12.4,3.2,2.1,4.1,6.5,2,9.7-1.4,2-3.6,3.2-5.9,3.2ZM692.1,258.5c-2.9,0-5.5-1.7-6.6-4.6-1.4-3.6.5-7.7,4.1-9,15.7-5.8,31.5-9.6,46.9-11.1,3.9-.4,7.3,2.5,7.7,6.3.4,3.9-2.5,7.3-6.3,7.7-14.3,1.4-28.8,4.8-43.4,10.2-.8.3-1.6.4-2.5.4ZM1734.5,253.3c-1.4,0-2.8-.4-4-1.3-3.2-2.2-3.9-6.6-1.7-9.8,2.7-3.9,5.5-7.7,8.3-11.5,6.5-8.8,13.4-17.5,20.5-25.8,2.5-3,6.9-3.3,9.9-.8,3,2.5,3.3,6.9.8,9.9-6.9,8.1-13.6,16.5-19.9,25.1-2.7,3.7-5.5,7.4-8.1,11.2-1.4,1.9-3.5,3-5.7,3ZM2290,248c-3,0-5.8-2-6.7-5-4.6-15.1-10.1-29.3-16.5-42.2-1.7-3.5-.3-7.7,3.2-9.4,3.5-1.7,7.7-.3,9.4,3.2,6.7,13.6,12.5,28.5,17.3,44.3,1.1,3.7-1,7.6-4.7,8.8-.7.2-1.4.3-2,.3ZM1794.7,182.5c-1.8,0-3.7-.7-5-2.1-2.7-2.8-2.6-7.2.1-9.9,11.4-11.1,23.3-21.5,35.5-31.1,3-2.4,7.5-1.9,9.9,1.2,2.4,3,1.9,7.5-1.2,9.9-11.8,9.3-23.4,19.5-34.4,30.2-1.4,1.3-3.1,2-4.9,2ZM2248.5,165.3c-2.1,0-4.2-.9-5.6-2.7-9-11.7-19.5-22.5-31.2-32.2-3-2.5-3.4-6.9-.9-9.9,2.5-3,6.9-3.4,9.9-.9,12.5,10.4,23.7,22,33.4,34.4,2.4,3.1,1.8,7.5-1.3,9.9-1.3,1-2.8,1.5-4.3,1.5ZM1867.7,125.1c-2.3,0-4.6-1.2-6-3.3-2-3.3-1-7.6,2.3-9.7,13.6-8.4,27.6-16,41.7-22.5,3.5-1.6,7.7,0,9.3,3.4,1.6,3.5,0,7.7-3.4,9.3-13.5,6.3-27,13.6-40.1,21.7-1.2.7-2.4,1.1-3.7,1.1ZM2177.7,106c-1.1,0-2.3-.3-3.3-.9-13-7.1-27-13.1-41.5-18-3.7-1.2-5.7-5.2-4.4-8.9,1.2-3.7,5.2-5.7,8.9-4.4,15.3,5.1,30.1,11.5,43.8,18.9,3.4,1.9,4.7,6.1,2.8,9.5-1.3,2.3-3.7,3.7-6.2,3.7ZM1952,86.3c-3,0-5.8-1.9-6.7-5-1.1-3.7.9-7.6,4.6-8.8,9.8-3,19.8-5.6,29.7-7.7,5.5-1.2,11.1-2.2,16.6-3,3.8-.6,7.4,2.1,8,5.9.6,3.8-2.1,7.4-5.9,8-5.3.8-10.6,1.8-15.8,2.9-9.5,2-19.1,4.5-28.4,7.4-.7.2-1.4.3-2.1.3ZM2089.9,76.4c-.4,0-.8,0-1.1,0-14.9-2.4-30.1-3.7-45.2-3.8-3.9,0-7-3.2-7-7.1,0-3.9,3.2-7,7-7h0c15.9.1,31.8,1.4,47.4,4,3.8.6,6.4,4.2,5.8,8.1-.6,3.4-3.5,5.9-6.9,5.9Z"/>
    <path class="st3" d="M2860.8,588c-2,0-4-.9-5.4-2.5-2.5-3-2.1-7.4.9-9.9,6-5,11.9-10.1,17.9-15.1,3-2.5,7.4-2.1,9.9.8,2.5,3,2.1,7.4-.8,9.9-6,5-11.9,10.1-17.9,15.1-1.3,1.1-2.9,1.6-4.5,1.6Z"/>
  </g>
</svg>