<?xml version="1.0" encoding="utf-8"?>
<!-- Generator: Adobe Illustrator 27.5.0, SVG Export Plug-In . SVG Version: 6.00 Build 0)  -->
<svg version="1.1" id="Capa_2" xmlns="http://www.w3.org/2000/svg" xmlns:xlink="http://www.w3.org/1999/xlink" x="0px" y="0px"
	 viewBox="0 0 2122 2122" style="enable-background:new 0 0 2122 2122;" xml:space="preserve">
<g>
	<path style="fill:#99D3D9;" d="M1775.26,1053.821c0-104.028-17.846-202.853-51.33-292.007c-0.001-0.003-0.003-0.006-0.004-0.01
		c-3.123-8.315-6.404-16.532-9.797-24.674c-0.352-0.846-0.704-1.69-1.06-2.534c-3.402-8.079-6.922-16.082-10.589-23.983
		c-0.112-0.242-0.229-0.48-0.341-0.722c-3.8-8.165-7.734-16.237-11.813-24.203c-0.025-0.051-0.051-0.104-0.078-0.156
		c-3.994-7.797-8.138-15.483-12.395-23.082c-0.381-0.68-0.762-1.36-1.146-2.04c-4.19-7.422-8.551-14.71-12.989-21.936
		c-9.459-15.399-19.434-30.379-29.998-44.831c-0.322-0.439-0.643-0.876-0.965-1.314c-7.854-10.691-16.006-21.111-24.451-31.248
		c-8.443-10.138-17.179-19.992-26.201-29.548c-0.193-0.205-0.389-0.409-0.582-0.614c-10.28-10.861-20.969-21.29-31.976-31.36
		c-8.506-7.782-17.186-15.368-26.118-22.655c-0.057-0.047-0.116-0.093-0.173-0.14c-20.606-16.802-42.325-32.265-65.11-46.277
		c0-0.001,0-0.001-0.001-0.001c-45.742-28.132-95.782-50.369-149.631-65.865c0.004-0.012,0.007-0.026,0.011-0.038
		c-1.01-0.291-2.037-0.548-3.05-0.834c-3.187-0.899-6.386-1.772-9.598-2.624c-1.909-0.505-3.816-1.012-5.734-1.5
		c-3.393-0.865-6.806-1.693-10.228-2.505c-1.741-0.413-3.474-0.838-5.222-1.237c-3.86-0.882-7.745-1.714-11.641-2.527
		c-1.352-0.282-2.693-0.585-4.05-0.859c-5.295-1.071-10.619-2.088-15.979-3.034c-0.705-0.125-1.415-0.241-2.123-0.363
		c-6.529-1.129-13.111-2.158-19.736-3.098c-0.975-0.139-1.946-0.286-2.925-0.421c-14.364-1.973-28.956-3.481-43.757-4.541
		c-1.844-0.132-3.699-0.238-5.551-0.356c-5.537-0.351-11.106-0.634-16.703-0.855c-2.049-0.081-4.094-0.172-6.151-0.236
		c-7.311-0.225-14.655-0.374-22.066-0.374c-7.776,0-15.546,0.169-23.309,0.415c-2.128,0.068-4.254,0.155-6.38,0.241
		c-6.378,0.257-12.75,0.594-19.115,1.016c-1.518,0.1-3.038,0.175-4.556,0.285c-7.745,0.56-15.476,1.245-23.195,2.044
		c-1.622,0.168-3.24,0.366-4.861,0.544c-6.435,0.708-12.86,1.496-19.274,2.367c-1.784,0.242-3.567,0.475-5.347,0.729
		c-7.87,1.125-15.727,2.339-23.558,3.705c-0.094,0.016-0.189,0.036-0.283,0.052c-7.715,1.349-15.402,2.843-23.072,4.422
		c-1.564,0.322-3.127,0.651-4.688,0.982c-7.509,1.593-15.001,3.267-22.462,5.077c-0.216,0.052-0.433,0.099-0.651,0.152
		c-8.066,1.964-16.097,4.066-24.097,6.279c-0.879,0.243-1.754,0.498-2.631,0.744c-7.341,2.057-14.653,4.213-21.933,6.475
		c-0.688,0.214-1.378,0.42-2.064,0.635c-16.009,5.022-31.86,10.54-47.529,16.53c-0.575,0.22-1.151,0.439-1.726,0.66
		c-10.871,4.181-21.65,8.591-32.332,13.222c0-0.001,0-0.001,0-0.001c-0.017,0.008-0.033,0.015-0.05,0.022
		c-4.906,2.127-9.793,4.296-14.655,6.517c-0.096,0.043-0.19,0.087-0.285,0.131c-7.026,3.211-13.99,6.55-20.922,9.952
		c-0.542,0.265-1.094,0.51-1.634,0.777c-0.772,0.381-1.536,0.774-2.307,1.157c-0.762,0.379-1.509,0.786-2.27,1.167
		c-0.8,0.401-1.588,0.825-2.387,1.227c-0.623,0.313-1.238,0.64-1.86,0.956c-3.739,1.9-7.48,3.797-11.19,5.752
		c-1.136,0.598-2.293,1.158-3.427,1.762c-0.482,0.257-0.957,0.522-1.439,0.779c-0.271,0.145-0.541,0.295-0.812,0.441
		c-0.357,0.191-0.711,0.387-1.068,0.579c-0.044,0.024-0.088,0.049-0.132,0.073c-6.42,3.46-12.806,6.98-19.131,10.602
		c-0.09,0.052-0.182,0.104-0.273,0.157c-0.089,0.051-0.179,0.102-0.268,0.153c-0.008,0.005-0.016,0.009-0.024,0.014c0,0,0,0,0,0
		c-15.192,8.717-30.097,17.898-44.688,27.524c-0.291,0.192-0.581,0.385-0.873,0.577c-10.813,7.152-21.452,14.547-31.901,22.176
		c-0.217,0.158-0.435,0.315-0.652,0.473c-3.391,2.482-6.761,4.989-10.113,7.52c-0.384,0.29-0.763,0.582-1.147,0.873
		c-9.917,7.517-19.653,15.248-29.2,23.185c-0.72,0.598-1.44,1.196-2.157,1.797c-3.018,2.526-6.021,5.067-8.999,7.635
		c-0.343,0.296-0.682,0.597-1.026,0.893c-6.079,5.258-12.075,10.601-17.986,16.027c-0.393,0.362-0.793,0.718-1.185,1.081
		c-2.721,2.507-5.416,5.039-8.099,7.581c-1.004,0.951-2.003,1.906-3.001,2.861c-8.186,7.837-16.193,15.837-24.019,23.994
		c-1.115,1.161-2.233,2.32-3.34,3.488c-2.291,2.418-4.565,4.851-6.825,7.296c-1.214,1.315-2.417,2.639-3.621,3.961
		c-4.333,4.754-8.603,9.558-12.81,14.411c-0.782,0.902-1.576,1.793-2.353,2.697c-2.013,2.345-3.997,4.714-5.979,7.081
		c-1.383,1.65-2.762,3.303-4.129,4.964c-1.897,2.303-3.787,4.612-5.656,6.936c-1.489,1.852-2.954,3.719-4.425,5.584
		c-2.902,3.679-5.767,7.383-8.597,11.111c-1.577,2.079-3.158,4.154-4.712,6.248c-1.635,2.202-3.247,4.417-4.858,6.636
		c-1.521,2.097-3.029,4.204-4.527,6.317c-1.517,2.136-3.035,4.271-4.527,6.422c-2.51,3.618-4.987,7.257-7.429,10.917
		c-1.402,2.101-2.772,4.222-4.152,6.337c-1.627,2.496-3.247,4.995-4.842,7.509c-1.313,2.068-2.612,4.144-3.903,6.225
		c-1.636,2.637-3.246,5.289-4.847,7.946c-1.099,1.824-2.212,3.639-3.293,5.472c-2.442,4.14-4.836,8.308-7.193,12.495
		c-1.041,1.853-2.057,3.719-3.083,5.581c-1.562,2.835-3.105,5.68-4.626,8.536c-1.015,1.905-2.028,3.812-3.024,5.726
		c-1.866,3.585-3.696,7.188-5.497,10.804c-0.848,1.701-1.691,3.403-2.524,5.111c-1.878,3.851-3.721,7.719-5.525,11.604
		c-0.827,1.781-1.637,3.57-2.45,5.359c-1.47,3.241-2.914,6.495-4.331,9.759c-0.721,1.659-1.452,3.315-2.159,4.98
		c-1.981,4.658-3.913,9.336-5.786,14.039c-0.513,1.287-0.997,2.584-1.502,3.875c-1.443,3.693-2.855,7.398-4.232,11.117
		c-0.635,1.718-1.262,3.439-1.883,5.162c-1.371,3.804-2.703,7.623-4.001,11.454c-0.414,1.222-0.847,2.437-1.253,3.661
		c-1.635,4.918-3.203,9.86-4.719,14.82c-0.444,1.453-0.866,2.914-1.3,4.371c-1.128,3.789-2.222,7.589-3.28,11.402
		c-0.442,1.593-0.886,3.185-1.316,4.782c-1.324,4.923-2.605,9.861-3.81,14.822c-0.073,0.301-0.15,0.601-0.223,0.903
		c-1.224,5.075-2.367,10.175-3.465,15.288c-0.334,1.554-0.653,3.113-0.974,4.67c-0.83,4.011-1.619,8.034-2.369,12.069
		c-0.259,1.391-0.53,2.777-0.778,4.17c-0.941,5.254-1.822,10.525-2.627,15.816c-0.149,0.977-0.276,1.959-0.42,2.937
		c-0.651,4.42-1.252,8.852-1.808,13.296c-0.198,1.589-0.39,3.179-0.576,4.771c-0.52,4.453-0.993,8.918-1.416,13.395
		c-0.094,0.993-0.206,1.982-0.295,2.975c-0.482,5.391-0.885,10.799-1.227,16.222c-0.085,1.368-0.15,2.741-0.225,4.111
		c-0.239,4.25-0.433,8.509-0.581,12.777c-0.053,1.551-0.111,3.101-0.153,4.654c-0.15,5.5-0.251,11.011-0.251,16.541
		c0,206.631,76.82,396.491,206.627,530.536c3.859,3.985,7.765,7.919,11.716,11.804c3.885,3.819,7.814,7.588,11.787,11.309
		c4.244,3.974,8.537,7.891,12.881,11.75c3.858,3.428,7.756,6.811,11.693,10.147c7.541,6.391,15.213,12.621,23.033,18.665
		c6.524,5.042,13.148,9.958,19.861,14.752c5.777,4.124,11.599,8.189,17.514,12.125c7.505,4.993,15.15,9.79,22.873,14.471
		c6.57,3.982,13.19,7.893,19.913,11.644c9.752,5.439,19.664,10.632,29.73,15.57c10.067,4.937,20.287,9.62,30.659,14.039
		c6.612,2.817,13.307,5.487,20.039,8.088c9.107,3.519,18.302,6.878,27.625,9.992c10.809,3.61,21.76,6.945,32.848,9.995
		c55.442,15.25,114.31,23.395,175.977,23.395c5.787,0,11.565-0.086,17.336-0.229c1.878-0.046,3.752-0.131,5.628-0.191
		c3.896-0.128,7.79-0.269,11.678-0.461c2.214-0.109,4.424-0.246,6.634-0.376c3.574-0.21,7.144-0.439,10.71-0.702
		c2.287-0.17,4.574-0.352,6.859-0.543c3.525-0.295,7.047-0.62,10.563-0.966c2.246-0.221,4.491-0.442,6.733-0.684
		c3.665-0.397,7.32-0.836,10.974-1.288c2.055-0.254,4.112-0.492,6.162-0.764c4.38-0.581,8.748-1.218,13.112-1.878
		c1.294-0.196,2.593-0.366,3.885-0.568c5.613-0.88,11.212-1.829,16.797-2.84c1.648-0.298,3.286-0.633,4.932-0.942
		c3.964-0.745,7.924-1.503,11.87-2.313c2.156-0.443,4.303-0.915,6.454-1.376c3.432-0.737,6.862-1.485,10.282-2.27
		c2.301-0.528,4.595-1.074,6.89-1.624c3.279-0.786,6.553-1.592,9.82-2.422c2.32-0.589,4.638-1.183,6.952-1.795
		c3.28-0.867,6.552-1.767,9.818-2.678c2.24-0.625,4.483-1.24,6.716-1.885c3.534-1.021,7.052-2.088,10.569-3.16
		c1.927-0.587,3.861-1.152,5.783-1.755c5.295-1.661,10.573-3.373,15.827-5.149c1.553-0.525,3.093-1.087,4.643-1.622
		c3.801-1.311,7.597-2.632,11.375-4.003c2.235-0.811,4.455-1.657,6.682-2.489c3.074-1.148,6.146-2.299,9.205-3.486
		c2.4-0.931,4.789-1.886,7.179-2.841c2.863-1.145,5.721-2.3,8.57-3.478c2.458-1.017,4.911-2.045,7.358-3.087
		c2.769-1.178,5.527-2.379,8.281-3.589c2.458-1.08,4.916-2.159,7.362-3.264c2.755-1.245,5.495-2.522,8.235-3.799
		c2.402-1.12,4.812-2.225,7.204-3.369c2.957-1.414,5.89-2.873,8.83-4.323c3.849-1.901,7.682-3.831,11.498-5.794
		c3.02-1.553,6.044-3.098,9.043-4.689c2.54-1.348,5.057-2.738,7.582-4.113c2.403-1.31,4.81-2.612,7.2-3.945
		c2.613-1.459,5.209-2.948,7.805-4.436c2.263-1.298,4.526-2.597,6.777-3.917c2.638-1.547,5.265-3.113,7.885-4.69
		c2.162-1.301,4.316-2.614,6.465-3.936c2.663-1.638,5.323-3.283,7.966-4.952c2.03-1.281,4.045-2.582,6.062-3.882
		c2.729-1.757,5.461-3.511,8.167-5.301c1.723-1.14,3.427-2.307,5.142-3.459c10.377-6.978,20.587-14.192,30.619-21.642
		c1.332-0.989,2.673-1.963,3.998-2.959c2.9-2.182,5.771-4.4,8.641-6.62c1.519-1.175,3.04-2.345,4.551-3.531
		c2.826-2.219,5.63-4.462,8.423-6.718c1.489-1.201,2.974-2.406,4.452-3.617c2.826-2.314,5.639-4.644,8.432-6.997
		c1.34-1.129,2.67-2.268,4.003-3.406c2.914-2.487,5.821-4.982,8.698-7.509c0.958-0.842,1.903-1.698,2.857-2.545
		c14.272-12.659,28.075-25.817,41.378-39.444c0.682-0.699,1.371-1.391,2.051-2.092c2.932-3.026,5.83-6.083,8.711-9.154
		c0.848-0.903,1.697-1.805,2.54-2.712c2.843-3.059,5.661-6.139,8.453-9.242c0.782-0.868,1.558-1.74,2.336-2.611
		c2.877-3.225,5.735-6.467,8.559-9.739c0.475-0.551,0.944-1.109,1.419-1.662c10.185-11.87,19.957-24.069,29.389-36.513
		c5.659-7.466,11.227-15,16.603-22.663c0.325-0.464,0.653-0.925,0.978-1.389c2.654-3.801,5.269-7.627,7.851-11.475
		c0.381-0.567,0.76-1.135,1.14-1.703c2.604-3.904,5.178-7.828,7.709-11.778c0.206-0.323,0.409-0.648,0.615-0.971
		c12.324-19.301,23.748-39.15,34.208-59.488c3.486-6.78,6.865-13.614,10.135-20.5c0.165-0.347,0.329-0.693,0.493-1.04
		c2.085-4.411,4.128-8.843,6.123-13.297c0.112-0.25,0.222-0.501,0.334-0.751c12.485-27.958,23.162-56.729,31.873-86.182
		c0.083-0.28,0.167-0.56,0.25-0.841c1.376-4.679,2.703-9.375,3.979-14.088c0.107-0.395,0.214-0.791,0.319-1.186
		c1.286-4.78,2.528-9.575,3.71-14.389c0.001-0.007,0.003-0.014,0.004-0.021c0,0,0,0,0,0
		C1768.595,1159.709,1775.26,1107.334,1775.26,1053.821z"/>
	<g>
		<path style="fill:#58AD73;" d="M1496.639,1134.093c-29.667-32.096-80.892-23.676-124.594-23.047
			c-73.608,1.059-147.166-29.015-198.947-81.342c-15.645-15.81-33.109-35.114-55.248-32.97
			c-18.416,1.784-34.202,18.688-52.469,15.749c-15.748-2.533-25.159-18.501-31.976-32.923
			c-15.857-33.55-29.715-68.044-41.477-103.239c-9.497-28.416-11.448-69.723,17.309-78.129c23.975-7.008,53.836,16.924,72.416,0.231
			c26.772-24.054-29.101-70.666-9.094-100.583c7.285-10.895,21.872-13.922,32.036-22.195c24.038-19.564,15.243-57.479,22.185-87.684
			c11.866-51.621,68.492-76.553,109.318-110.299c35.105-29.017,59.995-69.268,72.416-113.04c0.004-0.012,0.008-0.026,0.012-0.038
			c-1.01-0.291-2.038-0.548-3.05-0.834c-3.186-0.899-6.386-1.772-9.598-2.624c-1.908-0.505-3.816-1.012-5.734-1.5
			c-3.392-0.865-6.805-1.693-10.228-2.505c-1.74-0.413-3.473-0.838-5.222-1.237c-3.86-0.882-7.745-1.714-11.64-2.527
			c-1.354-0.282-2.693-0.585-4.05-0.859c-5.295-1.071-10.619-2.088-15.979-3.034c-0.705-0.125-1.415-0.241-2.123-0.363
			c-6.529-1.129-13.111-2.158-19.736-3.098c-0.976-0.139-1.947-0.286-2.925-0.421c-14.364-1.973-28.957-3.481-43.758-4.541
			c-1.843-0.132-3.698-0.238-5.55-0.356c-5.537-0.351-11.106-0.634-16.703-0.855c-2.05-0.081-4.094-0.172-6.151-0.236
			c-7.311-0.225-14.657-0.374-22.066-0.374c-7.776,0-15.545,0.169-23.31,0.415c-2.127,0.068-4.253,0.155-6.379,0.241
			c-6.377,0.257-12.749,0.594-19.115,1.016c-1.518,0.1-3.038,0.175-4.556,0.285c-7.743,0.56-15.475,1.245-23.194,2.044
			c-1.622,0.168-3.24,0.366-4.861,0.544c-6.435,0.708-12.861,1.496-19.274,2.367c-1.783,0.242-3.567,0.475-5.347,0.729
			c-7.87,1.125-15.727,2.339-23.558,3.705c-0.094,0.016-0.189,0.036-0.283,0.052c-7.715,1.349-15.402,2.843-23.072,4.422
			c-1.565,0.322-3.126,0.651-4.688,0.982c-7.51,1.593-15.001,3.267-22.462,5.077c-0.216,0.052-0.434,0.099-0.65,0.152
			c-8.066,1.964-16.098,4.066-24.098,6.279c-0.879,0.243-1.754,0.498-2.631,0.744c-7.341,2.057-14.653,4.213-21.933,6.475
			c-0.688,0.214-1.378,0.42-2.064,0.635c-16.008,5.022-31.86,10.54-47.529,16.53c-0.575,0.22-1.151,0.439-1.726,0.66
			c-10.871,4.181-21.65,8.591-32.333,13.222c0.001-0.001,0.001-0.001,0.001-0.001c-0.017,0.008-0.034,0.015-0.05,0.022
			c-4.906,2.127-9.793,4.296-14.656,6.517c-0.096,0.043-0.19,0.087-0.284,0.131c-7.027,3.211-13.99,6.55-20.922,9.952
			c-0.542,0.265-1.094,0.51-1.635,0.777c-0.772,0.381-1.536,0.774-2.307,1.157c-0.762,0.379-1.509,0.786-2.27,1.167
			c-0.8,0.401-1.589,0.825-2.388,1.227c-0.623,0.313-1.238,0.64-1.859,0.956c-3.739,1.9-7.48,3.797-11.19,5.752
			c-1.136,0.598-2.294,1.158-3.427,1.762c-0.481,0.257-0.957,0.522-1.438,0.779c-0.272,0.145-0.541,0.295-0.813,0.441
			c-0.357,0.191-0.711,0.387-1.068,0.579c-0.044,0.024-0.088,0.049-0.133,0.073c-6.419,3.46-12.805,6.98-19.13,10.602
			c-0.09,0.052-0.183,0.104-0.272,0.157c-0.09,0.051-0.179,0.102-0.268,0.153c-0.008,0.005-0.017,0.009-0.024,0.014c0,0,0,0,0,0
			l-0.005,0.006c-9.249,12.764-17.18,26.305-22.567,41.135c-5.991,16.494-8.065,35.059-5.328,52.381
			c0.47-0.703,0.968-1.389,1.441-2.091c-0.481,0.713-0.953,1.431-1.432,2.146c2.704,17.054,10.072,32.898,23.006,44.356
			c11.949,10.585,27.394,16.522,39.602,26.808c31.459,26.503,33.752,74.38,25.183,114.612
			c-8.567,40.234-25.452,79.593-23.294,120.671c2.158,41.079,33.331,85.279,74.311,81.715c15.097-1.313,29.159-8.885,44.281-9.88
			c15.122-0.993,33.226,9.167,31.647,24.24c-1.585,15.139-21.48,30.506-10.809,41.362c6.099,6.206,16.38,2.752,25.08,2.937
			c26.542,0.564,36.753,35.423,34.148,61.843c-6.183,62.761-40.145,118.924-59.537,178.933
			c-19.393,60.008-20.147,135.048,27.72,176.107c35.964,30.85,88.514,33.078,129.255,57.27
			c14.603,8.671,27.133,19.863,38.132,32.606c0.01,0.001,0.019,0.002,0.028,0.003c-0.009-0.001-0.018-0.002-0.028-0.003
			c20.168,23.367,35.111,52.032,47.686,80.52c22.554,51.092,40.227,104.337,52.7,158.774c1.716,7.485,4.313,15.597,7.699,23.232
			c20.582-5.458,40.898-11.794,60.904-18.953c-3.033-16.686-9.78-33.01-8.174-49.854c3.687-38.713,49.347-63.64,52.111-102.43
			c1.628-22.848-12.292-43.579-18.347-65.671c-2.953-10.774-3.973-21.572-3.397-32.266c2.531-47.025,36.078-92.009,73.487-123.851
			c45.916-39.084,101.086-70.046,132.89-121.273C1515.878,1210.108,1523.238,1162.868,1496.639,1134.093z"/>
		<path style="fill:#58AD73;" d="M1725.607,971.671c4.881,55.828,3.33,112.241-4.889,167.682
			c-1.164,7.852,10.852,11.24,12.028,3.316c14.877-100.349,8.909-203.359-17.92-301.233c-8.308-30.306-18.678-60.028-30.889-88.973
			c12.779,4.395,26.609,8.104,39.993,9.351c-0.001-0.003-0.003-0.006-0.004-0.01c-3.123-8.315-6.404-16.532-9.798-24.674
			c-0.352-0.846-0.704-1.69-1.06-2.534c-3.402-8.079-6.922-16.082-10.588-23.983c-0.112-0.242-0.229-0.48-0.342-0.722
			c-3.8-8.165-7.734-16.237-11.812-24.203c-0.026-0.051-0.051-0.104-0.078-0.156c-3.994-7.797-8.138-15.483-12.395-23.082
			c-0.381-0.68-0.762-1.36-1.146-2.04c-4.191-7.422-8.551-14.71-12.989-21.936c-9.459-15.399-19.434-30.379-29.998-44.831
			c-0.321-0.439-0.643-0.876-0.964-1.314c-7.854-10.691-16.006-21.111-24.45-31.248c-8.443-10.138-17.179-19.992-26.202-29.548
			c-0.193-0.205-0.388-0.409-0.582-0.614c-10.28-10.861-20.969-21.29-31.976-31.36c-8.506-7.782-17.186-15.368-26.117-22.655
			c-0.058-0.047-0.116-0.093-0.173-0.14c-20.605-16.802-42.325-32.265-65.109-46.277c0-0.001-0.001-0.001-0.001-0.001
			c-15.294,21.768-30.519,46.228-24.798,71.722c6.444,28.708,36.916,45.642,48.939,72.495c11.564,25.832,4.494,57.245,16.735,82.763
			c12.466,25.989,41.338,39.104,68.067,49.894c33.416,13.49,67.02,26.508,100.764,39.153
			C1699.236,817.741,1718.823,894.083,1725.607,971.671z"/>
	</g>
	<path style="fill:#3ABBCE;" d="M1756.175,1210.299c-25.167,33.653-54.848,64.252-85.769,91.384
		c-82.76,72.62-180.246,131.389-285.686,163.981c-31.297,9.674-63.392,17.339-95.888,22.859c-7.311,1.242-14.647,2.348-21.995,3.369
		c-1.941,0.27-3.887,0.503-5.83,0.757c-5.554,0.727-11.116,1.401-16.686,2.001c-2.128,0.229-4.258,0.446-6.387,0.656
		c-5.746,0.567-11.498,1.064-17.254,1.492c-1.691,0.127-3.382,0.268-5.073,0.382c-15.414,1.039-30.85,1.606-46.272,1.633
		c-0.019,0-0.039,0-0.058,0c-7.569,0.013-15.131-0.117-22.688-0.353c-1.036-0.032-2.07-0.077-3.105-0.114
		c-6.777-0.242-13.545-0.583-20.303-1.028c-0.996-0.066-1.993-0.127-2.987-0.197c-7.519-0.529-15.027-1.164-22.513-1.949
		c-0.009-0.001-0.018-0.002-0.028-0.003c-111.405-11.68-218.637-51.895-306.028-126.755
		c-151.512-129.787-235.704-334.907-208.723-533.044c14.428-105.955,56.677-205.3,116.024-293.782
		c0.479-0.714,0.951-1.433,1.432-2.146c3.524-5.22,7.091-10.416,10.732-15.559c0.616-0.87,1.252-1.726,1.872-2.594
		c3.171-4.444,6.388-8.857,9.643-13.241c1.264-1.702,2.536-3.398,3.812-5.091c3.102-4.115,6.239-8.203,9.413-12.263
		c0.855-1.095,1.694-2.201,2.555-3.292c3.935-4.988,7.933-9.927,11.972-14.83c1.174-1.426,2.363-2.841,3.547-4.259
		c3.233-3.877,6.496-7.728,9.79-11.549c1.107-1.285,2.207-2.576,3.32-3.854c4.251-4.877,8.545-9.713,12.891-14.498
		c0.78-0.859,1.574-1.704,2.356-2.559c3.731-4.076,7.497-8.117,11.295-12.124c1.179-1.245,2.358-2.489,3.543-3.727
		c4.525-4.724,9.079-9.416,13.69-14.042c0,0-0.001,0-0.001,0.001c0,0,0-0.001,0-0.001c10.746-4.664,21.559-9.178,32.495-13.387
		c-10.871,4.181-21.65,8.591-32.333,13.222c0.001-0.001,0.001-0.001,0.001-0.001c-0.017,0.008-0.034,0.015-0.05,0.022
		c-4.906,2.127-9.793,4.296-14.656,6.517c-0.096,0.043-0.19,0.087-0.285,0.131c-7.026,3.211-13.99,6.55-20.922,9.952
		c-0.542,0.265-1.094,0.51-1.634,0.777c-0.772,0.381-1.536,0.774-2.307,1.157c-0.762,0.379-1.509,0.786-2.27,1.167
		c-0.8,0.401-1.589,0.825-2.388,1.227c-0.623,0.313-1.238,0.64-1.859,0.956c-3.739,1.9-7.48,3.797-11.19,5.752
		c-1.136,0.598-2.294,1.158-3.427,1.762c-0.481,0.257-0.957,0.522-1.438,0.779c-0.272,0.145-0.541,0.295-0.813,0.441
		c-0.357,0.191-0.711,0.387-1.068,0.579c-0.044,0.024-0.088,0.049-0.132,0.073c-6.42,3.46-12.805,6.98-19.131,10.602
		c-0.09,0.052-0.182,0.104-0.272,0.157c-0.09,0.051-0.179,0.102-0.268,0.153c-0.008,0.005-0.016,0.009-0.024,0.014c0,0,0,0,0,0
		c-15.193,8.717-30.098,17.898-44.689,27.524c-0.291,0.192-0.581,0.385-0.872,0.577c-10.814,7.152-21.452,14.547-31.901,22.176
		c-0.217,0.158-0.435,0.315-0.652,0.473c-3.391,2.482-6.762,4.989-10.113,7.52c-0.384,0.29-0.764,0.582-1.148,0.873
		c-9.917,7.517-19.653,15.248-29.2,23.185c-0.72,0.598-1.44,1.196-2.158,1.797c-3.017,2.526-6.02,5.067-8.998,7.635
		c-0.343,0.296-0.683,0.597-1.025,0.893c-6.08,5.258-12.075,10.601-17.987,16.027c-0.393,0.362-0.793,0.718-1.185,1.081
		c-2.721,2.507-5.415,5.039-8.098,7.581c-1.004,0.951-2.003,1.906-3.001,2.861c-8.186,7.837-16.194,15.837-24.019,23.994
		c-1.115,1.161-2.233,2.32-3.34,3.488c-2.292,2.418-4.566,4.851-6.825,7.296c-1.214,1.315-2.416,2.639-3.621,3.961
		c-4.333,4.754-8.604,9.558-12.81,14.411c-0.782,0.902-1.576,1.793-2.353,2.697c-2.014,2.345-3.996,4.714-5.98,7.081
		c-1.383,1.65-2.761,3.303-4.128,4.964c-1.898,2.303-3.788,4.612-5.657,6.936c-1.489,1.852-2.954,3.719-4.425,5.584
		c-2.902,3.679-5.767,7.383-8.597,11.111c-1.577,2.079-3.159,4.154-4.713,6.248c-1.634,2.202-3.247,4.417-4.857,6.636
		c-1.522,2.097-3.029,4.204-4.528,6.317c-1.517,2.136-3.036,4.271-4.528,6.422c-2.51,3.618-4.987,7.257-7.428,10.917
		c-1.402,2.101-2.773,4.222-4.152,6.337c-1.627,2.496-3.247,4.995-4.841,7.509c-1.313,2.068-2.613,4.144-3.904,6.225
		c-1.636,2.637-3.246,5.289-4.846,7.946c-1.099,1.824-2.212,3.639-3.294,5.472c-2.442,4.14-4.836,8.308-7.192,12.495
		c-1.042,1.853-2.058,3.719-3.083,5.581c-1.561,2.835-3.105,5.68-4.626,8.536c-1.015,1.905-2.028,3.812-3.025,5.726
		c-1.866,3.585-3.695,7.188-5.496,10.804c-0.848,1.701-1.691,3.403-2.524,5.111c-1.879,3.851-3.721,7.719-5.525,11.604
		c-0.828,1.781-1.637,3.57-2.45,5.359c-1.471,3.241-2.913,6.495-4.331,9.759c-0.722,1.659-1.452,3.315-2.16,4.98
		c-1.98,4.658-3.913,9.336-5.785,14.039c-0.512,1.287-0.998,2.584-1.502,3.875c-1.443,3.693-2.856,7.398-4.231,11.117
		c-0.635,1.718-1.263,3.439-1.883,5.162c-1.37,3.804-2.703,7.623-4.001,11.454c-0.415,1.222-0.846,2.437-1.253,3.661
		c-1.634,4.918-3.203,9.86-4.719,14.82c-0.444,1.453-0.866,2.914-1.3,4.371c-1.129,3.789-2.222,7.589-3.28,11.402
		c-0.442,1.593-0.886,3.185-1.315,4.782c-1.324,4.923-2.605,9.861-3.811,14.822c-0.073,0.301-0.149,0.601-0.223,0.903
		c-1.225,5.075-2.366,10.175-3.465,15.288c-0.334,1.554-0.652,3.113-0.974,4.67c-0.829,4.011-1.618,8.034-2.369,12.069
		c-0.259,1.391-0.53,2.777-0.779,4.17c-0.941,5.254-1.822,10.525-2.627,15.816c-0.149,0.977-0.276,1.959-0.42,2.937
		c-0.65,4.42-1.252,8.852-1.808,13.296c-0.198,1.589-0.39,3.179-0.576,4.771c-0.52,4.453-0.993,8.918-1.416,13.395
		c-0.094,0.993-0.206,1.982-0.295,2.975c-0.482,5.391-0.886,10.799-1.226,16.222c-0.085,1.368-0.15,2.741-0.226,4.111
		c-0.238,4.25-0.432,8.509-0.58,12.777c-0.054,1.551-0.111,3.101-0.154,4.654c-0.15,5.5-0.251,11.011-0.251,16.541
		c0,206.631,76.82,396.491,206.627,530.536c3.859,3.985,7.765,7.919,11.716,11.804c3.884,3.819,7.813,7.588,11.787,11.309
		c4.244,3.974,8.537,7.891,12.881,11.75c3.858,3.428,7.756,6.811,11.693,10.147c7.54,6.391,15.213,12.621,23.033,18.665
		c6.524,5.042,13.147,9.958,19.861,14.752c5.777,4.124,11.599,8.189,17.514,12.125c7.505,4.993,15.15,9.79,22.873,14.471
		c6.57,3.982,13.19,7.893,19.914,11.644c9.752,5.439,19.664,10.632,29.729,15.57c10.067,4.937,20.288,9.62,30.659,14.039
		c6.612,2.817,13.306,5.487,20.039,8.088c9.108,3.519,18.302,6.878,27.625,9.992c10.809,3.61,21.76,6.945,32.848,9.995
		c55.442,15.25,114.311,23.395,175.977,23.395c5.787,0,11.565-0.086,17.336-0.229c1.877-0.046,3.751-0.131,5.627-0.191
		c3.896-0.128,7.79-0.269,11.678-0.461c2.215-0.109,4.424-0.246,6.634-0.376c3.574-0.21,7.144-0.439,10.71-0.702
		c2.288-0.17,4.574-0.352,6.859-0.543c3.526-0.295,7.047-0.62,10.563-0.966c2.246-0.221,4.491-0.442,6.733-0.684
		c3.665-0.397,7.32-0.836,10.974-1.288c2.055-0.254,4.112-0.492,6.162-0.764c4.38-0.581,8.748-1.218,13.112-1.878
		c1.294-0.196,2.593-0.366,3.885-0.568c5.613-0.88,11.212-1.829,16.797-2.84c1.648-0.298,3.286-0.633,4.932-0.942
		c3.963-0.745,7.923-1.503,11.869-2.313c2.156-0.443,4.304-0.915,6.454-1.376c3.433-0.737,6.863-1.485,10.283-2.27
		c2.3-0.528,4.596-1.074,6.89-1.624c3.279-0.786,6.553-1.592,9.82-2.422c2.32-0.589,4.638-1.183,6.952-1.795
		c3.281-0.867,6.552-1.767,9.819-2.678c2.24-0.625,4.482-1.24,6.715-1.885c3.534-1.021,7.052-2.088,10.569-3.16
		c1.927-0.587,3.861-1.152,5.784-1.755c5.294-1.661,10.572-3.373,15.827-5.149c1.553-0.525,3.093-1.087,4.643-1.622
		c3.8-1.311,7.597-2.632,11.375-4.003c2.235-0.811,4.456-1.657,6.683-2.489c3.074-1.148,6.146-2.299,9.204-3.486
		c2.4-0.931,4.789-1.886,7.179-2.841c2.864-1.145,5.721-2.3,8.57-3.478c2.458-1.017,4.911-2.045,7.358-3.087
		c2.769-1.178,5.527-2.379,8.281-3.589c2.458-1.08,4.916-2.159,7.362-3.264c2.755-1.245,5.495-2.522,8.234-3.799
		c2.403-1.12,4.813-2.225,7.204-3.369c2.957-1.414,5.891-2.873,8.83-4.323c3.849-1.901,7.682-3.831,11.498-5.794
		c3.019-1.553,6.043-3.098,9.043-4.689c2.539-1.348,5.057-2.738,7.582-4.113c2.403-1.31,4.81-2.612,7.2-3.945
		c2.612-1.459,5.208-2.948,7.804-4.436c2.263-1.298,4.526-2.597,6.778-3.917c2.638-1.547,5.265-3.113,7.885-4.69
		c2.162-1.301,4.316-2.614,6.466-3.936c2.663-1.638,5.322-3.283,7.966-4.952c2.029-1.281,4.044-2.582,6.062-3.882
		c2.729-1.757,5.46-3.511,8.167-5.301c1.724-1.14,3.427-2.307,5.143-3.459c10.376-6.978,20.587-14.192,30.618-21.642
		c1.331-0.989,2.673-1.963,3.998-2.959c2.9-2.182,5.771-4.4,8.641-6.62c1.519-1.175,3.041-2.345,4.551-3.531
		c2.825-2.219,5.63-4.462,8.424-6.718c1.488-1.201,2.973-2.406,4.452-3.617c2.826-2.314,5.639-4.644,8.432-6.997
		c1.34-1.129,2.67-2.268,4.004-3.406c2.914-2.487,5.821-4.982,8.698-7.509c0.958-0.842,1.904-1.698,2.858-2.545
		c14.272-12.659,28.076-25.817,41.378-39.444c0.682-0.699,1.371-1.391,2.051-2.092c2.932-3.026,5.829-6.083,8.711-9.154
		c0.848-0.903,1.697-1.805,2.539-2.712c2.843-3.059,5.661-6.139,8.453-9.242c0.782-0.868,1.558-1.74,2.336-2.611
		c2.878-3.225,5.736-6.467,8.559-9.739c0.475-0.551,0.944-1.109,1.419-1.662c10.186-11.87,19.958-24.069,29.389-36.513
		c5.659-7.466,11.227-15,16.603-22.663c0.325-0.464,0.654-0.925,0.978-1.389c2.654-3.801,5.269-7.627,7.852-11.475
		c0.381-0.567,0.76-1.135,1.139-1.703c2.605-3.904,5.179-7.828,7.709-11.778c0.207-0.323,0.41-0.648,0.616-0.971
		c12.324-19.301,23.748-39.15,34.208-59.488c3.486-6.78,6.865-13.614,10.135-20.5c0.164-0.347,0.329-0.693,0.494-1.04
		c2.085-4.411,4.128-8.843,6.122-13.297c0.112-0.25,0.222-0.501,0.334-0.751c12.485-27.958,23.162-56.729,31.873-86.182
		c0.083-0.28,0.168-0.56,0.25-0.841c1.376-4.679,2.702-9.375,3.979-14.088c0.107-0.395,0.212-0.791,0.319-1.186
		c1.287-4.78,2.528-9.575,3.71-14.389C1756.172,1210.313,1756.174,1210.305,1756.175,1210.299
		C1756.176,1210.299,1756.176,1210.299,1756.175,1210.299z"/>
	<g>
		<path style="fill:#046B59;" d="M1261.007,1492.649c-5.554,0.727-11.116,1.401-16.686,2.001c-2.128,0.229-4.257,0.446-6.387,0.656
			c-5.747,0.567-11.498,1.064-17.255,1.492c-1.691,0.127-3.382,0.268-5.073,0.382c-15.413,1.039-30.85,1.606-46.271,1.633
			c-0.019,0-0.039,0-0.058,0c-7.569,0.013-15.132-0.117-22.688-0.353c-1.036-0.032-2.07-0.077-3.106-0.114
			c-6.776-0.242-13.545-0.583-20.303-1.028c-0.997-0.066-1.993-0.127-2.988-0.197c-7.519-0.529-15.027-1.164-22.513-1.949
			c-0.009-0.001-0.018-0.002-0.028-0.003c20.168,23.367,35.111,52.032,47.686,80.52c22.554,51.092,40.227,104.337,52.7,158.774
			c1.716,7.485,4.313,15.597,7.699,23.232c20.582-5.458,40.898-11.794,60.904-18.953c-3.033-16.686-9.78-33.01-8.174-49.854
			c3.687-38.713,49.348-63.64,52.111-102.43c1.628-22.848-12.292-43.579-18.347-65.671c-2.953-10.774-3.973-21.572-3.397-32.266l0,0
			c-7.311,1.242-14.647,2.348-21.995,3.369C1264.896,1492.162,1262.951,1492.395,1261.007,1492.649z"/>
		<path style="fill:#046B59;" d="M704.244,489.154c-5.991,16.494-8.065,35.059-5.329,52.381c0.471-0.703,0.969-1.389,1.442-2.091
			c3.525-5.22,7.091-10.416,10.732-15.559c0.616-0.87,1.251-1.726,1.871-2.594c3.171-4.444,6.388-8.857,9.644-13.241
			c1.264-1.702,2.536-3.398,3.812-5.091c3.102-4.115,6.239-8.203,9.413-12.263c0.855-1.095,1.694-2.201,2.555-3.292
			c3.936-4.988,7.933-9.927,11.972-14.83c1.174-1.426,2.363-2.841,3.547-4.259c3.233-3.877,6.496-7.728,9.79-11.549
			c1.108-1.285,2.207-2.576,3.321-3.854c4.251-4.877,8.544-9.713,12.891-14.498c0.78-0.859,1.574-1.704,2.356-2.559
			c3.731-4.076,7.497-8.117,11.295-12.124c1.179-1.245,2.358-2.489,3.543-3.727c4.525-4.724,9.079-9.416,13.691-14.042
			c0,0-0.001,0-0.001,0.001c-10,4.339-19.908,8.883-29.732,13.594c-0.896,0.43-1.799,0.848-2.693,1.281
			c-3.995,1.932-7.962,3.916-11.924,5.91c-3.595,1.81-7.169,3.659-10.737,5.519c-2.665,1.389-5.343,2.753-7.991,4.17
			c-0.357,0.191-0.711,0.387-1.068,0.579c-6.614,3.553-13.182,7.188-19.691,10.921c-0.038,0.021-0.076,0.041-0.113,0.063
			c-0.009,0.005-0.017,0.009-0.024,0.014c0,0,0,0,0,0c-0.001,0.002-0.003,0.004-0.005,0.006
			C717.562,460.783,709.63,474.324,704.244,489.154z"/>
		<path style="fill:#FFFFFF;" d="M1486.272,481.94c-6.069-5.191-14.931,3.592-8.82,8.82
			c67.826,58.014,124.535,128.448,166.702,207.117c8.526,15.906,16.428,32.134,23.699,48.638
			c31.382,71.226,50.97,147.569,57.753,225.157c4.881,55.828,3.33,112.241-4.889,167.682c-1.164,7.852,10.852,11.24,12.028,3.316
			c14.877-100.349,8.91-203.359-17.92-301.233c-8.308-30.306-18.678-60.028-30.889-88.973
			c-23.828-56.489-54.792-109.97-92.022-158.689C1560.69,552.91,1525.359,515.373,1486.272,481.94z"/>
	</g>
</g>
</svg>
