<?xml version="1.0" standalone="no"?>
<!DOCTYPE svg PUBLIC "-//W3C//DTD SVG 1.1//EN" "http://www.w3.org/Graphics/SVG/1.1/DTD/svg11.dtd">
<svg xmlns="http://www.w3.org/2000/svg" id="Layer_1" version="1.1" viewBox="0 0 595.28 841.89" width="595.280029296875" height="841.8900146484375">
  <!-- Generator: Adobe Illustrator 29.1.0, SVG Export Plug-In . SVG Version: 2.1.0 Build 142)  -->
  <defs>
    <style>
      .st0 {
        fill: #006dcf;
      }

      .st1 {
        opacity: .6;
      }

      .st2 {
        fill: #ffc5b0;
      }

      .st3 {
        fill: #ff735d;
      }

      .st4 {
        opacity: .3;
      }

      .st5 {
        fill: #fff;
      }

      .st6 {
        fill: #009942;
      }

      .st7 {
        fill: #f6957f;
      }

      .st8 {
        fill: #375a64;
      }

      .st9 {
        fill: #1a2e35;
      }

      .st10 {
        fill: #00d35e;
      }

      .st11 {
        fill: #ececec;
      }

      .st12 {
        fill: #004789;
      }

      .st13 {
        fill: #f5f5f5;
      }

      .st14 {
        fill: #e1e1e1;
      }
    </style>
  </defs>
  <g>
    <path class="st9" d="M486.24,786.12l5.58,53.09h-16.45l-21.68-53.34,32.55.25Z"/>
    <path class="st9" d="M396.55,785.48l5.59,53.21h-16.45l-21.45-53.43,32.3.22Z"/>
    <path class="st12" d="M495.06,454.19c-8.91-13.62-187.1-17.2-194.85-3.17l-66.22,123.16-97.89-5.38s-13.16-.74-26.15,11.46c-6.41,6.02-6.43,44.36-4.77,59.18,1.1,9.87,14.92,144.11,14.92,144.11l368.96,2.56s14.92-318.31,6.01-331.93Z"/>
    <path class="st9" d="M384.4,788.69s-.03-.4-.06-1.18c-.02-.81-.04-1.96-.08-3.46-.05-3.07-.12-7.53-.2-13.25-.14-11.51-.33-28.07-.57-48.37l.3.3c-30.19-.06-69.37-.13-112.06-.21-44.58-.15-85.33-.29-116.1-.4l.29-.24c-3.33,18.86-3.12,34.54-2.46,45.25.34,5.37.82,9.53,1.17,12.35.18,1.39.32,2.45.42,3.21.09.72.12,1.1.12,1.1,0,0-1.21-5.88-2.03-16.63-.76-10.72-1.07-26.44,2.21-45.37l.04-.25h.25c30.77.06,71.52.13,116.1.21,42.68.15,81.87.28,112.06.38h.3s0,.3,0,.3c.13,20.3.23,36.86.31,48.37.02,5.72.03,10.19.04,13.25,0,1.5,0,2.65-.01,3.46,0,.78-.03,1.18-.03,1.18Z"/>
    <path class="st9" d="M374.94,580.93s.25-.01.75,0c.5.01,1.24-.02,2.21.13,1.93.21,4.82.85,8.16,2.63,3.32,1.78,7.03,4.76,10.22,9.18,3.22,4.39,5.63,10.31,6.85,17.15,1.28,6.84,1.4,14.54,1.29,22.82-.08,8.29-.44,17.22-1.08,26.71-1.27,18.97-3.81,40.12-6.55,62.94l-.04.32h-.32c-28.71-.06-60.26-.13-93.3-.2-65.51-.2-125.12-.39-169.21-.53h-.27s-.01-.27-.01-.27c-.61-12.49.2-23.83,1.96-33.61,1.81-9.75,4.83-17.99,8.97-23.68,2.04-2.85,4.34-5.05,6.63-6.49.28-.19.55-.38.82-.56.29-.15.57-.29.85-.43.56-.28,1.09-.55,1.6-.81,1.08-.36,2.04-.76,2.94-.98.9-.18,1.7-.34,2.39-.48.69-.08,1.28-.09,1.76-.13.94-.06,1.43-.07,1.43-.07,0,0-.48.07-1.42.15-.47.05-1.05.08-1.74.17-.68.15-1.47.32-2.36.52-.89.23-1.83.64-2.9,1.01-.5.26-1.03.53-1.57.82-.27.14-.55.29-.84.44-.26.18-.53.37-.81.56-2.25,1.44-4.5,3.64-6.5,6.47-4.06,5.67-7.02,13.86-8.78,23.58-1.71,9.74-2.48,21.07-1.84,33.49l-.29-.27c44.1.08,103.71.19,169.22.32,33.04.09,64.58.18,93.3.26l-.36.32c2.77-22.82,5.35-43.95,6.66-62.9.66-9.47,1.04-18.39,1.16-26.67.13-8.27.04-15.94-1.2-22.73-1.18-6.79-3.53-12.66-6.69-17.03-3.13-4.4-6.78-7.38-10.05-9.17-3.29-1.8-6.14-2.47-8.06-2.72-1.93-.26-2.95-.19-2.95-.25Z"/>
    <polygon class="st9" points="125.51 783.6 119.67 839.22 136.11 839.22 157.2 783.82 125.51 783.6"/>
    <g>
      <path class="st10" d="M462.15,576.74s.42-.13,1.26-.24c.83-.09,2.13-.25,3.73.28,1.61.49,3.19,2.23,3.66,4.63.47,2.35-.17,5.49-2.62,7.59l-.06-.33c2.28.79,4.43,2.85,5.12,5.68.7,2.8-.35,6.23-3.01,8.24v-.42c1.86,1.23,3.14,3.55,3.03,6.04-.11,1.22-.32,2.43-.81,3.62-.48,1.17-1.4,2.32-2.72,2.77l.08-.51c1.07.78,1.88,1.97,2.2,3.31.33,1.33.29,2.72.13,4.08-.17,1.38-.58,2.76-1.31,4.01-.72,1.25-1.82,2.36-3.22,2.96v-.6c1.19.54,2.19,1.56,2.69,2.8.51,1.24.57,2.65.26,3.96-.32,1.3-.87,2.57-1.78,3.63-.88,1.06-2.28,1.87-3.77,1.75l.2-.65c1.3.73,2.35,2.06,2.66,3.58.34,1.52.1,3.1-.44,4.54-1.15,2.95-4.42,4.97-7.71,4.51l.36-.57c.75,1.14,1.25,2.47,1.39,3.88.14,1.4-.12,2.92-.97,4.15-.84,1.27-2.34,1.99-3.84,2.07-1.47.11-3.19-.51-3.96-1.97l.66-.38c1.45,2.38.36,5.89-2.36,7-2.76,1.04-6.12-.99-6.47-4.01l.78-.02c-.15,2.47-1.63,4.87-3.9,6.12-1.14.62-2.49.91-3.83.68-1.33-.25-2.51-1-3.38-2.01-1.32-1.5-1.96-3.78-1.07-5.71l.63.45c-2.6,2.44-7.04,2.17-9.3-.49-2.22-2.7-1.75-6.98.91-9.12l.25.69c-3.11.05-5.98-2.21-6.69-5.16-.69-2.96.81-6.15,3.42-7.53l.08.7c-3.36-.88-5.69-4.15-5.65-7.46.11-1.63.41-3.23,1.37-4.61.49-.67,1.18-1.21,1.94-1.51.77-.3,1.58-.39,2.36-.39l.02.71c-1.2.02-2.35-.16-3.44-.63-1.1-.44-2.02-1.41-2.39-2.51-.82-2.2-.1-4.81,1.74-6.18l.27.6c-3.29.64-6.61-1.69-7.2-4.78-.55-3.09,1.48-6.2,4.31-7l.2.58c-4.1,1.58-8.82-.77-10.11-4.47-1.28-3.72.55-7.78,3.54-9.4l.21.44c-3.14,1.14-6.52-.59-7.56-3.14-1.07-2.57-.19-5.39,1.52-6.87l.17.31c-2.81.82-5.45-.5-6.76-2.17-1.37-1.74-1.37-3.77-1.03-5.15.36-1.42,1.06-2.33,1.56-2.85.53-.52.86-.69.86-.69.02.02-.3.23-.79.76-.47.54-1.13,1.45-1.45,2.83-.31,1.35-.26,3.3,1.06,4.93,1.26,1.58,3.82,2.79,6.43,2l.8-.24-.63.55c-1.58,1.39-2.38,4.06-1.37,6.43.96,2.34,4.14,3.92,6.99,2.85l.21.45c-2.76,1.5-4.46,5.36-3.25,8.78,1.17,3.39,5.63,5.57,9.35,4.09l.2.58c-2.5.7-4.36,3.57-3.84,6.29.5,2.71,3.55,4.83,6.42,4.23l1.5-.31-1.23.92c-1.56,1.16-2.21,3.5-1.49,5.39.64,2.02,3.05,2.72,5.15,2.68l.02.71c-1.44-.04-2.9.43-3.72,1.61-.82,1.15-1.14,2.73-1.22,4.19-.04,2.95,2.12,5.96,5.1,6.72l.95.24-.87.45c-2.29,1.2-3.64,4.1-3.02,6.68.6,2.58,3.21,4.62,5.93,4.56l1.16-.03-.91.71c-2.31,1.82-2.73,5.72-.79,8.02,1.92,2.31,5.95,2.55,8.16.43l1.5-1.44-.87,1.88c-.73,1.57-.21,3.54.96,4.87.77.89,1.8,1.53,2.93,1.75,1.12.19,2.31-.05,3.31-.6,2.02-1.1,3.38-3.29,3.5-5.48l.78-.02c.23,2.45,3.2,4.25,5.41,3.36,2.23-.86,3.21-3.97,1.99-5.88l.66-.38c.59,1.13,1.96,1.66,3.24,1.57,1.29-.07,2.56-.69,3.25-1.74,1.46-2.17.93-5.16-.42-7.19l-.46-.7.82.12c2.9.43,5.92-1.42,6.92-4.04.51-1.33.72-2.79.42-4.12-.28-1.34-1.16-2.47-2.32-3.13l-1.34-.77,1.54.12c1.24.09,2.41-.56,3.21-1.5.81-.95,1.34-2.13,1.64-3.33.29-1.19.23-2.46-.21-3.55-.44-1.1-1.29-1.98-2.34-2.46l-.67-.31.68-.29c2.55-1.09,3.85-3.88,4.17-6.44.16-1.32.2-2.64-.1-3.86-.29-1.22-1-2.27-1.96-2.98l-.45-.33.53-.18c1.13-.38,1.94-1.35,2.39-2.43.46-1.09.68-2.29.78-3.42.12-2.28-1.06-4.44-2.77-5.58l-.3-.2.29-.22c2.49-1.85,3.52-5.09,2.88-7.72-.63-2.67-2.66-4.66-4.81-5.42l-.32-.11.26-.22c2.34-1.96,3-4.97,2.58-7.24-.42-2.32-1.9-3.99-3.44-4.5-1.53-.55-2.82-.42-3.65-.37-.84.08-1.26.17-1.27.14Z"/>
      <path class="st10" d="M465.77,576.04l-67.52-2.56c13.06,19.57,21.67,42.08,25,65.37,1.03,7.23,1.89,15.21,7.21,20.21,6.93,6.52,18.88,4.61,25.87-1.85,6.99-6.46,10.04-16.09,11.92-25.42,3.72-18.47,3.88-38.03-2.49-55.76ZM465.87,599.25c-.24.26-.51.5-.85.59s-.74.01-.94-.28c-.13-.18-.15-.42-.16-.64-.07-2.14,1.2-4.26,3.11-5.22v.12c.54,1.73.07,4.09-1.17,5.43ZM462.35,623.43c.91,0,1.65.75,1.65,1.66s-.75,1.65-1.66,1.65c-.91,0-1.65-.75-1.65-1.66,0-.91.75-1.65,1.66-1.65ZM461.68,592.09c.84-.35,1.81.05,2.17.89s-.05,1.81-.89,2.17c-.84.35-1.81-.05-2.17-.89-.35-.84.05-1.81.89-2.17ZM462,609.02c-.09-.91.57-1.72,1.48-1.81s1.72.57,1.81,1.48c.09.91-.57,1.72-1.48,1.81-.91.09-1.72-.57-1.81-1.48ZM466.45,591.84l-.1-.06c-1.8-.3-3.67-1.81-4.29-3.52-.12-.33-.21-.68-.14-1.02.07-.34.33-.66.68-.71.22-.03.44.06.64.15,1.93.92,3.24,3.02,3.21,5.16ZM465.25,578.73v.12c.54,1.73.07,4.09-1.17,5.43-.24.26-.51.5-.85.59-.34.09-.74.01-.94-.28-.13-.18-.15-.42-.16-.64-.07-2.14,1.2-4.26,3.11-5.22ZM459.9,577.12c.84-.35,1.81.05,2.17.89.35.84-.05,1.81-.89,2.17-.84.35-1.81-.05-2.17-.89-.35-.84.05-1.81.89-2.17ZM457.46,640.34c.14-.9.98-1.53,1.88-1.39.9.14,1.53.98,1.39,1.88s-.98,1.53-1.88,1.39-1.53-.98-1.39-1.88ZM450.59,651.32c.65-.65,1.69-.65,2.34,0,.65.65.65,1.69,0,2.34s-1.69.65-2.34,0c-.65-.65-.65-1.69,0-2.34ZM432.74,644.75c.9-.22,1.81.33,2.03,1.23.22.9-.33,1.81-1.23,2.03-.9.22-1.81-.33-2.03-1.23-.22-.9.33-1.81,1.23-2.03ZM428.33,629.36c.92-.09,1.74.59,1.83,1.51.09.92-.59,1.74-1.51,1.83s-1.74-.59-1.83-1.51c-.09-.92.59-1.74,1.51-1.83ZM425.24,611.42c.93,0,1.67.76,1.67,1.69,0,.93-.76,1.67-1.69,1.67-.93,0-1.67-.76-1.67-1.69,0-.93.76-1.67,1.69-1.67ZM417.84,593.6c.89-.27,1.82.24,2.09,1.13.27.89-.24,1.82-1.13,2.09-.89.27-1.82-.24-2.09-1.13s.24-1.82,1.13-2.09ZM409.78,578.68c.89-.27,1.82.24,2.09,1.13s-.24,1.82-1.13,2.09c-.89.27-1.82-.24-2.09-1.13s.24-1.82,1.13-2.09ZM406.53,581.44c-1.38-1.64-1.7-4.09-.78-6.03.1-.2.21-.41.4-.53.3-.19.7-.1.97.12.27.22.43.55.54.88.6,1.72.1,4.07-1.09,5.44l-.04.11ZM412.71,586.73c-.32.14-.68.13-1.03.08-1.8-.26-3.66-1.78-4.33-3.47l-.08-.09c2.09-.47,4.41.37,5.72,2.07.14.18.27.37.28.6.03.35-.23.67-.55.81ZM414.59,596.36c-1.38-1.64-1.7-4.09-.78-6.03.1-.2.21-.41.4-.53.3-.19.7-.1.97.12.27.22.43.55.54.88.6,1.72.1,4.07-1.09,5.44l-.04.11ZM419.74,601.72c-1.8-.26-3.66-1.78-4.33-3.47l-.08-.09c2.09-.47,4.41.37,5.72,2.07.14.18.27.37.28.6.03.35-.23.67-.55.81-.32.14-.68.13-1.03.08ZM421.18,611.64c-.84-1.97-.42-4.41,1.02-5.99.15-.17.32-.33.54-.39.34-.09.7.11.9.4.19.29.25.65.26,1,.07,1.82-1.1,3.92-2.64,4.88l-.07.1ZM421.36,614.8c2.13.16,4.11,1.65,4.86,3.66.08.21.14.44.1.65-.07.34-.42.57-.77.61-.35.04-.69-.08-1.01-.23-1.65-.77-2.98-2.78-3.12-4.59l-.06-.11ZM423.73,631.85c-1.04-1.87-.88-4.34.39-6.07.13-.18.29-.36.49-.44.33-.13.71.04.93.3.22.27.31.62.36.97.26,1.8-.68,4.02-2.12,5.13l-.06.1ZM424.16,633.86l-.07-.1c2.14-.06,4.26,1.22,5.21,3.14.1.2.19.42.16.64-.04.35-.36.61-.7.69-.34.07-.7,0-1.03-.12-1.72-.6-3.25-2.45-3.58-4.24ZM428.51,647.63c-1.3-1.7-1.5-4.17-.49-6.06.11-.2.23-.4.43-.51.3-.17.71-.07.97.17s.4.57.5.9c.52,1.75-.09,4.07-1.35,5.38l-.04.11ZM429.23,649.56l-.08-.09c2.11-.37,4.39.58,5.61,2.34.13.18.25.39.26.61.01.35-.26.66-.59.78-.33.12-.69.09-1.03.03-1.79-.34-3.58-1.95-4.16-3.68ZM437.48,660.98c-1.82-.14-3.82-1.46-4.6-3.11-.15-.32-.27-.66-.23-1.01.04-.35.27-.69.61-.77.22-.05.45.02.66.09,2.01.74,3.5,2.71,3.67,4.85l-.11-.06ZM437.99,656.7c0-.91.72-1.66,1.64-1.67s1.66.72,1.67,1.64c0,.91-.72,1.66-1.64,1.67-.91,0-1.66-.72-1.67-1.64ZM445.9,659.62c-.06.22-.22.39-.38.54-1.58,1.44-4.02,1.87-5.99,1.04l.1-.07c.95-1.55,3.06-2.72,4.88-2.66.35.01.71.07,1,.26.29.19.49.56.4.89ZM453.38,656.92c-1.39,1.18-3.75,1.63-5.46,1-.33-.12-.65-.28-.87-.56-.22-.27-.29-.68-.1-.97.12-.19.33-.3.53-.39,1.95-.88,4.4-.52,6.01.88l-.11.04ZM454.99,655.63l.02-.12c-.4-1.78.27-4.08,1.62-5.31.26-.24.55-.45.89-.52.34-.07.74.05.91.36.11.19.11.43.1.65-.11,2.14-1.56,4.15-3.55,4.94ZM463.02,643.19c-.42,1.77-2.05,3.54-3.8,4.05-.34.1-.69.16-1.03.07-.34-.09-.64-.38-.66-.72-.01-.22.09-.44.2-.63,1.05-1.87,3.23-3.03,5.37-2.86l-.07.1ZM463.56,641.2l-.05-.11c-1.38-1.19-2.2-3.45-1.85-5.24.07-.34.18-.69.41-.95.24-.26.63-.4.95-.25.2.09.35.28.47.47,1.18,1.79,1.2,4.26.07,6.08ZM466.61,627.09c-.16,1.81-1.51,3.8-3.17,4.56-.32.14-.66.26-1.01.22-.35-.04-.69-.28-.76-.62-.05-.22.02-.44.1-.65.77-2,2.76-3.47,4.89-3.61l-.06.11ZM466.86,625.04l-.07-.1c-1.54-.98-2.68-3.09-2.59-4.91.02-.35.07-.71.27-1,.2-.29.56-.48.9-.39.22.06.38.22.53.39,1.42,1.6,1.81,4.04.96,6ZM468.09,610.41c.03,1.82-1.11,3.94-2.68,4.86-.3.18-.63.33-.98.32-.35,0-.71-.21-.82-.54-.07-.21-.02-.45.04-.66.56-2.07,2.39-3.73,4.5-4.09l-.05.11ZM468.05,608.26c-1.63-.81-2.99-2.8-3.08-4.62-.02-.35,0-.71.17-1.02.17-.31.51-.54.85-.48.22.04.41.18.57.33,1.58,1.44,2.22,3.83,1.57,5.87l-.08-.09Z"/>
    </g>
    <path class="st9" d="M489.34,454.81s-.16.14-.48.39c-.32.26-.79.66-1.33,1.25-1.07,1.17-2.49,3.22-2.85,6.29-.96,6.13-2.34,14.97-4.05,25.96-3.51,22.06-8.39,52.73-13.91,87.38l-.05.34-.35-.02c-5.82-.29-11.95-.61-18.18-.92-19.66-.9-38.4-1.6-55.44-1.63-4.26,0-8.41.05-12.44.23-1.01.05-2,.11-3,.16-.99.06-1.96.2-2.93.29-1.98.08-3.69.76-5.27,1.79-3.09,2.1-5.52,4.89-7.64,7.65-2.13,2.78-3.96,5.62-5.6,8.38-6.52,11.11-10.41,20.85-12.78,27.63-1.17,3.4-1.91,6.11-2.26,7.97-.18.93-.26,1.65-.3,2.13-.01.48-.04.73-.04.73,0,0-.03-.25-.04-.74.01-.49.06-1.22.22-2.15.3-1.88,1-4.61,2.13-8.04,1.12-3.43,2.69-7.57,4.73-12.27,2.07-4.69,4.59-9.97,7.86-15.55,1.64-2.78,3.46-5.65,5.6-8.46,2.14-2.81,4.57-5.64,7.77-7.83l1.26-.73c.43-.23.9-.4,1.36-.6.46-.18.97-.26,1.45-.4.49-.09.98-.12,1.47-.18.98-.1,1.97-.24,2.96-.3,1-.06,2-.11,3.01-.17,4.04-.2,8.21-.26,12.47-.27,17.07,0,35.81.67,55.48,1.57,6.23.32,12.37.63,18.19.93l-.41.33c5.62-34.63,10.59-65.3,14.17-87.34,1.81-10.98,3.27-19.8,4.29-25.93.41-3.12,1.91-5.2,3.02-6.35,1.15-1.16,1.92-1.54,1.92-1.54Z"/>
  </g>
  <g>
    <g>
      <path class="st3" d="M317.1,502.38c.69-.69-1.12,1.14,0,0,5.91-6.01,39.7-38.54,45.11-42.59,3.23-2.42,8.36-8.32,12.42-13.26,3.18-3.87,9.17-3.64,12.02.48,5.61,8.1,13.79,20.29,17.53,27.77,5.99,11.99,30.47,54.5,30.47,54.5,0,0,18.7,22.04,24.12,33.71,1.33,2.87.07,6.27-2.81,7.57l-10.83,4.86s-68.91-5.94-76.41.62c-7.49,6.56-14.75,15.53-22.19,33.72l-2.24,6.19s-42.2-31.89-43.58-34c-3.6-5.49-22.93-30.16-21.65-32.78,6.54-13.4,26.65-35.31,38.06-46.79Z"/>
      <path class="st6" d="M317.03,502.45s39.18-38.17,45.18-42.66c3.23-2.42,8.36-8.32,12.42-13.26,3.18-3.87,9.17-3.64,12.02.48,5.61,8.1,13.79,20.29,17.53,27.77,5.99,11.99,30.47,54.5,30.47,54.5,0,0,18.73,22.08,24.13,33.74,1.32,2.85.07,6.23-2.8,7.52l-10.87,4.88s-68.91-5.94-76.41.62c-7.49,6.56-14.75,15.53-22.19,33.72l-2.24,6.19s-42.07-31.98-43.58-34c-9.19-12.28-22.51-30.1-21.65-32.78,3.64-11.4,37.98-46.71,37.98-46.71Z"/>
    </g>
    <path class="st9" d="M394.26,497.45c.03.06-1.02.61-2.85,1.69-1.83,1.07-4.4,2.78-7.32,5.21-5.86,4.79-12.78,12.97-17.67,23.5-4.89,10.53-7.09,20.92-8.33,28.4-.61,3.76-1.01,6.81-1.26,8.93-.12.99-.23,1.79-.31,2.44-.08.56-.13.85-.16.85s-.03-.3,0-.86c.03-.56.07-1.39.16-2.45.16-2.13.47-5.2,1.02-8.98,1.1-7.53,3.23-18.02,8.17-28.65,4.93-10.64,12.02-18.87,18.03-23.6,2.99-2.39,5.63-4.04,7.52-5.04.93-.53,1.7-.85,2.2-1.1.51-.24.78-.35.8-.32Z"/>
    <path class="st9" d="M368.01,466.89s-.07.3-.26.84c-.23.61-.53,1.39-.89,2.34-.4,1.01-.88,2.24-1.39,3.7-.52,1.45-1.15,3.09-1.74,4.94-1.26,3.67-2.57,8.1-3.85,13.06-1.23,4.97-2.4,10.49-3.31,16.33-.87,5.85-1.4,11.46-1.71,16.58-.26,5.12-.32,9.74-.22,13.61,0,1.94.13,3.69.19,5.23.05,1.54.14,2.86.23,3.95.06,1.01.11,1.84.15,2.5.03.57.03.87,0,.88-.03,0-.08-.29-.16-.86-.08-.65-.18-1.48-.3-2.49-.13-1.08-.27-2.4-.36-3.95-.1-1.54-.26-3.3-.3-5.24-.18-3.89-.17-8.52.05-13.67.27-5.14.78-10.78,1.66-16.66.91-5.87,2.11-11.41,3.38-16.39,1.32-4.97,2.7-9.4,4.02-13.06.62-1.84,1.29-3.47,1.85-4.91.55-1.44,1.07-2.67,1.52-3.66.42-.93.76-1.68,1.03-2.28.24-.52.38-.79.41-.77Z"/>
    <path class="st9" d="M431.72,575.14s.11-.07.34-.16c.27-.11.61-.24,1.02-.41.89-.36,2.22-.86,3.86-1.65,1.61-.81,3.6-1.9,5.34-3.78,1.7-1.84,3.25-4.63,2.78-7.83-.43-3.19-2.56-6.18-4.56-9.43-2.04-3.26-4.21-6.74-6.5-10.4-4.57-7.34-9.58-15.4-14.84-23.86-10.54-16.92-19.93-32.34-26.93-43.37-3.5-5.51-6.42-9.92-8.45-12.95-.99-1.47-1.77-2.64-2.34-3.49-.24-.37-.44-.67-.6-.92-.13-.21-.19-.32-.18-.33s.09.09.25.28c.18.23.39.52.66.87.6.83,1.42,1.97,2.46,3.41,2.11,2.99,5.1,7.35,8.66,12.83,7.13,10.96,16.59,26.33,27.13,43.25,5.25,8.47,10.24,16.54,14.79,23.89,2.26,3.67,4.42,7.17,6.44,10.44,1.97,3.25,4.13,6.31,4.56,9.7.22,1.67-.07,3.31-.66,4.69-.59,1.39-1.45,2.55-2.35,3.5-1.83,1.92-3.88,2.98-5.53,3.76-1.67.76-3.02,1.21-3.93,1.52-.42.14-.76.25-1.04.34-.24.07-.36.1-.36.09Z"/>
    <path class="st5" d="M356.3,504.59c-.03.07-.57-.26-1.63-.45-1.06-.2-2.66-.07-4.45.69-.89.37-1.83.88-2.79,1.5-.96.62-1.95,1.38-3.04,2.11-1.09.73-2.29,1.48-3.67,1.99-1.37.53-2.97.76-4.54.41-3.16-.75-5.28-3.03-7.13-4.81-1.84-1.83-3.65-3.34-5.49-3.89-1.83-.58-3.46-.35-4.43.09-.99.43-1.38.94-1.43.88-.02-.02.07-.14.26-.37.21-.21.53-.52,1.04-.78.99-.55,2.73-.9,4.72-.35,2.01.54,3.96,2.1,5.83,3.91,1.88,1.77,3.96,3.9,6.79,4.56,2.86.64,5.52-.86,7.64-2.24,1.09-.7,2.09-1.44,3.09-2.06,1.01-.62,1.99-1.11,2.94-1.47,1.89-.72,3.62-.77,4.71-.47.55.14.95.32,1.21.48.25.15.38.24.36.27Z"/>
    <path class="st5" d="M382.01,504.67c-.12.07-.84-1.25-2.42-3.02-1.56-1.77-4.11-3.94-7.45-5.32-3.34-1.38-6.68-1.63-9.04-1.48-2.37.14-3.81.57-3.85.44-.03-.08,1.37-.7,3.8-.99,2.41-.3,5.9-.13,9.39,1.3,3.48,1.44,6.08,3.78,7.58,5.69,1.52,1.92,2.07,3.35,1.99,3.38Z"/>
    <path class="st5" d="M444.52,567.37c-.05.09-.96-1.09-3.36-1.71-1.18-.32-2.68-.46-4.43-.43-1.75,0-3.78.16-6.01-.3-2.22-.48-4.48-1.74-6.35-3.63-1.88-1.88-3.43-4.32-4.49-7.09-2.23-5.54-2.47-12.14-4.67-18.46-1.12-3.13-2.72-6.06-5.03-8.16-2.28-2.13-5.19-3.26-7.99-3.93-2.82-.67-5.59-.93-8.18-1.27-2.59-.33-5.01-.75-7.14-1.45-4.33-1.34-7.13-4.04-8.37-6.2-.62-1.09-.93-2.03-1.06-2.68-.08-.32-.09-.57-.11-.74-.02-.17-.02-.25,0-.26.11-.03.14,1.42,1.44,3.51,1.29,2.05,4.05,4.59,8.28,5.83,2.09.65,4.48,1.03,7.06,1.33,2.58.31,5.37.54,8.26,1.21,2.86.67,5.91,1.82,8.34,4.06,2.44,2.21,4.11,5.25,5.25,8.46,1.15,3.23,1.72,6.52,2.33,9.64.6,3.12,1.24,6.12,2.27,8.82,2,5.4,6.01,9.5,10.29,10.44,2.12.48,4.13.36,5.89.41,1.77.02,3.31.2,4.51.58,1.21.36,2.06.88,2.57,1.29.26.21.44.38.55.51.11.13.17.19.16.2Z"/>
    <path class="st5" d="M364.31,472.7c.02.12-1.08.35-2.74,1.01-1.68.63-3.88,1.81-6.53,2.77-2.67.95-5.36,1.07-7.16.51-1.83-.53-2.62-1.49-2.56-1.53.08-.12.97.63,2.69.99,1.71.38,4.21.19,6.77-.71,2.56-.92,4.84-2.04,6.61-2.55,1.76-.55,2.92-.59,2.93-.49Z"/>
    <path class="st5" d="M396.36,483.2c-.11.09-1.24-1.43-3.44-3.51-1.09-1.05-2.48-2.19-4.11-3.33-1.65-1.12-3.54-2.23-5.63-3.19-2.1-.93-4.19-1.61-6.12-2.1-1.94-.46-3.72-.75-5.22-.87-3.01-.26-4.9-.1-4.91-.25,0-.05.46-.13,1.31-.22.85-.11,2.1-.15,3.63-.08,1.54.05,3.36.29,5.35.72,1.98.46,4.13,1.14,6.28,2.09,2.14.98,4.07,2.14,5.73,3.31,1.64,1.21,3.03,2.41,4.08,3.53,1.06,1.11,1.86,2.06,2.35,2.77.5.7.75,1.1.7,1.13Z"/>
    <path class="st5" d="M420.21,519.27c-.11.07-.82-1.64-3.13-3.32-1.13-.85-2.62-1.65-4.31-2.51-1.68-.87-3.61-1.83-5.27-3.4-1.65-1.55-2.8-3.42-3.53-5.22-.71-1.81-1.01-3.56-1.05-5.03-.04-1.47.15-2.64.34-3.43.21-.79.39-1.2.43-1.19.15.03-.43,1.76-.22,4.59.19,2.78,1.41,6.75,4.57,9.7,1.55,1.47,3.4,2.42,5.07,3.33,1.68.89,3.19,1.78,4.32,2.72,1.14.92,1.89,1.88,2.3,2.58.41.71.53,1.15.49,1.17Z"/>
    <path class="st5" d="M391.03,453.74c-.06.25-5.04-1.22-11.36-1.02-6.31.14-11.22,1.86-11.29,1.62-.03-.09,1.15-.63,3.17-1.21,2.02-.57,4.89-1.11,8.1-1.2,3.21-.08,6.11.3,8.15.77,2.05.46,3.25.95,3.23,1.04Z"/>
    <path class="st5" d="M353.21,538.89c0,.08-.98.09-2.71.33-1.73.22-4.18.69-7.15,1.42-2.98.69-6.52,1.71-10.83,2.02-2.14.13-4.49.05-6.73-.45-2.25-.49-4.39-1.3-6.36-2.27-3.96-1.96-6.99-4.31-10.13-6.1-3.1-1.82-6.35-3.1-9.39-3.55-3.03-.49-5.6-.26-7.24.1-1.64.38-2.43.79-2.49.73-.02-.02.15-.13.52-.33.37-.19.97-.44,1.8-.69,1.66-.47,4.38-.8,7.59-.36,3.23.4,6.72,1.71,9.92,3.54,3.25,1.81,6.3,4.13,10.12,6.02,1.91.94,3.93,1.71,6.02,2.17,2.09.48,4.24.57,6.27.46,4.08-.26,7.63-1.2,10.65-1.83,3.02-.67,5.56-1.07,7.35-1.2.89-.07,1.59-.09,2.06-.07.47,0,.72.02.72.05Z"/>
    <path class="st5" d="M363.2,532.17c-.15.18-1.86-1.19-4.41-1.82-2.54-.67-4.7-.29-4.74-.52-.08-.18,2.18-.96,4.93-.24,2.76.69,4.37,2.46,4.21,2.58Z"/>
    <path class="st5" d="M384.59,573.1c-.17,0,0-2.4-.98-6.08-.96-3.63-3.22-8.59-7.54-12.47-4.15-4.09-9.78-5.02-12.57-8.01-1.4-1.4-2.06-2.94-2.22-4.03-.1-.54-.07-.97-.05-1.26.04-.29.08-.43.11-.43.08,0-.02.61.24,1.62.24,1.01.94,2.41,2.31,3.69,1.35,1.3,3.39,2.3,5.7,3.33,2.33,1.01,4.84,2.46,7.01,4.49,4.46,4.01,6.71,9.17,7.55,12.92.45,1.89.52,3.47.56,4.54-.03,1.08-.07,1.67-.13,1.67Z"/>
    <path class="st5" d="M357.41,586.67c-.07.03-.64-.77-1.71-2.17-1.09-1.39-2.66-3.43-5.2-5.61-2.51-2.14-6.18-4.47-11.12-5.49-2.45-.51-5.16-.56-7.96-.32-2.8.22-5.68.69-8.73.94-6.12.47-12.03-.23-17-1.56-4.98-1.34-9.07-3.22-12.08-5.13-3.02-1.9-5.09-3.74-6.31-5.1-.66-.65-1.03-1.23-1.33-1.59-.28-.37-.42-.57-.38-.59.23-.13,2.42,3.2,8.51,6.85,3.02,1.82,7.06,3.61,11.93,4.88,4.87,1.26,10.61,1.92,16.54,1.46,2.97-.24,5.86-.7,8.73-.92,2.86-.24,5.75-.18,8.34.39,5.21,1.12,8.94,3.6,11.44,5.83,2.52,2.27,4,4.38,4.98,5.82.49.73.83,1.3,1.06,1.69.22.39.32.61.29.62Z"/>
    <path class="st5" d="M347.04,604.69c0,.05-.5.03-1.4-.07-.89-.09-2.18-.28-3.75-.56-3.16-.56-7.48-1.57-12.13-3.12-4.65-1.56-8.71-3.36-11.57-4.81-1.43-.73-2.57-1.35-3.33-1.81-.77-.46-1.18-.74-1.16-.78.06-.11,1.83.78,4.73,2.1,2.9,1.32,6.97,3.02,11.58,4.57,4.61,1.54,8.88,2.63,11.99,3.32,3.11.7,5.06,1.05,5.04,1.17Z"/>
  </g>
  <g>
    <g>
      <path class="st14" d="M279.41,397.34c-5.81-5.16-6.11-13.98-5.94-21.75.17-7.77-.05-16.57-5.78-21.82l-16.31,2.8-11.03,58.6c3,3.82,6.05,7.7,10,10.53s9.01,4.49,13.73,3.34c4.72-1.15,8.73-5.68,8.24-10.51,2.43.26,4.94-1.19,5.93-3.42s.37-5.07-1.46-6.68c3.17-.06,7.25-.86,7.75-3.99.49-3.03-2.85-5.04-5.14-7.08Z"/>
      <path class="st14" d="M210.45,362.62c-.28-3.91-1.79-7.96-4.98-10.25-2.44-1.75-5.61-2.26-8.59-1.92-5.09.58-9.84,3.65-12.48,8.04-2.63,4.4-2.14,10-2.14,16.59l3.73,2.25c4.13,4.71,11.92,5.15,17.12,1.66,5.2-3.49,7.78-10.12,7.33-16.37Z"/>
      <path class="st14" d="M205.93,414.05c-.3-14.87-.59-29.75-.89-44.62l-22.56,1.96c-.2,5.63-.95,11.23-2.24,16.71-.59,2.5-1.39,5.14-3.35,6.8-2.57,2.19-6.51,2.17-9.09,4.35-1.98,1.68-2.81,4.6-2,7.07.81,2.47,3.2,4.34,5.79,4.52-1.21,2.75-.2,6.29,2.26,8.01,2.47,1.71,6.14,1.41,8.29-.68-1.43,2.64.56,6.22,3.43,7.08,2.88.86,6.06-.52,8.1-2.72-.74,2.79,2.22,5.58,5.1,5.38,2.88-.2,5.22-2.61,6.24-5.31,1.02-2.7.97-5.67.91-8.55Z"/>
      <g>
        <path class="st14" d="M274.86,341.31c-.09-7-5.89-12.95-12.51-15.25-6.62-2.3-13.87-1.67-20.79-.58-4.87.77-9.97,1.88-13.62,5.2-1.27,1.15-2.37,2.57-3.95,3.23-1.72.72-3.67.39-5.54.36-5.28-.1-10.55,2.36-13.85,6.48-3.3,4.12-4.57,9.79-3.33,14.92l61.44,3.23c.94,0,8.47-5.07,10.98-8.45,1.83-2.47,1.2-6.06,1.16-9.14Z"/>
        <g>
          <g>
            <path class="st14" d="M198.18,361.49c.38-1.11,3.65-8.6,4.82-8.52.84.06-1.11,7.01-.66,7.72,4.23,6.8,5.57,15.09,5.17,23.09-.41,8-1.86,15.23-3.97,22.96"/>
            <path class="st14" d="M203.53,406.74c-2.61-7.29-5.19-14.65-6.51-22.28"/>
          </g>
          <path class="st2" d="M226.34,470.68c-12.01.1-21.9-9.42-22.27-21.42l-2.18-72.26c-1.2-19.39,9.08-36.26,28.5-36.92l1.8.04c18.1.44,32.83,14.69,33.85,32.76.95,16.82,1.78,35.41,1.45,44.41-.68,18.63-19.39,21.08-19.39,21.08-.04,0,.02,4.32.13,9.79.23,12.29-9.61,22.41-21.9,22.52h0Z"/>
          <path class="st7" d="M248.11,438.59s-11.77.41-24.1-7.76c0,0,5.49,13.7,24.13,12.47l-.04-4.72Z"/>
          <path class="st7" d="M235.04,408.47c1.09-1.16,2.91-1.57,4.39-.99,1.48.58,2.54,2.12,2.55,3.72,0,1.59-1.03,3.14-2.51,3.74-1.02.41-2.17.39-3.23.09-.8-.23-1.59-.62-2.09-1.29-.73-.95-.74-2.31-.3-3.42.44-1.11.87-1.53,1.75-2.34"/>
          <g>
            <g>
              <g>
                <path class="st9" d="M260.58,386.42c.02,1.41-1.16,2.58-2.63,2.62-1.47.04-2.67-1.06-2.69-2.47-.02-1.41,1.16-2.58,2.63-2.63,1.47-.04,2.67,1.06,2.69,2.47Z"/>
                <path class="st9" d="M261.9,381.95c-.34.34-2.32-1.2-5.18-1.26-2.86-.1-5,1.32-5.3.96-.15-.16.2-.78,1.13-1.42.92-.64,2.47-1.25,4.25-1.2,1.78.05,3.27.75,4.12,1.44.86.7,1.15,1.33.98,1.48Z"/>
              </g>
              <g>
                <path class="st9" d="M234.09,386.83c.02,1.41-1.16,2.58-2.63,2.62-1.47.04-2.67-1.06-2.69-2.47-.02-1.41,1.16-2.58,2.63-2.63,1.47-.04,2.67,1.06,2.69,2.47Z"/>
                <path class="st9" d="M234.33,381.98c-.34.34-2.32-1.2-5.18-1.26-2.86-.1-5,1.32-5.3.96-.15-.16.2-.78,1.13-1.42.92-.64,2.47-1.25,4.25-1.2,1.78.05,3.27.75,4.12,1.44.86.7,1.15,1.33.98,1.48Z"/>
              </g>
              <path class="st9" d="M243.54,403.48c0-.16,1.78-.43,4.67-.73.73-.06,1.43-.19,1.56-.68.19-.52-.1-1.32-.44-2.18-.65-1.79-1.32-3.66-2.03-5.62-2.81-8-4.83-14.57-4.51-14.69.32-.11,2.87,6.29,5.68,14.29.68,1.97,1.32,3.85,1.94,5.65.26.84.71,1.79.31,2.88-.21.54-.76.93-1.23,1.04-.47.13-.88.13-1.25.14-2.91.09-4.71.06-4.72-.11Z"/>
              <path class="st9" d="M235.06,405.26c.47-.02.4,3.09,3.01,5.36,2.6,2.28,5.93,2.01,5.94,2.44.04.2-.75.59-2.15.59-1.37.01-3.37-.48-4.96-1.86-1.59-1.39-2.25-3.21-2.32-4.49-.09-1.3.28-2.06.49-2.04Z"/>
            </g>
            <path class="st14" d="M234.66,370.78c-.3.77-3.15.33-6.52.66-3.38.26-6.11,1.17-6.54.47-.19-.34.3-1.06,1.41-1.79,1.1-.73,2.85-1.4,4.88-1.58,2.02-.17,3.86.19,5.07.72,1.22.53,1.83,1.15,1.7,1.52Z"/>
            <path class="st14" d="M260.97,373.82c-.52.64-2.48-.08-4.85-.17-2.37-.17-4.39.33-4.84-.36-.19-.33.14-.98,1.03-1.57.88-.59,2.34-1.06,3.97-.97,1.63.09,3.03.71,3.84,1.4.82.69,1.08,1.37.85,1.68Z"/>
          </g>
          <g>
            <path class="st2" d="M203.09,391.06c-.31-.15-12.72-4.1-12.62,8.66.1,12.75,12.88,10.02,12.9,9.66.02-.37-.29-18.31-.29-18.31Z"/>
            <path class="st7" d="M199.44,404.57c-.06-.04-.22.16-.6.33-.36.17-.99.29-1.66.05-1.35-.48-2.5-2.61-2.58-4.91-.04-1.16.19-2.27.6-3.19.38-.94.98-1.59,1.66-1.72.67-.16,1.16.24,1.32.6.17.36.09.61.16.63.04.03.27-.22.16-.74-.05-.25-.21-.55-.51-.8-.31-.25-.76-.37-1.23-.32-.98.08-1.86.99-2.31,2-.5,1.01-.79,2.26-.74,3.56.1,2.57,1.44,4.96,3.28,5.48.9.23,1.65-.05,2.03-.35.39-.32.46-.6.41-.63Z"/>
          </g>
          <path class="st14" d="M257.86,352.37c2.04-1.17-4.67-8.01-9.78-10.23-7.72-3.35-19.46-5.3-26.5-3.17-8.47,2.55-15.47,6.91-19.61,14.72-4.14,7.82-5.6,16.87-5.2,25.7.12,2.7-5,4.24-3.52,6.5,1.81,2.76,1.38,1.46,4.45,5.28.86,1.07,2.21,2.29,3.11,3.33,2.41,2.76,8.43,3.32,9.74.9,2.71-5.03,4.12-9.24,4.27-14.96.1-3.91.18-9.83-.85-13.6-.35-1.28-.56-2.51-.52-4.3.04-2.22.7-4.92,2.01-6.71.23-.32.63-.72,1.14-1.18,3.02-2.69,7.36-3.38,11.2-2.11,7.27,2.42,13.14,6.39,21.45,2.82,1.84-.79,2.73-2.33,3.57-3.22,1.25-1.33,3.76-1.21,5.03.09v.14Z"/>
        </g>
        <path class="st14" d="M215.48,355.22c4.09-2.3,9.14-2.84,13.63-1.46,3.81,1.18,7.09,3.62,10.75,5.19,8.15,3.49,18.15,2.19,25.13-3.27,1.93-1.51,3.75-3.53,3.89-5.98.12-2.04-.98-4-2.51-5.35-1.53-1.35-3.45-2.16-5.38-2.83-8.86-3.07-18.49-3.44-27.77-2.12-7.48,1.06-15.12,3.38-20.52,8.66-.73.71-1.43,1.5-1.79,2.45-.36.95-.33,2.11.31,2.9.64.79,1.96,1.02,2.7.32"/>
        <path class="st7" d="M265.3,384.61c.02.23-.69.49-1.55.78-.86.29-1.59.51-1.71.32-.12-.19.49-.77,1.45-1.09.96-.32,1.79-.23,1.81,0Z"/>
        <path class="st7" d="M266.39,386.63c-.03.23-.95.28-2.05.28-1.1,0-2.02-.05-2.05-.28-.03-.22.88-.54,2.05-.54,1.17,0,2.08.32,2.05.54Z"/>
        <path class="st7" d="M221.97,385.46c-.02.23-1.28.27-2.8.27-1.53,0-2.78-.05-2.8-.28-.02-.22,1.23-.54,2.8-.53,1.58,0,2.83.32,2.8.54Z"/>
        <path class="st7" d="M221.81,388.04c-.04.23-1.12.19-2.43.2-1.3,0-2.38.04-2.43-.19-.05-.21,1.03-.62,2.42-.62,1.4,0,2.47.4,2.43.61Z"/>
        <path class="st7" d="M233.58,392.21c.06.08-.35.59-1.27,1.09-.91.51-2.36.96-3.98.8-1.62-.16-2.97-.87-3.76-1.54-.81-.67-1.12-1.25-1.04-1.31.15-.19,1.92,1.77,4.88,2.04,2.96.29,5.07-1.3,5.18-1.09Z"/>
        <path class="st7" d="M234.89,391.59c.09.2-1.27.91-3.1.9-1.84,0-3.19-.7-3.11-.89.08-.22,1.43.09,3.11.08,1.67,0,3.03-.31,3.11-.09Z"/>
        <path class="st7" d="M262.58,389.81c.1.18-1.85,1.3-4.55,1.55-2.71.26-4.83-.47-4.76-.67.05-.23,2.14.11,4.68-.14,2.55-.23,4.53-.96,4.63-.74Z"/>
        <path class="st7" d="M261.19,390.79c.17.13-1.4,1.76-4.03,2.21-2.63.48-4.66-.51-4.55-.69.07-.23,2.03.34,4.4-.11,2.38-.4,4.03-1.61,4.17-1.41Z"/>
        <path class="st7" d="M255.24,368.07c.02.1-1.2.46-3.22.78-2.02.32-4.86.56-7.99.43-3.13-.13-5.94-.59-7.93-1.08-1.99-.48-3.18-.94-3.15-1.04.06-.25,4.94,1.07,11.11,1.3,6.17.27,11.14-.65,11.18-.4Z"/>
        <path class="st7" d="M257.17,365.84c.03.21-4.58.98-10.33.95-5.75,0-10.36-.81-10.33-1.02.03-.24,4.64.2,10.33.21,5.69.03,10.3-.38,10.33-.14Z"/>
        <path class="st7" d="M242.63,375.09c-.22-.05-.29-.6-.32-1.25-.02-.65.02-1.2.24-1.26.21-.06.55.48.58,1.24.03.75-.28,1.32-.49,1.27Z"/>
        <path class="st7" d="M246.57,375.59c-.07.21-.98-.07-1.37-1.05-.39-.99.08-1.81.28-1.7.22.08.19.72.47,1.41.26.69.72,1.15.61,1.35Z"/>
        <path class="st7" d="M234.64,404.44c0,.23-.9.38-1.7,1.05-.83.64-1.16,1.49-1.38,1.45-.23,0-.2-1.22.87-2.08,1.07-.87,2.27-.63,2.22-.41Z"/>
        <path class="st7" d="M231.29,404.2c-.05.22-.53.34-.89.78-.39.42-.45.91-.67.98-.1.03-.26-.11-.31-.42-.05-.3.05-.75.36-1.1.31-.35.74-.51,1.05-.5.31.01.47.15.46.25Z"/>
        <path class="st7" d="M219.19,454.11s-.37-.02-.87-.43c-.5-.39-1.02-1.23-1.23-2.34-.24-1.1-.11-2.48.16-3.87.23-1.38.53-2.94-.02-4.35-.27-.69-.78-1.34-1.08-2.15-.34-.83-.16-1.76,0-2.42.17-.69.25-1.27.06-1.8-.18-.53-.52-1.01-.8-1.48-.64-.92-.76-1.99-.5-2.6.26-.65.71-.72.7-.68.05.06-.29.23-.4.77-.11.54.03,1.37.68,2.19.3.43.69.91.95,1.57.29.67.19,1.5.03,2.18-.15.71-.26,1.34,0,1.98.24.65.75,1.28,1.09,2.12.66,1.72.26,3.42,0,4.79-.31,1.4-.48,2.6-.33,3.64.12,1.02.5,1.79.88,2.21.38.43.68.59.65.65Z"/>
        <path class="st7" d="M227.28,455.66s-.4.06-.96-.33c-.56-.38-1.13-1.2-1.52-2.29-.7-2.16-1.71-5.12-2.09-8.61-.09-.87-.11-1.73-.08-2.56.03-.84.15-1.6.07-2.27-.06-1.41-1.42-1.89-2.3-2.71-.44-.4-.77-.92-.83-1.43-.06-.55.2-.96.45-1.2.57-.51,1.06-.21,1-.18,0,.07-.41-.06-.76.4-.17.21-.31.56-.23.91.08.37.36.75.76,1.08.4.34.95.6,1.51,1.04.58.4,1.08,1.19,1.16,2.01.11.81,0,1.61-.01,2.39-.02.79.01,1.61.1,2.45.36,3.35,1.28,6.36,1.82,8.51.31,1.05.74,1.82,1.18,2.23.43.42.78.51.76.57Z"/>
        <path class="st5" d="M230.87,331.9s.24-.16.72-.38c.48-.24,1.2-.53,2.15-.88,1.9-.69,4.73-1.5,8.34-1.9,3.59-.4,7.98-.33,12.66.79,2.33.55,4.76,1.35,7.06,2.66,2.27,1.31,4.47,3.18,5.73,5.75,1.31,2.53,1.63,5.39,1.32,8.02-.33,2.63-1.25,5.09-2.6,7.11-1.32,2.06-3.11,3.61-4.92,4.76-1.82,1.16-3.7,1.9-5.46,2.36-3.54.93-6.53.82-8.53.6-1-.12-1.78-.26-2.29-.39-.52-.12-.78-.2-.78-.23.01-.08,1.11.16,3.1.3,1.98.12,4.92.14,8.35-.84,1.7-.49,3.52-1.23,5.25-2.37,1.74-1.13,3.42-2.63,4.66-4.6,1.28-1.94,2.14-4.29,2.44-6.79.28-2.49-.03-5.19-1.26-7.55-1.17-2.39-3.23-4.17-5.4-5.43-2.2-1.26-4.56-2.06-6.84-2.62-4.57-1.14-8.88-1.26-12.43-.95-3.56.32-6.38,1.03-8.29,1.63-1.91.6-2.94,1.03-2.97.96Z"/>
        <path class="st5" d="M274.33,340.15c.08-.02.41,1.18.1,3.13-.28,1.94-1.37,4.52-3.3,6.8-1.94,2.27-4.12,3.85-5.71,4.92-1.6,1.06-2.64,1.64-2.7,1.55-.07-.1.86-.84,2.36-2.01,1.49-1.18,3.57-2.8,5.42-4.98,1.85-2.18,2.95-4.57,3.36-6.39.44-1.82.32-3.01.46-3.02Z"/>
        <path class="st5" d="M226.99,342.4c.08.24-4.97,1.22-10.03,4.77-2.47,1.78-4.67,3.63-5.39,5.44-.77,1.83-.17,3.1-.3,3.11-.04.02-.25-.24-.4-.82-.15-.57-.18-1.47.16-2.5.7-2.11,2.94-4.08,5.47-5.91,2.59-1.81,5.25-2.93,7.22-3.51,1.98-.59,3.25-.69,3.27-.6Z"/>
        <path class="st5" d="M214.66,339.82c.07.1-.68.69-1.84,1.64-1.15.96-2.75,2.32-3.94,4.22-1.18,1.9-1.51,3.98-1.34,5.42.15,1.46.68,2.27.55,2.34-.06.06-.8-.67-1.12-2.25-.34-1.55-.07-3.87,1.21-5.94,1.29-2.05,3.03-3.39,4.29-4.25,1.28-.86,2.13-1.27,2.19-1.18Z"/>
        <path class="st5" d="M189.24,362.82c-.08-.04.31-1.11,1.43-2.55,1.11-1.43,3.05-3.18,5.65-4.25,2.61-1.07,5.22-1.18,7.01-.94,1.81.24,2.84.73,2.81.81-.04.13-1.11-.16-2.86-.24-1.74-.09-4.19.11-6.65,1.12-2.46,1.01-4.35,2.58-5.53,3.87-1.19,1.29-1.76,2.24-1.87,2.18Z"/>
        <path class="st5" d="M198.54,369.43c-.09.03-.5-.79-.58-2.24-.09-1.43.26-3.53,1.57-5.37,1.32-1.84,3.19-2.85,4.57-3.23,1.4-.39,2.31-.27,2.31-.17.01.13-.86.22-2.12.72-1.25.49-2.9,1.49-4.09,3.16-1.19,1.67-1.6,3.55-1.66,4.9-.07,1.36.13,2.21,0,2.24Z"/>
      </g>
      <path class="st5" d="M178.99,419.16c-.06-.08,1.17-.16,2.25-1.71.52-.76.93-1.84.97-3.16.06-1.32-.23-2.81-.56-4.47-.61-3.33-1.24-7.38-.95-11.91.28-4.48,1.72-9.58,5.25-13.57,1.74-1.98,3.96-3.49,6.29-4.35,2.32-.88,4.64-1.36,6.77-1.99,2.13-.61,4.09-1.42,5.61-2.62,1.53-1.19,2.53-2.76,3.17-4.28,1.28-3.09,1.29-5.9,1.33-7.76,0-1.89-.03-2.94.03-2.94.03,0,.07.26.12.75.05.5.12,1.23.15,2.18.04,1.88.13,4.73-1.13,7.98-.63,1.6-1.66,3.28-3.28,4.58-1.6,1.3-3.65,2.16-5.81,2.8-2.16.66-4.46,1.16-6.7,2.02-2.24.84-4.31,2.26-5.99,4.16-3.38,3.82-4.81,8.72-5.12,13.1-.32,4.43.24,8.44.78,11.76.28,1.66.55,3.21.45,4.59-.08,1.38-.56,2.54-1.16,3.31-.59.79-1.27,1.19-1.74,1.37-.48.18-.75.18-.75.16Z"/>
    </g>
    <g>
      <g>
        <path class="st10" d="M367.21,713.37l18.65,33.9s39.24-9.97,43.29-4.04l-62.94,40.92-31.23-51.62,32.23-19.15Z"/>
        <g class="st1">
          <path class="st5" d="M364.28,756.39c-1.04,1.09-1.07,3-.02,4.09,1.04,1.09,2.99,1.13,4.05.06,1.06-1.07,1.16-3.37,0-4.33-1.16-.96-3.45-.89-4.22.41"/>
        </g>
        <g class="st1">
          <path class="st5" d="M366.22,784.15l-3.15-5.2,62.15-37.4s2.59-.42,4.55,1.93l-63.56,40.67Z"/>
        </g>
        <path class="st9" d="M386.71,746.32c.18.32-1.31,1.4-2.25,3.34-.99,1.91-.98,3.75-1.34,3.8-.33.11-.98-2.05.2-4.37,1.16-2.34,3.29-3.1,3.39-2.77Z"/>
        <path class="st9" d="M395.14,745.07c.25.26-.79,1.61-1.06,3.58-.33,1.96.26,3.56-.06,3.73-.27.23-1.59-1.49-1.2-3.93.36-2.44,2.14-3.68,2.32-3.39Z"/>
        <path class="st9" d="M403.82,750.86c-.25.24-1.62-1.07-1.85-3.28-.24-2.2.84-3.77,1.13-3.59.33.15-.07,1.65.14,3.46.17,1.81.87,3.19.58,3.41Z"/>
        <path class="st9" d="M381.61,739.06c.04.37-1.66.79-3.37,1.98-1.73,1.15-2.76,2.57-3.08,2.4-.32-.12.34-2.09,2.37-3.46,2.02-1.38,4.09-1.26,4.09-.92Z"/>
      </g>
      <g class="st4">
        <polygon points="370.9 720.09 374.23 726.13 342.4 744.78 339.17 739.47 370.9 720.09"/>
      </g>
      <path class="st9" d="M377.72,732.3c.08.13-1.05,1.07-3.24,1.91-1.09.42-2.45.79-4,.98-.77.09-1.59.14-2.44.12-.41-.01-.88,0-1.43-.18-.54-.12-1.24-.84-1.15-1.59.03-.69.49-1.25.95-1.54.47-.3.91-.43,1.31-.56.82-.25,1.64-.42,2.42-.51,1.57-.18,2.99-.07,4.14.17,2.32.49,3.54,1.36,3.46,1.49-.08.19-1.4-.36-3.6-.59-1.1-.11-2.42-.12-3.85.1-.71.12-1.45.29-2.19.54-.79.23-1.37.57-1.37.98,0,.15.02.2.29.32.26.1.64.11,1.05.13.79.03,1.56.01,2.29-.05,1.46-.11,2.76-.38,3.83-.67,2.15-.59,3.42-1.23,3.52-1.06Z"/>
      <path class="st9" d="M377.58,732.99c-.08.12-1.38-.64-2.71-2.61-.66-.98-1.29-2.27-1.67-3.8-.19-.77-.32-1.59-.35-2.45,0-.86-.05-1.99,1.08-2.86.62-.41,1.45-.22,1.89.09.47.31.74.66,1.04.98.57.68,1,1.43,1.3,2.17.62,1.49.74,2.97.62,4.16-.26,2.42-1.35,3.58-1.44,3.49-.2-.1.53-1.36.54-3.54,0-1.07-.2-2.37-.79-3.64-.29-.63-.68-1.26-1.17-1.83-.51-.62-1.1-1.02-1.31-.8-.32.19-.56,1.03-.5,1.73.01.78.1,1.52.25,2.23.29,1.41.78,2.63,1.3,3.59,1.04,1.94,2.08,2.92,1.94,3.07Z"/>
    </g>
    <g>
      <g>
        <path class="st10" d="M310.2,779.17l-1.92,38.64s40.02,11.94,39.36,21.41l-75.45-.33.52-60.33,37.48.62Z"/>
        <g class="st1">
          <path class="st5" d="M285.12,814.24c-1.46.38-2.48,2-2.17,3.47.32,1.47,1.96,2.53,3.42,2.18,1.46-.35,2.76-2.26,2.28-3.69-.48-1.43-2.47-2.56-3.81-1.87"/>
        </g>
        <g class="st1">
          <path class="st5" d="M272.2,838.88l.05-6.08,71.85.8s3.38,2.26,3.81,5.29h-75.71Z"/>
        </g>
        <path class="st9" d="M309.51,817.44c-.02.37-1.85.51-3.67,1.66-1.85,1.11-2.8,2.68-3.14,2.53-.34-.08.24-2.26,2.47-3.62,2.21-1.38,4.42-.91,4.34-.57Z"/>
        <path class="st9" d="M317.33,820.81c.08.36-1.52.96-2.78,2.49-1.31,1.5-1.65,3.17-2.01,3.15-.35.05-.57-2.1,1.04-3.97,1.59-1.89,3.75-2.01,3.75-1.66Z"/>
        <path class="st9" d="M321.68,830.29c-.33.07-.82-1.76.15-3.76.95-2,2.69-2.77,2.84-2.46.2.3-.92,1.37-1.69,3.02-.81,1.63-.93,3.17-1.3,3.21Z"/>
        <path class="st9" d="M308.97,808.59c-.16.33-1.83-.2-3.91-.08-2.08.07-3.7.74-3.88.43-.21-.27,1.38-1.6,3.83-1.7,2.44-.12,4.15,1.07,3.96,1.36Z"/>
      </g>
      <g class="st4">
        <polygon points="308.9 806.53 308.46 814.22 272.42 813.28 272.46 807.07 308.9 806.53"/>
      </g>
      <path class="st9" d="M309.21,800.79c0,.15-1.45.36-3.76-.07-1.15-.22-2.5-.61-3.92-1.26-.71-.33-1.43-.72-2.14-1.18-.34-.23-.75-.46-1.12-.9-.4-.39-.62-1.36-.14-1.95.39-.57,1.08-.81,1.62-.82.55-.01,1,.11,1.41.21.83.21,1.61.5,2.33.83,1.43.67,2.58,1.51,3.43,2.32,1.72,1.64,2.3,3.01,2.17,3.08-.17.12-1-1.04-2.75-2.4-.87-.67-1.99-1.37-3.33-1.93-.67-.28-1.39-.52-2.15-.7-.79-.22-1.47-.23-1.68.12-.08.13-.09.19.08.42.17.22.49.43.83.66.66.44,1.32.83,1.97,1.16,1.3.67,2.55,1.13,3.61,1.44,2.14.63,3.56.75,3.55.95Z"/>
      <path class="st9" d="M308.72,801.3c-.13.05-.84-1.27-.94-3.64-.05-1.18.1-2.6.57-4.11.24-.75.57-1.52.99-2.27.45-.74,1-1.72,2.42-1.86.74-.02,1.35.57,1.56,1.07.24.51.28.95.37,1.38.13.88.1,1.74-.03,2.53-.26,1.59-.93,2.91-1.66,3.86-1.49,1.92-3.03,2.34-3.06,2.22-.12-.19,1.17-.88,2.32-2.73.57-.91,1.07-2.12,1.24-3.52.08-.69.08-1.43-.04-2.17-.11-.8-.4-1.45-.7-1.37-.37-.01-1.02.58-1.33,1.21-.39.67-.71,1.35-.96,2.02-.49,1.35-.71,2.65-.78,3.74-.13,2.2.24,3.58.04,3.63Z"/>
    </g>
    <g>
      <path class="st13" d="M201.06,448.53l2.98-.15s10.06,16.91,23.61,16.79c18.72-.16,20.59-18.48,20.59-18.48l.98.12,30.78,31.89,4.06,89.29-3.34,11.46-49.17,18-40-39.9-2.03-28.28,11.54-80.75Z"/>
      <path class="st10" d="M202.97,448.25s-37.48,1.28-43.6,17.31c-2.7,7.07-3.63,128.45-3.63,128.45,0,0-4.67,10.44-4.37,31.99.29,20.65,13.95,34.01,30.99,37.87,0,0,4.49-32.45,22.45-48.71,17.03-15.41,31.97-18.6,31.97-18.6l-5.82-39.65-5.02-27.24c-4.27-23.15-10.37-45.92-18.25-68.1l-4.73-13.31Z"/>
      <path class="st10" d="M278.04,452.51l29.79,131.04-27.53-6.26-8.76-67.57-22.59-63.03s24.37,3.18,29.09,5.81Z"/>
      <path class="st10" d="M343.69,553.75s-33.46-64.53-39.87-76.5c-10.39-19.4-28.43-25.75-28.43-25.75l32.18,124.53s3.27,10.25,7.65,16.2c4.38,5.94,11.26,9.39,22.21,8.76,10.95-.63,15.96-12.51,16.27-24.96.31-12.44-10.01-22.28-10.01-22.28Z"/>
      <g class="st4">
        <path d="M156.02,613.33c-.11,1.36.71,2.67,1.82,3.46,1.11.79,2.47,1.15,3.82,1.38,6.33,1.11,12.86-.09,18.97-2.06,7.03-2.27,13.69-5.56,20.31-8.83,9.72-4.8,19.47-9.62,28.63-15.41-9.53,3.9-19.38,7.02-29.41,9.32-14.98,3.43-30.68,5.14-44.25,12.37"/>
      </g>
      <path class="st10" d="M181.97,476.26l-8.36,89.95h-2.37l37.91.75,13.72,27.55s-49.71,24.19-70.96,17.52c-25.18-7.9-18-36-17.81-45.93.03-1.75,13.34-91.24,27.03-103.76,0,0,18.89,7.13,20.83,13.91Z"/>
      <path class="st9" d="M293.6,506.74c-.11.04-.78-1.65-1.86-4.37-1.08-2.72-2.58-6.48-4.33-10.59-1.75-4.11-3.42-7.8-4.64-10.46-1.22-2.67-1.97-4.32-1.87-4.37.09-.05,1.02,1.52,2.37,4.13,1.35,2.61,3.11,6.27,4.86,10.4,1.76,4.12,3.18,7.93,4.13,10.71.95,2.78,1.44,4.53,1.34,4.57Z"/>
      <g>
        <path class="st5" d="M207.58,513.26c-.06,0-.21-1-.65-2.58-.44-1.58-1.24-3.71-2.51-5.86-1.28-2.15-2.76-3.88-3.93-5.02-1.17-1.15-1.98-1.76-1.95-1.81.01-.02.22.12.6.4.38.27.89.69,1.5,1.25,1.22,1.11,2.75,2.84,4.05,5.02,1.29,2.18,2.07,4.36,2.46,5.96.2.8.32,1.46.38,1.92.06.46.08.71.06.72Z"/>
        <path class="st5" d="M203.06,502.46s-.2.05-.57.06c-.37.02-.9.01-1.56-.05-1.31-.11-3.14-.48-4.98-1.34l-.49-.23.53-.07h0c2.07-.25,3.86.37,5.11.76.62.22,1.12.42,1.45.58.33.16.51.26.5.28-.02.05-.77-.27-2.02-.65-1.24-.34-3.04-.9-4.98-.66h0s.04-.3.04-.3c1.8.84,3.58,1.24,4.87,1.41,1.29.17,2.11.15,2.11.2Z"/>
        <path class="st5" d="M205.17,504.97s-.08-.83-.07-2.17c-.02-1.32.05-3.22-.8-5.06l.29-.02v.03c-.52,1.94-.25,3.84-.01,5.13.25,1.31.64,2.06.59,2.08-.01,0-.14-.16-.3-.51-.16-.34-.35-.86-.51-1.52-.29-1.31-.62-3.22-.08-5.28v-.03s.12-.41.12-.41l.18.39c.89,1.93.78,3.88.74,5.19-.03.52-.06,1.05-.09,1.58-.02.37-.04.58-.07.58Z"/>
        <path class="st5" d="M206.39,508.21s-.13.07-.39.14c-.26.06-.64.14-1.11.15-.95.06-2.32-.34-3.44-1.28l-.07-.05-.36-.28h.46c1.43,0,2.71.32,3.57.65.87.33,1.35.65,1.34.68-.03.1-2.09-1.01-4.91-1.01l.1-.28.06.05c1.08.9,2.33,1.3,3.24,1.3.92.03,1.49-.12,1.5-.07Z"/>
      </g>
      <g>
        <path class="st5" d="M296.08,486.32c-.06,0-.21-1-.65-2.58-.44-1.58-1.24-3.71-2.51-5.86-1.28-2.15-2.76-3.88-3.93-5.02-1.17-1.15-1.98-1.76-1.95-1.81.01-.02.22.12.6.4.38.27.89.69,1.5,1.25,1.22,1.11,2.75,2.84,4.05,5.02,1.29,2.18,2.07,4.36,2.46,5.96.2.8.32,1.46.38,1.92.06.46.08.71.06.72Z"/>
        <path class="st5" d="M291.55,475.52s-.2.05-.57.06c-.37.02-.9.01-1.56-.05-1.31-.11-3.14-.48-4.98-1.34l-.49-.23.53-.07h0c2.07-.25,3.86.37,5.11.76.62.22,1.12.42,1.45.58.33.16.51.26.5.28-.02.05-.77-.27-2.02-.65-1.24-.34-3.04-.9-4.98-.66h0s.04-.3.04-.3c1.8.84,3.58,1.24,4.87,1.41,1.29.17,2.11.15,2.11.2Z"/>
        <path class="st5" d="M293.67,478.03s-.08-.83-.07-2.17c-.02-1.32.05-3.22-.8-5.06l.29-.02v.03c-.52,1.94-.25,3.84-.01,5.13.25,1.31.64,2.06.59,2.08-.01,0-.14-.16-.3-.51-.16-.34-.35-.86-.51-1.52-.29-1.31-.62-3.22-.08-5.28v-.03s.12-.41.12-.41l.18.39c.89,1.93.78,3.88.74,5.19-.03.52-.06,1.05-.09,1.58-.02.37-.04.58-.07.58Z"/>
        <path class="st5" d="M294.89,481.27s-.13.07-.39.14c-.26.06-.64.14-1.11.15-.95.06-2.32-.34-3.44-1.28l-.07-.05-.36-.28h.46c1.43,0,2.71.32,3.57.65.87.33,1.35.65,1.34.68-.03.1-2.09-1.01-4.91-1.01l.1-.28.06.05c1.08.9,2.33,1.3,3.24,1.3.92.03,1.49-.12,1.5-.07Z"/>
      </g>
      <g>
        <path class="st5" d="M271.96,459.2s-.48.9-1.14,2.4c-.66,1.5-1.41,3.65-1.8,6.12-.39,2.47-.35,4.75-.18,6.37.17,1.63.4,2.62.35,2.64-.02,0-.09-.24-.21-.69-.12-.45-.25-1.1-.36-1.92-.23-1.64-.31-3.95.09-6.45.4-2.5,1.19-4.67,1.91-6.16.36-.74.68-1.33.93-1.72.25-.39.39-.6.41-.59Z"/>
        <path class="st5" d="M268.55,470.4s.19.09.48.32c.29.22.7.57,1.17,1.03.94.92,2.11,2.37,2.97,4.21l.23.49-.45-.28h0c-1.76-1.14-2.74-2.75-3.45-3.85-.34-.57-.59-1.04-.75-1.37-.16-.33-.23-.53-.21-.54.04-.02.42.7,1.14,1.79.74,1.05,1.77,2.64,3.42,3.69h0s-.22.21-.22.21c-.85-1.8-1.96-3.24-2.85-4.19-.89-.96-1.53-1.46-1.5-1.5Z"/>
        <path class="st5" d="M268.53,467.12s-.47.69-1.33,1.71c-.83,1.03-2.09,2.45-2.6,4.41l-.24-.17.02-.02c1.63-1.17,2.63-2.81,3.28-3.95.64-1.17.82-1.99.87-1.98.02,0,0,.21-.1.58-.09.37-.28.89-.58,1.5-.61,1.19-1.57,2.87-3.3,4.11l-.03.02-.34.24.11-.41c.54-2.05,1.87-3.48,2.74-4.47.35-.38.71-.77,1.08-1.16.26-.27.4-.42.42-.4Z"/>
        <path class="st5" d="M269.65,463.85s.15.03.39.14c.24.12.58.3.95.6.77.57,1.57,1.74,1.83,3.18l.02.08.1.44-.35-.29c-1.1-.92-1.88-1.97-2.34-2.77-.46-.81-.63-1.36-.6-1.37.09-.06.97,2.12,3.14,3.91l-.25.15-.02-.08c-.26-1.39-.97-2.48-1.67-3.07-.69-.61-1.23-.85-1.2-.9Z"/>
      </g>
      <g>
        <path class="st5" d="M195.11,452.27s-.51.88-1.23,2.36c-.72,1.47-1.54,3.59-2.03,6.04-.48,2.45-.52,4.73-.42,6.36.11,1.64.3,2.64.25,2.65-.02,0-.08-.24-.18-.69-.1-.45-.2-1.11-.29-1.94-.17-1.64-.16-3.95.33-6.44.49-2.48,1.36-4.62,2.14-6.08.39-.73.73-1.3,1-1.68.26-.38.41-.59.43-.57Z"/>
        <path class="st5" d="M191.28,463.34s.18.1.47.33c.29.23.68.59,1.13,1.08.91.96,2.01,2.45,2.81,4.32l.21.49-.44-.3h0c-1.71-1.2-2.63-2.85-3.3-3.98-.32-.58-.55-1.06-.69-1.4-.15-.34-.21-.53-.19-.54.05-.02.39.72,1.08,1.83.7,1.08,1.66,2.7,3.27,3.82h0s-.23.2-.23.2c-.78-1.83-1.84-3.31-2.69-4.29-.85-.99-1.47-1.52-1.44-1.56Z"/>
        <path class="st5" d="M191.38,460.06s-.5.67-1.39,1.66c-.87.99-2.19,2.37-2.77,4.3l-.23-.18.03-.02c1.68-1.1,2.74-2.71,3.42-3.82.69-1.15.89-1.96.94-1.94.02,0,0,.21-.12.58-.11.36-.31.88-.63,1.48-.66,1.17-1.68,2.81-3.46,3.99l-.03.02-.35.23.12-.41c.62-2.03,2-3.41,2.91-4.37.37-.37.74-.74,1.12-1.12.27-.26.42-.4.44-.39Z"/>
        <path class="st5" d="M192.62,456.84s.15.03.38.15c.23.12.56.32.93.63.75.59,1.5,1.8,1.71,3.25v.08s.09.45.09.45l-.34-.3c-1.07-.96-1.81-2.04-2.23-2.86-.43-.83-.58-1.38-.54-1.39.09-.06.88,2.15,2.99,4.02l-.26.14v-.08c-.22-1.39-.88-2.52-1.56-3.13-.67-.63-1.19-.9-1.16-.95Z"/>
      </g>
      <g>
        <path class="st5" d="M306.13,490.12s-.51.88-1.23,2.36c-.72,1.47-1.54,3.59-2.03,6.04-.48,2.45-.52,4.73-.42,6.36.11,1.64.3,2.64.25,2.65-.02,0-.08-.24-.18-.69-.1-.45-.2-1.11-.29-1.94-.17-1.64-.16-3.95.33-6.44.49-2.48,1.36-4.62,2.14-6.08.39-.73.73-1.3,1-1.68.26-.38.41-.59.43-.57Z"/>
        <path class="st5" d="M302.3,501.19s.18.1.47.33c.29.23.68.59,1.13,1.08.91.96,2.01,2.45,2.81,4.32l.21.49-.44-.3h0c-1.71-1.2-2.63-2.85-3.3-3.98-.32-.58-.55-1.06-.69-1.4-.15-.34-.21-.53-.19-.54.05-.02.39.72,1.08,1.83.7,1.08,1.66,2.7,3.27,3.82h0s-.23.2-.23.2c-.78-1.83-1.84-3.31-2.69-4.29-.85-.99-1.47-1.52-1.44-1.56Z"/>
        <path class="st5" d="M302.4,497.91s-.5.67-1.39,1.66c-.87.99-2.19,2.37-2.77,4.3l-.23-.18.03-.02c1.68-1.1,2.74-2.71,3.42-3.83.69-1.15.89-1.96.94-1.94.02,0,0,.21-.12.58-.11.36-.31.88-.63,1.48-.66,1.17-1.68,2.81-3.46,3.99l-.03.02-.35.23.12-.41c.62-2.03,2-3.41,2.91-4.37.37-.37.74-.74,1.12-1.12.27-.26.42-.4.44-.39Z"/>
        <path class="st5" d="M303.65,494.68s.15.03.38.15c.23.12.56.32.93.63.75.59,1.5,1.8,1.71,3.25v.08s.09.45.09.45l-.34-.3c-1.07-.96-1.81-2.04-2.23-2.86-.43-.83-.58-1.38-.54-1.39.09-.06.88,2.15,2.99,4.02l-.26.14v-.08c-.22-1.39-.88-2.52-1.56-3.13-.67-.63-1.19-.9-1.16-.95Z"/>
      </g>
      <g>
        <path class="st5" d="M340.83,579.06s-.51.88-1.23,2.36c-.72,1.47-1.54,3.59-2.03,6.04-.48,2.45-.53,4.73-.42,6.36.11,1.64.3,2.64.25,2.65-.02,0-.08-.24-.18-.69-.1-.45-.2-1.11-.29-1.94-.17-1.64-.16-3.95.33-6.44.49-2.48,1.36-4.62,2.14-6.08.39-.73.73-1.3,1-1.68.26-.38.41-.59.43-.57Z"/>
        <path class="st5" d="M336.99,590.13s.18.1.47.33c.29.23.68.59,1.13,1.08.91.96,2.01,2.45,2.81,4.32l.21.49-.44-.3h0c-1.71-1.2-2.63-2.85-3.3-3.98-.32-.58-.55-1.06-.69-1.4-.15-.34-.21-.53-.19-.54.05-.02.39.72,1.08,1.83.7,1.08,1.66,2.7,3.27,3.82h0s-.23.2-.23.2c-.78-1.83-1.84-3.31-2.69-4.29-.85-.99-1.47-1.52-1.44-1.56Z"/>
        <path class="st5" d="M337.09,586.84s-.5.67-1.39,1.66c-.87.99-2.19,2.37-2.77,4.3l-.23-.18.03-.02c1.68-1.1,2.74-2.71,3.42-3.82.69-1.15.89-1.96.94-1.94.02,0,0,.21-.12.58-.11.36-.31.88-.63,1.48-.66,1.17-1.68,2.81-3.46,3.99l-.03.02-.35.23.12-.41c.62-2.03,2-3.41,2.91-4.37.37-.37.74-.74,1.12-1.12.27-.26.42-.4.44-.39Z"/>
        <path class="st5" d="M338.34,583.62s.15.03.38.15c.23.12.56.32.93.63.75.59,1.5,1.8,1.71,3.25v.08s.09.45.09.45l-.34-.3c-1.07-.96-1.81-2.04-2.23-2.86-.43-.83-.58-1.38-.54-1.39.09-.06.88,2.15,2.99,4.02l-.26.14v-.08c-.22-1.39-.88-2.52-1.56-3.13-.67-.63-1.19-.9-1.16-.95Z"/>
      </g>
      <g>
        <path class="st9" d="M183.16,501.36c.05,0-.03.87-.22,2.43-.23,1.69-.53,3.9-.89,6.57-.85,5.67-1.99,13.25-3.25,21.64-1.29,8.45-2.41,16.1-3.19,21.64-.38,2.67-.7,4.88-.94,6.56-.23,1.55-.38,2.4-.44,2.4s0-.87.14-2.43c.14-1.56.37-3.82.7-6.6.64-5.57,1.68-13.24,2.97-21.69,1.29-8.45,2.55-16.08,3.48-21.61.46-2.66.85-4.86,1.14-6.54.28-1.54.47-2.39.52-2.38Z"/>
        <path class="st9" d="M180.28,462.62s.3.31.74.95c.44.63,1,1.6,1.6,2.84.62,1.23,1.19,2.78,1.73,4.53.5,1.76.9,3.73,1.14,5.82.49,4.19.28,8,.05,10.73-.25,2.73-.56,4.4-.65,4.39-.12-.01-.01-1.7.1-4.43.09-2.72.2-6.49-.27-10.61-.24-2.05-.61-3.99-1.06-5.72-.49-1.72-.99-3.25-1.54-4.49-1.05-2.5-1.95-3.94-1.83-4.01Z"/>
        <path class="st9" d="M151.92,612.03s.13,0,.37.07c.29.07.64.16,1.07.27.94.22,2.35.47,4.18.62,3.67.28,9.01-.17,15.46-1.51,3.21-.68,6.78-1.43,10.53-2.3,3.72-.99,7.63-2.42,11.71-3.93,8.16-3.07,17.05-6.68,26.32-10.61.39-.17.78-.33,1.16-.49l-.2.53c-4.93-9.93-9.59-19.31-13.69-27.57l.32.19c-6.1-.05-11.68-.38-16.65-.54-4.97-.19-9.32-.28-12.91-.25-3.59.02-6.42.17-8.34.37-1.93.18-2.94.39-2.96.33,0-.02.25-.08.74-.18.49-.1,1.22-.26,2.19-.37,1.92-.27,4.76-.49,8.36-.57,3.6-.09,7.96-.05,12.94.09,4.97.11,10.57.4,16.63.42h.22s.1.2.1.2c4.12,8.25,8.8,17.61,13.76,27.53l.19.37-.38.16c-.38.16-.77.33-1.16.49-9.28,3.92-18.18,7.53-26.38,10.56-4.1,1.5-8.01,2.9-11.8,3.88-3.82.85-7.33,1.56-10.59,2.21-6.49,1.28-11.89,1.65-15.59,1.27-3.71-.37-5.6-1.26-5.6-1.26Z"/>
        <path class="st9" d="M178.05,566.43c-.1.09-.94-.87-2.65-1.94-1.69-1.08-4.31-2.15-7.36-2.58-3.05-.44-5.88-.32-7.92-.25-2.04.08-3.31.13-3.32.02,0-.1,1.24-.34,3.28-.57,2.04-.21,4.91-.43,8.07.02,3.16.45,5.88,1.65,7.55,2.9,1.7,1.24,2.41,2.36,2.34,2.4Z"/>
        <g class="st4">
          <path d="M177.41,566.32c-5.37-.81-10.92-.41-16.12,1.16-3.19.97-6.42,2.52-8.21,5.33-.58.91-.93,2.22-.16,2.97.68.65,1.79.44,2.65.07,1.86-.81,3.43-2.15,5.04-3.38,2.56-1.97,5.32-3.72,8.33-4.87,3.02-1.15,6.31-1.69,9.51-1.19"/>
        </g>
        <g class="st4">
          <path d="M175.75,564.39c-1.14-3.16-5.29-6.12-7.97-7.03-6.1-2.08-13.14-2.86-18.54.65-.58.38-1.2.89-1.22,1.59-.04.97,1.04,1.56,1.97,1.82,3.86,1.06,7.94.42,11.92.03,3.98-.39,8.24-.45,11.68,1.59"/>
        </g>
        <g class="st4">
          <path d="M174.48,560.43c7.86-16.08,11.38-37.28,8.21-56.01l-8.21,56.01Z"/>
        </g>
        <g>
          <path class="st5" d="M173.06,488.74c-.06,0-.21-1-.65-2.58-.44-1.58-1.24-3.71-2.51-5.86-1.28-2.15-2.76-3.88-3.93-5.02-1.17-1.15-1.98-1.76-1.95-1.81.01-.02.22.12.6.4.38.27.89.69,1.5,1.25,1.22,1.11,2.75,2.84,4.05,5.02,1.29,2.18,2.07,4.36,2.46,5.96.2.8.32,1.46.38,1.92.06.46.08.71.06.72Z"/>
          <path class="st5" d="M168.54,477.94s-.2.05-.57.06c-.37.02-.9.01-1.56-.05-1.31-.11-3.14-.48-4.98-1.34l-.49-.23.53-.07h0c2.07-.25,3.86.37,5.11.76.62.22,1.12.42,1.45.58.33.16.51.26.5.28-.02.05-.77-.27-2.02-.65-1.24-.34-3.04-.9-4.98-.66h0s.04-.3.04-.3c1.8.84,3.58,1.24,4.87,1.41,1.29.17,2.11.15,2.11.2Z"/>
          <path class="st5" d="M170.65,480.45s-.08-.83-.07-2.17c-.02-1.32.05-3.22-.8-5.05l.29-.02v.03c-.52,1.94-.25,3.84-.01,5.13.25,1.31.64,2.06.59,2.08-.01,0-.14-.16-.3-.51-.16-.34-.35-.86-.51-1.52-.29-1.31-.62-3.22-.08-5.28v-.03s.12-.41.12-.41l.18.39c.89,1.93.78,3.88.74,5.19-.03.52-.06,1.05-.09,1.58-.02.37-.04.58-.07.58Z"/>
          <path class="st5" d="M171.88,483.68s-.13.07-.39.14c-.26.06-.64.14-1.11.15-.95.06-2.32-.34-3.44-1.28l-.07-.05-.36-.28h.46c1.43,0,2.71.32,3.57.65.87.33,1.35.65,1.34.68-.03.1-2.09-1.01-4.91-1.01l.1-.28.06.05c1.08.9,2.33,1.3,3.24,1.3.92.03,1.49-.12,1.5-.07Z"/>
        </g>
        <g>
          <path class="st5" d="M167.39,552.03c-.06,0-.21-1-.65-2.58-.44-1.58-1.24-3.71-2.51-5.86-1.28-2.15-2.76-3.88-3.93-5.02-1.17-1.15-1.98-1.76-1.95-1.81.01-.02.22.12.6.4.38.27.89.69,1.5,1.25,1.22,1.11,2.75,2.84,4.05,5.02,1.29,2.18,2.07,4.36,2.46,5.96.2.8.32,1.46.38,1.92.06.46.08.71.06.72Z"/>
          <path class="st5" d="M162.87,541.23s-.2.05-.57.06c-.37.02-.9.01-1.56-.05-1.31-.11-3.14-.48-4.98-1.34l-.49-.23.53-.07h0c2.07-.25,3.86.37,5.11.76.62.22,1.12.42,1.45.58.33.16.51.26.5.28-.02.05-.77-.27-2.02-.65-1.24-.34-3.04-.9-4.98-.66h0s.04-.3.04-.3c1.8.84,3.58,1.24,4.87,1.41,1.29.17,2.11.15,2.11.2Z"/>
          <path class="st5" d="M164.98,543.74s-.08-.83-.07-2.17c-.02-1.32.05-3.22-.8-5.06l.29-.02v.03c-.52,1.94-.25,3.84-.01,5.13.25,1.31.64,2.06.59,2.08-.01,0-.14-.16-.3-.51-.16-.34-.35-.86-.51-1.52-.29-1.31-.62-3.22-.08-5.28v-.03s.12-.41.12-.41l.18.39c.89,1.93.78,3.88.74,5.19-.03.52-.06,1.05-.09,1.58-.02.37-.04.58-.07.58Z"/>
          <path class="st5" d="M166.2,546.97s-.13.07-.39.14c-.26.06-.64.14-1.11.15-.95.06-2.32-.34-3.44-1.28l-.07-.05-.36-.28h.46c1.43,0,2.71.32,3.57.65.87.33,1.35.65,1.34.68-.03.1-2.09-1.01-4.91-1.01l.1-.28.06.05c1.08.9,2.33,1.3,3.24,1.3.92.03,1.49-.12,1.5-.07Z"/>
        </g>
        <g>
          <path class="st5" d="M148.16,596.35c-.06,0-.21-1-.65-2.58-.44-1.58-1.24-3.71-2.51-5.86-1.28-2.15-2.76-3.88-3.93-5.02-1.17-1.15-1.98-1.76-1.95-1.81.01-.02.22.12.6.4.38.27.89.69,1.5,1.25,1.22,1.11,2.75,2.84,4.05,5.02,1.29,2.18,2.07,4.36,2.46,5.96.2.8.32,1.46.38,1.92.06.46.08.71.06.72Z"/>
          <path class="st5" d="M143.64,585.54s-.2.05-.57.06c-.37.02-.9.01-1.56-.05-1.31-.11-3.14-.48-4.98-1.34l-.49-.23.53-.07h0c2.07-.25,3.86.37,5.11.76.62.22,1.12.42,1.45.58.33.16.51.26.5.28-.02.05-.77-.27-2.02-.65-1.24-.34-3.04-.9-4.98-.66h0s.04-.3.04-.3c1.8.84,3.58,1.24,4.87,1.41,1.29.17,2.11.15,2.11.2Z"/>
          <path class="st5" d="M145.75,588.05s-.08-.83-.07-2.17c-.02-1.32.05-3.22-.8-5.06l.29-.02v.03c-.52,1.94-.25,3.84-.01,5.13.25,1.31.64,2.06.59,2.08-.01,0-.14-.16-.3-.51-.16-.34-.35-.86-.51-1.52-.29-1.31-.62-3.22-.08-5.28v-.03s.12-.41.12-.41l.18.39c.89,1.93.78,3.88.74,5.19-.03.52-.06,1.05-.09,1.58-.02.37-.04.58-.07.58Z"/>
          <path class="st5" d="M146.97,591.29s-.13.07-.39.14c-.26.06-.64.14-1.11.15-.95.06-2.32-.34-3.44-1.28l-.07-.05-.36-.28h.46c1.43,0,2.7.32,3.57.65.87.33,1.35.65,1.34.68-.03.1-2.09-1.01-4.91-1.01l.1-.28.06.05c1.08.9,2.33,1.3,3.24,1.3.92.03,1.49-.12,1.5-.07Z"/>
        </g>
        <g>
          <path class="st5" d="M164.98,507.98c0,.06-1.02.1-2.63.38-1.61.27-3.82.85-6.09,1.89-2.27,1.05-4.14,2.34-5.4,3.38-1.26,1.04-1.96,1.79-2,1.75-.02-.01.15-.21.46-.55.31-.35.78-.82,1.4-1.36,1.24-1.1,3.12-2.44,5.42-3.5,2.3-1.05,4.55-1.6,6.19-1.82.82-.11,1.49-.17,1.95-.17.46-.01.72,0,.72.01Z"/>
          <path class="st5" d="M153.76,511.35s.03.21,0,.57c-.02.37-.08.9-.21,1.55-.25,1.3-.81,3.07-1.86,4.81l-.28.46v-.53s-.01,0-.01,0c-.03-2.09.77-3.8,1.29-5,.28-.6.54-1.07.73-1.38.19-.32.31-.48.33-.47.04.02-.35.74-.86,1.94-.47,1.2-1.22,2.93-1.18,4.89h0s-.29-.06-.29-.06c1.02-1.7,1.61-3.43,1.91-4.69.3-1.27.37-2.08.42-2.08Z"/>
          <path class="st5" d="M156.48,509.51s-.83-.01-2.16-.16c-1.31-.12-3.2-.39-5.11.27v-.29s.04.01.04.01c1.88.71,3.8.64,5.11.54,1.33-.12,2.11-.42,2.13-.37,0,.02-.18.12-.54.24-.36.13-.89.26-1.57.35-1.33.15-3.27.28-5.26-.47h-.03s-.39-.17-.39-.17l.4-.14c2.01-.69,3.94-.37,5.24-.19.51.08,1.03.17,1.57.25.37.06.57.1.57.13Z"/>
          <path class="st5" d="M159.83,508.63s.06.14.1.4c.04.26.07.65.03,1.12-.04.95-.58,2.27-1.63,3.29l-.06.06-.31.33.05-.45c.15-1.43.6-2.66,1.02-3.48.42-.83.78-1.28.81-1.26.1.04-1.23,1.98-1.52,4.77l-.27-.13.06-.06c1.01-.98,1.53-2.18,1.64-3.09.12-.91.03-1.49.09-1.5Z"/>
        </g>
        <g>
          <path class="st5" d="M191.61,585.02c0,.06-1.02.1-2.63.38-1.61.27-3.82.85-6.09,1.89-2.27,1.05-4.14,2.34-5.4,3.38-1.26,1.04-1.96,1.79-2,1.75-.02-.01.15-.21.46-.55.3-.35.78-.82,1.4-1.36,1.24-1.1,3.12-2.44,5.42-3.5,2.3-1.05,4.55-1.6,6.19-1.82.82-.11,1.49-.17,1.95-.17.46-.01.72,0,.72.01Z"/>
          <path class="st5" d="M180.39,588.39s.03.21,0,.57c-.02.37-.08.9-.21,1.55-.25,1.3-.81,3.07-1.86,4.81l-.28.46v-.53s-.01,0-.01,0c-.03-2.09.77-3.8,1.29-5,.28-.6.54-1.07.73-1.38.19-.32.31-.48.33-.47.04.02-.35.74-.86,1.94-.47,1.2-1.22,2.93-1.18,4.89h0s-.29-.06-.29-.06c1.02-1.7,1.61-3.43,1.91-4.69.3-1.27.37-2.08.42-2.08Z"/>
          <path class="st5" d="M183.11,586.55s-.83-.01-2.16-.16c-1.31-.12-3.2-.39-5.11.27v-.29s.04.01.04.01c1.88.71,3.8.64,5.11.54,1.33-.12,2.11-.42,2.13-.37,0,.01-.18.12-.54.24-.36.13-.89.26-1.57.35-1.33.15-3.27.28-5.26-.47h-.03s-.39-.17-.39-.17l.4-.14c2.01-.69,3.94-.37,5.24-.19.51.08,1.03.17,1.57.25.37.06.57.1.57.13Z"/>
          <path class="st5" d="M186.45,585.67s.06.14.1.4c.04.26.07.65.03,1.12-.04.95-.58,2.27-1.63,3.29l-.06.06-.31.32.05-.45c.15-1.43.6-2.66,1.02-3.48.42-.83.78-1.28.81-1.26.1.04-1.23,1.98-1.52,4.77l-.27-.13.06-.06c1.01-.98,1.53-2.18,1.64-3.09.12-.91.03-1.49.09-1.5Z"/>
        </g>
      </g>
      <g>
        <path class="st5" d="M207.97,542.56c0,.06-1.02.1-2.63.38-1.61.27-3.82.85-6.09,1.89-2.27,1.05-4.14,2.34-5.4,3.38-1.26,1.04-1.96,1.79-2,1.75-.02-.01.15-.21.46-.55.3-.35.78-.82,1.4-1.36,1.24-1.1,3.12-2.44,5.42-3.5,2.3-1.05,4.55-1.6,6.19-1.82.82-.11,1.49-.17,1.95-.17.46-.01.72,0,.72.01Z"/>
        <path class="st5" d="M196.76,545.92s.03.21,0,.57c-.02.37-.08.9-.21,1.55-.25,1.3-.81,3.07-1.86,4.81l-.28.46v-.53s-.01,0-.01,0c-.03-2.09.77-3.8,1.29-5,.28-.6.54-1.07.73-1.38.19-.32.31-.48.33-.47.04.02-.35.74-.86,1.94-.47,1.2-1.22,2.93-1.18,4.89h0s-.29-.06-.29-.06c1.02-1.7,1.61-3.43,1.91-4.69.3-1.27.37-2.08.42-2.08Z"/>
        <path class="st5" d="M199.48,544.08s-.83-.01-2.16-.16c-1.31-.12-3.2-.39-5.11.27v-.29s.04.01.04.01c1.88.71,3.8.64,5.11.54,1.33-.12,2.11-.42,2.13-.37,0,.02-.18.12-.54.24-.36.13-.89.26-1.57.35-1.33.15-3.27.28-5.26-.47h-.03s-.39-.17-.39-.17l.4-.14c2.01-.69,3.94-.37,5.24-.19.51.08,1.03.17,1.57.25.37.06.57.1.57.13Z"/>
        <path class="st5" d="M202.82,543.21s.06.14.1.4c.04.26.07.65.03,1.12-.04.95-.58,2.27-1.63,3.29l-.06.06-.31.32.05-.45c.15-1.43.6-2.66,1.02-3.48.42-.83.78-1.28.81-1.26.1.04-1.23,1.98-1.52,4.77l-.27-.13.06-.06c1.01-.98,1.53-2.18,1.64-3.09.12-.91.03-1.49.09-1.5Z"/>
      </g>
      <g>
        <path class="st5" d="M185.44,625.14c0,.06-1.02.1-2.63.38-1.61.27-3.82.85-6.09,1.89-2.27,1.05-4.14,2.34-5.4,3.38-1.26,1.04-1.96,1.79-2,1.75-.02-.01.15-.21.46-.55.31-.35.78-.82,1.4-1.36,1.24-1.1,3.12-2.44,5.42-3.5,2.3-1.05,4.55-1.6,6.19-1.82.82-.11,1.49-.17,1.95-.17.46-.01.72,0,.72.01Z"/>
        <path class="st5" d="M174.22,628.51s.03.21,0,.57c-.02.37-.08.9-.21,1.55-.25,1.3-.81,3.07-1.86,4.81l-.28.46v-.53s-.01,0-.01,0c-.03-2.09.77-3.8,1.29-5,.28-.6.54-1.07.73-1.38.19-.32.31-.48.33-.47.04.02-.35.74-.86,1.94-.47,1.2-1.22,2.93-1.18,4.89h0s-.29-.06-.29-.06c1.02-1.7,1.61-3.43,1.91-4.69.3-1.27.37-2.08.42-2.08Z"/>
        <path class="st5" d="M176.94,626.67s-.83,0-2.16-.16c-1.31-.12-3.2-.39-5.11.27v-.29s.04.01.04.01c1.88.71,3.8.64,5.11.54,1.33-.12,2.11-.42,2.13-.37,0,.02-.18.12-.54.24-.36.13-.89.26-1.57.35-1.33.15-3.27.28-5.26-.47h-.03s-.39-.17-.39-.17l.4-.14c2.01-.69,3.94-.37,5.24-.19.51.08,1.03.17,1.57.25.37.06.57.1.57.13Z"/>
        <path class="st5" d="M180.29,625.79s.06.14.1.4c.04.26.07.65.03,1.12-.04.95-.58,2.27-1.63,3.29l-.06.06-.31.32.05-.45c.15-1.43.6-2.66,1.02-3.48.42-.83.78-1.28.81-1.26.1.04-1.23,1.98-1.52,4.77l-.27-.13.06-.06c1.01-.98,1.53-2.18,1.64-3.09.12-.91.03-1.49.09-1.5Z"/>
      </g>
    </g>
    <g>
      <g>
        <path class="st11" d="M266.99,504.21s3.56-3.94,9.67-3.41c4.69.41,26.29,9.98,35.57,14.32,2.99,1.4,5.78,2.01,7.62,4.74l.5.74s2.72-3.82,4.41-4.77c3.82-2.13,35.65-8.35,35.65-8.35l1.8,3.66-47.44,71.09-33.78-.72-21.56-12.22-14.02-8.45,21.57-56.65Z"/>
        <polygon class="st0" points="325.92 524.54 315.23 524.78 264.81 503.28 235.04 570.57 288.54 588.05 299.66 588.05 328.58 580.89 365.4 511.15 325.92 524.54"/>
        <path class="st9" d="M315.48,525.61c.2.08-5.54,14.29-12.82,31.73-7.28,17.45-13.35,31.52-13.55,31.44-.2-.08,5.54-14.29,12.82-31.74,7.28-17.44,13.34-31.52,13.54-31.43Z"/>
        <path class="st9" d="M325.92,524.54c.2.08-5.54,14.29-12.82,31.73-7.28,17.45-13.35,31.52-13.55,31.44-.2-.08,5.54-14.29,12.82-31.74,7.28-17.44,13.34-31.52,13.54-31.43Z"/>
        <g>
          <path class="st9" d="M258.01,540.52s.27.08.72.24c.51.19,1.17.44,1.99.75,1.79.69,4.28,1.64,7.4,2.84,6.33,2.47,15.19,5.93,25.6,9.99l-.46.19c3.07-6.96,6.46-14.63,10.02-22.69l.2.52c-.15-.07-.32-.14-.48-.21-12.97-5.64-24.95-10.86-34.55-15.04l.41-.16c-3.24,7.1-5.91,12.95-7.81,17.11-.93,2.01-1.67,3.61-2.21,4.77-.24.51-.44.93-.6,1.26-.14.29-.22.44-.23.44-.02,0,.03-.13.15-.41.14-.33.3-.73.51-1.23.5-1.16,1.18-2.76,2.04-4.77,1.84-4.23,4.44-10.19,7.59-17.42l.12-.29.29.12c9.62,4.14,21.62,9.3,34.61,14.89.17.07.33.14.48.21l.36.16-.16.36c-3.58,8.05-6.99,15.71-10.08,22.67l-.14.32-.32-.13c-10.45-4.23-19.34-7.83-25.69-10.41-3.05-1.26-5.5-2.26-7.25-2.99-.78-.33-1.41-.59-1.89-.8-.42-.18-.63-.28-.62-.29Z"/>
          <path class="st9" d="M297.43,544.32c-.06.02-.49-.87-1.2-2.48-.76-1.77-1.75-4.06-2.92-6.8l.4.17c-3.81,1.51-8.46,3.35-13.51,5.36l-.35.14-.15-.35c-.18-.43-.37-.89-.57-1.36-1.16-2.8-2.28-5.49-3.3-7.96l.47.21c-4.82,1.7-8.97,3.14-11.91,4.13-1.37.45-2.52.82-3.45,1.13-.81.25-1.25.36-1.27.32s.4-.23,1.18-.56c.91-.36,2.04-.8,3.38-1.33,2.9-1.11,7.01-2.64,11.82-4.4l.33-.12.14.33c1.04,2.47,2.17,5.15,3.35,7.94.19.47.39.93.57,1.36l-.5-.21c5.08-1.95,9.74-3.74,13.57-5.21l.29-.11.11.28c1.08,2.78,1.98,5.11,2.67,6.9.62,1.65.94,2.59.88,2.61Z"/>
          <path class="st9" d="M286.72,531.37c-.14.05-.07-1.06-1.21-1.89-.54-.39-1.4-.58-2.21-.26-.8.3-1.49,1.15-1.48,2.15,0,1,.67,1.85,1.48,2.15.81.32,1.67.12,2.21-.26,1.14-.83,1.08-1.93,1.21-1.89.05,0,.12.24.07.68-.06.44-.3,1.1-.94,1.64-.62.54-1.71.88-2.8.5-1.08-.34-2.03-1.48-2.02-2.83-.01-1.34.94-2.49,2.02-2.83,1.09-.38,2.17-.04,2.8.5.65.54.89,1.21.94,1.64.06.45-.02.69-.07.68Z"/>
        </g>
        <path class="st9" d="M289.12,563.5c-.08.2-7.83-2.67-17.32-6.41-9.49-3.74-17.11-6.94-17.03-7.14.08-.2,7.83,2.67,17.32,6.41,9.48,3.74,17.11,6.94,17.03,7.14Z"/>
        <path class="st9" d="M287.35,567.3c-.08.2-7.83-2.67-17.32-6.41-9.49-3.74-17.11-6.94-17.03-7.14.08-.2,7.83,2.67,17.32,6.41,9.48,3.74,17.11,6.94,17.03,7.14Z"/>
        <path class="st9" d="M285.59,571.09c-.08.2-7.83-2.67-17.32-6.41-9.49-3.74-17.11-6.94-17.03-7.14.08-.2,7.83,2.67,17.32,6.41,9.48,3.74,17.11,6.94,17.03,7.14Z"/>
        <path class="st9" d="M344.01,540.84c.08.2-4.58,2.22-10.41,4.52-5.83,2.29-10.62,3.99-10.7,3.79-.08-.2,4.58-2.22,10.41-4.52,5.83-2.29,10.62-3.99,10.7-3.79Z"/>
        <path class="st9" d="M345.9,543.62c.08.2-6.03,2.79-13.64,5.79-7.62,2.99-13.85,5.26-13.93,5.06-.08-.2,6.03-2.79,13.64-5.79,7.61-2.99,13.85-5.26,13.93-5.06Z"/>
        <path class="st9" d="M344.83,522.66c.06.21-1.57.88-3.65,1.49-2.08.62-3.82.95-3.88.74-.06-.21,1.57-.88,3.66-1.49,2.08-.62,3.82-.95,3.88-.74Z"/>
        <path class="st5" d="M315.25,539.84c.2.08-2.9,7.84-6.92,17.31-4.02,9.48-7.45,17.09-7.65,17.01-.2-.08,2.9-7.84,6.93-17.32,4.02-9.48,7.45-17.09,7.65-17.01Z"/>
      </g>
      <g>
        <path class="st2" d="M210.92,570.03s4.76-8.84,6.57-10.31c1.81-1.47,9.41-3.4,9.41-3.4,0,0,20.85-.23,21.76,2.38.91,2.61-3.17,5.21-3.17,5.21l-13.26,1.7c-.87.11-1.72.47-2.32,1.11-.29.31-.53.68-.56,1.1-.11,1.25.81,2.04,1.94,1.81,1.12-.23,17.84-5.38,18.74-5.38s3.29.45,3.06,2.61-2.04,3.74-2.04,3.74c0,0,4.47-.82,5.95-.02s1.11,2.41.43,3.88c-.68,1.47-3.65,3.17-3.65,3.17,0,0,.23-.11-1.25,2.04-1.47,2.15-12.81,7.37-12.81,7.37,0,0-8.84,3.63-11.45,3.97-2.61.34-6.69,1.02-6.69,1.02,0,0-7.46-14.38-8.57-16.68-1.36-2.82-2.42-5.45-2.08-5.3Z"/>
        <path class="st7" d="M251.43,570.57c.06.08-.94.94-2.73,2.12-1.78,1.17-4.37,2.63-7.43,3.8-3.06,1.17-5.99,1.77-8.13,1.93-2.14.17-3.47,0-3.46-.08,0-.13,1.32-.16,3.4-.47,2.08-.3,4.92-.97,7.92-2.11,6.01-2.29,10.3-5.41,10.44-5.19Z"/>
        <path class="st7" d="M253.81,577.51c.08.2-3.86,2.05-8.82,4.09-4.96,2.04-9.1,3.48-9.2,3.13.02-.04.22-.13.68-.34.62-.27,1.24-.55,1.9-.84,1.61-.7,3.84-1.65,6.32-2.67,4.96-2.04,9.03-3.57,9.12-3.37Z"/>
        <path class="st7" d="M222.74,565.44c-.02.22-1.36-.02-2.17-1.34-.82-1.31-.43-2.62-.23-2.54.22.03.23,1.09.9,2.13.63,1.06,1.58,1.54,1.51,1.75Z"/>
        <path class="st7" d="M228.53,576.41c-.1.19-1.08-.36-1.29-1.61-.22-1.24.5-2.09.66-1.95.19.11-.07.89.11,1.81.15.93.66,1.57.52,1.74Z"/>
      </g>
      <g>
        <path class="st2" d="M346.86,540.52s2.09-4.6,5.65-4.19c3.56.42,6.59,1.15,6.28,4.19s-2.93,4.6-2.93,4.6l-2.15,2.41s3.2,4.08,3.41,7.43c.21,3.35-2.62,5.13-2.62,5.13,0,0,2.76,4.18.84,7.95-1.93,3.77-2.5,4.39-2.5,4.39,0,0-.43,3.45-4.3,4.71-3.87,1.26-7.64-1.46-7.64-1.46l-12.32-10.99s-.39-1.57,0-2.83c0,0-2.33-1.26-1.81-3.87.52-2.62,3.03-2.62,3.03-2.62,0,0-.84-2.72.73-4.39,1.57-1.67,19.25-3.35,19.25-3.35l1.26-1.88s-4.19-.31-4.71-2.2c-.52-1.88.52-3.03.52-3.03Z"/>
        <path class="st7" d="M348.73,558.58c.03.19-4.34.72-9.65-.1-5.32-.79-9.33-2.59-9.25-2.77.08-.23,4.14,1.22,9.36,1.99,5.21.81,9.52.63,9.53.87Z"/>
        <path class="st7" d="M347.69,567.86c-.05.2-4.49-.68-9.82-2.31-5.34-1.62-9.51-3.36-9.44-3.56.08-.21,4.36,1.2,9.67,2.81,5.31,1.62,9.64,2.84,9.59,3.06Z"/>
        <path class="st7" d="M355.2,542.91c.09.04.03.44-.3.99-.32.55-.96,1.2-1.84,1.64-.88.44-1.79.54-2.42.47-.64-.07-.99-.27-.96-.36.04-.22,1.51-.02,3.04-.81,1.55-.74,2.29-2.03,2.49-1.93Z"/>
      </g>
    </g>
    <g>
      <path class="st9" d="M182.37,663.85s13.56,9,40.51,9,33.11-1.87,33.11-1.87l25.23-22.92,55.36,96.95s43.94-27.24,44.23-26.36c.53.53-40.99-91.85-50.07-107.82-2.91-5.11-5.71-8.98-10.3-14.93-9.23-11.95-24.57-17.5-39.33-14.29-7.48,1.63-15.69,3.76-23.01,6.44-20.1,7.36-37.13,12.3-51.67,25.19-16.8,14.89-26.98,43.81-24.06,50.61Z"/>
      <path class="st9" d="M274.93,636.9s-19.91,13.78-19.38,24.83c.45,9.26,12.76,145.49,12.76,145.49l49.03-.83,3.36-89.21-45.77-80.28Z"/>
      <path class="st8" d="M324.64,724.09s-.09-.1-.22-.33c-.16-.27-.35-.59-.59-1-.53-.94-1.26-2.24-2.19-3.89-1.91-3.45-4.61-8.34-7.94-14.37-6.66-12.21-15.82-29-25.93-47.54-3.61-6.66-7.09-13.08-10.31-19.03l.37.19c-7.84.95-14.27,5.75-17.74,11.26-1.75,2.77-2.81,5.73-3.31,8.57-.52,2.84-.59,5.52-.55,7.95.14,4.86.58,8.73.7,11.39.07,1.33.11,2.36.11,3.05,0,.7,0,1.06-.02,1.06-.02,0-.06-.36-.11-1.05-.06-.75-.13-1.76-.23-3.04-.2-2.65-.71-6.51-.92-11.4-.08-2.44-.04-5.16.46-8.06.48-2.89,1.55-5.95,3.32-8.81,3.53-5.68,10.1-10.65,18.2-11.66l.25-.03.12.23c3.23,5.94,6.72,12.36,10.34,19.01,10.04,18.58,19.12,35.41,25.73,47.65,3.24,6.07,5.87,11.01,7.72,14.49.87,1.68,1.56,3,2.06,3.96.21.42.38.76.52,1.04.11.24.17.36.15.37Z"/>
      <path class="st8" d="M283.67,618.37c.21.15-3.51,3.66-5.24,9.48-1.82,5.8-.69,10.79-.95,10.79-.08.02-.49-1.17-.67-3.19-.18-2.01-.03-4.86.87-7.83.91-2.97,2.38-5.41,3.66-6.98,1.28-1.57,2.28-2.34,2.34-2.27Z"/>
      <path class="st8" d="M273.36,614.61c.13.04-.27,1.4-.57,3.65-.3,2.24-.38,5.39.25,8.79.64,3.39,1.87,6.3,2.96,8.28,1.09,1.99,1.96,3.11,1.85,3.2-.06.05-1.09-.95-2.33-2.92-1.24-1.95-2.59-4.92-3.25-8.41-.65-3.49-.47-6.75-.02-9.02.44-2.28,1.04-3.59,1.11-3.56Z"/>
    </g>
  </g>
</svg>