<?xml version="1.0" encoding="utf-8"?>
<!-- Generator: Adobe Illustrator 27.5.0, SVG Export Plug-In . SVG Version: 6.00 Build 0)  -->
<svg version="1.1" xmlns="http://www.w3.org/2000/svg" xmlns:xlink="http://www.w3.org/1999/xlink" x="0px" y="0px"
	 viewBox="0 0 2000 2000" style="enable-background:new 0 0 2000 2000;" xml:space="preserve">
<g id="BACKGROUND">
	<rect style="fill:#FFFFFF;" width="2000" height="2000"/>
</g>
<g id="OBJECTS">
	<g>
		<g>
			<path style="fill:#E5E5FF;" d="M1628.564,1549.404l-2.129-1.309c121.14-197.014,184.27-375.02,187.634-529.07
				c3.479-159.315-58.296-256.73-110.73-310.396c-50.359-51.542-116.284-87.395-185.635-100.955
				c-65.017-12.71-128.647-4.635-174.575,22.155l-1.26-2.161c46.445-27.091,110.715-35.277,176.313-22.448
				c69.844,13.656,136.235,49.761,186.946,101.661c52.769,54.009,114.937,152.013,111.44,312.198
				C1813.196,1173.582,1749.941,1352.007,1628.564,1549.404z"/>
			<path style="opacity:0.4;fill:#E5E5FF;" d="M1725.669,851.258c-56.572-122.56-166.471-218.357-303.171-235.009
				c-109.064-13.286-218.746-15.063-328.283-21.747c-115.607-7.054-228.794-28.505-343.034-47.302
				c-73.333-12.066-137.577,5.755-208.68,31.549c-97.125,35.233-190.98,148.989-233.333,240
				c-102.038,219.266-45.679,495.071,44.238,708.74c4.405,10.468,34.772,93.76,43.876,93.76c0.011,0,1189.273,0,1189.273,0
				c71.746-105.222,130.547-220.946,163.192-340.436C1788.537,1138.827,1788.127,986.57,1725.669,851.258z"/>
			<path style="fill:#E5E5FF;" d="M278.81,1291.631c-46.696-145.61-67.256-272.229-61.11-376.338
				c5.111-86.589,28.685-158.507,70.065-213.755C382.576,574.955,540.936,577.457,542.532,577.5l-0.063,2.5
				c-1.538-0.048-158.704-2.489-252.722,123.064c-41.073,54.85-64.474,126.312-69.552,212.402
				c-6.123,103.794,14.398,230.098,60.996,375.403L278.81,1291.631z"/>
		</g>
		<g>
			<g>
				<path style="fill:#E5E5FF;" d="M1421.695,1308.652h-853.39c-17.013,0-30.805-13.792-30.805-30.805V447.748
					c0-17.013,13.792-30.805,30.805-30.805h853.39c17.013,0,30.805,13.792,30.805,30.805v830.099
					C1452.5,1294.86,1438.708,1308.652,1421.695,1308.652z"/>
				<path style="fill:#CBCBFF;" d="M1421.694,1309.902h-853.39c-17.674,0-32.054-14.38-32.054-32.056V447.748
					c0-17.675,14.38-32.054,32.054-32.054h853.39c17.676,0,32.056,14.38,32.056,32.054v830.099
					C1453.75,1295.522,1439.37,1309.902,1421.694,1309.902z M568.304,418.193c-16.296,0-29.554,13.258-29.554,29.554v830.099
					c0,16.296,13.258,29.556,29.554,29.556h853.39c16.296,0,29.556-13.259,29.556-29.556V447.748
					c0-16.296-13.259-29.554-29.556-29.554H568.304z"/>
			</g>
			<g>
				<rect x="1152.5" y="520.833" style="fill:#9192FF;" width="195" height="14.229"/>
				<rect x="1091.25" y="582.083" style="fill:#B7B7FF;" width="310.693" height="14.229"/>
				<rect x="1091.25" y="624.167" style="fill:#B7B7FF;" width="279.832" height="14.229"/>
				<rect x="1091.25" y="666.25" style="fill:#CBCBFF;" width="247.695" height="14.229"/>
				<rect x="1091.25" y="708.333" style="fill:#CBCBFF;" width="310.693" height="14.229"/>
				<rect x="1091.25" y="750.417" style="fill:#CBCBFF;" width="229.342" height="14.229"/>
			</g>
			<g>
				<rect x="603.458" y="981.25" style="fill:#B7B7FF;" width="298.189" height="14.229"/>
				<rect x="604.313" y="1020" style="fill:#CBCBFF;" width="771.007" height="14.229"/>
			</g>
			<g>
				<rect x="603.926" y="520.833" style="fill:#FFFFFF;" width="359.089" height="380.026"/>
				<g>
					<rect x="636.398" y="771.872" style="fill:#B7B7FF;" width="24.965" height="87.398"/>
					<rect x="681.261" y="784.191" style="fill:#E0E0FF;" width="24.965" height="75.079"/>
					<rect x="726.124" y="736.576" style="fill:#B7B7FF;" width="24.965" height="122.694"/>
					<rect x="770.987" y="745.362" style="fill:#E0E0FF;" width="24.965" height="113.908"/>
					<rect x="815.85" y="706.044" style="fill:#B7B7FF;" width="24.965" height="153.226"/>
					<rect x="860.713" y="684.802" style="fill:#E0E0FF;" width="24.965" height="174.469"/>
					<rect x="905.576" y="665.861" style="fill:#B7B7FF;" width="24.965" height="193.41"/>
					<polygon style="fill:#B7B7FF;" points="689.383,723.953 642.235,705.094 643.136,702.843 688.946,721.167 735.625,682.537 
						779.167,683.55 910.419,602.5 911.693,604.563 779.829,685.991 736.475,684.983 					"/>
				</g>
				<g>
					<rect x="631.851" y="596.123" style="fill:#B7B7FF;" width="51.223" height="21.295"/>
					<rect x="700" y="608.334" style="fill:#B7B7FF;" width="47.916" height="2.5"/>
				</g>
			</g>
			<g>
				<circle style="fill:#FFFFFF;" cx="1314.103" cy="870.922" r="55.922"/>
				<g>
					<path style="fill:#FFFFFF;" d="M1154.751,926.845c-30.88,0-55.915-25.036-55.915-55.915c0-27.927,20.484-51.097,47.263-55.28
						c2.809-0.431,5.7-0.656,8.653-0.656c16.547,0,31.413,7.197,41.624,18.618c8.899,9.904,14.292,22.985,14.292,37.318
						C1210.666,901.809,1185.63,926.845,1154.751,926.845z"/>
					<path style="fill:#B7B7FF;" d="M1154.751,870.93l-8.653-55.28c2.809-0.431,5.7-0.656,8.653-0.656
						c16.547,0,31.413,7.197,41.624,18.618L1154.751,870.93z"/>
				</g>
			</g>
			<g>
				<g>
					<rect x="610.019" y="1087.483" style="fill:#FFFFFF;" width="767.383" height="147.5"/>
				</g>
				<g>
					<path style="fill:#B7B7FF;" d="M1379.629,1237.188H610.392v-149.375h769.237V1237.188z M612.267,1235.313h765.487v-145.625
						H612.267V1235.313z"/>
					<rect x="611.329" y="1205.813" style="fill:#B7B7FF;" width="767.362" height="1.875"/>
					<rect x="611.329" y="1176.313" style="fill:#B7B7FF;" width="767.362" height="1.875"/>
					<rect x="611.329" y="1146.812" style="fill:#B7B7FF;" width="767.362" height="1.875"/>
					<rect x="611.329" y="1117.312" style="fill:#B7B7FF;" width="767.362" height="1.875"/>
					<rect x="1249.861" y="1088.75" style="fill:#B7B7FF;" width="1.875" height="147.5"/>
					<rect x="1121.968" y="1088.75" style="fill:#B7B7FF;" width="1.875" height="147.5"/>
					<rect x="994.073" y="1088.75" style="fill:#B7B7FF;" width="1.875" height="147.5"/>
					<rect x="866.179" y="1088.75" style="fill:#B7B7FF;" width="1.875" height="147.5"/>
					<rect x="738.285" y="1088.75" style="fill:#B7B7FF;" width="1.875" height="147.5"/>
				</g>
				<path style="fill:#9192FF;" d="M632.405,1212.893c11.156-15.543,13.567-35.555,23.532-51.92
					c4.862-7.984,11.298-15.902,20.203-19.472c15.351-6.155,19.267,13.656,19.594,24.659c0.48,16.184-2.204,33.744,11.164,45.895
					c4.462,4.056,10.365,6.464,16.389,4.865c7.222-1.917,11.715-8.533,15.289-14.609c10.233-17.399,16.733-37.339,23.842-56.157
					c3.591-9.506,8.156-21.683,17.562-27.009c13.405-7.592,14.872,9.206,14.84,18.058c-0.036,9.702,0.066,19.402,0.15,29.104
					c0.04,4.663-0.919,14.391,4.562,16.989c3.225,1.529,5.781-1.392,7.59-3.738c1.573-2.04,2.667-4.425,4.236-6.455
					c1.479-1.912,2.794-3.067,5.459-3.287c2.449-0.203,3.62-0.231,5.284,2.025c0.926,1.256,1.357,3.025,1.747,4.5
					c1.928,7.278-0.052,15.523,4.072,22.247c2.295,3.742,7.232,7.475,11.872,6.742c9.367-1.479,11.748-16.744,12.872-24.083
					c1.504-9.817,2.909-19.578,5.614-29.161c2.724-9.65,6.255-21.176,13.592-28.393c2.794-2.748,6.64-5.488,10.773-5.025
					c6.036,0.677,7.925,7.489,9.401,12.374c3.33,11.024,5.325,22.559,5.316,34.091c-0.006,7.965-2.323,17.932,2.986,24.825
					c2.849,3.699,7.682,5.821,12.307,4.669c6.757-1.683,8.39-8.245,9.763-14.192c0.273-1.182,0.479-2.407,0.925-3.54
					c1.317-3.353,1.841-3.743,5.459-3.891c3.982-0.163,4.138,0.77,4.778,4.07c0.645,3.326,0.311,6.686,1.312,9.975
					c1.266,4.16,4.189,7.987,9.003,6.553c4.443-1.324,6.82-6.077,8.288-10.092c4.22-11.543,3.827-24.324,4.456-36.404
					c0.417-8.001,1.061-16.598,4.756-23.861c2.405-4.726,9.506-12.379,14.995-7.393c7.144,6.489,6.447,22.302,6.61,31.031
					c0.351,18.729-2.793,37.534-0.174,56.2c0.979,6.979,2.961,17.403,10.707,20.043c10.728,3.657,18.629-8.023,21.48-16.565
					c2.267-6.793,2.785-13.904,4.397-20.838c0.848-3.645,2.146-10.306,7.123-8.224c4.29,1.794,6.063,7.865,9.834,10.608
					c12.187,8.864,19.647-8.425,21.08-17.785c2.095-13.678-0.064-28.747,5.057-41.834c1.295-3.309,3.326-6.819,6.367-8.821
					c7.445-4.902,14.776,1.879,17.02,8.812c1.701,5.257,1.38,11.159,1.48,16.618c0.109,5.925,0.266,11.848,0.376,17.772
					c0.182,9.787-0.698,19.778-0.069,29.531c0.437,6.777,3.003,12.953,8.859,16.779c14.703,9.606,31.893-5.38,41.275-15.894
					c10.661-11.949,17.832-26.149,23.347-41.049c2.788-7.534,5.58-15.231,9.943-22.026c2.395-3.73,9.051-12.673,14.513-10.202
					c3.557,1.609,4.74,8.044,5.505,11.358c1.291,5.594,1.91,11.339,2.375,17.053c0.884,10.875,0.948,21.778,1.147,32.68
					c0.168,9.23,0.95,23.155,11.209,26.892c16.022,5.836,23.664-17.108,28.1-27.706c3.674-8.777,8.151-20.685,16.696-25.904
					c7.265-4.437,12.322,2.406,15.009,8.496c2.575,5.838,3.903,12.325,3.985,18.693c0.057,4.447-0.291,10.019,4.579,12.166
					c10.632,4.686,20.316-12.901,24.448-19.831c3.768-6.32,6.628-12.942,9.785-19.572c3.966-8.328,16.96-24.25,22.361-8.292
					c2.04,6.027,1.325,12.527,0.923,18.749c-0.456,7.059-0.96,14.137-0.737,21.215c0.257,8.176,1.738,26.014,14.076,24.119
					c7.475-1.148,15.175-9.382,20.776-14.052c8.206-6.842,15.948-14.194,23.295-21.948c1.106-1.168-0.658-2.939-1.768-1.768
					c-7.348,7.754-15.089,15.106-23.295,21.948c-4.396,3.665-8.867,7.38-13.616,10.58c-6.175,4.161-12.219,2.275-14.684-4.096
					c-4.839-12.505-1.892-27.976-1.242-40.99c0.386-7.739-0.585-25.452-12.441-23.302c-7.103,1.288-12.006,8.946-14.974,14.855
					c-3.365,6.699-6.12,13.595-9.907,20.089c-3.757,6.442-8.083,14.109-14.342,18.436c-4.719,3.262-10.247,1.718-10.775-4.621
					c-0.241-2.894,0.07-5.773-0.271-8.68c-0.985-8.391-4.177-22.256-13.265-25.654c-12.61-4.715-21.795,16.502-25.383,24.808
					c-3.673,8.502-6.522,19.392-13.313,26.026c-4.789,4.678-12.56,6.3-17.455,0.891c-3.581-3.956-4.483-10.192-4.984-15.279
					c-1.948-19.762,0.999-40.177-4.639-59.55c-1.626-5.587-4.722-12.489-11.635-10.042c-11.593,4.104-16.87,19.163-20.819,29.54
					c-6.313,16.588-13.31,32.465-25.613,45.654c-7.097,7.608-17.388,17.013-28.494,16.789
					c-14.582-0.294-16.398-14.843-15.979-25.993c0.409-10.903-0.02-21.839-0.257-32.742c-0.191-8.787,0.991-19.257-3.347-27.293
					c-2.763-5.119-8.627-9.199-14.669-8.128c-5.135,0.91-8.951,5.747-11.025,10.194c-5.581,11.964-4.104,26.399-5.364,39.203
					c-0.719,7.313-2.02,19.86-10.58,22.405c-10.767,3.201-11.11-12.983-20.168-13.291c-9.603-0.327-9.682,22.735-11.343,28.803
					c-2.05,7.487-5.945,16.42-14.472,18.044c-5.275,1.005-8.788-2.313-10.836-6.849c-4.657-10.311-4.085-23.304-3.795-34.353
					c0.216-8.251,0.953-16.478,1.098-24.731c0.156-8.897,1.926-47.113-15.044-43.015c-11.74,2.835-14.746,17.996-15.79,28.038
					c-1.391,13.385-0.214,27.096-4.034,40.169c-0.993,3.398-2.311,7.321-5.155,9.632c-2.963,2.408-6.498,0.349-7.958-2.748
					c-0.991-2.103-0.943-4.746-1.138-6.99c-0.33-3.806-0.808-9.468-5.047-11.065c-4.902-1.846-8.92,3.163-10.395,7.188
					c-1.827,4.986-1.231,11.543-6.295,14.846c-5.082,3.315-11.047,0.189-13.499-4.718c-2.554-5.112-1.631-11.337-1.383-16.838
					c0.252-5.585,0.012-11.166-0.63-16.719c-1.088-9.412-2.849-19.737-6.719-28.451c-5.338-12.021-17.232-8.825-24.31-0.189
					c-12.016,14.661-15.04,36.949-17.644,55.035c-0.835,5.801-1.939,11.822-4.534,17.128c-1.33,2.719-3.239,5.937-6.476,6.485
					c-5.414,0.917-9.894-5.325-11.082-9.761c-1.932-7.214-0.108-32.805-15.129-24.949c-4.662,2.438-5.109,8.26-9.085,11.187
					c-6.217,4.576-6.599-5.54-6.643-9.456c-0.067-5.874-0.101-11.748-0.152-17.622c-0.068-7.889,0.533-16.08-0.428-23.928
					c-0.614-5.01-2.142-10.847-7.314-12.912c-13.999-5.591-24.444,17.005-28.2,26.477c-7.966,20.088-14.348,41.559-25.554,60.143
					c-6.153,10.204-16.646,17.849-27.186,8.297c-7.531-6.825-10.303-16.85-10.501-26.673c-0.257-12.765,3.566-38.571-11.736-45.207
					c-13.335-5.782-27.466,12.611-33.106,22.07c-9.637,16.163-12.128,35.901-23.076,51.154
					C629.307,1212.941,631.474,1214.19,632.405,1212.893L632.405,1212.893z"/>
			</g>
		</g>
		<g>
			<g>
				<path style="fill:#E0E0FF;" d="M1377.883,1621.25h-188.9c-7.248,0-13.123-5.875-13.123-13.123v-124.378
					c0-7.247,5.875-13.123,13.123-13.123h188.9c7.247,0,13.123,5.875,13.123,13.123v124.378
					C1391.006,1615.375,1385.131,1621.25,1377.883,1621.25z"/>
				<rect x="1180.603" y="1535.889" style="fill:#B7B7FF;" width="205.659" height="2.383"/>
				<path style="fill:#B7B7FF;" d="M1283.433,1557.727c-9.524,0-17.271-7.747-17.271-17.271v-4.568h34.541v4.568
					C1300.703,1549.98,1292.957,1557.727,1283.433,1557.727z M1268.545,1538.271v2.185c0,8.21,6.677,14.888,14.888,14.888
					s14.888-6.677,14.888-14.888v-2.185H1268.545z"/>
				<path style="fill:#B7B7FF;" d="M1324.128,1478.323h-2.383v-30.896c0-4.16-3.386-7.544-7.546-7.544h-61.533
					c-4.16,0-7.544,3.384-7.544,7.544v30.896h-2.383v-30.896c0-5.474,4.453-9.927,9.927-9.927h61.533
					c5.474,0,9.929,4.453,9.929,9.927V1478.323z"/>
				<rect x="1238.186" y="1470.627" style="fill:#B7B7FF;" width="11.613" height="12.506"/>
			</g>
			<rect x="1317.095" y="1470.627" style="fill:#B7B7FF;" width="11.613" height="12.506"/>
		</g>
		<g>
			<rect x="625.825" y="1493.425" style="fill:#E0E0FF;" width="153.35" height="127.825"/>
			<rect x="614.532" y="1484.375" style="fill:#B7B7FF;" width="175.937" height="26.846"/>
			<path style="opacity:0.6;fill:#B7B7FF;" d="M779.175,1621.25h-153.35v-110.425
				C625.825,1510.825,687.925,1604.175,779.175,1621.25z"/>
		</g>
		<g>
			<g>
				<path style="fill:#FFFFFF;" d="M1630.659,528.847c-52.512,0-95.081,42.569-95.081,95.081c0,32.74,16.551,61.611,41.739,78.713
					l-3.65,43.803l35.688-29.862c6.852,1.569,13.976,2.426,21.304,2.426c52.511,0,95.081-42.569,95.081-95.081
					S1683.171,528.847,1630.659,528.847z"/>
				<path style="fill:#5254CF;" d="M1572.173,749.324l3.838-46.062c-26.113-18.02-41.682-47.621-41.682-79.335
					c0-53.117,43.213-96.331,96.331-96.331s96.331,43.214,96.331,96.331s-43.213,96.331-96.331,96.331
					c-7,0-14.053-0.78-20.977-2.321L1572.173,749.324z M1630.659,530.096c-51.738,0-93.831,42.092-93.831,93.831
					c0,31.128,15.398,60.167,41.191,77.679l0.603,0.41l-3.462,41.547l33.867-28.339l0.605,0.139
					c6.936,1.588,14.009,2.394,21.025,2.394c51.738,0,93.831-42.092,93.831-93.831S1682.397,530.096,1630.659,530.096z"/>
			</g>
			<g>
				<g>
					<g>
						<rect x="1618.569" y="643.93" style="fill:#FFFFFF;" width="28.272" height="29.339"/>
						<path style="fill:#5254CF;" d="M1648.091,674.519h-30.771v-31.838h30.771V674.519z M1619.819,672.019h25.771v-26.838h-25.771
							V672.019z"/>
					</g>
					<g>
						<path style="fill:#FFFFFF;" d="M1655.643,623.659c0-13.027-10.859-23.517-24.019-22.913
							c-11.979,0.55-21.708,10.634-21.855,22.625c-0.052,4.266,1.064,8.262,3.046,11.698c3.564,6.178,5.754,13.05,5.754,20.182
							v5.216h28.272v-5.422c0-7.038,2.171-13.818,5.711-19.9C1654.516,631.769,1655.643,627.848,1655.643,623.659z"/>
						<path style="fill:#5254CF;" d="M1648.091,661.716h-30.771v-6.465c0-6.552-1.88-13.131-5.586-19.557
							c-2.156-3.735-3.267-8.002-3.215-12.338c0.156-12.579,10.496-23.282,23.047-23.86c6.738-0.302,13.022,2.062,17.844,6.669
							c4.827,4.609,7.483,10.823,7.483,17.494c0,4.261-1.128,8.45-3.262,12.113c-3.674,6.317-5.54,12.802-5.54,19.271V661.716z
							 M1619.819,659.216h25.771v-4.172c0-6.918,1.978-13.824,5.879-20.529c1.912-3.282,2.922-7.036,2.922-10.856
							c0-5.983-2.383-11.553-6.709-15.686c-4.324-4.13-9.956-6.26-16.003-5.979c-11.252,0.518-20.522,10.114-20.662,21.393
							c-0.046,3.887,0.95,7.711,2.878,11.057c3.931,6.81,5.923,13.811,5.923,20.807V659.216z"/>
					</g>
					<g>
						<path style="fill:#FFFFFF;" d="M1627.473,620.966c-1.777,2.532-4.757,3.505-6.656,2.173c-1.899-1.332-1.999-4.466-0.222-6.998
							c1.777-2.532,4.756-3.505,6.656-2.173C1629.15,615.3,1629.25,618.434,1627.473,620.966z"/>
						<path style="fill:#5254CF;" d="M1622.776,624.989c-0.977,0-1.895-0.278-2.676-0.828c-1.248-0.875-1.968-2.307-2.021-4.032
							c-0.051-1.591,0.481-3.262,1.494-4.707c1.013-1.444,2.402-2.512,3.916-3.005c1.619-0.53,3.25-0.333,4.48,0.529
							c1.23,0.862,1.968,2.331,2.021,4.032c0.051,1.591-0.481,3.262-1.494,4.706l0,0c-1.013,1.445-2.405,2.513-3.916,3.007
							C1623.967,624.89,1623.362,624.989,1622.776,624.989z M1625.281,614.62c-0.322,0-0.664,0.057-1.016,0.173
							c-0.989,0.322-1.953,1.074-2.646,2.064c-0.696,0.991-1.074,2.155-1.042,3.192c0.029,0.919,0.371,1.652,0.959,2.065
							c0.591,0.41,1.392,0.487,2.268,0.198c1.001-0.327,1.941-1.061,2.646-2.065l0,0c0.696-0.99,1.074-2.153,1.042-3.191
							c-0.029-0.919-0.371-1.652-0.959-2.065C1626.182,614.746,1625.754,614.62,1625.281,614.62z"/>
					</g>
				</g>
				<g>
					
						<rect x="1593.765" y="581.014" transform="matrix(0.6218 -0.7832 0.7832 0.6218 141.0611 1472.3253)" style="fill:#5254CF;" width="2.499" height="18.181"/>
					
						<rect x="1629.711" y="559.641" transform="matrix(0.9995 -0.032 0.032 0.9995 -17.465 52.4875)" style="fill:#5254CF;" width="2.501" height="24.411"/>
					
						<rect x="1657.054" y="585.38" transform="matrix(0.7168 -0.6973 0.6973 0.7168 63.1283 1328.697)" style="fill:#5254CF;" width="20.579" height="2.5"/>
				</g>
			</g>
		</g>
		<g>
			<g>
				<path style="fill:#FFFFFF;" d="M437.608,648.947c0-46.169-37.427-83.596-83.596-83.596c-46.169,0-83.596,37.427-83.596,83.596
					s37.427,83.596,83.596,83.596c7.586,0,14.928-1.029,21.915-2.923l29.019,24.281l-3.038-36.458
					C423.486,702.327,437.608,677.293,437.608,648.947z"/>
				<path style="fill:#5254CF;" d="M406.44,756.782l-30.817-25.787c-7.066,1.857-14.332,2.798-21.611,2.798
					c-46.785,0-84.846-38.062-84.846-84.846c0-46.785,38.062-84.846,84.846-84.846c46.785,0,84.846,38.062,84.846,84.846
					c0,27.398-13.312,53.176-35.646,69.105L406.44,756.782z M376.23,728.243l27.222,22.777l-2.849-34.188l0.587-0.413
					c22.022-15.427,35.168-40.651,35.168-67.473c0-45.405-36.941-82.346-82.346-82.346c-45.405,0-82.346,36.941-82.346,82.346
					c0,45.405,36.941,82.346,82.346,82.346c7.275,0,14.538-0.968,21.588-2.878L376.23,728.243z"/>
			</g>
			<polygon style="fill:#5254CF;" points="352.91,675.024 329.208,651.322 330.975,649.554 352.092,670.671 376.567,614.919 
				378.857,615.925 			"/>
		</g>
		<g>
			<g>
				<path style="fill:#5254CF;" d="M808.689,758.517l-22.419,13.127L547.907,911.317c-7.334,4.299-15.92,3.286-19.323-2.287
					l-0.01-0.016c-3.403-5.573-0.381-13.673,6.793-18.234l232.669-147.943l22.388-14.233L808.689,758.517z"/>
				<path style="opacity:0.6;fill:#1B1B43;" d="M808.689,758.517l-22.419,13.127c-4.375-4.191-8.221-8.954-11.463-14.264
					c-2.832-4.638-5.081-9.521-6.771-14.542l22.388-14.233L808.689,758.517z"/>
			</g>
			<path style="fill:#FFFFFF;" d="M777.193,766.002c-3.535,2.158-8.15,1.043-10.308-2.492c-2.158-3.535-1.042-8.15,2.492-10.308
				c3.535-2.158,8.15-1.043,10.308,2.492C781.844,759.229,780.728,763.844,777.193,766.002z"/>
			<circle style="fill:#5254CF;" cx="890.162" cy="688.237" r="118.66"/>
			<g>
				<defs>
					<circle id="SVGID_1_" cx="890.162" cy="688.237" r="96.25"/>
				</defs>
				<use xlink:href="#SVGID_1_"  style="overflow:visible;fill:#FFFFFF;"/>
				<clipPath id="SVGID_00000003063345876943554700000008201248944635176075_">
					<use xlink:href="#SVGID_1_"  style="overflow:visible;"/>
				</clipPath>
				<g style="clip-path:url(#SVGID_00000003063345876943554700000008201248944635176075_);">
					<rect x="820.862" y="720.77" style="fill:#B7B7FF;" width="30.17" height="185.167"/>
					<rect x="875.077" y="696.349" style="fill:#E0E0FF;" width="30.17" height="210.838"/>
					<rect x="929.292" y="670.127" style="fill:#B7B7FF;" width="30.17" height="233.727"/>
				</g>
				<g style="clip-path:url(#SVGID_00000003063345876943554700000008201248944635176075_);">
					
						<rect x="784.635" y="656.79" transform="matrix(0.9525 -0.3047 0.3047 0.9525 -159.9186 292.4689)" style="fill:#B7B7FF;" width="145.14" height="3.75"/>
					<path style="fill:#B7B7FF;" d="M917.152,652.65l-3.054-2.175l9.104-12.783l-13.185-4.512l1.216-3.547l14.557,4.985
						c0.767,0.21,1.444,0.87,1.709,1.736c0.265,0.864,0.072,1.791-0.514,2.479L917.152,652.65z M924.559,638.157
						c0.039,0.016,0.079,0.031,0.121,0.042L924.559,638.157z M924.031,636.528c-0.02,0.022-0.038,0.048-0.055,0.078L924.031,636.528
						z"/>
				</g>
			</g>
		</g>
		<g>
			<g>
				<g>
					<path style="fill:#FFBC96;" d="M652.725,1571.525c-15.1,0.225-36.75,0.575-50.75,0.775c0.15-6.775,0.4-13.525,0.7-19.7
						c0.675-15.4,1.55-27.3,1.55-27.3l43.275-0.3c0,0-0.2,4.3,0,10.75C647.775,1545.3,648.9,1559.55,652.725,1571.525z"/>
					<path style="fill:#1B1B43;" d="M669.487,1592.687c-8.302-2.57-13.498-11.048-16.751-21.168
						c-15.11,0.235-36.759,0.57-50.77,0.782c-0.376,15.944-0.236,31.989,1.294,41c0.663,3.906,4.013,6.771,7.975,6.771h74.37
						c6.061,0,11.291-5.069,10.663-11.097C695.516,1601.76,687.007,1598.11,669.487,1592.687z"/>
					<path style="fill:#D28572;" d="M647.5,1535.75l-44.825,16.85c0.675-15.4,1.55-27.3,1.55-27.3l43.275-0.3
						C647.5,1525,647.3,1529.3,647.5,1535.75z"/>
					<path style="fill:#656590;" d="M625.027,1619.424c-1.587-7.534-4.741-12.773-9.376-15.574
						c-6.073-3.662-12.739-1.836-12.806-1.816l-0.691-2.402c0.311-0.09,7.733-2.166,14.757,2.061
						c5.271,3.167,8.825,8.96,10.563,17.219L625.027,1619.424z"/>
				</g>
				<g>
					<path style="fill:#FFBC96;" d="M430.475,1516.9c0,0-4.8,11.15-8.25,24.875c-1.65,6.55-2.975,13.7-3.325,20.475
						c-14.225-5.125-34.575-12.475-47.775-17.25c6.125-15.05,12.675-29.8,16.2-37.55l0.1-0.2c1.525-3.4,2.45-5.4,2.45-5.4
						L430.475,1516.9z"/>
					<path style="fill:#1B1B43;" d="M427.073,1587.977c-6.855-5.342-8.714-15.111-8.175-25.727
						c-14.215-5.128-34.581-12.477-47.761-17.238c-5.995,14.779-11.542,29.835-13.301,38.804c-0.763,3.888,1.357,7.754,5.063,9.156
						l69.556,26.321c5.669,2.145,12.354-0.745,13.9-6.605C448.205,1605.675,441.54,1599.25,427.073,1587.977z"/>
					<path style="fill:#D28572;" d="M430.475,1516.9c0,0-4.8,11.15-8.25,24.875l-36.275-30.525l1.375-3.8l0.1-0.2
						c1.525-3.4,2.45-5.4,2.45-5.4L430.475,1516.9z"/>
					<path style="fill:#656590;" d="M374.025,1596.829l-2.217-1.157c9.315-17.854-7.1-26.697-7.803-27.063l1.157-2.217
						C365.358,1566.494,384.481,1576.785,374.025,1596.829z"/>
				</g>
				<path style="fill:#5254CF;" d="M668.75,1533.75l-79.575,6.25L572.5,1255.825l-24.65-93.425l-32.25-122.175l-1.675-6.375
					l-7.775-29.45L505,1000l15.225-1.375l82.275-7.375l4.975,22.5v0.025L656.75,1236.6c1.6,7.25,2.55,14.65,2.8,22.075
					L668.75,1533.75z"/>
				<path style="fill:#5254CF;" d="M554.175,1099.175l-6.325,63.225l-10.25,102.35c-1.175,11.775-3.8,23.4-7.825,34.525L445,1533.75
					l-71.25-27.5l66.25-240c17.075-98.8,14.25-174.625,18.65-222.725c0.275-3,0.575-5.875,0.9-8.65
					c1.775-14.725,4.525-26.4,9.2-34.875l37.4,4.4l26.35,3.1l5.725,24.225l1.15,4.9L554.175,1099.175z"/>
				<path style="opacity:0.6;fill:#1B1B43;" d="M607.475,1013.75l0.858,9.583c0,0-111.667,30-149.683,20.192
					c0.275-3,0.575-5.875,0.9-8.65c1.775-14.725,4.525-26.4,9.2-34.875l37.4,4.4L505,1000l15.225-1.375l82.275-7.375
					L607.475,1013.75z"/>
				<polygon style="fill:#1B1B43;" points="571.288,1257.183 533.959,1109.729 503.369,1099.941 504.131,1097.559 536.041,1107.771 
					536.212,1108.442 573.712,1256.567 				"/>
				<path style="fill:#1B1B43;" d="M628.565,1263.669l-0.879-2.339c19.618-7.358,30.281-14.187,30.386-14.255l1.357,2.1
					C658.99,1249.458,648.462,1256.208,628.565,1263.669z"/>
				<path style="fill:#1B1B43;" d="M533,1288.743c-0.188-0.017-19.066-1.941-37.698-6.909l0.645-2.417
					c18.439,4.917,37.115,6.821,37.302,6.841L533,1288.743z"/>
				
					<rect x="414.999" y="1460.542" transform="matrix(0.3452 -0.9385 0.9385 0.3452 -1134.4487 1372.2922)" style="fill:#1B1B43;" width="2.503" height="77.249"/>
				
					<rect x="588.025" y="1515.312" transform="matrix(0.9975 -0.0703 0.0703 0.9975 -105.0332 47.8734)" style="fill:#1B1B43;" width="79.574" height="2.501"/>
			</g>
			<path style="fill:#FFB147;" d="M499.375,819.167l-33.816,13.612c-9.826,3.955-17.668,11.666-21.788,21.424l-28.384,67.932
				c-5.688,13.614-1.901,29.344,9.359,38.878l0,0c9.299,7.873,22.111,10.139,33.547,5.935l23.998-8.823L499.375,819.167z"/>
			<g>
				<path style="fill:#FFBC96;" d="M733.252,757.449c-6.32,3.124-13.61,16.419-10.844,21.202c2.267,3.92,7.545-1.385,9.286-3.205
					c3.198-3.341,11.454-12.267,6.896-17.339C737.137,756.49,735.242,756.465,733.252,757.449z"/>
				<path style="fill:#FFBC96;" d="M717.955,762.253c-5.246,4.71-8.687,19.477-4.735,23.339c3.238,3.164,6.893-3.365,8.081-5.586
					c2.18-4.079,7.729-14.898,1.974-18.556C721.438,760.283,719.607,760.769,717.955,762.253z"/>
				<path style="fill:#FFBC96;" d="M707.799,769.671c-5.299,4.547-9.03,18.519-5.199,22.067c3.139,2.907,6.902-3.317,8.126-5.433
					c2.249-3.886,7.981-14.189,2.36-17.505C711.292,767.742,709.468,768.239,707.799,769.671z"/>
				<path style="fill:#FFBC96;" d="M698.124,773.128c-5.299,4.547-9.03,18.519-5.199,22.067c3.139,2.907,6.902-3.317,8.126-5.433
					c2.249-3.886,7.981-14.189,2.359-17.506C701.617,771.199,699.793,771.696,698.124,773.128z"/>
			</g>
			<path style="fill:#FFB147;" d="M499.375,819.562l-35.208,60.528c0,0,9.167,100.002,2.5,112.283
				c-6.667,12.281-21.667,21.93-12.5,28.948c9.167,7.018,81.667,19.299,160,0.877c21.667-6.141,6.667-17.544,1.667-22.807
				s-11.667-137.723-11.667-137.723l-45.049-41.05l-33.284-8.951L499.375,819.562z"/>
			<path style="opacity:0.2;fill:#1B1B43;" d="M558.438,820.625c-6.25,10.938-79.813,22.182-59.063-1.458l21.25-4.479
				L558.438,820.625z"/>
			<g>
				<path style="fill:#FFB147;" d="M653.75,891.875l-29.027-43.055c-6.732-10.94-17.709-18.59-30.304-21.118l-35.252-7.077
					L580,898.75c0,0,32.5,45.625,61.875,56.25c26.363,9.536,61.329-6.125,80.61-109.169l-43.712-5.961L653.75,891.875z"/>
				<path style="fill:#FFBC96;" d="M746.458,784.583c-4.418-0.564-19.583,22.292-19.583,22.292l-24.509,8.346
					c-8.976,3.057-16.349,9.592-20.46,18.137l-3.133,6.512l43.712,5.961c0.72-3.846,1.424-7.78,2.099-11.873
					C739.583,820.417,756.25,785.833,746.458,784.583z"/>
			</g>
			<g>
				<path style="fill:#D28572;" d="M565.166,724.039l8.865,12.264c1.508,2.086,0.573,4.912-1.947,5.885l-9.462,3.652l-6.678-14.824
					L565.166,724.039z"/>
				<path style="fill:#FFBC96;" d="M507.85,791.4c2.225-22.55,1.325-45.15,1.325-45.15l40.4,2.925c-0.35,4.5-0.4,9.15-0.225,13.825
					c0.275,7.375,1.1,14.85,2.25,22.075c0.625,3.975,1.35,7.875,2.125,11.625L507.85,791.4z"/>
				<path style="fill:#D28572;" d="M551.6,785.075c-17.1-7.1-23.675-22.375-23.675-22.375l21.425,0.3
					C549.625,770.375,550.45,777.85,551.6,785.075z"/>
				<path style="fill:#FFF5E8;" d="M507.843,791.388l-8.468,27.778c19.494,4.689,39.454,4.893,59.792,1.458l-5.438-23.932
					L507.843,791.388z"/>
				<path style="fill:#FFBC96;" d="M564.167,703.333l4.185,55.897c0.374,2.386-1.087,4.583-3.151,6.51
					c-3.541,3.306-8.402,4.816-13.242,4.615l-28.625-1.189l-20.417-22.917l15.833-48.75l28.75-0.417L564.167,703.333z"/>
				<path style="fill:#1B1B43;" d="M517.188,736.563c0,0,7.5,23.438-8.438,35.313c-17.188-5.625-49.063-57.813-9.375-74.375
					c0,0,10.938-27.813,40.625-17.5c26.205,9.103,33.125,25,33.125,25s-18.438,13.75-40,0.938
					C533.125,705.938,535.313,733.75,517.188,736.563z"/>
				<path style="fill:#FFBC96;" d="M527.764,726.989c4.667,5.779,4.205,13.892-1.031,18.12c-5.236,4.228-13.264,2.97-17.931-2.809
					c-4.667-5.779-4.205-13.892,1.031-18.12C515.07,719.952,523.098,721.209,527.764,726.989z"/>
				<path style="fill:#1B1B43;" d="M522.007,740.437c-0.102-0.406-2.596-9.937-9.309-8.479l-0.396-1.833
					c6.787-1.47,10.512,5.806,11.523,9.857L522.007,740.437z"/>
				
					<ellipse transform="matrix(0.2298 -0.9732 0.9732 0.2298 -295.2668 1103.5815)" style="opacity:0.4;fill:#FE5B52;" cx="549.583" cy="738.333" rx="8.333" ry="8.333"/>
			</g>
			<path style="fill:#1B1B43;" d="M463.252,1026.484c-7.586-1.807-11.875-4.622-13.117-8.606
				c-2.02-6.492,4.683-13.928,10.596-20.488c0.923-1.023,1.815-2.013,2.632-2.956c1.636-1.887,2.762-4.127,3.258-6.478
				c5.483-25.989-3.605-106.91-3.696-107.726l2.483-0.281c0.38,3.341,9.226,82.141,3.66,108.522
				c-0.582,2.766-1.902,5.394-3.815,7.601c-0.828,0.955-1.731,1.957-2.664,2.992c-5.197,5.765-11.664,12.938-10.066,18.07
				c0.942,3.03,4.747,5.356,11.307,6.919L463.252,1026.484z"/>
			<path style="fill:#1B1B43;" d="M608.39,1024.58l-0.112-2.495c8.541-0.381,13.765-2.419,15.106-5.896
				c1.353-3.506-1.113-8.731-6.764-14.333c-1.447-1.436-2.455-3.287-2.914-5.353c-4.493-20.204-9.28-86.992-9.327-87.664
				l2.493-0.178c0.048,0.671,4.821,67.274,9.276,87.3c0.354,1.598,1.127,3.023,2.233,4.12c6.482,6.428,9.088,12.468,7.335,17.007
				C623.965,1021.626,618.135,1024.148,608.39,1024.58z"/>
			<polygon style="fill:#1B1B43;" points="649.248,903.049 647.002,901.951 678.046,838.51 722.653,844.592 722.316,847.07 
				679.498,841.232 			"/>
		</g>
		<g>
			<path style="fill:#1B1B43;" d="M1401.25,747.083c-14.792-8.958-18.125-34.583-4.375-42.292c13.75-7.708,22.5-0.833,22.5-0.833
				s46.12-16.822,63.542,26.042c13.125,32.292,2.708,49.167,14.167,65.417c13.057,18.517,33.958,35.208,6.667,67.708L1440,847.5
				l-16.667-78.542L1401.25,747.083z"/>
			<g>
				<g>
					<path style="fill:#FFBC96;" d="M1621.875,1466.987L1575,1487.612c0,0,6.734,17.404,12.498,37.649l48.202-15.398
						L1621.875,1466.987z"/>
					<path style="fill:#1B1B43;" d="M1635.7,1509.863l-48.202,15.398c6.602,23.19,11.93,50.11,4.4,58.891
						c-9.795,11.422-18.339,20.862-20.388,28.802c-1.205,4.669,3.587,8.605,7.892,6.433l62.276-31.409
						c10.32-5.205,14.769-17.57,10.131-28.157L1635.7,1509.863z"/>
					
						<rect x="1590.902" y="1533.54" transform="matrix(0.9544 -0.2986 0.2986 0.9544 -384.5552 552.8)" style="fill:#656590;" width="51.528" height="2.502"/>
					<path style="fill:#656590;" d="M1582.759,1596.641l-0.518-2.446c11.936-2.532,18.882-6.917,20.647-13.03
						c2.9-10.054-9.055-21.819-9.177-21.936l1.743-1.792c0.537,0.522,13.149,12.942,9.836,24.421
						C1603.25,1588.928,1595.669,1593.901,1582.759,1596.641z"/>
				</g>
				<g>
					<path style="fill:#FFBC96;" d="M1440.833,1512.5l-54.167,5c0,0,1.406,19.227-0.258,38.527l52.104-0.766L1440.833,1512.5z"/>
					<path style="fill:#1B1B43;" d="M1386.409,1556.027c-1.473,17.085-5.351,34.226-14.742,38.14
						c-20,8.333-35.833,14.167-34.167,25.833h76.891c11.558,0,21.099-9.037,21.725-20.579l2.396-44.161L1386.409,1556.027z"/>
					
						<rect x="1410.417" y="1544.58" transform="matrix(0.0166 -0.9999 0.9999 0.0166 -181.1998 2954.9255)" style="fill:#656590;" width="2.5" height="50.007"/>
					<path style="fill:#656590;" d="M1370.393,1603.633c-3.325,0-7.197-0.493-11.604-1.475l0.547-2.441
						c10.959,2.451,18.411,1.694,21.528-2.175c4.148-5.154-0.081-14.421-0.122-14.514l2.266-1.055
						c0.205,0.439,4.917,10.786-0.198,17.136C1380.386,1602.122,1376.228,1603.633,1370.393,1603.633z"/>
				</g>
				<path style="fill:#5254CF;" d="M1440.125,1525.325c-0.65,0.225-1.25,0.375-1.8,0.5c-10.825,2.5-46.65,0-46.65,0
					c-1.625-0.35-3.175-0.8-4.65-1.325c-33.5-12.2-31.225-70.775-26.2-122c4.625-46.975-15-286.675-1.45-368.125l84.8-18.55
					l0.5,14.275l1.025,29.15l1.8,51.575c0,0,3.2,49.9,7.575,112.425c6.55,93.75,15.75,215.925,20.75,240.925
					C1483.8,1503.95,1453.675,1521.375,1440.125,1525.325z"/>
				<path style="fill:#5254CF;" d="M1631.975,1473.4c-1.875,2.175-3.95,4.1-6.175,5.775c-11.4,8.775-26.775,12-40.275,15.65
					c-2.375,0.65-4.85,1.125-7.375,1.425c-12.575,1.55-26.3-1.325-32.175-12c-30.1-54.85-64.025-163.725-90.9-261
					c-19.65-71.025-35.525-135.9-43.425-168.975c-3.475-14.625-5.4-23.025-5.4-23.025l38.425-1.15l65.325-1.975
					c1.775,8.8,3.8,18.075,6.075,27.7c22.3,95.175,66.225,226.025,83.425,276.075c10.325,29.975,25.95,56.725,32.825,88.125
					C1635.975,1436.65,1644.475,1458.975,1631.975,1473.4z"/>
				<path style="opacity:0.6;fill:#1B1B43;" d="M1516.075,1055.825c-26.675,4.375-50.2,4.95-70.375,3.425
					c-12.7-0.95-24.075-2.75-34.05-4.975c-34.225-7.55-52.275-19.9-52.275-19.9l84.8-18.55l0.5,14.275l65.325-1.975
					C1511.775,1036.925,1513.8,1046.2,1516.075,1055.825z"/>
				<polygon style="fill:#1B1B43;" points="1453.872,1223.589 1427.722,1130.957 1400.823,1121.174 1401.677,1118.826 
					1429.778,1129.043 1429.954,1129.661 1456.279,1222.91 				"/>
				<path style="fill:#1B1B43;" d="M1614.417,1484.792l-2.168-1.248c12.617-21.909-12.676-89.424-44.697-174.902
					c-31.094-82.998-69.79-186.294-83.787-278.455l2.471-0.376c13.958,91.902,52.605,195.063,83.657,277.954
					C1602.146,1393.86,1627.62,1461.86,1614.417,1484.792z"/>
			</g>
			<g>
				<path style="fill:#FFBC96;" d="M1377.55,955.65c-3.025,21.125-7.55,48.725-7.55,48.725h-49.375l12.025-66.075l2.975-16.425
					c0,0,42.5,10,44.375,10C1380.725,931.875,1379.425,942.525,1377.55,955.65z"/>
				<path style="fill:#D28572;" d="M1377.55,955.65l-2.25,4.975l-42.65-22.325l2.975-16.425c0,0,42.5,10,44.375,10
					C1380.725,931.875,1379.425,942.525,1377.55,955.65z"/>
				<path style="fill:#1B1B43;" d="M1366.875,940.625c0,0,8.125,47.5-7.5,93.75c0,0,77.5,23.75,150.625-6.25l-16.875-106.875
					l5.625-54.375l-111.875,1.25l-38.125,12.5L1366.875,940.625z"/>
				<path style="fill:#1B1B43;" d="M1530.359,860.789c-4.939-14.111-16.323-25.012-30.635-29.334l-21.01-6.345
					c-8.459,12.316-23.554,28.015-45.59,28.015c-25.907,0-42.157-14.875-51.112-27.025l-14.516,3.538
					c-15.58,3.798-27.686,16.058-31.287,31.684L1320,931.667l46.875,8.958l1.25-53.75L1490,881.25l3.125,40
					c0,0,35.208-15.417,58.542,0.417L1530.359,860.789z"/>
				<path style="fill:#FFBC96;" d="M1583.75,856.25c-6.75,13.2-15.825,70.425-20,115c-1.375,14.65-5.55,26.2-11.325,34.625
					c-8.5,12.45-20.55,18.1-32.25,16.85c-4.5-0.45-8.925-1.925-13.1-4.4c-20.125-11.925-17.55-62.875-15.3-85.8
					c0.7-6.9,1.35-11.275,1.35-11.275c11.875-6.55,30.625-7.5,30.625-7.5c0.25-2.575,0.55-5.175,0.85-7.85
					c2.55-23.025,6.425-49.15,9.775-66.525c3.75-19.375,11.25-12.175,11.25-12.175c3.75-6.9,9.375-0.95,9.375-0.95
					c5-10.95,11.25-0.625,11.25-0.625c7.8-11.25,12.075,5.625,12.075,5.625s24.225-19.95,28.35-14.175
					C1608.75,820,1593.325,837.5,1583.75,856.25z"/>
				<g>
					<rect x="1286.875" y="991.768" style="fill:#FFFFFF;" width="105" height="12.607"/>
					<path style="fill:#5254CF;" d="M1331.841,1004.487h-108.305c-5.209,0-9.942-3.031-12.121-7.762l-42.175-91.571
						c-1.402-3.044,0.822-6.516,4.172-6.516h101.583c4.934,0,9.417,2.871,11.481,7.352L1331.841,1004.487z"/>
				</g>
				<path style="fill:#FFBC96;" d="M1367.5,1004.375c-1.325,4.925-3.1,9.45-5.5,13.475c-5.8,9.8-15.1,16.525-29.425,18.325
					c-4.9,0.65-10.375,0.675-16.525,0.075c-49.625-4.925-63.975-32.075-63.975-32.075s-5.525-11.525,6.2-8.875
					c0,0,2.2-7.325,11.25,0.325c0,0-1.075-9.075,7.825-0.775c0,0-1.25-9.225,8.425-1.25c9.7,7.95,17.2,10.3,28.925,10.775
					C1326.4,1004.85,1367.5,1004.375,1367.5,1004.375z"/>
				<g>
					
						<rect x="1364.063" y="886.83" transform="matrix(0.9983 -0.058 0.058 0.9983 -50.7338 80.7852)" style="fill:#5254CF;" width="2.499" height="53.841"/>
					<path style="fill:#5254CF;" d="M1427.727,872.501c-5.916,0-11.123-0.712-15.503-1.699
						c-14.912-3.361-23.496-10.376-23.855-10.674l1.594-1.925c0.339,0.278,34.116,27.39,82.727-1.775l1.284,2.144
						C1456.152,869.266,1440.337,872.501,1427.727,872.501z"/>
					
						<rect x="1490.936" y="896.631" transform="matrix(0.9971 -0.076 0.076 0.9971 -64.8042 116.1119)" style="fill:#5254CF;" width="2.502" height="24.655"/>
					<path style="fill:#5254CF;" d="M1454.167,933.546c-8.032,0-14.729-5.965-15.632-13.973l-2.007-17.817l34.377-2.262
						l-1.021,19.155c-0.437,8.224-7.231,14.767-15.466,14.896C1454.336,933.546,1454.25,933.546,1454.167,933.546z
						 M1439.307,904.077l1.714,15.215c0.767,6.807,6.543,11.837,13.359,11.753c6.926-0.109,12.642-5.612,13.01-12.529l0.869-16.343
						L1439.307,904.077z"/>
				</g>
				
					<rect x="1487.338" y="944.01" transform="matrix(0.1416 -0.9899 0.9899 0.1416 368.2889 2315.219)" style="fill:#D28572;" width="63.448" height="2.501"/>
				<g>
					
						<rect x="1566.25" y="825.54" transform="matrix(0.9839 -0.1789 0.1789 0.9839 -123.3358 293.7476)" style="fill:#D28572;" width="1.876" height="10.482"/>
					
						<rect x="1555" y="825.853" transform="matrix(0.9839 -0.1789 0.1789 0.9839 -123.5732 291.7402)" style="fill:#D28572;" width="1.876" height="10.482"/>
					
						<rect x="1545.625" y="826.478" transform="matrix(0.9839 -0.1789 0.1789 0.9839 -123.8362 290.0732)" style="fill:#D28572;" width="1.876" height="10.482"/>
					
						<rect x="1577.708" y="824.057" transform="matrix(0.9369 -0.3497 0.3497 0.9369 -191.4185 604.6281)" style="fill:#D28572;" width="1.876" height="16.678"/>
				</g>
				<path style="fill:#D28572;" d="M1523.716,913.735l-32.1,18.7c0.7-6.9,1.35-11.275,1.35-11.275
					C1504.841,914.61,1523.716,913.735,1523.716,913.735z"/>
				<path style="opacity:0.4;fill:#FE5B52;" d="M1552.425,1005.875c-8.5,12.45-20.55,18.1-32.25,16.85
					c-0.125-0.825-0.175-1.675-0.175-2.525c0-10.7,8.675-19.375,19.375-19.375C1544.4,1000.825,1549,1002.75,1552.425,1005.875z"/>
				<path style="opacity:0.4;fill:#FE5B52;" d="M1362,1017.85c-5.8,9.8-15.1,16.525-29.425,18.325c-0.05-0.6-0.075-1.2-0.075-1.8
					c0-10.7,8.675-19.375,19.375-19.375C1355.575,1015,1359.05,1016.05,1362,1017.85z"/>
				<path style="fill:#D28572;" d="M1289.714,1007.9c-4.942-0.967-11.123-8.612-13.196-12.62l1.665-0.862
					c2.134,4.126,7.964,10.874,11.892,11.641L1289.714,1007.9z"/>
				<path style="fill:#D28572;" d="M1277.974,1009.197c-4.192-4.309-8.054-9.675-9.612-13.357l1.729-0.73
					c1.475,3.487,5.183,8.623,9.226,12.778L1277.974,1009.197z"/>
				<path style="fill:#D28572;" d="M1266.411,1008.884c-4.192-4.309-8.054-9.675-9.612-13.357l1.729-0.73
					c1.475,3.487,5.183,8.623,9.226,12.778L1266.411,1008.884z"/>
			</g>
			<g>
				<path style="fill:#FFBC96;" d="M1478.725,825.1c-8.475,12.325-23.575,28.025-45.6,28.025c-25.9,0-42.15-14.875-51.1-27.025
					l26.725-6.525c0.65-4.8,1.2-9.475,1.65-13.9c0.35-3.475,0.65-6.8,0.925-9.95c0.45-5.175,0.75-9.85,1-13.85
					c0.325-5.475,0.475-9.625,0.55-11.925c0.05-1.325,0.05-2.025,0.05-2.025l37.5-15c0,0-1.25,48.75,10,66.65L1478.725,825.1z"/>
				<path style="fill:#D28572;" d="M1442.708,786.042c0,0-10.033,11.733-32.308,19.633c0.35-3.475,0.65-6.8,0.925-9.95
					c0.45-5.175,0.75-9.85,1-13.85L1442.708,786.042z"/>
				<path style="fill:#FFBC96;" d="M1402.917,722.5c0,0-19.167,52.083-5.417,61.667c12.23,8.524,28.333,9.583,44.167,5.417
					l10.417-35.417l-6.25-34.583L1402.917,722.5z"/>
				<path style="fill:#1B1B43;" d="M1446.667,754.583c0,0-13.536,5.191-19.167-13.75c-4.583-15.417-24.583-18.333-24.583-18.333
					l8.125-7.5l38.542-1.042l14.167,17.292l-4.792,22.5L1446.667,754.583z"/>
				<path style="fill:#FFBC96;" d="M1464.159,765.417c-4.372,7.573-12.763,10.914-18.742,7.462
					c-5.979-3.452-7.281-12.389-2.909-19.962c4.372-7.573,12.763-10.914,18.742-7.462
					C1467.229,748.906,1468.531,757.844,1464.159,765.417z"/>
				<path style="fill:#1B1B43;" d="M1448.906,765.948l-1.875-0.019c0-0.119,0.247-11.781,11.819-13.11l0.215,1.863
					C1449.153,755.819,1448.911,765.535,1448.906,765.948z"/>
				<g>
					<circle style="fill:#1B1B43;" cx="1400.365" cy="747.76" r="2.135"/>
					<path style="fill:#1B1B43;" d="M1417.07,750.723c0,1.427-1.157,2.585-2.585,2.585c-1.428,0-2.585-1.157-2.585-2.585
						c0-1.428,1.157-2.585,2.585-2.585C1415.913,748.138,1417.07,749.295,1417.07,750.723z"/>
					<path style="fill:#1B1B43;" d="M1405.038,742.894h-6.378c-0.899,0-1.628-0.729-1.628-1.628l0,0
						c0-0.899,0.729-1.628,1.628-1.628h6.378c0.899,0,1.628,0.729,1.628,1.628l0,0
						C1406.666,742.165,1405.937,742.894,1405.038,742.894z"/>
					<path style="fill:#1B1B43;" d="M1421.063,747.37l-7.056-2.981c-0.828-0.35-1.216-1.305-0.866-2.133l0,0
						c0.35-0.828,1.305-1.216,2.133-0.866l7.056,2.981c0.828,0.35,1.216,1.305,0.866,2.133l0,0
						C1422.847,747.332,1421.892,747.72,1421.063,747.37z"/>
					<path style="fill:#1B1B43;" d="M1399.375,763.984c-0.369,0-0.718-0.218-0.867-0.581c-1.25-3.04-1.284-5.376-0.1-6.943
						c1.245-1.65,3.445-1.875,4.548-1.875l2.383-4.624c0.239-0.461,0.808-0.64,1.262-0.404c0.459,0.238,0.64,0.803,0.403,1.263
						l-2.949,5.728l-0.642-0.07c-0.027,0.002-2.488-0.249-3.513,1.117c-0.742,0.988-0.623,2.749,0.342,5.095
						c0.198,0.478-0.032,1.027-0.51,1.223C1399.614,763.962,1399.495,763.984,1399.375,763.984z"/>
					<g>
						<path style="fill:#1B1B43;" d="M1399.818,772.127c3.629,5.118,8.225,2.932,11.358,0.311
							C1406.93,772.709,1402.921,772.473,1399.818,772.127z"/>
						<path style="fill:#FFFFFF;" d="M1411.176,772.438c1.812-1.516,3.136-3.173,3.493-3.638c0.043-0.056-0.015-0.121-0.085-0.117
							c-9.317,0.555-15.615-0.118-16.568-0.23c-0.063-0.007-0.095,0.064-0.071,0.123c0.581,1.459,1.212,2.619,1.872,3.551
							C1402.921,772.473,1406.93,772.709,1411.176,772.438z"/>
					</g>
					<path style="opacity:0.4;fill:#FE5B52;" d="M1433.203,762.214c0,3.61-2.926,6.536-6.536,6.536c-3.61,0-6.536-2.926-6.536-6.536
						c0-3.61,2.926-6.536,6.536-6.536C1430.276,755.678,1433.203,758.604,1433.203,762.214z"/>
				</g>
			</g>
		</g>
		<rect x="165" y="1618.75" style="fill:#1B1B43;" width="1670" height="2.5"/>
	</g>
</g>
</svg>
