<?xml version="1.0" encoding="UTF-8"?>
<svg id="Layer_1" xmlns="http://www.w3.org/2000/svg" version="1.1" viewBox="0 0 691 656">
  <!-- Generator: Adobe Illustrator 29.1.0, SVG Export Plug-In . SVG Version: 2.1.0 Build 142)  -->
  <defs>
    <style>
      .st0 {
        fill: #ca4a6a;
      }

      .st1 {
        fill: #003072;
      }

      .st2 {
        fill: #ff7e9d;
      }

      .st3, .st4 {
        fill: #fff;
      }

      .st5 {
        fill: #ffa6c4;
      }

      .st6 {
        fill: #1f52a7;
      }

      .st7 {
        fill: #afd8ff;
      }

      .st8 {
        fill: #82023f;
      }

      .st9 {
        fill: #b71650;
      }

      .st10 {
        fill: #ebebfc;
      }

      .st4 {
        stroke: #322865;
        stroke-miterlimit: 10;
      }

      .st11 {
        fill: #ff6a84;
      }

      .st12 {
        fill: #001a5b;
      }
    </style>
  </defs>
  <path class="st12" d="M509.6,268.8h1.6c1.8,0,3.3-1.4,3.5-3.2l.5-4.7c.2-1.7-1.1-3.2-2.9-3.2h-1.6c-1.8,0-3.3,1.4-3.5,3.2l-.5,4.7c-.2,1.7,1.1,3.2,2.9,3.2Z"/>
  <path class="st12" d="M490.2,268.8h1.6c1.8,0,3.3-1.4,3.5-3.2l.5-4.7c.2-1.7-1.1-3.2-2.9-3.2h-1.6c-1.8,0-3.3,1.4-3.5,3.2l-.5,4.7c-.2,1.7,1.1,3.2,2.9,3.2Z"/>
  <path class="st12" d="M470.8,268.8h1.6c1.8,0,3.3-1.4,3.5-3.2l.5-4.7c.2-1.7-1.1-3.2-2.9-3.2h-1.6c-1.8,0-3.3,1.4-3.5,3.2l-.5,4.7c-.2,1.7,1.1,3.2,2.9,3.2Z"/>
  <path class="st12" d="M451.5,268.8h1.6c1.8,0,3.3-1.4,3.5-3.2l.5-4.7c.2-1.7-1.1-3.2-2.9-3.2h-1.6c-1.8,0-3.3,1.4-3.5,3.2l-.5,4.7c-.2,1.7,1.1,3.2,2.9,3.2Z"/>
  <path class="st7" d="M589,465.1"/>
  <line class="st7" x1="56.2" y1="541.2" x2="52.3" y2="544.4"/>
  <rect class="st4" x="228.5" y="509" width="15.1" height="66.8"/>
  <path class="st12" d="M560.1,680.2l-33.2,4.8-4.8.7c-22.8-41.9-43-134.4-43-134.4l-20.3-104.4-14.2-73s63-11.4,67.5-10.6c13.2,2.3,19.9,42,17,62.7-2,14.7-2.8,29.6-1.8,44.7,2.4,37.3,4.4,85.5,5,89,.8,4.8,28,120.5,28,120.5Z"/>
  <path class="st1" d="M526.8,685.1l-4.8.7c-22.8-41.9-43-134.4-43-134.4l-20.3-104.4c5,2.1,19,2.6,25.4,21.7,6.3,18.7,36.5,182.3,42.8,216.4Z"/>
  <path class="st12" d="M466,445.8c-6.4,30.4-24.2,116.4-24.9,121.1-.8,4.7-14.8,119.4-14.8,119.4l-25.4,2-13.7,1c-9-42.6.5-134.7.5-134.7l15.9-140.4,4.1-36.1s65.6-7.4,69.6-6.1c25,8.3,1.6,66.3-11.3,73.7Z"/>
  <path class="st1" d="M400.9,688.3l-13.7,1c-9-42.6.5-134.7.5-134.7l15.9-140.4c1.5-.3,2.3-.4,2.3-.4,0,0,11.2,28.3,14,42.9,2.4,12.4-17.7,160.4-18.9,231.5Z"/>
  <g>
    <path class="st1" d="M572.4,172.3h-.1c0,.1-42.9,59.2-42.9,59.2l-3.4,4.7-21.8-45.7s33-27.9,33.1-28.6c0-.8-16.7-15.1-16.7-15.1l10.5-19.5,3.6-6.6c.9,1,32.3,24,37.3,33.7,5,9.8.4,18,.4,18Z"/>
    <path class="st12" d="M572.3,172.4l-42.9,59-10.9-38.3c1.4-1.4,29.3-24.2,29.3-24.2l-10.4-7.2c0-.8-16.7-15.1-16.7-15.1l10.5-19.5s27.3,24.7,36.6,33c2.4,2.1,3.8,6.6,4.5,12.2Z"/>
    <path class="st12" d="M536.5,123.2c2.3,5.5-1,11.6-3,16.7-1,2.6-2.5,5.2-4.9,6.7-2.4,1.6-5.9,1.8-8.1,0-1.3-1.1-2-2.7-2.3-4.3-.7-3.7.4-7.4,1.5-11,.6-2.1,1.3-4.2,2.4-6.1,3-5.1,11.2-9.4,14.3-2.1Z"/>
    <path class="st5" d="M515.8,111.4c-.3,1.8,1.9,4.3,2.8,5.5,1.6,2.1,2.8,3.9,5.1,5.4,3.2,2.1,6.4,4.2,9.5,6.3.2.1.4.3.5.5.2.2.2.6.2.9,0,2.9-1.1,6.1-2.3,8.7-.4.8-.8,1.5-1.4,2.1-1,.8-2.3,1-3.5.8-2.6-.5-4.7-2.5-7.4-2.7-.7,0-8-1.2-7.8-1.9,1.4-5.4,2.9-11.9,2.8-17.5l1.5-8Z"/>
    <path class="st5" d="M511.5,105.8c1.5,1.6,5.3,7,4.6,9.4-1,3.6-4.2.2-5.4-1.5-2.2-3.1-5.7-5.1-9-7.1-1.8-1.1-3.3-2.5-4.7-3.9-.7-.7-1.5-1.5-2.2-2.1-.6-.5-1.3-.8-1.5-1.7-.1-.5,0-1,.1-1.4.2-.4.6-.8,1.1-.8.6,0,1.1.2,1.6.4,2.5,1.3,5.1,2.3,7.6,3.5,2.8,1.4,5.8,2.9,7.8,5.2Z"/>
    <g>
      <path class="st5" d="M490,169.9c-8.5,6.5-18.5,8.7-26.1,6.7-4.3-1.1-7.8-3.5-9.8-7.1-2.6-4.6-2.1-15.2-.7-25.5,1.6-12.3,4.5-24.2,5.1-25.1,18.8-32.9,52.5-2.9,53.6,10,1.1,13-8.8,30.8-22.2,41Z"/>
      <path class="st2" d="M497.2,186.7l-2-23c-22.6,3-28.9,2.3-28.9,2.3l-2.7,18.5,33.5,2.2Z"/>
      <path class="st12" d="M455.2,191.1c.9-7.8,7.4-11.2,7.4-11.2l33.6-.7,7.5,7.2-48.4,4.7Z"/>
      <path class="st12" d="M461.8,136.9c3.7-6.7,8-2.5,8.3,1.2.3,3.7-1.9,15.1-9.5,11.7.7,5.9,1.1,10.8,1.4,14.1.3,3.5,2.8,6.5,6.2,7.3,3.1.7,7.4,1.3,12.7,1,12-.6,16.9-7,16.9-7,0,0,10.8-17.1,14.9-29.4,4.1-12.4,5.8-21.2-2-23.6-3.5-14.8-23.9-18.4-38.1-16.9-14.2,1.5-16.5,10.8-17.8,13.9-1.3,3.1,6.7,10,6.7,10l-1.7,20.5,2.9,1.4-.8-4.2Z"/>
    </g>
    <path class="st1" d="M411.9,207.8c18.2-13.5,31.5-16.7,53.6-19.7,16-2.2,50.3-8.9,58,5.5,3.8,7.1,7.5,14.4,9.5,22.3,4.9,19.5-1.3,40.2-7.4,59.9-2.6,8.4-3.8,16.8-5.2,25.3-.6,3.4-2.7,8.9-2,12.2l15,92.8c-50.4,24.5-135.3,6.3-135.3,6.3l16.9-97.5s-2.7-43.2-8.9-75.7c-3.9-20.5,6-31.4,6-31.4Z"/>
    <path class="st5" d="M497.9,103.1c0,.1,0,.2,0,.3-.8,2.7-4.1,2.7-6.6,2.5-3.3-.2-6,.8-8.9,2.2-1.5.8-3,1.6-4.4,2.5-.7.4-1.6,1.3-2.5,2-.4.3-.9.6-1.3.7,7.6-2.2,15.7-4.4,23.3-2.3.4.8.2,1.6-.3,2.4-.6.8-1.5,1.4-2.5,1.6-1.9.4-3.8,0-5.7,0-2.7.2-5.1,1.6-7.3,3.1-4,2.8-7.6,6-10.7,9.7,4.7,1.9,10.3,1.3,14.5-1.5,2.9-1.9,5.1-3,8.6-1.9.2,0,.3,0,.5.1.1,0,.3,0,.3.2.1.2,0,.5-.2.7-3.1,3.8-7.3,6.3-11.7,8.4-2.4,1.2-4.9,2.4-7.6,2.9-2.6.6-5.2.5-7.8.5-7.7-.1-14.9.2-22.5,1.8-1.1.2-2.2.5-3.2.8-.9-2.5-1.8-4.9-2.7-7.4,0-.2-.1-.4-.2-.6-.9-2.8-1.2-5.8-1.6-8.8,3.5-3.3,7.1-6.6,10.7-9.9,3.3-3,4.7-6.7,7.6-10,1.7-1.9,3.7-3.6,5.8-5.1,2-1.4,4.3-3,6.7-3.5.4,0,.9-.1,1.2.2.1.1.2.3.2.5h0c0,.5-.2,1-.5,1.3-.6.7-1.5,1-2.2,1.6-.8.7-1.6,1.4-2.3,2.2-.8.8-1.5,1.6-2.1,2.5-.3.3-.5.8-.8,1.2,0,0,0,0,0,0-.3.5-.6,1-1,1.3,2.7-2.6,6-5.1,9.1-7.2,1.9-1.4,4-3,6.3-3.8,2.3-.8,4.9-.5,7.2.2,0,0,.1,0,.2,0,0,0,0,0,0,.1,0,.4,0,.8,0,1.2h0c0,.3-.1.5-.3.7-.3.6-1,.9-1.6,1.1-1.3.6-2.8.9-4,1.6-1.3.7-2.4,1.8-3.4,2.8-1.5,1.4-3.2,3.5-4.9,4.7,12.3-6.8,15.1-8.1,23.4-6.3,1.3.3,2.7.6,4,.9.2,0,.5.1.6.2.4.3.5.8.4,1.2Z"/>
    <path class="st2" d="M483.7,96.1c0,.3-.1.5-.3.7-.3.6-1,.9-1.6,1.1-1.3.6-2.8.9-4,1.6-1.3.7-2.4,1.8-3.4,2.8-1.5,1.4-3.2,3.5-4.9,4.7-1.6.8-2.9.4-2.9.4,0,0,4.7-6,8.7-8.5,2.5-1.6,6.1-2.4,8.4-2.8Z"/>
    <path class="st2" d="M497.9,103.4c-.8,2.7-4.1,2.7-6.6,2.5-3.3-.2-6,.8-8.9,2.2-1.5.8-3,1.6-4.4,2.5-.7.4-1.6,1.3-2.5,2-.5.2-.4.2-.7.4-.9,0-2.8-.6-2.8-.6,0,0,4.4-4.5,11.9-6.7,7.5-2.3,9.8-.9,12.8-1.9.4-.1.8-.3,1.1-.4Z"/>
    <path class="st2" d="M497.4,113.4c-.6.8-1.5,1.4-2.5,1.6-1.9.4-3.8,0-5.7,0-2.7.2-5.1,1.6-7.3,3.1-4,2.8-7.6,6-10.7,9.7l-3-1.4c5.3-7,13.6-12,18.1-12.7,4-.6,8.8,0,11-.4Z"/>
    <path class="st2" d="M495,125.5c-3.1,3.8-7.3,6.3-11.7,8.4-2.4,1.2-4.9,2.4-7.6,2.9-2.6.6-5.2.5-7.8.5-7.7-.1-14.9.2-22.5,1.8-1.1.2-2.2.5-3.2.8-.9-2.5-1.8-4.9-2.7-7.4,0-.2-.1-.4-.2-.6,1-.4,1.9-.9,2.9-1.3,3.5-1.5,7.3-2.2,11.1-1.7,2.4.3,4.7,1.2,7,1.8,3.4.9,6.9,1.3,10.4,1.7,2.2.3,4.4.5,6.6.2,2.8-.4,5.5-1.7,8-3.1,3-1.7,6.1-3.4,9-5.2.2,0,.3,0,.5.1.1,0,.3,0,.3.2.1.2,0,.5-.2.7Z"/>
    <path class="st2" d="M469.8,95.6c0,.4-.2.9-.5,1.2-.6.7-1.5,1-2.2,1.6-.8.7-1.6,1.4-2.3,2.2-.8.8-1.5,1.6-2.1,2.5-.3.3-.5.8-.8,1.2,0,0,0,0,0,0-.4.4-.7.9-1,1.3-1.1,1.8-3.2.9-3.2.9,0,0,2-4.1,6.4-7.4,2.4-1.8,4.4-2.9,5.7-3.5Z"/>
    <path class="st1" d="M438.2,243.1c-6.5,2-13.3,2.1-18,.3-3.5-1.4-9-5.5-15.2-10.9-12.9-11.3-28.7-28.5-35-38.9-8.7-14.3-23.3-29.6-7-43.5,16.3-13.9,72.1-34,72.1-34,0,0,3.6.2,7.3,10.5,1.4,3.8,2.7,8.8,4,15.8l-46.5,25.1s25.4,18.3,36.7,26.7c3.1,2.3,5.1,3.8,5.4,4.1,25.1,24.6,11.7,40.1-3.9,44.8Z"/>
    <path class="st1" d="M518.2,313.3l15,92.8c-30.9,15-74.7,14-104,10.9-18.6-1.9-31.3-4.7-31.3-4.7l16.9-97.5s-2.7-43.2-8.9-75.7c-.4-2.4-.7-4.6-.8-6.7-.9-15.3,6-23.8,6.7-24.6,0,0,0,0,0,0,8.9-6.6,16.7-10.8,24.8-13.6,8.5-3,17.5-4.6,28.7-6.1,16-2.2,50.3-8.9,58,5.5,3.8,7.1,7.5,14.4,9.5,22.3,4.9,19.5-1.3,40.2-7.4,59.9-2.6,8.4-3.8,16.8-5.2,25.3-.6,3.4-2.7,8.9-2,12.2Z"/>
    <path class="st12" d="M518.2,313.3l15,92.8c-30.9,15-74.7,14-104,10.9,1.1-27.5,10.6-90.8,10.6-90.8,0,0,13,1.9,11.6,0-1.4-1.9-4.4-87.2-24.7-103.8-4.4-3.6-9.6-8.8-14.9-14.6,0,0,0,0,0,0,8.9-6.6,16.7-10.8,24.8-13.6,8.5-3,17.5-4.6,28.7-6.1,16-2.2,50.3-8.9,58,5.5,3.8,7.1,7.5,14.4,9.5,22.3,4.9,19.5-1.3,40.2-7.4,59.9-2.6,8.4-3.8,16.8-5.2,25.3-.6,3.4-2.7,8.9-2,12.2Z"/>
    <path class="st12" d="M438.2,243.1c-3-9.3-6.8-16.8-11.4-20.6-4.4-3.6-9.6-8.8-14.9-14.6-18.9-20.5-40-49.2-40-49.2l70.7-32.1c1.4,3.8,2.7,8.8,4,15.8l-46.5,25.1s25.4,18.3,36.7,26.7c3.1,2.3,5.1,3.8,5.4,4.1,25.1,24.6,11.7,40.1-3.9,44.8Z"/>
    <path class="st5" d="M520.6,132c-1.1-.8-2.4-1.2-3.8-1.4-3.4-.5-9.2.3-12.1-1.4-1-.6-1.8-1.5-2.6-2.3s-1.7-1.6-2.9-1.9c-1.1-.2-2.5.3-2.8,1.4-.3.9.3,1.9.8,2.7,1.2,1.8,2.4,3.6,3.9,5.1,3.4,3.4,8.4,5,13.3,4.6,3.5-.3,11.4-2.6,6.1-6.8Z"/>
    <path class="st5" d="M513.6,109.3c1.9,1.9,8.9,13.9,3.2,15-1.4.3-2.6-.9-3.5-1.9-2.5-2.8-4.4-5.7-6.4-8.8-1.9-2.9-4.8-4.3-7.7-6.2-.9-.6-1.9-1.2-2.6-2-.7-.9-1-2.1-.5-3,2.5-.2,5,.6,7.4,1.4,3.6,1.4,7.4,2.8,10.1,5.5Z"/>
    <path class="st5" d="M509.2,114.9c-1.1-.7-2.4-1.3-3.6-1.8-1.1-.4-2.3-1.2-3.5-1.4-.1,0-.3,0-.4,0,0,0-.1.1-.1.2-1.5,4,3.2,5.4,5.8,7.1,3.5,2.2,2.6,5.9,3.8,9.2,1.7,4.7,7.4,5,6.5-.6-.9-5.8-4-10-8.5-12.8Z"/>
    <path class="st1" d="M476.3,101.6c3-7.8,11-10.8,11-10.8l-.9,4.6,5.6-2.5-2.1,5.8c-4.6-.8-9.2.4-13.6,2.9Z"/>
    <path class="st12" d="M509.4,125.1c1.4-9.1-2.9-13.4-2.9-13.4l-.7,8.9s-5.8-2.2-5.4-2.2c.3,0,9,6.7,9,6.7Z"/>
    <path class="st1" d="M495.2,99.4c7.5-4.2,10.8-3.8,10.8-3.8l-5.6,4.8h4.3l-3.4,1.8c-1.6-2-3.7-2.8-6.1-2.8Z"/>
    <path class="st1" d="M466.3,99.2c.6-2.4,4.8-11.5,4.8-11.5l.9,5.8s1.5-3.5,1.7-2.4c.2,1-1.2,4.4-1.2,4.4-1.7.5-3.9,2-6.2,3.8Z"/>
    <path class="st3" d="M463.9,176.6c-4.3-1.1-10.8-4.2-12.9-7.9-2.6-4.6-2.2-13.4,2.4-24.8,2.3-.4,2-.5,4.3-.6-1.9,4.2-2.1,11.4-1.7,15.9.5,5.6,3.9,9.1,6.7,13.6.7,1.1,1.2,2.5,1.2,3.8Z"/>
  </g>
  <g>
    <rect class="st10" x="298.1" y="373.2" width="4.5" height="103.7"/>
    <rect class="st10" x="349.1" y="378" width="4.5" height="103.7"/>
    <g>
      <path class="st1" d="M352.8,364.5l-46.5-4.8c-2.2-.2-10.7,2.5-12,2.9,0,0,1.2,1.2,2.9,1.7-.8,1.4-1.2,3-1.2,4.8v2.4l42.8,4.5,16.9,5,7.4-2.4v-2.4c0-5.8-4.6-11-10.3-11.6Z"/>
      <path class="st12" d="M355.7,380.9l-67.2-7v-2.4c0-5.8,4.6-10,10.3-9.4l46.5,4.8c5.7.6,10.3,5.8,10.3,11.6v2.4Z"/>
    </g>
  </g>
  <g>
    <path class="st11" d="M374.6,483.5c-15.8,3.2-31.4,7.1-46.9,12.3-1.4-2.3-3.4-4.2-5.7-5.3-1.2-.6-2.5-1-3.9-1.1l-86.5-7.4c-1.2-.1-2.4,0-3.5.3l-.2-.3,46.6-11.4,1.2.3c1-.2,2.1-.3,3.2-.2l86.5,7.4c.8,0,1.7.3,2.5.5,2.6.8,4.9,2.6,6.6,5Z"/>
    <path class="st0" d="M374.6,483.5c-15.8,3.2-31.4,7.1-46.9,12.3-1.4-2.3-3.4-4.2-5.7-5.3,8.9-2.3,32.2-8.5,46-12,2.6.8,4.9,2.6,6.6,5Z"/>
    <path class="st8" d="M327.7,495.8c1.4,2.3,2.2,5,2.2,7.9v144.4c0,5.1-2.6,9.3-6.4,11.2l37-10.8,5,.4c6.5.6,11.8-4.9,11.8-12.2v-144.4c0-3.2-1-6.3-2.8-8.7-15.7,3.2-31.4,7.1-46.9,12.3Z"/>
    <g>
      <path class="st9" d="M329.9,503.7v144.4c0,5.1-2.6,9.3-6.4,11.2-1.6.8-3.5,1.2-5.4,1l-86.5-7.4c-6.5-.6-11.8-6.9-11.8-14.2v-144.4c0-6,3.5-10.7,8.4-11.9,1.1-.3,2.3-.4,3.5-.3l86.5,7.4c6.5.6,11.8,6.9,11.8,14.2Z"/>
      <path class="st8" d="M235.5,642.5h0c-2.2-.3-4-2.4-4-4.6v-142c0-2.2,1.8-3.8,4-3.5h0c2.2.3,4,2.4,4,4.6v142c0,2.2-1.8,3.8-4,3.5Z"/>
      <path class="st8" d="M259,646.2h0c-2.2-.3-4-2.4-4-4.6v-142c0-2.2,1.8-3.8,4-3.5h0c2.2.3,4,2.4,4,4.6v142c0,2.2-1.8,3.8-4,3.5Z"/>
      <path class="st8" d="M282.6,649.8h0c-2.2-.3-4-2.4-4-4.6v-142c0-2.2,1.8-3.8,4-3.5h0c2.2.3,4,2.4,4,4.6v142c0,2.2-1.8,3.8-4,3.5Z"/>
      <path class="st8" d="M306.1,653.5h0c-2.2-.3-4-2.4-4-4.6v-142c0-2.2,1.8-3.8,4-3.5h0c2.2.3,4,2.4,4,4.6v142c0,2.2-1.8,3.8-4,3.5Z"/>
    </g>
  </g>
  <path class="st6" d="M325.9,480.9l-6.3,2.7s-1.9-7.4-6-7.9c-3.3-.4-23.3-2.3-32.8-2.8-2.5-.1-4.2-.1-4.8,0l5.8-2.4h.1c0,0,1-.5,1-.5,2.3-.5,22.4,1.3,32.4,2.3,2.5.3,4.4.5,5.2.6,4.1.5,5.5,8.1,5.5,8.1Z"/>
  <path class="st1" d="M319.6,483.6l-4.1-.5s-.6-3.6-2.5-4.4c-1.5-.7-23.5-2.9-32.2-3.7h-.1c-.4,0-.8,0-1.1,0-1.1,0-1.9-.1-2.2,0-1.4,0-2.7,1.8-3.4,3-.4.7-.7,1.3-.7,1.3h-2.7c0,0,.1-.2.1-.2l.2-.4v-.3c.1,0,.3-.5.3-.5.9-1.8,2.6-4.7,4.6-5.1.6-.1,2.2,0,4.6,0,.1,0,.2,0,.3,0,9.5.5,29.5,2.4,32.8,2.8,4.1.5,6,7.9,6,7.9Z"/>
  <path class="st12" d="M280.8,475.1c-1.4-.1-1.9,2-1.9,2l-5.4,2.2s.2-.6.7-1.3c.7-1.2,2-3,3.4-3,.3,0,1,0,2.2,0,.3,0,.7,0,1.1,0Z"/>
</svg>