<?xml version="1.0" encoding="UTF-8"?>
<svg xmlns="http://www.w3.org/2000/svg" version="1.1" xmlns:xlink="http://www.w3.org/1999/xlink" viewBox="0 0 3710 3710">
  <!-- Generator: Adobe Illustrator 29.1.0, SVG Export Plug-In . SVG Version: 2.1.0 Build 142)  -->
  <defs>
    <style>
      .st0 {
        fill: url(#linear-gradient2);
      }

      .st1 {
        fill: #002747;
      }

      .st2 {
        fill: #f05165;
      }

      .st3 {
        fill: #b6c9ff;
      }

      .st4 {
        fill: url(#linear-gradient10);
      }

      .st5 {
        fill: #d88876;
      }

      .st6 {
        fill: #f1f8ff;
      }

      .st7 {
        fill: url(#linear-gradient14);
        opacity: 0;
      }

      .st7, .st8, .st9, .st10, .st11, .st12 {
        mix-blend-mode: multiply;
      }

      .st13, .st14 {
        fill: #fff;
      }

      .st15 {
        fill: url(#linear-gradient1);
      }

      .st16, .st14 {
        mix-blend-mode: soft-light;
      }

      .st17 {
        fill: url(#linear-gradient9);
      }

      .st18 {
        fill: #cad9fc;
      }

      .st8 {
        fill: url(#linear-gradient6);
      }

      .st8, .st14, .st11, .st12 {
        opacity: .3;
      }

      .st19 {
        fill: url(#linear-gradient8);
      }

      .st20 {
        fill: url(#linear-gradient11);
      }

      .st21 {
        fill: none;
      }

      .st22 {
        fill: url(#linear-gradient16);
      }

      .st9 {
        fill: #d8dee8;
        opacity: .5;
      }

      .st23 {
        isolation: isolate;
      }

      .st10 {
        fill: url(#linear-gradient5);
        opacity: .8;
      }

      .st24 {
        fill: url(#linear-gradient7);
      }

      .st25 {
        fill: url(#linear-gradient4);
      }

      .st26 {
        fill: url(#linear-gradient3);
      }

      .st27 {
        fill: url(#linear-gradient15);
      }

      .st11 {
        fill: url(#linear-gradient12);
      }

      .st28 {
        fill: url(#linear-gradient13);
      }

      .st29 {
        fill: url(#linear-gradient);
      }

      .st30 {
        clip-path: url(#clippath);
      }

      .st31 {
        fill: #004cc5;
      }
    </style>
    <clipPath id="clippath">
      <circle class="st21" cx="1861.8" cy="1803.7" r="1195.9"/>
    </clipPath>
    <linearGradient id="linear-gradient" x1="2499.5" y1="1324.9" x2="2886.5" y2="1324.9" gradientUnits="userSpaceOnUse">
      <stop offset="0" stop-color="#311944"/>
      <stop offset=".7" stop-color="#6d2e66"/>
      <stop offset="1" stop-color="#893976"/>
    </linearGradient>
    <linearGradient id="linear-gradient1" x1="1323.1" y1="1947" x2="1710.1" y2="1947" xlink:href="#linear-gradient"/>
    <linearGradient id="linear-gradient2" x1="1675.7" y1="1465.4" x2="1355.2" y2="2545.6" gradientUnits="userSpaceOnUse">
      <stop offset="0" stop-color="#ff9085"/>
      <stop offset="1" stop-color="#fb6fbb"/>
    </linearGradient>
    <linearGradient id="linear-gradient3" x1="1113" y1="1054.3" x2="1500" y2="1054.3" xlink:href="#linear-gradient"/>
    <linearGradient id="linear-gradient4" x1="2224" y1="1729.2" x2="2171.7" y2="1794.8" gradientUnits="userSpaceOnUse">
      <stop offset="0" stop-color="#444b8c"/>
      <stop offset="1" stop-color="#3e4177"/>
    </linearGradient>
    <linearGradient id="linear-gradient5" x1="2307.9" y1="1862.4" x2="2162.4" y2="2248.5" xlink:href="#linear-gradient4"/>
    <linearGradient id="linear-gradient6" x1="2261.8" y1="1851.1" x2="2117.9" y2="2232.6" xlink:href="#linear-gradient4"/>
    <linearGradient id="linear-gradient7" x1="2393.7" y1="1894.8" x2="2248.2" y2="2280.8" xlink:href="#linear-gradient4"/>
    <linearGradient id="linear-gradient8" x1="1573.2" y1="2204.9" x2="1494.2" y2="1577.8" gradientUnits="userSpaceOnUse">
      <stop offset="0" stop-color="#311944"/>
      <stop offset="1" stop-color="#6b3976"/>
    </linearGradient>
    <linearGradient id="linear-gradient9" x1="2439.7" y1="2168.3" x2="2531.6" y2="1883.4" xlink:href="#linear-gradient8"/>
    <linearGradient id="linear-gradient10" x1="1188.3" y1="3050.8" x2="1198.3" y2="2505.6" gradientUnits="userSpaceOnUse">
      <stop offset="0" stop-color="#311944"/>
      <stop offset=".6" stop-color="#6f2b60"/>
      <stop offset="1" stop-color="#a03976"/>
    </linearGradient>
    <linearGradient id="linear-gradient11" x1="1216.4" y1="2192.4" x2="1189.8" y2="2422.2" gradientUnits="userSpaceOnUse">
      <stop offset="0" stop-color="#ffc444"/>
      <stop offset="1" stop-color="#f36f56"/>
    </linearGradient>
    <linearGradient id="linear-gradient12" x1="1713.6" y1="2576.2" x2="1996.4" y2="2576.2" gradientUnits="userSpaceOnUse">
      <stop offset="0" stop-color="#40447e"/>
      <stop offset="1" stop-color="#3c3b6b"/>
    </linearGradient>
    <linearGradient id="linear-gradient13" x1="1911" y1="3313.5" x2="1834" y2="2755.5" xlink:href="#linear-gradient2"/>
    <linearGradient id="linear-gradient14" x1="1522.4" y1="2716.6" x2="2016.1" y2="2716.6" gradientUnits="userSpaceOnUse">
      <stop offset="0" stop-color="#aa80f9"/>
      <stop offset="1" stop-color="#6165d7"/>
    </linearGradient>
    <linearGradient id="linear-gradient15" x1="1331.5" y1="2540.6" x2="1629.3" y2="2540.6" xlink:href="#linear-gradient4"/>
    <linearGradient id="linear-gradient16" x1="2303.5" y1="3329.3" x2="2313.5" y2="2784.2" xlink:href="#linear-gradient10"/>
  </defs>
  <g class="st23">
    <g id="Illustration">
      <g class="st30">
        <g>
          <path class="st3" d="M3072.3,1804.7c0,256.3-80.5,494-216.9,689.6-.5.8-2.5,1.6-2.5,2.4h0c-214.1,313.8-581,517-992.6,517s-65.9-1.6-98.9-6.1h0c-.1,0-.2,2-.3,2-16.2-1.3-32.3-2-48.3-3.9-5.7-.7-11.4-.9-17.1-1.7-5-.7-10-1.1-15-1.9-4.4-.6-8.7-1.2-13-1.9-1-.2-1.9-.3-2.9-.4-10.6-1.7-21.1-3.6-31.6-5.6,0,0-.1,0-.2,0-559.6-106.9-982.4-598.8-982.4-1189.5s18.1-245.4,53.3-358.8c5.5-17.8,12.3-35.3,16.9-52.7h0c13.7-29,22.8-57.5,35.4-85.4,5.1-11.2,10.7-22.3,16-33.3,29.5-60.4,64-118,102.7-172.3,3.5-4.9,7.2-9.8,10.8-14.7,14.4-19.5,29.3-38.6,44.8-57.2,23.2-27.9,47.7-54.8,73.3-80.4,66.7-66.9,141.2-126.1,221.9-176,25-15.5,50.6-30,76.8-43.7,63.3-33.1,129.9-60.7,199.2-82.2,113.7-35.4,234.6-54.4,360-54.4,288.3,0,553.1,100.7,761,268.9,153,123.7,277.4,283.9,355.6,467.3,17.5,41,29.3,83.1,47.6,126.2h0c0,.2-2.1.4-2,.6,33.1,110.2,48.3,227.1,48.3,348.1Z"/>
          <g class="st16">
            <path class="st13" d="M1761.4,3011.7h0s.1,0,.1,0h-.1Z"/>
            <path class="st6" d="M2125.6,2213.1c-26,36.6-106.4,83.6-51.8,176,54.1,92.1-3.8,109.4-41,100.8-37.4-8.5-153.6-13.3-134.2,39.5,19.3,52.9,52.6,72.7,10,93.1-42.5,20.3-60.6,73.4-104.1,146.5-43.3,73.2-146.1,9.9-115.6,83.3,30.4,73.4,54.1,66.3,51.2,117.4-.7,14,8.7,28.5,21.3,42.2-16.2-1.3-32.5-3-48.7-5-5.7-.7-11.4-1.4-17.1-2.2-5-.7-10-1.4-15-2.1-4.4-.6-8.7-1.3-13-2-1-.2-.7-.3-1.7-.5-10.4-1.7-15.8-3.6-29.5-5.6h0c-9.1-8.7-3.4-18.1-2-28.2,13.6-94.4-116.7-159.3-138.5-225.4-21.5-66-.3-105.3-5.2-160-5.1-54.6,12.8-127-18.7-173-31.4-45.8-158.1-61.2-182.2-153.7-24.3-92.3,32.2-230.5,54.1-254.1,21.7-23.5-104.9-130.6-165.1-134-60.5-3.7-36.3-125.5-138.5-106.9-102.5,18-286.5-39.2-248.5-100.7,31.4-50.7,84.1-162.4-87.9-212.2,5.5-17.8,12.3-35.3,16.9-52.7h0c13.7-29,22.8-57.5,35.4-85.4,5.1-11.2,10.7-22.3,16-33.3,29.5-60.4,64-118,102.7-172.3,3.5-4.9,7.2-9.8,10.8-14.7,14.4-19.5,29.4-38.6,44.8-57.2,23.2-27.9,47.7-54.8,73.3-80.4,66.7-66.9,141.2-126.1,221.9-176,34.1,23.9,73,38.6,106.6,20.5,82.4-46.1,28.1-53.2-5.7-54.9-8.8-.4-17.3-3.9-24.1-9.2,63.3-33.1,129.9-60.7,199.2-82.2-5.1,46.5-68.3,121.2-21.8,112.1,54.1-10.3,76.2-156.5,115.9-107.9,40.3,48.8-44.1,112.7,35.2,75.7,79.4-36.7,90-118.6,178.4-78.7,88.9,40.3,80.8,88.1,105.6,83.4,24.7-4.7,104.6,49.1,56.3,93.2-48.8,44.3-93.5-12.1-166.6-29.2-73.2-16.8-71.4,43-105,56.7-34.2,13.2-199.4-66.6-239.9,5.5-41,71.5-58.4,121.5,2.4,119.6,60.8-1.7,64.7-17.4,59.9,27.5-4.9,45,6.2,78.6,61.3,36.3,54.9-42.2,42.6-83.4,85.5-63.3,42.9,20.2,48,1.9,93.7-31.2,45.6-33.2,105.7-36.6,121.4,37.8,15.8,74.4-11.2,91.1-91.4,94.9-80.3,3.9-89.4-21.4-115,45.7-25.4,67.2-131.7,153.4-224.9,188.9-93.1,35.6-129.6,88.2-127.4,159.2,2.2,71.1-32.8,146.1-56.2,87.5-23.5-58.8-89.3-157.8-156.4-91.6-67.3,66.3-184.3,183.5-55,204.9,129.1,21.8,61.7-99.1,127-74.9,65.1,24.3-41.3,77.7,2.3,96.9,43.6,19.4,61.9,10.3,61.6,69.8-.3,59.4,14.5,117.1,67.4,91.9,52.9-25.1,120.9-141.6,197.4-72.7,76.6,69.1,71.2,60.1,111.4,40,40.2-20.1,65.8,40.1,82.2,67.6,16.5,27.4,81-.6,133.4,81,52.3,81.6,72.8,96.2,132.5,66.8,59.7-29.3,84-7.5,99.5,33.7,15.5,41.2,52.2.9,69.9,55.4,17.6,54.4,9.2,46-16.7,82.6Z"/>
            <g>
              <path class="st13" d="M2329.9,1224.3c-42.3-90.7,167.2-80.5,204.2-73.6,37.2,6.2,124.6-62.1,135.7-93.8,11.4-32,30.1-16.8,96.4-17.7,66.3-.7,7.7-15.7-65.2-39.7-72.8-24-10.6-26.4-77.7-79.4-28.9-23.2-19.8-42.9-.5-57.6,153,123.7,275.2,283.9,353.4,467.3-2.2-.7-4.3-1-6.2-1.1-46.4-.3-56.6-102.9-80.5-122.8-23.6-19.9.7,56.4,6.4,87.7,5.8,31.4-12.7,5-35.8,33.8-23.2,28.8-65.2,29.4-69-13.9-3.9-43.2-34.3-85.5-96-105.2-61.7-19.7-115.1-3.5-165.3,15.8-49.9,19-157.4,90.2-199.9.2Z"/>
              <path class="st13" d="M2855.8,2496.8c4.2-31.1,11-63.3-2-75.1-31.6-29.3-38.5-109.3-27.6-149.8,10.9-40.6,96.1-38.3,38.3-105.7-58-67.6-110.2-147.9-85.9-193.8,24.3-45.8,17-49.2-28.7-48.9-45.7.3-65.7,2.3-111.2-38.4-45.5-41.2-108.2,97.2-279.5-13.8-171.3-112.1-73.8-300.9-9.6-301.4,64.6-1.1,140.1-33.7,87.1-112.5-52.8-79.1,29.7-90.3,70-72.3,40.4,17.8,112-30,184.9-51.5,73.1-21.4,69.9,97.7,110.5,121.5,40.8,23.9,117.3,4.9,157.1-33.2,28.4-27.2,34.6,4.5,62.7,34.7,33.1,110.2,50.8,227.1,50.8,348.1,0,257.3-80.2,495.9-217.1,692Z"/>
              <path class="st13" d="M2549.3,1073.3c0,0,53.4-24.2,34.1-63-19.2-38.8-49.6-157.9-71.8-120.4-22.4,37.7,10.6,110.8,3.4,142.4-7.3,31.7-7.5,48.2,34.3,41Z"/>
              <path class="st13" d="M2496,1037c-.8-12.5,7.1-63.3-32.9-61.7,0,0-57.8,24.1-24,65.1,34,40.9,57.7,9.1,56.8-3.4Z"/>
            </g>
          </g>
        </g>
        <path class="st9" d="M3069.1,1802.6c0,256.3-78.9,494-215.3,689.6-.5.8-.9,1.6-.9,2.4h0c-218.7,313.8-582.6,516.1-994.2,516.1s-67.5-2.6-100.5-7.1h0c-.1,0-.2,3-.3,3-16.2-1.3-32.3-1.5-48.3-3.5-5.7-.7-11.4-.7-17.1-1.5-5-.7-10-1-15-1.8-4.4-.6-8.7-1.1-13-1.8-1-.2-1.9-.2-2.9-.4-10.6-1.7-21.1-3.5-31.6-5.6,0,0,0,0-.2,0-517.4-98.8-917.9-527.2-975.3-1058.2,121.3,348.1,421.4,609.6,790.3,682.5h.1c9.1,4.6,18.1,3.6,27.3,5.1.8.1,1.7.4,2.5.5,3.7.6,7.4,1.2,11.2,1.8,4.3.7,8.6,1.2,13,1.8,4.9.7,9.8,1.1,14.7,1.7,13.8,1.7,27.7,4.9,41.7,6,.1,0,.2,1.3.3,1.3h0c28.5,0,56.8,2.3,85.9,2.3,177.7,0,345.2-45.2,491.7-123.1,146.5-78,272.1-190.3,366-325.8,0-.7,1.1-1.6,1.6-2.3,117.9-169,186.8-374.4,186.8-595.7s-15.3-205.5-43.9-300.7c0-.2-.4-.4-.4-.5h0c-9.1-37.2-23.8-73.6-38.9-109-67.6-158.4-172.8-296.7-304.9-403.5-96.7-78.2-207.6-139.5-328.3-179.4,244.4,22.5,467.8,117.7,648.4,263.7,153,123.7,276.7,283.9,354.9,467.3,17.5,41,28.7,83.1,46.9,126.2h0c0,.2-1.4.4-1.4.6,33.1,110.2,49,227.1,49,348.1Z"/>
      </g>
      <g>
        <g>
          <g>
            <path class="st31" d="M2622.3,1263.5c-3.3,0-6.7-1.1-9.4-3.5,0,0-7.7-6.6-22.1-17.4-6.4-4.8-7.7-13.9-2.9-20.3,4.8-6.4,13.9-7.7,20.3-2.9,15.2,11.4,23.2,18.2,23.5,18.5,6.1,5.2,6.8,14.4,1.6,20.5-2.9,3.4-7,5.1-11.1,5.1Z"/>
            <path class="st31" d="M2550.7,1211.3c-2.8,0-5.5-.8-8-2.4-16-10.6-32.8-21.2-49.9-31.4-6.9-4.1-9.1-13-5-19.9,4.1-6.9,13-9.1,19.9-5,17.5,10.5,34.7,21.3,51.1,32.2,6.7,4.4,8.5,13.5,4.1,20.1-2.8,4.2-7.4,6.5-12.1,6.5ZM2448.3,1150c-2.3,0-4.7-.6-6.9-1.7-17.2-9.3-34.9-18.3-52.6-26.9-7.2-3.5-10.2-12.2-6.7-19.4,3.5-7.2,12.2-10.2,19.4-6.7,18,8.8,36.1,18,53.7,27.5,7.1,3.8,9.7,12.6,5.9,19.7-2.6,4.9-7.6,7.6-12.8,7.6ZM2340.9,1097.9c-1.9,0-3.9-.4-5.8-1.2-18-7.8-36.4-15.3-54.7-22.3-7.5-2.9-11.2-11.3-8.4-18.8,2.9-7.5,11.3-11.2,18.8-8.4,18.7,7.2,37.4,14.8,55.8,22.8,7.4,3.2,10.7,11.7,7.5,19.1-2.4,5.5-7.7,8.7-13.3,8.7ZM2229.5,1055.2c-1.5,0-3.1-.2-4.6-.8-18.6-6.2-37.6-12.1-56.4-17.5-7.7-2.2-12.2-10.2-10-18,2.2-7.7,10.2-12.2,18-10,19.2,5.5,38.6,11.5,57.6,17.8,7.6,2.5,11.7,10.8,9.2,18.4-2,6.1-7.7,9.9-13.8,9.9ZM1466.4,1040.7c-6.3,0-12-4.1-13.9-10.4-2.3-7.7,2.1-15.8,9.8-18.1,19.3-5.7,38.8-11.1,58.2-15.9,7.8-1.9,15.7,2.8,17.6,10.6,1.9,7.8-2.8,15.7-10.6,17.6-18.9,4.7-38.1,9.9-56.9,15.5-1.4.4-2.8.6-4.1.6ZM2114.8,1022.4c-1.1,0-2.2-.1-3.4-.4-19.1-4.5-38.5-8.7-57.7-12.3-7.9-1.5-13.1-9.1-11.6-17,1.5-7.9,9.1-13.1,17-11.6,19.6,3.7,39.5,7.9,59,12.6,7.8,1.9,12.6,9.7,10.8,17.5-1.6,6.7-7.5,11.2-14.1,11.2ZM1582.1,1012c-6.8,0-12.9-4.8-14.2-11.7-1.6-7.9,3.5-15.5,11.4-17.1,19.7-3.9,39.7-7.4,59.4-10.4,7.9-1.2,15.3,4.3,16.5,12.2,1.2,7.9-4.3,15.3-12.2,16.5-19.3,2.9-38.8,6.3-58.1,10.1-1,.2-1.9.3-2.9.3ZM1997.6,1000.3c-.7,0-1.4,0-2-.1-19.4-2.7-39.1-5-58.6-6.8-8-.7-13.9-7.8-13.1-15.8.7-8,7.8-13.9,15.8-13.1,19.9,1.8,40.1,4.2,59.9,7,7.9,1.1,13.5,8.5,12.4,16.4-1,7.3-7.2,12.5-14.4,12.5ZM1700.1,994.3c-7.4,0-13.7-5.6-14.4-13.1-.8-8,5-15.1,13-15.9,20-2,40.2-3.6,60.2-4.6,8-.4,14.8,5.7,15.3,13.7.4,8-5.7,14.8-13.7,15.3-19.5,1-39.3,2.5-58.8,4.5-.5,0-1,0-1.5,0ZM1878.8,989.2c-.2,0-.4-.3-.7-.3-18-.8-36.1-1.5-54.1-1.5h-4.9c-8,0-14.5-6.2-14.5-14.2,0-8,6.5-14.2,14.5-14.3l4.9.3h.1c18.3,0,37,.2,55.3,1,8,.4,14.2,7,13.9,15.1-.3,7.8-6.8,13.8-14.5,13.8Z"/>
            <path class="st31" d="M1382.3,1068.8c-5.9,0-11.4-3.6-13.6-9.5-2.8-7.5,1.1-15.9,8.6-18.7,9.2-3.4,18.5-6.7,27.6-9.9,7.6-2.6,15.9,1.4,18.5,9,2.6,7.6-1.4,15.9-9,18.5-9,3.1-18.1,6.4-27.1,9.7-1.7.6-3.4.9-5,.9Z"/>
          </g>
          <g>
            <path class="st31" d="M2679.9,1348.2c-.8,0-1.5,0-2.3-.2,0,0-10.1-1.6-28-3.5-8-.9-13.8-8-12.9-16,.8-8,8-13.7,16-12.9,18.8,2,29.1,3.7,29.6,3.7,7.9,1.3,13.3,8.7,12,16.6-1.1,7.1-7.3,12.2-14.3,12.2Z"/>
            <path class="st31" d="M1499.8,1910.9c-2.2,0-4.4-.5-6.4-1.5-7.2-3.6-10.1-12.3-6.6-19.5,8.6-17.3,17.7-34.5,27-51.1,3.9-7,12.8-9.5,19.8-5.5,7,3.9,9.5,12.8,5.5,19.8-9.1,16.1-17.9,32.9-26.3,49.7-2.5,5.1-7.7,8.1-13,8.1ZM1555.7,1811.6c-2.7,0-5.4-.7-7.8-2.3-6.8-4.3-8.8-13.3-4.5-20,10.4-16.3,21.2-32.4,32.4-47.9,4.7-6.5,13.8-8,20.3-3.3,6.5,4.7,8,13.8,3.3,20.3-10.8,15-21.4,30.7-31.4,46.5-2.8,4.4-7.5,6.7-12.3,6.7ZM1622.1,1719.1c-3.2,0-6.4-1.1-9.1-3.2-6.2-5-7.2-14.2-2.1-20.4,12.1-15,24.8-29.7,37.7-43.8,5.4-5.9,14.6-6.3,20.5-.9,5.9,5.4,6.3,14.6.9,20.5-12.5,13.7-24.8,28-36.6,42.5-2.9,3.5-7.1,5.4-11.3,5.4ZM1699,1635c-3.8,0-7.6-1.5-10.4-4.4-5.6-5.8-5.5-15,.3-20.5,13.8-13.4,28.1-26.5,42.7-39,6.1-5.2,15.3-4.5,20.5,1.5,5.2,6.1,4.5,15.3-1.5,20.5-14.1,12.1-28.1,24.9-41.4,37.8-2.8,2.7-6.5,4.1-10.1,4.1ZM1785.4,1560.7c-4.4,0-8.7-2-11.6-5.7-4.9-6.4-3.6-15.5,2.8-20.4,15.2-11.6,31.1-22.9,47.1-33.6,6.7-4.5,15.7-2.7,20.2,4,4.5,6.7,2.7,15.7-4,20.1-15.5,10.4-30.9,21.4-45.7,32.6-2.6,2-5.7,3-8.8,3ZM1880,1497.2c-5,0-9.8-2.6-12.5-7.1-4.1-6.9-1.8-15.8,5.1-19.9,16.4-9.7,33.5-19.1,50.6-27.9,7.1-3.7,15.9-.9,19.6,6.2,3.7,7.1.9,15.9-6.2,19.6-16.7,8.6-33.2,17.7-49.2,27.2-2.3,1.4-4.9,2-7.4,2ZM1981.3,1444.9c-5.5,0-10.8-3.2-13.3-8.6-3.3-7.3,0-15.9,7.3-19.2,17.4-7.8,35.3-15.3,53.3-22.3,7.5-2.9,15.9.8,18.8,8.3,2.9,7.5-.8,15.9-8.3,18.8-17.5,6.8-35,14.1-51.9,21.7-1.9.9-4,1.3-5.9,1.3ZM2087.6,1403.7c-6.1,0-11.8-3.9-13.8-10-2.5-7.6,1.6-15.8,9.2-18.4,18.1-6,36.6-11.7,55.2-16.8,7.7-2.2,15.7,2.4,17.9,10.1,2.2,7.7-2.4,15.7-10.1,17.9-18.1,5.1-36.3,10.6-53.9,16.4-1.5.5-3.1.7-4.6.7ZM2197.4,1372.9c-6.6,0-12.6-4.5-14.1-11.3-1.8-7.8,3.1-15.6,10.9-17.4,18.5-4.3,37.5-8.2,56.5-11.7,7.9-1.5,15.5,3.7,16.9,11.6,1.5,7.9-3.7,15.5-11.6,16.9-18.5,3.4-37.1,7.3-55.2,11.5-1.1.3-2.2.4-3.3.4ZM2309.6,1352.1c-7.1,0-13.3-5.2-14.4-12.5-1.1-7.9,4.4-15.3,12.3-16.4,18.8-2.7,38.1-5,57.2-7,8-.8,15.1,5,15.9,13,.8,8-5,15.1-13,15.9-18.8,1.9-37.6,4.2-56.1,6.8-.7,0-1.4.1-2.1.1ZM2423.1,1340.5c-7.6,0-14-5.9-14.5-13.6-.5-8,5.6-14.9,13.6-15.4,19.1-1.2,38.5-2,57.6-2.5,8-.1,14.7,6.2,14.9,14.2.2,8-6.2,14.7-14.2,14.9-18.8.4-37.8,1.2-56.5,2.4-.3,0-.6,0-.9,0ZM2594.3,1340c-.3,0-.6,0-.8,0-18.4-1-37.4-1.7-56.4-2-8-.1-14.4-6.7-14.3-14.8.1-8,6.8-14.4,14.8-14.3,19.4.3,38.8,1,57.6,2.1,8,.5,14.1,7.3,13.7,15.3-.4,7.7-6.8,13.7-14.5,13.7Z"/>
            <path class="st31" d="M1464.4,1989.5c-1.8,0-3.7-.3-5.5-1.1-7.4-3-11-11.5-8-18.9,3.7-9.1,7.5-18.2,11.4-27.1,3.2-7.4,11.8-10.7,19.1-7.5,7.4,3.2,10.7,11.8,7.5,19.1-3.8,8.7-7.5,17.6-11.1,26.5-2.3,5.6-7.7,9.1-13.5,9.1Z"/>
          </g>
        </g>
        <path class="st31" d="M3068.8,1842.7c-1.1,0-2.2-.1-3.2-.4-7.8-1.8-12.7-9.6-10.9-17.4l.3-1.3c1.8-7.8,9.5-12.7,17.3-11,7.8,1.8,12.8,9.5,11,17.3l-.3,1.4c-1.5,6.7-7.5,11.3-14.1,11.3ZM3079.5,1784.2c-.7,0-1.3,0-2-.1-7.9-1.1-13.5-8.4-12.4-16.4,2.7-19.4,4.3-38.3,4.8-56.3.2-8,7.1-14.4,15-14.1,8,.2,14.3,6.9,14.1,15-.6,19-2.3,39-5.1,59.4-1,7.3-7.2,12.5-14.4,12.5ZM3082.4,1668.4c-7.3,0-13.6-5.5-14.4-13-2-19-5.5-37.4-10.4-54.4-2.2-7.7,2.2-15.8,10-18,7.7-2.2,15.8,2.2,18,10,5.4,18.7,9.2,38.6,11.4,59.3.9,8-4.9,15.1-12.9,16-.5,0-1,0-1.6,0ZM3050,1557.8c-5.2,0-10.2-2.8-12.8-7.7-8.6-16.2-18.9-31.4-30.8-45.1-5.3-6.1-4.6-15.2,1.5-20.5,6.1-5.2,15.2-4.6,20.5,1.5,13.3,15.4,24.9,32.4,34.5,50.5,3.8,7.1,1,15.9-6,19.6-2.2,1.1-4.5,1.7-6.8,1.7ZM2974.8,1470.7c-3,0-6-.9-8.6-2.9-14.4-10.7-30.4-20.2-47.4-28.3-7.2-3.4-10.3-12.1-6.9-19.3,3.4-7.2,12.1-10.3,19.3-6.9,18.8,8.9,36.3,19.4,52.3,31.2,6.4,4.8,7.8,13.9,3,20.3-2.8,3.8-7.2,5.9-11.7,5.9ZM2870.5,1420.7c-1.3,0-2.6-.2-3.9-.5-31.4-8.8-54-10.2-54.2-10.2-8-.5-14.1-7.4-13.6-15.4.5-8,7.2-14.1,15.3-13.6,1,0,25.8,1.6,60.4,11.3,7.7,2.2,12.2,10.2,10.1,17.9-1.8,6.4-7.6,10.6-14,10.6Z"/>
      </g>
      <g>
        <path class="st29" d="M2886.5,1312.5c0,107-86.2,199.5-192.9,206.6-107,7.2-194.1-74.3-194.1-181.9s87-200.2,194.1-206.7c106.7-6.5,192.9,75,192.9,182Z"/>
        <g>
          <path class="st2" d="M2902.7,1312.5c0,107-86.2,199.5-192.9,206.6-107,7.2-194.1-74.3-194.1-181.9s87-200.2,194.1-206.7c106.7-6.5,192.9,75,192.9,182Z"/>
          <path class="st13" d="M2703,1430c-8.4.5-16.2-3.4-20.5-10.3l-72.9-117.1c-6.8-11-3.2-26,8.2-33.6,11.4-7.6,26.1-4.8,32.9,6.2l50.6,81.3,66.7-135.9c6-12.2,20.4-17.8,32.1-12.5,11.8,5.3,16.4,19.5,10.4,31.6l-86.3,175.8c-4,8-11.8,13.6-20.5,14.5-.3,0-.6,0-.8,0Z"/>
        </g>
      </g>
      <g>
        <path class="st15" d="M1710.1,1934.7c0,107-86.2,199.5-192.9,206.6-107,7.2-194.1-74.3-194.1-181.9s87-200.2,194.1-206.7c106.7-6.5,192.9,75,192.9,182Z"/>
        <g>
          <path class="st0" d="M1726.3,1934.7c0,107-86.2,199.5-192.9,206.6-107,7.2-194.1-74.3-194.1-181.9s87-200.2,194.1-206.7c106.7-6.5,192.9,75,192.9,182Z"/>
          <path class="st13" d="M1526.6,2052.1c-8.4.5-16.2-3.4-20.5-10.3l-72.9-117.1c-6.8-11-3.2-26,8.2-33.6,11.4-7.6,26.1-4.8,32.9,6.2l50.6,81.3,66.7-135.9c6-12.2,20.4-17.8,32.1-12.5,11.8,5.3,16.4,19.5,10.4,31.7l-86.3,175.8c-3.9,8-11.8,13.6-20.5,14.5-.3,0-.6,0-.8,0Z"/>
        </g>
      </g>
      <g>
        <path class="st26" d="M1500,1042c0,107-86.2,199.5-192.9,206.6-107,7.2-194.1-74.3-194.1-181.9s87-200.2,194.1-206.7c106.7-6.5,192.9,75,192.9,182Z"/>
        <g>
          <path class="st2" d="M1516.2,1042c0,107-86.2,199.5-192.9,206.6-107,7.2-194.1-74.3-194.1-181.9s87-200.2,194.1-206.7c106.7-6.5,192.9,75,192.9,182Z"/>
          <path class="st13" d="M1316.5,1159.4c-8.4.5-16.2-3.4-20.5-10.3l-72.9-117.1c-6.8-11-3.2-26,8.2-33.6,11.4-7.6,26.1-4.8,32.9,6.2l50.6,81.3,66.7-135.9c6-12.2,20.4-17.8,32.1-12.5,11.8,5.3,16.4,19.5,10.4,31.6l-86.3,175.8c-3.9,8-11.8,13.6-20.5,14.5-.3,0-.6,0-.8,0Z"/>
        </g>
      </g>
      <g>
        <g>
          <path class="st1" d="M2128,1888.1c-24.1-13.6-25.9-44.9-26.6-57.2-1.7-29.2,8.9-76.8,39.9-83.9,25-5.7,47.8,18.3,50.6,21.3,28.6,30.9,14.8,75.3,13.3,79.9-3.4,10.4-10.4,31.7-32,41.3-1.5.7-24.4,10.4-45.3-1.3Z"/>
          <g class="st12">
            <path class="st25" d="M2173.3,1826.8c-14-20.6-39.1-18.4-46.6-35.9-3.7-8.8-2.8-22,11.2-42.9-28.4,9.7-38.1,54.7-36.5,82.9.7,12.4,2.5,43.7,26.6,57.2,20.8,11.8,43.7,2,45.3,1.3.9-.4,1.9-.9,2.7-1.3,6.5-21.5,8.7-44.4-2.7-61.2Z"/>
          </g>
          <path class="st1" d="M2008.2,2476.5s-48.1-344.8-27.4-466c20.7-121.1,133.1-145.5,181.4-146.7,48.3-1.1,144.8,32.6,152.1,175.9,7.4,143.3-66.1,444.9-66.1,444.9l-240.1-8.3Z"/>
          <path class="st14" d="M2147.8,2170.5c75.4,7,103.6-59.9,173-53.3,6.7.6,14.2,2,22.2,4.6,1.2-13.6,2.1-26.8,2.6-39.3-9.1-3.2-17.4-4.8-24.8-5.5-69.3-6.7-97.6,60.3-173,53.3-61.5-5.7-81.2-53.8-135.2-46.6-13.9,1.9-26.2,6.9-37,13.5,0,12.7.4,26,.9,39.6,10.6-6.3,22.6-11.1,36.1-12.9,54-7.2,73.7,40.9,135.2,46.6Z"/>
          <path class="st10" d="M2133.3,2295.6c-56.3-5.7-74.4-53.8-123.8-46.6-9.3,1.4-17.8,4.4-25.6,8.5,9.7,114.3,24.3,219,24.3,219l240.1,8.3s28.8-118.2,48.5-241.7c-1.7-.3-3.4-.5-5.1-.7-63.5-6.7-89.4,60.3-158.4,53.3Z"/>
          <path class="st8" d="M2291.8,2117.3c-63.5-6.7-89.4,60.3-158.4,53.3-56.3-5.7-74.4-53.8-123.8-46.6-12.4,1.8-23.4,6.6-33.1,12.9,1.3,38.6,4.1,80.2,7.5,120.6,7.8-4.1,16.3-7.2,25.6-8.5,49.4-7.2,67.5,40.9,123.8,46.6,69.1,7,94.9-59.9,158.4-53.3,1.6.2,6.2-124.4,0-125Z"/>
          <path class="st31" d="M1769.9,2724.1c-52.1-61.9-7.1-192.2,48.4-266.3,92.6-123.8,248.3-136.1,328.4-142.4,86-6.8,202.9-16,298.8,62.1,112.8,91.9,161.1,275.7,98,346.6-51.3,57.6-136.7-3.3-379.4-2.7-245.6.7-342.7,63.6-394.1,2.7Z"/>
          <path class="st5" d="M1992.1,2357.3c44.5-13.9,117.3-13.9,116.5-173.6,0,0,92.3-1.3,95.8,0,3.3,1.3-24.5,158.4,104.6,163.7,8.8.4,11.1,12.9,4,18.1-23.4,17.4-76,43.5-153.9,40.5-49.3-1.9-105.5,6.4-167.3-29.4-8.5-4.9-9.1-16.4.3-19.3Z"/>
          <path class="st24" d="M2234.4,2681.8c-25.6-5.3,20-221.9-2.5-559.4-4.7-70-11.1-127.6-16-166.4,27.8,2.4,55.5,4.8,83.3,7.2,31.8,102.1,73.5,288.4,22.8,506.8-23.8,102.7-68.7,215.7-87.6,211.8Z"/>
          <path class="st1" d="M2234.4,2681.8c-25.6-5.3,20-221.9-2.5-559.4-4.7-70-11.1-127.6-16-166.4,27.8,2.4,55.5,4.8,83.3,7.2,31.8,102.1,73.5,288.4,22.8,506.8-23.8,102.7-68.7,215.7-87.6,211.8Z"/>
          <path class="st5" d="M2046.2,2051.9c0,21.3-9.7,177,109.3,177s99.3-113.8,96.1-170.9c0,0-5-51.3-41.6-65.9,0,0,33.9,29.3,33.4,92.7,0,0-8.4-33.8-88.2-35-79.8-1.1-96.4,35-96.4,35,0,0-14.1-61,26.5-92.7,0,0-28.8,9-39,59.8Z"/>
        </g>
        <g>
          <g>
            <path class="st1" d="M1551.5,2221.5c-109.5,11.3-144.1,50.2-187.5,23-39.5-24.8-23.3-64.7-65.4-93.1-58.9-39.8-130.1,11.8-157.9-21.9-21.7-26.4,20.4-59.5,13-129-8.8-82.6-75.2-100.3-65.6-166.3,6.8-46.6,45.6-77.9,48.5-80.1,30.1-23.6,44.8-11.1,72.6-32.6,40.3-31.2,23.2-68,64.4-104.2,3.2-2.8,44.1-37.8,87.2-28.4,33.4,7.3,32.9,33.5,60.9,40.5,50.3,12.5,78.6-64.9,141.4-64.2,49.7.5,51.6,49.1,112.2,60.9,74.5,14.5,129.1-48,158.3-22.9,18.7,16.1-2.3,43,19.1,73.6,23.5,33.5,59.3,16.2,98.4,51.4,23,20.7,43.6,56.4,42.1,92.9-1.4,36.3-23.5,45.2-18.7,77.4,4.8,31.4,27.3,32.7,33,62.8,6.4,33.9-14.4,73.7-42.1,95.2-38,29.5-72.1,11.7-93.3,41.3-15.8,22.1-1.8,39.2-15.2,65.2-12.9,25.1-41.6,39.8-96.5,51.2-95.6,19.8-118.4-2.1-209,7.3Z"/>
            <g class="st12">
              <path class="st19" d="M1906.9,2039.7c-63.3-12.6-69.2-71.3-135.9-89.9-114.5-31.8-210.3,109.6-267.5,74.5-54.7-33.4,20.1-170.2-54.8-252.1-55.1-60.4-139.4-34.1-157.9-78.9-8.4-20.3-2-52.3,44.2-105.3-32.4,4.4-58.8,27-61.3,29.2-41.2,36.2-24,73-64.4,104.2-27.8,21.5-42.5,9.1-72.6,32.6-2.8,2.2-41.7,33.5-48.5,80.1-9.6,66,56.8,83.7,65.6,166.3,7.4,69.5-34.7,102.6-13,129,27.8,33.7,98.9-17.8,157.9,21.9,42.1,28.4,25.9,68.4,65.4,93.1,43.4,27.2,78-11.7,187.5-23,90.7-9.4,113.4,12.5,209-7.3,54.9-11.4,83.6-26.1,96.5-51.2,13.4-26-.6-43.2,15.2-65.2,21.1-29.6,55.3-11.7,93.3-41.3,10.2-7.9,19.5-18.4,26.8-30.1-27.8,13-56.7,19-85.4,13.3Z"/>
            </g>
          </g>
          <path class="st31" d="M1142.8,2626.8c37.2,58.3,214.7,300.8,466.5,297.9,253.7-2.9,322.6-247.9,362-304.8,18.3-26.4,11.4-57.1-1.8-115.4-9-39.8-26.5-117.7-91.4-171.1-79.6-65.6-190.9-61.9-302.9-58.3-117.1,3.8-278.8,9.1-368.6,110.4-62.8,70.8-69.2,164.6-70,178.4-1.8,32.7-2.7,49,6.1,62.9Z"/>
          <path class="st5" d="M1516.6,2089.7s15,173.3-106.5,207.9c-13.4,3.8-16.8,21.4-5.8,30,38.4,30.1,107.8,78.2,165.7,84.5,60.3,6.5,131.9-55.7,168.6-92.6,9.8-9.9,4.4-26.6-9.3-29-52-9.3-145.1-46.4-135.5-194.1l-77.2-6.7Z"/>
          <path class="st5" d="M1435.3,1965s-8.6,172.9,115.9,170.8c124.5-2,115.7-149.5,108.8-187.6,0,0,.9-100.4-82.1-91.7-82.9,8.6-138.9,34.7-142.6,108.5Z"/>
          <path class="st5" d="M1650.3,2009.7s11.9-45.2,36.6-22.8c35.8,32.5-40.5,69.4-40.5,69.4l3.9-46.5Z"/>
          <path class="st5" d="M1447.2,2009.7s-11.9-45.2-36.6-22.8c-35.8,32.5,40.5,69.4,40.5,69.4l-3.9-46.5Z"/>
          <path class="st31" d="M1431.5,1962.7c1.1,3.4,5.9,3.6,7.2.2,8.4-22.1,35.1-72.4,104.9-79.6,62.5-6.5,95.7,39.4,110.2,68.1,3.2,6.3,12.6,4.6,13.3-2.4,4.2-41.6-1.5-121.8-108-121.8s-138,101.9-127.6,135.6Z"/>
        </g>
        <g>
          <path class="st31" d="M1964.3,2929.9c-40.6-67.2,16.7-177.3,52.8-227.2,105.1-145.5,298.2-150.4,456.6-154.4,155.5-4,305.7-7.8,415.6,103.8,71.8,72.9,197.1,241.4,135.2,516.8-19.3,85.9-291.6,132.5-597.3,131.4-336.3-1.1-412.1-286.5-462.7-370.4Z"/>
          <path class="st3" d="M2620.4,2573.2c0,28.8-70.3,63.3-157,63.3s-157-34.6-157-63.3,70.3-15.9,157-15.9,157-12.9,157,15.9Z"/>
          <path class="st5" d="M2405.6,2372.3c-23.9,0,31.2,167.8-55.6,190.8-8.4,2.2-9.8,13.5-2.1,17.6,23.3,12.6,66.9,28.6,138.5,28.6s80.5-17.6,98.2-29.4c6-4.1,5.4-13.1-1-16.4-26.8-13.8-63.9-57.6-52.8-186.9l-125.1-4.3Z"/>
          <path class="st5" d="M2333.1,2171.2c.4,2.1,7.6,155.2,42.6,231.7,10,21.9,59.9,19.3,92.1,16.7,28-2.3,71.9,7.9,84.3-11.4,49.7-77.7,41.3-270.3,41.3-270.3,0,0-25.5-64.1-129.9-62.3-104.4,1.8-130.3,95.7-130.3,95.7Z"/>
          <path class="st5" d="M2357.5,2253.4s-21.8-25.4-42.4-28.8c-20.6-3.4-34,49.9-5.9,84.6,28.1,34.7,60.6,5.9,60.6,5.9l-12.2-61.8Z"/>
          <path class="st5" d="M2570.5,2253.4s21.9-25.4,42.4-28.8c20.6-3.4,34,49.9,5.9,84.6-28.1,34.7-60.6,5.9-60.6,5.9l12.2-61.8Z"/>
          <path class="st1" d="M2340.4,2251.5c2.8,5,5.9,9.7,8,9.2,8.8-2.3-25.2-88.4,6.1-118.5,16.2-15.6,34.5-1.4,100.9-4.4,66.9-3,84-19,104.2-6.8,18.4,11.2,34.9,43.1,21.3,137.5,3.8-.9,7.6-1.8,11.4-2.6-5.1-30.9.5-50.5,6.9-62.8,4.7-9,13.1-20.6,12.4-37.3-.4-10.4-3.8-10.8-4.4-19.3-1.7-24.9,26.7-31.6,28.1-56.2,1.1-18.9-15.3-23.2-12.3-43,2.5-16.8,15.3-20,13.3-32.1-2.2-13.1-19.3-22.9-31.2-26.3-12.2-3.5-16.6.4-23.8-4.6-11.6-8-6-22.2-14.4-27.4-14.9-9.4-44.5,28.1-63.7,18.7-11.6-5.6-7.1-22.5-17.4-26.6-19.8-7.9-54.9,47.7-69,40.3-6.8-3.5-.2-17.1-9.7-27-11.1-11.7-37.8-11.7-50,.7-11.3,11.5-1.7,25.3-13.7,40-10.8,13.1-23.2,7.7-35.4,18.3-20.7,17.9-13.5,58.3-10.9,72.8,8.8,49.7,36.4,59.8,30.2,93.7-1.6,8.7-5.3,18.3-2.6,32.5,2.6,13.9,9.8,24.4,15.7,31.2Z"/>
          <g class="st12">
            <path class="st17" d="M2594.7,2144.1c-2.4-24.4,16.5-35.8,13.3-53.3-2.6-14-18.4-26.6-33.3-29.3-31.7-5.7-52.3,41-83.9,35.9-24.4-3.9-21.7-33.4-49.3-45.3-43.7-18.8-89.4,38.5-118.5,22.6-8.7-4.8-17.6-17-18.2-50.3-16.7,19.1-10.1,55.9-7.7,69.6,8.8,49.7,36.4,59.8,30.2,93.7-1.6,8.7-5.3,18.3-2.6,32.5,2.6,13.9,9.8,24.4,15.7,31.2,2.8,5,5.9,9.7,8,9.2,8.8-2.3-25.2-88.4,6.1-118.5,16.2-15.6,34.5-1.4,100.9-4.4,66.9-3,84-19,104.2-6.8,18.4,11.2,34.9,43.1,21.3,137.5,3.8-.9,7.6-1.8,11.4-2.6-5.1-30.9.5-50.5,6.9-62.8,1.9-3.7,4.5-7.8,6.8-12.6-.5-8.1-1.9-17.1-4.8-26.5-3.4-11-5.9-12.1-6.7-20Z"/>
          </g>
        </g>
        <g>
          <path class="st2" d="M1228.8,3310c-347.5,2.7-417.8-79.3-473-154.7-50.8-69.3-71.6-318.5-11-388.3,95.8-110.5,249.6-115.9,460-121.7,197.9-5.5,319.8-8.9,416.1,76.4,90,79.7,147.5,228,91.4,304.6-52,71.1-151.8,281.2-483.5,283.8Z"/>
          <path class="st4" d="M1088.7,2644.9l-40.7,10.4c-10,2.6-14.5,14.1-9,22.8,27.7,43.2,101.1,151.6,147,164.4,47.5,13.2,136.2-124.2,165.7-172.6,5.1-8.4,1-19.3-8.3-22.2l-29.8-9.5c-24.4-7.8-50.1-10.7-75.6-8.6l-111.2,9c-12.9,1-25.6,3.2-38.1,6.4Z"/>
          <path class="st5" d="M1118.9,2487s22.4,160.8-8.6,176.2l88,95.9,89.2-113.6s-33.7-25.4-24.8-158.5h-143.8Z"/>
          <path class="st5" d="M1067,2256.7c-3.2,4.3-44.5,207,98.5,228.2,142.9,21.2,149.2-128.6,147.4-192.1-1.8-63.6-67.2-86.6-104.6-91.1-37.4-4.4-130,39.8-141.3,55Z"/>
          <path class="st5" d="M1058.7,2375.1s-7.2-33.1-31.6-12.5c-24.5,20.7,14.5,75.5,46.6,73.2l-14.9-60.7Z"/>
          <path class="st5" d="M1308.5,2352c-4.1,2.8-15.9,80.5-15.9,80.5,0,0,20.6,2.4,35.6-25.5,14.9-27.9,22.1-83.3-19.7-55.1Z"/>
          <path class="st1" d="M1364.7,2203.4c-15.1-25-53.1-13.2-64.2-37.2-9.3-20.2,12.6-39.3.8-56.8-9.8-14.6-33.9-14.3-38.2-14.2-32.5.5-39.9,26.2-63.1,25.6-28.3-.7-29.4-39.4-66.8-55.7-36.3-15.8-89.4-2.9-110.8,26.7-16.7,23-2.5,40-24.3,69.6-15,20.4-28.3,21.3-35.8,41.2-7,18.7-2.3,36.5,1.4,49.8,8.9,31.7,25.5,45.7,50.5,79.5,11.2,15.1,26.6,37.5,42.5,67,6.7,17.8,16.2,45.3,25,80,8,31.6,7.5,38,15,48.3,25.8,35.3,84.8,31.9,109.6,30.4,28.4-1.6,63.8-3.7,81.7-28.4,9.6-13.4,8.4-25.4,10.7-57.7,1.6-23,4.9-55.3,12.4-94.5.1,0,3.3-18,11.6-40.1,10.4-27.6,21.1-32,32.8-60.6,9.4-22.9,21.5-52.5,9.2-72.8ZM1246.3,2419.2c-17.6,4.7-29.4.5-53.3-.9-47.6-2.7-62.7,19.6-85.2,9.8-9.4-4.1-31.1-15.5-35.7-37.5-2.7-14.2-4.5-33.7-1.5-56.2,3.7-27.5,8-59.2,30-73.2,31.9-20.3,72.7,14.7,102.1-8,11.2-8.7,15.7-21.9,17.8-32,6.5,2.2,58.3,21.1,77.3,76.3,11.7,34.1,5,64.4-.7,80.9-10.7,16.2-27.1,34.2-50.9,40.7Z"/>
          <path class="st20" d="M1147.4,2452.7c18.4,5.7,46,9.6,77-2.2,3.2-1.2,6,2.3,3.3,4.2-11.1,7.9-27.3,16.2-44.8,14.9-14.5-1.1-27.9-6.7-38.2-12.5-2.9-1.7-.6-5.5,2.7-4.4Z"/>
        </g>
        <g>
          <path class="st1" d="M2033.7,2454.3c0,53.5-13.9,102.7-37.3,141.2-30.7,50.8-77.5,83.2-130,83.2s-62.3-12.2-87.9-33.5c-47.7-39.5-79.4-110.3-79.4-191,0-124,74.9-224.4,167.3-224.4s167.3,100.5,167.3,224.4Z"/>
          <path class="st11" d="M1996.4,2595.6c-30.7,50.8-77.5,83.2-130,83.2s-62.3-12.2-87.9-33.5c-33.3-34-62.4-84.4-64.9-157.8,0,0,68.5-39.2,108.4,13.9,28.4,37.8,127.2,57.3,174.5,94.2Z"/>
          <path class="st28" d="M1470,3062.4c-32-48.1-12.5-123.1-8.4-139,16-61.7,53.9-99.9,67.6-113.5,94.7-93.3,239.3-92.4,348.8-91.8,109.3.7,170.4,1,237,38.8,120.2,68.1,202.8,226.6,154.6,304.3-30,48.4-88.2,29.3-434.2,41.3-224.3,7.8-325.3,20.2-365.5-40.2Z"/>
          <path class="st5" d="M1820.6,2532.8s23.1,165.6-93.9,198.4c-13.5,3.8-17.6,20.9-7.4,30.5l144.2,135.5c8.7,8.2,22.5,7.7,30.6-1.2l130.9-144.6c8.6-9.5,4.8-24.6-7.2-29-42-15.5-117.2-60.4-101.4-181.6l-95.8-8Z"/>
          <path class="st5" d="M1748.9,2440.9c0,1.8,31.5,163.4,112.5,163.4s105.8-119,115.3-174.6c1-9.5,2-18.9,3-28.4-5.2,1.7-18.2,5.2-33.6,1-3.5-1-25.8-7-34-25.3-9.2-20.4,7.7-36.7-1.9-54.5-5.6-10.4-16.8-15.2-25.4-17.7,5.7,8.4,16.8,27.1,10.5,44.1-4.2,11.4-16,22.4-42.3,29.1-75.3,19.1-104.7,26.3-103.9,62.9Z"/>
          <path class="st5" d="M1768.7,2460.2s-41.7-35.3-45.3-13.7c-7.6,45,28.1,69.8,47.4,56.4,19.4-13.5-2.1-42.7-2.1-42.7Z"/>
          <path class="st5" d="M1952.5,2460.2s41.7-35.3,45.3-13.7c7.6,45-28.1,69.8-47.4,56.4-19.4-13.5,2.1-42.7,2.1-42.7Z"/>
          <path class="st18" d="M2198.5,2801.2s4.5-42.9-65-136.1c-69.5-93.2-41.7-189-55.6-252.3-7.1-32.4-4.7-101.6-28-161.5-16.3-42-50.5-75.2-93.7-91-43.2-15.8-91.4-12.9-132.1,8.3-68.8,35.8-173.3,119.6-162.7,296.8.3,5,.7,10,1.1,15.2,0,0-6,167.3-97.4,249.2-91.4,81.9-21.9,188.3,75.5,232.7,4,1.8,8.7,3.6,13.9,5.2,121.8,38.6,556.7,27.4,543.9-166.6ZM1875.4,2666.7c-85.5,0-154.8-94-154.8-209.9s69.3-209.9,154.8-209.9,154.8,94,154.8,209.9-69.3,209.9-154.8,209.9Z"/>
          <path class="st7" d="M1905.8,2903.1c-73.4.1-298,11.7-251.3,64.7-5.2-1.7-9.9-3.4-13.9-5.2-97.4-44.5-166.9-150.8-75.5-232.7,91.4-81.9,97.4-249.2,97.4-249.2-.5-5.1-.9-10.2-1.1-15.2,1.7.3,3.4,1,5,2.2,15,11.2,13.2,52.3,14.7,68.2,3.2,34.7,5.9,69.8,16.1,103.3,2.7,9.1,5.9,18,9.4,26.8,14.9,36.4,37.4,68.9,71,91,42.2,27.8,94.9,40.4,145.2,41.5,177.4,3.6,61.5,104.8-16.9,104.9Z"/>
        </g>
        <g>
          <path class="st31" d="M973.9,3316.6c-9.1-17.6-4.6-43.6,4.4-95.8,4.4-25.8,24.7-143.8,76.2-217.6,97.7-140.1,319.7-138.1,443.8-137,147.5,1.3,298.7,2.7,405,117.4,89.5,96.6,141.8,267.8,76.1,348.1-63.2,77.3-177.4-.7-504.8,2.3-275.1,2.5-460.6,60.1-500.6-17.4Z"/>
          <path class="st1" d="M1478.8,2805.1c-121.4-.3-252.1,55.1-249.4,96.9,2.8,43.8,151.9,72.1,258.1,72.9,98.9.7,245.9-21.7,250-64.7,4-42.4-130.5-104.7-258.7-105Z"/>
          <path class="st5" d="M1415.5,2683.3s31.5,206.4-84,224.1l168.8,37.7,141.1-39.4s-106.4-28.8-91.1-198.5l-134.8-23.9Z"/>
          <path class="st5" d="M1601.4,2631.7c0,70.9-54.2,128.4-121.1,128.4s-121.1-57.5-121.1-128.4,54.2-207.6,121.1-207.6,121.1,136.7,121.1,207.6Z"/>
          <path class="st5" d="M1593.2,2607.6s28.7-21.5,43.5,1c20.7,31.6-46.3,63.8-46.3,63.8l2.9-64.8Z"/>
          <path class="st5" d="M1366.9,2607.6s-28.7-21.5-43.5,1c-20.7,31.6,46.3,63.8,46.3,63.8l-2.9-64.8Z"/>
          <path class="st1" d="M1365.8,2653.7c-5.7,1.3-45.1-75.4-31.5-150.8,25.1-138.4,204.3-198.3,216.2-178.4,6.1,10.2-27.8,48.4-19.5,59.7,7.8,10.7,43.6-15.9,50.3-5.3,6.2,9.6-19,38.8-12.7,48.6,6.4,10,36-14.2,45.7-3.2,13.8,15.7-30.1,82.3-12,107,6.1,8.4,13.3,3.6,20.3,12.5,19.4,24.7-8.2,98.3-20.3,96.3-9.2-1.5-.7-45.4-26.3-89.2-11.9-20.3-26.7-33.1-38.3-41-15.1,5.4-34.8,14.3-54.3,30.1-15.3,12.4-13.6,18.2-24.5,24.3-28.8,15.9-55.4-7.7-73.6,8.1-5.8,5-8,14.3-12.4,32.8-7.2,30.2-4.5,47.7-7.2,48.3Z"/>
          <g class="st12">
            <path class="st27" d="M1527.8,2481.3c-26.1-10.7-28.1-43.8-55.3-51.1-52.4-14-105.6,92.4-120.4,81.7-5.5-4-5.1-23.8,14.5-84.4-15.4,21.8-27,46.9-32.2,75.4-13.6,75.3,25.8,152.1,31.5,150.8,2.6-.6,0-18.1,7.2-48.3,4.4-18.5,6.6-27.8,12.4-32.8,18.1-15.8,44.8,7.9,73.6-8.1,10.9-6.1,9.2-11.8,24.5-24.3,19.5-15.8,39.2-24.8,54.3-30.1,11.5,7.9,26.4,20.7,38.3,41,25.6,43.8,17.1,87.7,26.3,89.2,12.1,2,39.6-71.6,20.3-96.3-6.9-8.9-14.1-4.1-20.3-12.5-13.8-18.8,8.5-62.1,13.7-88.5-43.5,42-70.6,45.6-88.3,38.4Z"/>
          </g>
        </g>
        <g>
          <path class="st5" d="M2189.2,2651.7s-7.2-33.1-31.6-12.5c-24.5,20.7,14.5,75.5,46.6,73.2l-14.9-60.7Z"/>
          <path class="st5" d="M2423.6,2630.5c-4.1,2.8-15.9,80.5-15.9,80.5,0,0,20.6,2.4,35.6-25.5,14.9-27.9,22.1-83.3-19.7-55.1Z"/>
          <path class="st2" d="M2332.6,3333.7c-347.5,2.7-469.3,48.5-524.5-26.9-50.8-69.3-8.7-191.4,51.9-261.2,95.8-110.5,249.6-115.9,460-121.7,197.9-5.5,319.8-8.9,416.1,76.4,90,79.7,147.5,228,91.4,304.6-52,71.1-163.2,26.3-495,28.9Z"/>
          <path class="st22" d="M2203.9,2923.5l-40.7,10.4c-10,2.6-14.5,14.1-9,22.8,27.7,43.2,101.1,151.6,147,164.4,47.5,13.2,136.2-124.2,165.7-172.6,5.1-8.4,1-19.3-8.3-22.2l-29.8-9.5c-24.4-7.8-50.1-10.7-75.6-8.6l-111.2,9c-12.9,1-25.6,3.2-38.1,6.4Z"/>
          <path class="st5" d="M2234.1,2765.5s22.4,160.8-8.6,176.2l88,95.9,89.2-113.6s-33.7-25.4-24.8-158.5h-143.8Z"/>
          <path class="st5" d="M2182.2,2535.3c-3.2,4.3-34.8,277,108.2,298.2,142.9,21.2,139.6-198.6,137.7-262.1-1.8-63.6-67.2-86.6-104.6-91.1-37.4-4.4-130,39.8-141.3,55Z"/>
          <path class="st1" d="M2185.9,2613c3.7-27.5,8-59.2,30-73.2,31.9-20.3,72.7,14.7,102-8,11.2-8.7,15.7-21.9,17.8-32,6.5,2.2,58.3,21.1,77.3,76.3,9.3,26.9,7,51.5,2.9,68.8,1.2-.6,2.5-1.3,3.7-1.9,3.8-2,7.5-4.2,11.3-6.3,1.7-6.2,4-13.4,7-21.2,10.4-27.6,21.1-32,32.8-60.6,9.4-22.9,21.5-52.5,9.2-72.8-15.1-25-53.1-13.2-64.2-37.2-9.3-20.2,12.6-39.3.8-56.8-9.8-14.6-33.9-14.3-38.2-14.2-32.5.5-39.9,26.2-63.1,25.6-28.3-.7-29.4-39.4-66.8-55.7-36.3-15.8-89.4-2.9-110.8,26.7-16.7,23-2.5,40-24.3,69.6-15,20.4-28.3,21.3-35.8,41.2-7,18.7-2.3,36.5,1.4,49.8,8.9,31.7,25.5,45.7,50.5,79.5,4.8,6.5,10.4,14.3,16.4,23.5,12.8,5,25.7,9.8,38.8,13.9-.7-10.4-.5-22.1,1.2-34.8Z"/>
        </g>
      </g>
    </g>
  </g>
</svg>