<?xml version="1.0" encoding="utf-8"?>
<!-- Generator: Adobe Illustrator 27.5.0, SVG Export Plug-In . SVG Version: 6.00 Build 0)  -->
<svg version="1.1" xmlns="http://www.w3.org/2000/svg" xmlns:xlink="http://www.w3.org/1999/xlink" x="0px" y="0px"
	 viewBox="0 0 2200 2200" style="enable-background:new 0 0 2200 2200;" xml:space="preserve">
<g id="Background">
	<rect style="fill:#FFFFFF;" width="2200" height="2200"/>
</g>
<g id="Objects">
	<g>
		<g>
			<path style="fill:#1A2638;" d="M1501.047,1437.565v284.156c0,28.577-23.166,51.743-51.743,51.743H750.696
				c-28.577,0-51.743-23.166-51.743-51.743v-284.156c0-92.743,30.623-185.149,82.584-217.486
				c95.75-59.585,190.796-84.982,190.796-84.982c3.344-10.422,7.109-44.894,9.076-80.197
				c-12.125-12.598-24.145-25.744-36.817-38.195c-24.124-23.714-26.848-57.608-35.461-101.334
				c-15.827,4.501-20.833-3.029-25.029-9.444c-2.871-4.375-3.996-9.633-5.069-14.754c-3.859-18.424-7.708-36.849-11.557-55.273
				c-2.892-13.839-5.805-28.015-3.838-42.023c0.936-6.625,3.292-13.566,8.728-17.457c5.437-3.891,14.523-2.955,17.247,3.155
				c0,0-8.813-86.717-8.813-79.419c-7.372-8.171-13.198-25.986-10.758-39.741s6.815-27.142,8.991-40.94
				c2.387-15.143,2.135-30.781,6.489-45.483c6.131-20.738,20.791-37.732,35.713-53.37c10.569-11.084,21.506-21.842,33.431-31.444
				c23.872-19.192,52.339-33.641,82.794-37.049c9.77-1.083,19.623-1.041,29.456-0.999c11.021,0.063,22.053,0.116,33.084,0.168
				c11.031-0.053,22.063-0.105,33.084-0.168c9.833-0.042,19.686-0.084,29.456,0.999c30.455,3.407,58.922,17.857,82.794,37.049
				c11.926,9.601,22.862,20.359,33.431,31.444c14.922,15.638,29.582,32.632,35.713,53.37c4.354,14.702,4.101,30.339,6.489,45.483
				c2.177,13.797,6.552,27.184,8.991,40.94c2.44,13.755-3.386,31.57-10.758,39.741c0-7.298-8.813,79.419-8.813,79.419
				c2.724-6.11,11.81-7.046,17.246-3.155c5.437,3.891,7.793,10.832,8.729,17.457c1.967,14.008-0.946,28.183-3.838,42.023
				c-3.849,18.424-7.698,36.849-11.557,55.273c-1.073,5.121-2.198,10.379-5.069,14.754c-4.196,6.415-9.202,13.945-25.029,9.444
				c-8.613,43.726-11.337,77.62-35.461,101.334c-12.672,12.451-24.692,25.597-36.817,38.195c1.967,35.303,5.731,69.775,9.076,80.197
				c0,0,95.046,25.397,190.796,84.982C1470.423,1252.417,1501.047,1344.823,1501.047,1437.565z"/>
		</g>
		<g>
			<path style="fill:#2887CE;" d="M863.94,1134.714c-31.706,13.661-68.513,31.77-105.593,54.853
				c-30.876,19.213-56.377,54.506-73.74,102.049c-15.301,41.875-23.725,92.385-23.725,142.221v231.178H258.668
				c-26.764,0-48.459-21.695-48.459-48.459v-266.134c0-86.864,28.678-173.402,77.347-203.689
				c89.672-55.81,178.692-79.597,178.692-79.597c3.134-9.759,6.657-42.044,8.497-75.107c-11.347-11.799-22.61-24.114-34.483-35.776
				c-22.589-22.21-25.144-53.948-33.21-94.909c-14.817,4.217-19.508-2.829-23.441-8.844c-2.682-4.091-3.744-9.023-4.743-13.818
				c-3.618-17.257-7.225-34.504-10.832-51.761c-2.703-12.966-5.426-26.238-3.586-39.362c0.873-6.205,3.081-12.704,8.171-16.353
				c5.09-3.639,13.597-2.766,16.153,2.955c0,0-8.255-81.217-8.255-74.381c-6.899-7.645-12.357-24.335-10.074-37.217
				c2.282-12.882,6.383-25.418,8.423-38.342c2.229-14.186,1.998-28.836,6.078-42.601c5.742-19.424,19.466-35.335,33.442-49.984
				c9.906-10.379,20.149-20.454,31.317-29.445c22.357-17.983,49.016-31.507,77.536-34.704c9.149-1.01,18.382-0.978,27.595-0.936
				c10.316,0.063,20.654,0.105,30.981,0.158c10.337-0.053,20.664-0.095,30.991-0.158c9.202-0.042,18.435-0.074,27.584,0.936
				c28.52,3.197,55.189,16.721,77.547,34.704c11.168,8.991,21.411,19.066,31.307,29.445c13.976,14.649,27.71,30.56,33.452,49.984
				c4.07,13.766,3.838,28.415,6.078,42.601c2.03,12.924,6.131,25.46,8.413,38.342c2.292,12.882-3.165,29.572-10.075,37.217
				c0-6.836-8.255,74.381-8.255,74.381c2.555-5.721,11.063-6.594,16.153-2.955c5.1,3.649,7.298,10.148,8.182,16.353
				c1.84,13.124-0.894,26.396-3.597,39.362c-3.607,17.257-7.214,34.504-10.821,51.761c-1.01,4.795-2.061,9.727-4.753,13.818
				c-3.933,6.015-8.613,13.061-23.441,8.844c-8.066,40.961-10.621,72.699-33.21,94.909c-11.873,11.662-23.125,23.977-34.483,35.776
				c1.84,33.063,5.363,65.348,8.497,75.107C705.387,1067.137,781.545,1087.486,863.94,1134.714z"/>
		</g>
		<g>
			<path style="fill:#2887CE;" d="M1336.06,1134.714c31.706,13.661,68.513,31.77,105.593,54.853
				c30.876,19.213,56.377,54.506,73.74,102.049c15.301,41.875,23.725,92.385,23.725,142.221v231.178h402.214
				c26.764,0,48.459-21.695,48.459-48.459v-266.134c0-86.864-28.678-173.402-77.347-203.689
				c-89.672-55.81-178.692-79.597-178.692-79.597c-3.134-9.759-6.657-42.044-8.497-75.107c11.347-11.799,22.61-24.114,34.483-35.776
				c22.589-22.21,25.144-53.948,33.21-94.909c14.817,4.217,19.508-2.829,23.441-8.844c2.682-4.091,3.744-9.023,4.743-13.818
				c3.618-17.257,7.225-34.504,10.832-51.761c2.703-12.966,5.426-26.238,3.586-39.362c-0.873-6.205-3.081-12.704-8.171-16.353
				c-5.09-3.639-13.598-2.766-16.153,2.955c0,0,8.255-81.217,8.255-74.381c6.899-7.645,12.357-24.335,10.075-37.217
				c-2.282-12.882-6.383-25.418-8.423-38.342c-2.229-14.186-1.998-28.836-6.078-42.601c-5.742-19.424-19.466-35.335-33.442-49.984
				c-9.906-10.379-20.149-20.454-31.317-29.445c-22.358-17.983-49.016-31.507-77.536-34.704c-9.149-1.01-18.382-0.978-27.595-0.936
				c-10.316,0.063-20.654,0.105-30.981,0.158c-10.338-0.053-20.664-0.095-30.991-0.158c-9.202-0.042-18.435-0.074-27.584,0.936
				c-28.52,3.197-55.189,16.721-77.547,34.704c-11.168,8.991-21.411,19.066-31.307,29.445c-13.976,14.649-27.71,30.56-33.452,49.984
				c-4.07,13.766-3.838,28.415-6.078,42.601c-2.03,12.924-6.131,25.46-8.413,38.342c-2.293,12.882,3.165,29.572,10.074,37.217
				c0-6.836,8.255,74.381,8.255,74.381c-2.555-5.721-11.063-6.594-16.153-2.955c-5.1,3.649-7.298,10.148-8.182,16.353
				c-1.84,13.124,0.894,26.396,3.597,39.362c3.607,17.257,7.214,34.504,10.821,51.761c1.01,4.795,2.061,9.727,4.753,13.818
				c3.933,6.015,8.613,13.061,23.441,8.844c8.066,40.961,10.621,72.699,33.21,94.909c11.873,11.662,23.125,23.977,34.483,35.776
				c-1.84,33.063-5.363,65.348-8.497,75.107C1494.613,1067.137,1418.455,1087.486,1336.06,1134.714z"/>
		</g>
	</g>
</g>
</svg>
