<?xml version="1.0" encoding="UTF-8"?>
<svg xmlns="http://www.w3.org/2000/svg" version="1.1" viewBox="0 0 500 500">
  <!-- Generator: Adobe Illustrator 29.1.0, SVG Export Plug-In . SVG Version: 2.1.0 Build 142)  -->
  <defs>
    <style>
      .st0 {
        fill: #263238;
      }

      .st1 {
        fill: #4c71e5;
      }

      .st2, .st3, .st4, .st5 {
        fill: #fff;
      }

      .st3, .st6 {
        opacity: .5;
      }

      .st4 {
        opacity: .9;
      }

      .st5 {
        opacity: 0;
      }

      .st7 {
        display: none;
      }

      .st8, .st9 {
        fill: #407bff;
      }

      .st9 {
        opacity: .3;
      }
    </style>
  </defs>
  <g id="Background_Simple" class="st7">
    <g>
      <path class="st8" d="M226.4,141c40.3,60.6,189.5,24.5,173.5,138.1-12.7,90.2-180.5,89.8-242.4,71.3-79-23.6-122.5-118.3-90.1-198.1,15.8-39,43.9-66.7,83.6-73.1,77.6-12.4,48.1,20.9,75.3,61.8Z"/>
      <path class="st4" d="M226.4,141c40.3,60.6,189.5,24.5,173.5,138.1-12.7,90.2-180.5,89.8-242.4,71.3-79-23.6-122.5-118.3-90.1-198.1,15.8-39,43.9-66.7,83.6-73.1,77.6-12.4,48.1,20.9,75.3,61.8Z"/>
    </g>
  </g>
  <g id="Airplane">
    <g>
      <path class="st1" d="M488.3,103.7l-320.6,72.4-57.6-5.8c-11.1-1.1-21.2-6.7-28.1-15.5h0l336-75.9c18.2-4.1,37-4.2,55.2-.2l5,1.1c5.7,1.3,10.9,4.2,14.9,8.5h0c4.9,5.2,2.2,13.8-4.8,15.4Z"/>
      <rect class="st9" x="42.5" y="200.2" width="165.8" height="2.8" transform="translate(-41.4 32.7) rotate(-12.7)"/>
      <rect class="st9" x="6.5" y="207.7" width="76.1" height="2.8" transform="translate(-45.1 15) rotate(-12.7)"/>
      <rect class="st9" x="12.6" y="142.6" width="38" height="2.8" transform="translate(-31 10.5) rotate(-12.7)"/>
      <path class="st5" d="M493,88.3c-1-1.1-2.1-2.1-3.3-3L112.5,170.5l55.2,5.6,320.6-72.4c5.3-1.2,8.1-6.4,7-11.1-.3-1.5-1.1-3-2.3-4.2Z"/>
      <path class="st3" d="M473.2,78.7c-5-1.1-10-1.9-15.1-2.3l-59.6,13.5h0c.9,3.8,4.7,6.2,8.5,5.3l69.6-15.7-3.4-.7Z"/>
      <g class="st6">
        <path class="st2" d="M385.7,96.1h3.6c.4,0,.7.3.7.7v5.7c0,.4-.3.7-.7.7h-3.6c-.4,0-.7-.3-.7-.7v-5.7c0-.4.3-.7.7-.7Z" transform="translate(-12.4 87.9) rotate(-12.7)"/>
        <path class="st2" d="M374.4,98.6h3.6c.4,0,.7.3.7.7v5.7c0,.4-.3.7-.7.7h-3.6c-.4,0-.7-.3-.7-.7v-5.7c0-.4.3-.7.7-.7Z" transform="translate(-13.3 85.4) rotate(-12.7)"/>
        <path class="st2" d="M363,101.2h3.6c.4,0,.7.3.7.7v5.7c0,.4-.3.7-.7.7h-3.6c-.4,0-.7-.3-.7-.7v-5.7c0-.4.3-.7.7-.7Z" transform="translate(-14.1 83) rotate(-12.7)"/>
        <path class="st2" d="M351.7,103.7h3.6c.4,0,.7.3.7.7v5.7c0,.4-.3.7-.7.7h-3.6c-.4,0-.7-.3-.7-.7v-5.7c0-.4.3-.7.7-.7Z" transform="translate(-15 80.6) rotate(-12.7)"/>
        <path class="st2" d="M340.4,106.3h3.6c.4,0,.7.3.7.7v5.7c0,.4-.3.7-.7.7h-3.6c-.4,0-.7-.3-.7-.7v-5.7c0-.4.3-.7.7-.7Z" transform="translate(-15.8 78.1) rotate(-12.7)"/>
        <path class="st2" d="M329.1,108.8h3.6c.4,0,.7.3.7.7v5.7c0,.4-.3.7-.7.7h-3.6c-.4,0-.7-.3-.7-.7v-5.7c0-.4.3-.7.7-.7Z" transform="translate(-16.6 75.7) rotate(-12.7)"/>
        <path class="st2" d="M317.8,111.4h3.6c.4,0,.7.3.7.7v5.7c0,.4-.3.7-.7.7h-3.6c-.4,0-.7-.3-.7-.7v-5.7c0-.4.3-.7.7-.7Z" transform="translate(-17.5 73.2) rotate(-12.7)"/>
        <path class="st2" d="M306.4,114h3.6c.4,0,.7.3.7.7v5.7c0,.4-.3.7-.7.7h-3.6c-.4,0-.7-.3-.7-.7v-5.7c0-.4.3-.7.7-.7Z" transform="translate(-18.3 70.9) rotate(-12.7)"/>
        <path class="st2" d="M295.1,116.5h3.6c.4,0,.7.3.7.7v5.7c0,.4-.3.7-.7.7h-3.6c-.4,0-.7-.3-.7-.7v-5.7c0-.4.3-.7.7-.7Z" transform="translate(-19.2 68.3) rotate(-12.7)"/>
        <path class="st2" d="M283.8,119.1h3.6c.4,0,.7.3.7.7v5.7c0,.4-.3.7-.7.7h-3.6c-.4,0-.7-.3-.7-.7v-5.7c0-.4.3-.7.7-.7Z" transform="translate(-20 66) rotate(-12.7)"/>
        <path class="st2" d="M272.5,121.6h3.6c.4,0,.7.3.7.7v5.7c0,.4-.3.7-.7.7h-3.6c-.4,0-.7-.3-.7-.7v-5.7c0-.4.3-.7.7-.7Z" transform="translate(-20.8 63.5) rotate(-12.7)"/>
        <path class="st2" d="M261.1,124.2h3.6c.4,0,.7.3.7.7v5.7c0,.4-.3.7-.7.7h-3.6c-.4,0-.7-.3-.7-.7v-5.7c0-.4.3-.7.7-.7Z" transform="translate(-21.7 61.1) rotate(-12.7)"/>
        <path class="st2" d="M249.8,126.8h3.6c.4,0,.7.3.7.7v5.7c0,.4-.3.7-.7.7h-3.6c-.4,0-.7-.3-.7-.7v-5.7c0-.4.3-.7.7-.7Z" transform="translate(-22.5 58.6) rotate(-12.7)"/>
        <path class="st2" d="M238.5,129.3h3.6c.4,0,.7.3.7.7v5.7c0,.4-.3.7-.7.7h-3.6c-.4,0-.7-.3-.7-.7v-5.7c0-.4.3-.7.7-.7Z" transform="translate(-23.4 56.3) rotate(-12.7)"/>
        <path class="st2" d="M227.2,131.9h3.6c.4,0,.7.3.7.7v5.7c0,.4-.3.7-.7.7h-3.6c-.4,0-.7-.3-.7-.7v-5.7c0-.4.3-.7.7-.7Z" transform="translate(-24.2 53.8) rotate(-12.7)"/>
        <path class="st2" d="M215.9,134.4h3.6c.4,0,.7.3.7.7v5.7c0,.4-.3.7-.7.7h-3.6c-.4,0-.7-.3-.7-.7v-5.7c0-.4.3-.7.7-.7Z" transform="translate(-25.1 51.4) rotate(-12.7)"/>
        <path class="st2" d="M204.5,137h3.6c.4,0,.7.3.7.7v5.7c0,.4-.3.7-.7.7h-3.6c-.4,0-.7-.3-.7-.7v-5.7c0-.4.3-.7.7-.7Z" transform="translate(-25.9 48.9) rotate(-12.7)"/>
        <path class="st2" d="M193.2,139.5h3.6c.4,0,.7.3.7.7v5.7c0,.4-.3.7-.7.7h-3.6c-.4,0-.7-.3-.7-.7v-5.7c0-.4.3-.7.7-.7Z" transform="translate(-26.7 46.5) rotate(-12.7)"/>
        <path class="st2" d="M181.9,142.1h3.6c.4,0,.7.3.7.7v5.7c0,.4-.3.7-.7.7h-3.6c-.4,0-.7-.3-.7-.7v-5.7c0-.4.3-.7.7-.7Z" transform="translate(-27.6 44.1) rotate(-12.7)"/>
        <path class="st2" d="M170.6,144.7h3.6c.4,0,.7.3.7.7v5.7c0,.4-.3.7-.7.7h-3.6c-.4,0-.7-.3-.7-.7v-5.7c0-.4.3-.7.7-.7Z" transform="translate(-28.4 41.6) rotate(-12.7)"/>
      </g>
      <path class="st1" d="M91,103.7l-16.6,3.7,13.8,46,64.2-14.5c-21.9,4.9-61.4-35.2-61.4-35.2Z"/>
      <path class="st0" d="M195.4,162.3h0c-3.4-2.8-7.6-4.3-11.9-4.3l-44.7-.2-20.7,4.7,35.5,9.3,41.9-9.5Z"/>
      <path class="st0" d="M383.7,124.1l-142-18.4c-7.9-1-15.8-.6-23.6,1.1l-18.5,4.2,86,35.2,98-22.2Z"/>
      <path class="st0" d="M377.8,127.1l-82,42.7c-4.5,2.4-9.5,4.2-14.6,5.3l-12.3,2.8,24.7-31.7,84.2-19Z"/>
      <path class="st0" d="M144.5,173.8l23.2,2.3,320.6-72.4c4.6-1,7.3-5.1,7.3-9.2l-351,79.3Z"/>
    </g>
  </g>
</svg>