<?xml version="1.0" encoding="UTF-8"?>
<svg id="Capa_3" xmlns="http://www.w3.org/2000/svg" version="1.1" viewBox="0 0 2122 2122">
  <!-- Generator: Adobe Illustrator 29.1.0, SVG Export Plug-In . SVG Version: 2.1.0 Build 142)  -->
  <defs>
    <style>
      .st0 {
        fill: #27a3da;
      }

      .st1 {
        fill: #909597;
      }

      .st2 {
        fill: #cfd0d1;
      }

      .st3 {
        fill: #ece9e9;
      }

      .st4 {
        fill: #0090ce;
      }

      .st5 {
        fill: #dcdde1;
      }

      .st6 {
        fill: #737878;
      }
    </style>
  </defs>
  <path class="st5" d="M1686.1,1110.2c17.3-50.4,2-130.1-.9-144.2-2,.8-4.2,1.3-6.4,1.3h-96.5c-1.8,0-3.5-.4-5.2-.9-1.2,7.8-4.7,33.1-5.2,62.6l114.3,81.3Z"/>
  <path class="st1" d="M1582.3,967.3h96.5c9.8,0,17.8-8,17.8-17.8h0c0-9.8-8-17.8-17.8-17.8h-96.5c-9.8,0-17.8,8-17.8,17.8h0c0,9.8,8,17.8,17.8,17.8Z"/>
  <path class="st1" d="M1368.7,826.5h88.7c9,0,16.4-7.4,16.4-16.4h0c0-9-7.4-16.4-16.4-16.4h-88.7c-9,0-16.4,7.4-16.4,16.4h0c0,9,7.4,16.4,16.4,16.4Z"/>
  <path class="st2" d="M1686.1,1110.2c17.3-50.4,2-130.1-.9-144.2-2,.8-4.2,1.3-6.4,1.3h-2.3c-.2,7.2.4,14.6,0,21.8-.5,9-2,18.3-4.6,27-5.5,18.2-17.6,31.8-33.1,42.5-4.4,3-9.1,5.7-13.9,8.2l61.2,43.5Z"/>
  <path class="st5" d="M1465.6,953.4c13.6-46.5.3-115.5-2.3-128.1-1.8.7-3.8,1.2-5.9,1.2h-88.7c-1.7,0-3.3-.3-4.8-.8-1,6.7-3.9,27.4-4.7,52.1l106.4,75.6Z"/>
  <path class="st0" d="M1200.9,765.3c-2.7,107.1-8.3,223.4-15.9,338.1l141.7,23.6,582.4,243.9v-102.1l-708.3-503.5Z"/>
  <path class="st2" d="M1465.6,953.4c13.6-46.5.3-115.5-2.3-128.1-1.8.7-3.8,1.2-5.9,1.2h-2.1c-.2,6.7.4,13.4,0,20-.5,8.3-1.9,16.9-4.3,24.8-5.1,16.8-16.2,29.3-30.4,39-2.7,1.8-5.5,3.5-8.3,5.1l53.3,37.9Z"/>
  <path class="st5" d="M764.5,876.1c0-30.2-3.7-57.2-4.9-65-1.5.5-3.1.8-4.8.8h-88.7c-2.1,0-4.1-.4-5.9-1.2-2.8,13.5-18,92.7,1.4,138.5l102.9-73.1Z"/>
  <path class="st5" d="M551.8,1027.3c.5-34.8-3.9-66.7-5.2-75.6-1.7.5-3.4.9-5.2.9h-96.5c-2.3,0-4.4-.5-6.4-1.3-3.1,15.1-20.4,105.2,3.2,154.3l110.2-78.3Z"/>
  <path class="st1" d="M541.3,952.6h-96.5c-9.8,0-17.8-8-17.8-17.8h0c0-9.8,8-17.8,17.8-17.8h96.5c9.8,0,17.8,8,17.8,17.8h0c0,9.8-8,17.8-17.8,17.8Z"/>
  <path class="st1" d="M754.9,811.9h-88.7c-9,0-16.4-7.4-16.4-16.4h0c0-9,7.4-16.4,16.4-16.4h88.7c9,0,16.4,7.4,16.4,16.4h0c0,9-7.4,16.4-16.4,16.4Z"/>
  <path class="st2" d="M510.1,1057c-8.9-3.3-17.5-7.8-25.3-13.1-15.5-10.6-27.6-24.2-33.1-42.5-2.6-8.6-4.1-18-4.6-27-.4-7.2.2-14.5,0-21.8h-2.3c-2.3,0-4.4-.5-6.4-1.3-3.1,15.1-20.4,105.2,3.2,154.3l68.5-48.7Z"/>
  <path class="st2" d="M722.1,906.2c-6.8-2.9-13.2-6.4-19.2-10.5-14.3-9.8-25.4-22.3-30.4-39-2.4-7.9-3.8-16.5-4.3-24.8-.4-6.6.2-13.4,0-20h-2.1c-2.1,0-4.1-.4-5.9-1.2-2.8,13.5-18,92.7,1.4,138.5l60.5-43Z"/>
  <path class="st0" d="M884.8,790.6l-672.7,478.2v102.1l582.4-243.9,114.1-19c-10.5-107.5-18.9-216.2-23.8-317.4Z"/>
  <path class="st4" d="M900.5,1019.4l-137,11.4s-423,243-551.4,318.6v21.6l582.4-243.9,114.1-19c-2.9-29.5-5.6-59.1-8.1-88.6Z"/>
  <path class="st4" d="M1357.8,1030.8l-167.4-14c-1.6,28.8-3.4,57.8-5.3,86.6l141.7,23.6,582.4,243.9v-21.6c-128.5-75.5-551.4-318.6-551.4-318.6Z"/>
  <path class="st0" d="M1142.5,1567.6c-8,64.2-16.3,118.8-24.2,159.6l218.8,74,26.5-49.8-221.1-183.8Z"/>
  <path class="st0" d="M969.9,1582.3l-212.2,176.4,26.5,49.8,216.1-73.1c-9.6-38.8-19.9-91.2-30.4-153.1Z"/>
  <path class="st5" d="M1199.6,492.5c-12-243-115.6-272.2-161.9-272.5-44.7-.2-142.3,22.4-155.5,289.1-19.8,399.7,97.5,1272.6,146,1299-2.6-94.3,17.2-227.6,18.1-236.2,2.3-22.2,22.2-21,25.6-1.4,2.2,12.6,21.5,143.2,19.6,236.5,46.4-11.4,128-910.1,108.1-1314.5Z"/>
  <path class="st1" d="M1046.2,1571.9c-1.4,13.5-48.8,329.6,14.4,329.5,60.2,0,14.7-311.1,11.2-330.9-3.4-19.6-23.3-20.8-25.6,1.4Z"/>
  <path class="st1" d="M912.3,474.3h0c0-8.2,6.7-15,15-15h24.4c8.2,0,15,6.7,15,15h0c0,8.2-6.7,15-15,15h-24.4c-8.2,0-15-6.7-15-15Z"/>
  <path class="st1" d="M912.3,538h0c0-8.2,6.7-15,15-15h24.4c8.2,0,15,6.7,15,15h0c0,8.2-6.7,15-15,15h-24.4c-8.2,0-15-6.7-15-15Z"/>
  <path class="st1" d="M909.4,601.7h0c0-8.2,6.7-15,15-15h24.4c8.2,0,15,6.7,15,15h0c0,8.2-6.7,15-15,15h-24.4c-8.2,0-15-6.7-15-15Z"/>
  <path class="st1" d="M909.4,665.5h0c0-8.2,6.7-15,15-15h24.4c8.2,0,15,6.7,15,15h0c0,8.2-6.7,15-15,15h-24.4c-8.2,0-15-6.7-15-15Z"/>
  <path class="st1" d="M909.4,729.2h0c0-8.2,6.7-15,15-15h24.4c8.2,0,15,6.7,15,15h0c0,8.2-6.7,15-15,15h-24.4c-8.2,0-15-6.7-15-15Z"/>
  <path class="st1" d="M909.4,792.9h0c0-8.2,6.7-15,15-15h24.4c8.2,0,15,6.7,15,15h0c0,8.2-6.7,15-15,15h-24.4c-8.2,0-15-6.7-15-15Z"/>
  <path class="st1" d="M909.4,856.7h0c0-8.2,6.7-15,15-15h24.4c8.2,0,15,6.7,15,15h0c0,8.2-6.7,15-15,15h-24.4c-8.2,0-15-6.7-15-15Z"/>
  <path class="st1" d="M912.5,922.9h0c-.8-8.2,5.3-15.5,13.5-16.3l24.3-2.2c8.2-.8,15.5,5.3,16.3,13.5h0c.8,8.2-5.3,15.5-13.5,16.3l-24.3,2.2c-8.2.8-15.5-5.3-16.3-13.5Z"/>
  <path class="st1" d="M919.2,986.6h0c-.8-8.2,5.3-15.5,13.5-16.3l24.3-2.2c8.2-.8,15.5,5.3,16.3,13.5h0c.8,8.2-5.3,15.5-13.5,16.3l-24.3,2.2c-8.2.8-15.5-5.3-16.3-13.5Z"/>
  <path class="st1" d="M925.6,1050.4h0c-.8-8.2,5.3-15.5,13.5-16.3l24.3-2.2c8.2-.8,15.5,5.3,16.3,13.5h0c.8,8.2-5.3,15.5-13.5,16.3l-24.3,2.2c-8.2.8-15.5-5.3-16.3-13.5Z"/>
  <path class="st1" d="M932.8,1115.3h0c-1.1-8.2,4.6-15.7,12.8-16.8l24.2-3.3c8.2-1.1,15.7,4.6,16.8,12.8h0c1.1,8.2-4.6,15.7-12.8,16.8l-24.2,3.3c-8.2,1.1-15.7-4.6-16.8-12.8Z"/>
  <path class="st1" d="M939.1,1179h0c-1.1-8.2,4.6-15.7,12.8-16.8l24.2-3.3c8.2-1.1,15.7,4.6,16.8,12.8h0c1.1,8.2-4.6,15.7-12.8,16.8l-24.2,3.3c-8.2,1.1-15.7-4.6-16.8-12.8Z"/>
  <path class="st1" d="M947.4,1242.7h0c-1.1-8.2,4.6-15.7,12.8-16.8l24.2-3.3c8.2-1.1,15.7,4.6,16.8,12.8h0c1.1,8.2-4.6,15.7-12.8,16.8l-24.2,3.3c-8.2,1.1-15.7-4.6-16.8-12.8Z"/>
  <path class="st1" d="M953.8,1306.5h0c-1.1-8.2,4.6-15.7,12.8-16.8l24.2-3.3c8.2-1.1,15.7,4.6,16.8,12.8h0c1.1,8.2-4.6,15.7-12.8,16.8l-24.2,3.3c-8.2,1.1-15.7-4.6-16.8-12.8Z"/>
  <path class="st1" d="M959.8,1370.2h0c-1.1-8.2,4.6-15.7,12.8-16.8l24.2-3.3c8.2-1.1,15.7,4.6,16.8,12.8h0c1.1,8.2-4.6,15.7-12.8,16.8l-24.2,3.3c-8.2,1.1-15.7-4.6-16.8-12.8Z"/>
  <path class="st1" d="M968.6,1434h0c-1.1-8.2,4.6-15.7,12.8-16.8l24.2-3.3c8.2-1.1,15.7,4.6,16.8,12.8h0c1.1,8.2-4.6,15.7-12.8,16.8l-24.2,3.3c-8.2,1.1-15.7-4.6-16.8-12.8Z"/>
  <path class="st1" d="M1159.5,470.1h0c-.2-8.2-7.2-14.8-15.4-14.5l-24.4.7c-8.2.2-14.8,7.2-14.5,15.4h0c.2,8.2,7.2,14.8,15.4,14.5l24.4-.7c8.2-.2,14.8-7.2,14.5-15.4Z"/>
  <path class="st1" d="M1161.4,533.8h0c-.2-8.2-7.2-14.8-15.4-14.5l-24.4.7c-8.2.2-14.8,7.2-14.5,15.4h0c.2,8.2,7.2,14.8,15.4,14.5l24.4-.7c8.2-.2,14.8-7.2,14.5-15.4Z"/>
  <path class="st1" d="M1166.2,597.5h0c-.2-8.2-7.2-14.8-15.4-14.5l-24.4.7c-8.2.2-14.8,7.2-14.5,15.4h0c.2,8.2,7.2,14.8,15.4,14.5l24.4-.7c8.2-.2,14.8-7.2,14.5-15.4Z"/>
  <path class="st1" d="M1168,661.2h0c-.2-8.2-7.2-14.8-15.4-14.5l-24.4.7c-8.2.2-14.8,7.2-14.5,15.4h0c.2,8.2,7.2,14.8,15.4,14.5l24.4-.7c8.2-.2,14.8-7.2,14.5-15.4Z"/>
  <path class="st1" d="M1169.9,724.9h0c-.2-8.2-7.2-14.8-15.4-14.5l-24.4.7c-8.2.2-14.8,7.2-14.5,15.4h0c.2,8.2,7.2,14.8,15.4,14.5l24.4-.7c8.2-.2,14.8-7.2,14.5-15.4Z"/>
  <path class="st1" d="M1171.8,788.6h0c-.2-8.2-7.2-14.8-15.4-14.5l-24.4.7c-8.2.2-14.8,7.2-14.5,15.4h0c.2,8.2,7.2,14.8,15.4,14.5l24.4-.7c8.2-.2,14.8-7.2,14.5-15.4Z"/>
  <path class="st1" d="M1173.6,852.3h0c-.2-8.2-7.2-14.8-15.4-14.5l-24.4.7c-8.2.2-14.8,7.2-14.5,15.4h0c.2,8.2,7.2,14.8,15.4,14.5l24.4-.7c8.2-.2,14.8-7.2,14.5-15.4Z"/>
  <path class="st1" d="M1172.5,918.6h0c.5-8.2-5.8-15.4-14-15.9l-24.4-1.5c-8.2-.5-15.4,5.8-15.9,14h0c-.5,8.2,5.8,15.4,14,15.9l24.4,1.5c8.2.5,15.4-5.8,15.9-14Z"/>
  <path class="st1" d="M1167.7,982.5h0c.5-8.2-5.8-15.4-14-15.9l-24.4-1.5c-8.2-.5-15.4,5.8-15.9,14h0c-.5,8.2,5.8,15.4,14,15.9l24.4,1.5c8.2.5,15.4-5.8,15.9-14Z"/>
  <path class="st1" d="M1163.1,1046.4h0c.5-8.2-5.8-15.4-14-15.9l-24.4-1.5c-8.2-.5-15.4,5.8-15.9,14h0c-.5,8.2,5.8,15.4,14,15.9l24.4,1.5c8.2.5,15.4-5.8,15.9-14Z"/>
  <path class="st1" d="M1157.9,1111.5h0c.9-8.2-5.1-15.6-13.3-16.5l-24.3-2.6c-8.2-.9-15.6,5.1-16.5,13.3h0c-.9,8.2,5.1,15.6,13.3,16.5l24.3,2.6c8.2.9,15.6-5.1,16.5-13.3Z"/>
  <path class="st1" d="M1153.4,1175.4h0c.9-8.2-5.1-15.6-13.3-16.5l-24.3-2.6c-8.2-.9-15.6,5.1-16.5,13.3h0c-.9,8.2,5.1,15.6,13.3,16.5l24.3,2.6c8.2.9,15.6-5.1,16.5-13.3Z"/>
  <path class="st1" d="M1147,1239.3h0c.9-8.2-5.1-15.6-13.3-16.5l-24.3-2.6c-8.2-.9-15.6,5.1-16.5,13.3h0c-.9,8.2,5.1,15.6,13.3,16.5l24.3,2.6c8.2.9,15.6-5.1,16.5-13.3Z"/>
  <path class="st1" d="M1142.4,1303.2h0c.9-8.2-5.1-15.6-13.3-16.5l-24.3-2.6c-8.2-.9-15.6,5.1-16.5,13.3h0c-.9,8.2,5.1,15.6,13.3,16.5l24.3,2.6c8.2.9,15.6-5.1,16.5-13.3Z"/>
  <path class="st1" d="M1138.3,1367.1h0c.9-8.2-5.1-15.6-13.3-16.5l-24.3-2.6c-8.2-.9-15.6,5.1-16.5,13.3h0c-.9,8.2,5.1,15.6,13.3,16.5l24.3,2.6c8.2.9,15.6-5.1,16.5-13.3Z"/>
  <path class="st1" d="M1131.3,1431.1h0c.9-8.2-5.1-15.6-13.3-16.5l-24.3-2.6c-8.2-.9-15.6,5.1-16.5,13.3h0c-.9,8.2,5.1,15.6,13.3,16.5l24.3,2.6c8.2.9,15.6-5.1,16.5-13.3Z"/>
  <path class="st3" d="M1028.7,1158.2c-.4-5.8-35.4-669-21.4-734.6,7.3-34.4,64-22.1,64-1.1s-5.8,741.4-10.6,749.9c-4.8,8.5-29.7,18.6-32-14.3Z"/>
  <g>
    <path class="st0" d="M966.5,293.5c-8.4,9.3-13.5,17.7-15,21.5-5.2,12.5,23.6,38.3,37.3,23.1,2.3-2.5,5.4-6.1,9.2-10l-31.5-34.5Z"/>
    <path class="st0" d="M1090.4,273.3c-12.9-8-28.3-13.8-45.7-14.7-25.8-1.3-46.6,8.3-62.1,20.1l31.4,36.4c8.2-5.1,18.2-9,29.9-9s9.8.4,16.1,2.5l30.4-35.3Z"/>
    <path class="st0" d="M1107.7,286.8l-30,32.9c5.1,5.1,9.9,12.2,13.8,21.9,3.3,8.3,41.6-2,40.1-14.2-1.3-11.3-9.9-27-24-40.6Z"/>
  </g>
  <path class="st4" d="M1172.7,1695.4c-30.3-43.9-17.2-87.9-17.4-117.1l-12.8-10.7c-8,64.2-16.3,118.8-24.2,159.6l218.8,74,13-24.4c-7.2-3-147.5-38.1-177.4-81.5Z"/>
  <path class="st4" d="M969.9,1582.3l-21.4,17.8c1.8,8.8,11.2,30.1-8.3,74.2-35.6,80.8-149.5,101.9-168.4,110.9l12.4,23.3,216.1-73.1c-9.6-38.8-19.9-91.2-30.4-153.1Z"/>
  <path class="st6" d="M1075.7,1765.8c-8.6,6-19.1,5.7-28.3,1.4-8.1-3.8-14.2-10.3-18.6-17.9-3.5,78,1.2,152.1,31.8,152,29.7,0,33.7-75.5,29.7-154.4-3.4,7.6-8,14.2-14.6,18.9Z"/>
</svg>