<?xml version="1.0" encoding="UTF-8"?>
<svg id="_x3C_Layer_x3E_" xmlns="http://www.w3.org/2000/svg" version="1.1" xmlns:xlink="http://www.w3.org/1999/xlink" viewBox="0 0 3000 2000">
  <!-- Generator: Adobe Illustrator 29.1.0, SVG Export Plug-In . SVG Version: 2.1.0 Build 142)  -->
  <defs>
    <style>
      .st0 {
        clip-path: url(#clippath-4);
      }

      .st1 {
        fill: #fff;
      }

      .st2 {
        fill: #f78978;
      }

      .st3 {
        fill: none;
      }

      .st4 {
        clip-path: url(#clippath-1);
      }

      .st5 {
        fill: #100259;
      }

      .st6 {
        fill: #ffa089;
      }

      .st7 {
        fill: #89b4fd;
      }

      .st8 {
        clip-path: url(#clippath-3);
      }

      .st9 {
        fill: #bbcff8;
      }

      .st10 {
        fill: #e96f5f;
      }

      .st11 {
        fill: #8dace2;
      }

      .st12 {
        fill: #dae6ff;
      }

      .st13 {
        fill: #1e66bc;
      }

      .st14 {
        clip-path: url(#clippath-2);
      }

      .st15 {
        fill: #2a6fd3;
      }

      .st16 {
        clip-path: url(#clippath);
      }
    </style>
    <clipPath id="clippath">
      <path class="st3" d="M2479.9,1771.6c-71.4,22.9-158.3,29.1-227.4,24.3,0,0-1269.7,122.3-1728.7-3.1-339.7-92.8-298.7-423.2-194.7-634.7,105.1-213.9-170.8-627.3,272.8-867.1,255.2-137.9,484.1,82.8,925.2-80.1,398.3-147.1,912-15.5,1037.7,292.9,86.4,212.2-22.5,440.9,86.4,551.8,176.7,179.8,95.4,630.5-171.3,715.9Z"/>
    </clipPath>
    <clipPath id="clippath-1">
      <path class="st3" d="M2479.9,1771.6c-71.4,22.9-158.3,29.1-227.4,24.3,0,0-1269.7,122.3-1728.7-3.1-339.7-92.8-298.7-423.2-194.7-634.7,105.1-213.9-170.8-627.3,272.8-867.1,255.2-137.9,484.1,82.8,925.2-80.1,398.3-147.1,912-15.5,1037.7,292.9,86.4,212.2-22.5,440.9,86.4,551.8,176.7,179.8,95.4,630.5-171.3,715.9Z"/>
    </clipPath>
    <clipPath id="clippath-2">
      <path class="st3" d="M2479.9,1771.6c-71.4,22.9-158.3,29.1-227.4,24.3,0,0-1269.7,122.3-1728.7-3.1-339.7-92.8-298.7-423.2-194.7-634.7,105.1-213.9-170.8-627.3,272.8-867.1,255.2-137.9,484.1,82.8,925.2-80.1,398.3-147.1,912-15.5,1037.7,292.9,86.4,212.2-22.5,440.9,86.4,551.8,176.7,179.8,95.4,630.5-171.3,715.9Z"/>
    </clipPath>
    <clipPath id="clippath-3">
      <path class="st3" d="M2479.9,1771.6c-71.4,22.9-158.3,29.1-227.4,24.3,0,0-1269.7,122.3-1728.7-3.1-339.7-92.8-298.7-423.2-194.7-634.7,105.1-213.9-170.8-627.3,272.8-867.1,255.2-137.9,484.1,82.8,925.2-80.1,398.3-147.1,912-15.5,1037.7,292.9,86.4,212.2-22.5,440.9,86.4,551.8,176.7,179.8,95.4,630.5-171.3,715.9Z"/>
    </clipPath>
    <clipPath id="clippath-4">
      <path class="st3" d="M2479.9,1771.6c-71.4,22.9-158.3,29.1-227.4,24.3,0,0-1269.7,122.3-1728.7-3.1-339.7-92.8-298.7-423.2-194.7-634.7,105.1-213.9-170.8-627.3,272.8-867.1,255.2-137.9,484.1,82.8,925.2-80.1,398.3-147.1,912-15.5,1037.7,292.9,86.4,212.2-22.5,440.9,86.4,551.8,176.7,179.8,95.4,630.5-171.3,715.9Z"/>
    </clipPath>
  </defs>
  <g class="st16">
    <path class="st12" d="M2479.9,1771.6c-71.4,22.9-158.3,29.1-227.4,24.3,0,0-1269.7,122.3-1728.7-3.1-339.7-92.8-298.7-423.2-194.7-634.7,105.1-213.9-170.8-627.3,272.8-867.1,255.2-137.9,484.1,82.8,925.2-80.1,398.3-147.1,912-15.5,1037.7,292.9,86.4,212.2-22.5,440.9,86.4,551.8,176.7,179.8,95.4,630.5-171.3,715.9Z"/>
  </g>
  <g class="st4">
    <g>
      <g>
        <path class="st9" d="M2445.5,1901.8c.2,0,.5-.1.7-.2,2-.7,3-2.9,2.2-4.9-194.3-517-363.8-879.8-477.3-1021.5-2.5-3.1-4.3-5.4-5.1-6.6-1.1-1.8-3.5-2.4-5.3-1.3-1.8,1.1-2.4,3.5-1.3,5.3,1,1.6,2.7,3.8,5.6,7.4,113,141.2,282.1,503.2,476.1,1019.5.6,1.7,2.4,2.7,4.2,2.4Z"/>
        <path class="st9" d="M1897.3,852.8c13.4,15.9,77.1,42.4,81.7,38.5,4.5-3.8-10.8-71.1-24.2-87-13.4-15.9-37.1-17.9-53-4.5-15.9,13.4-17.9,37.1-4.5,53Z"/>
        <path class="st9" d="M2019.8,895.6c-4.7,20.7,12.9,89.1,18.8,90.4,5.9,1.4,51.4-52.6,56.2-73.3,4.7-20.7-8.2-41.3-28.9-46-20.7-4.7-41.3,8.2-46,28.9Z"/>
        <path class="st9" d="M1954.4,1021.6c21.2,0,83.9-32.6,83.9-38.7s-62.9-38.3-84.1-38.2c-21.2,0-38.4,17.3-38.3,38.6,0,21.2,17.3,38.4,38.6,38.3Z"/>
        <path class="st9" d="M2224.6,1233.1c-11.6,33.7,5.4,151,15,154.3,9.6,3.3,95.4-78.5,107-112.2,11.6-33.7-6.3-70.4-40-82.1-33.7-11.6-70.4,6.3-82.1,40Z"/>
        <path class="st9" d="M2092.7,1431.7c35.4,3.7,145.9-39.3,147-49.4,1.1-10.1-98-75.2-133.4-79-35.5-3.7-67.2,22-71,57.4-3.7,35.4,22,67.2,57.4,71Z"/>
        <path class="st9" d="M2326,1358.8c-23,37.1-34.2,181.7-23.6,188.3,10.6,6.6,135-68,158-105.1,23-37.1,11.5-85.8-25.6-108.7-37.1-23-85.8-11.5-108.7,25.6Z"/>
        <path class="st9" d="M2135.8,1619.9c43.6,0,172.7-66.2,172.7-78.6,0-12.4-128.7-79.3-172.4-79.4-43.6,0-79.1,35.2-79.2,78.8,0,43.6,35.2,79.1,78.8,79.2Z"/>
        <path class="st9" d="M2394.8,1527c-23,37.1-34.2,181.7-23.6,188.3,10.6,6.6,135-68,158-105.1,23-37.1,11.5-85.8-25.6-108.7-37.1-23-85.8-11.5-108.7,25.6Z"/>
        <path class="st9" d="M2204.7,1788.1c43.6,0,172.7-66.2,172.7-78.6,0-12.4-128.7-79.3-172.4-79.4-43.6,0-79.1,35.2-79.2,78.8,0,43.6,35.2,79.1,78.8,79.2Z"/>
        <path class="st9" d="M2534.9,1734.7c-35.4,25.6-100.9,155-93.6,165.1,7.3,10.1,150.7-11.5,186.1-37,35.4-25.6,43.3-74.9,17.8-110.3-25.6-35.4-74.9-43.3-110.3-17.8Z"/>
        <path class="st9" d="M2266.8,1954.9c43.3,5.5,179.6-44.1,181.2-56.4,1.6-12.3-117.8-94.7-161.1-100.3-43.3-5.5-82.8,25-88.4,68.3-5.5,43.3,25,82.8,68.3,88.4Z"/>
        <path class="st9" d="M2083,1000.7c-4.8,21,13.1,90.5,19.1,91.9,6,1.4,52.3-53.5,57.1-74.5,4.8-21-8.4-42-29.4-46.8-21-4.8-42,8.4-46.8,29.4Z"/>
        <path class="st9" d="M2019.5,1129.9c21.6,0,85.2-33.1,85.2-39.3,0-6.2-63.9-38.9-85.4-38.8-21.6,0-39,17.6-39,39.2,0,21.6,17.6,39,39.2,39Z"/>
        <path class="st9" d="M2153.6,1097.5c-9.2,29.2,8,129.7,16.3,132.3,8.3,2.6,80.2-69.6,89.5-98.8,9.2-29.2-6.9-60.4-36.2-69.7-29.2-9.2-60.4,6.9-69.7,36.2Z"/>
        <path class="st9" d="M2049.5,1282.2c30.7,0,121.1-47.1,121.1-55.8,0-8.8-90.7-55.3-121.4-55.2-30.7,0-55.4,25-55.4,55.7,0,30.7,25,55.4,55.7,55.4Z"/>
      </g>
      <g>
        <path class="st11" d="M719.4,1923.3c-.1,0-.2,0-.4,0-1-.3-1.6-1.3-1.3-2.3,67-259.4,130-443.2,177.5-517.5,1.1-1.6,1.8-2.8,2.1-3.4.4-.9,1.6-1.3,2.5-.9.9.4,1.3,1.5.9,2.5-.4.8-1.1,2-2.3,3.8-47.2,73.9-110.1,257.3-177,516.4-.2.9-1,1.4-1.9,1.4Z"/>
        <path class="st11" d="M929.7,1389c-5.6,8.3-35,24.4-37.4,22.8-2.4-1.6,1.5-34.9,7.2-43.2,5.6-8.3,17-10.5,25.3-4.9,8.3,5.6,10.5,17,4.9,25.3Z"/>
        <path class="st11" d="M872.8,1415.9c3.3,9.7-1.6,43.6-4.4,44.6-2.8,1-27.5-22.7-30.9-32.5-3.3-9.7,1.8-20.4,11.6-23.7s20.4,1.8,23.7,11.6Z"/>
        <path class="st11" d="M910.8,1473.4c-10.2,1.1-42.2-11.4-42.5-14.3-.3-2.9,28.3-21.7,38.6-22.8,10.2-1.1,19.4,6.4,20.5,16.6,1.1,10.2-6.4,19.4-16.6,20.5Z"/>
        <path class="st11" d="M791.4,1589.3c7.4,15.7,5.2,73.1.7,75.2s-50.1-32.9-57.4-48.6c-7.4-15.7-.6-34.3,15-41.7,15.7-7.4,34.3-.6,41.7,15Z"/>
        <path class="st11" d="M865.3,1678.3c-16.9,3.6-72.4-11.4-73.5-16.2-1-4.8,43.4-41.4,60.3-45,16.9-3.6,33.6,7.1,37.2,24,3.6,16.9-7.1,33.6-24,37.2Z"/>
        <path class="st11" d="M749,1655.2c13,16.7,25.9,85.9,21.1,89.6-4.8,3.7-68.6-25.8-81.6-42.6-13-16.7-10-40.8,6.7-53.8,16.7-13,40.8-10,53.8,6.7Z"/>
        <path class="st11" d="M854.2,1771.3c-21,2.3-86.7-23-87.4-29-.7-6,58-44.9,79-47.2,21-2.3,40,12.9,42.3,33.9,2.3,21-12.9,40-33.9,42.3Z"/>
        <path class="st11" d="M724.5,1739.9c13,16.7,25.9,85.9,21.1,89.6-4.8,3.7-68.6-25.8-81.6-42.6-13-16.7-10-40.8,6.7-53.8,16.7-13,40.8-10,53.8,6.7Z"/>
        <path class="st11" d="M829.7,1856c-21,2.3-86.7-23-87.4-29-.7-6,58-44.9,79-47.2,21-2.3,40,12.9,42.3,33.9,2.3,21-12.9,40-33.9,42.3Z"/>
        <path class="st11" d="M667.7,1847.4c18.4,10.5,56.7,69.6,53.7,74.8-3,5.2-73.3,2.3-91.7-8.2-18.4-10.5-24.8-33.9-14.3-52.3,10.5-18.4,33.9-24.8,52.3-14.3Z"/>
        <path class="st11" d="M808.4,1939.7c-20.6,4.9-88.9-12-90.3-17.8-1.4-5.9,51.9-51.8,72.5-56.7,20.6-4.9,41.3,7.8,46.2,28.4,4.9,20.6-7.8,41.3-28.4,46.2Z"/>
        <path class="st11" d="M847.7,1469.9c3.4,9.9-1.6,44.3-4.5,45.3-2.8,1-28-23.1-31.4-33-3.4-9.9,1.9-20.7,11.8-24.1,9.9-3.4,20.7,1.9,24.1,11.8Z"/>
        <path class="st11" d="M885,1529c-10.4,1.1-42.8-11.6-43.1-14.6-.3-3,28.8-22.1,39.2-23.2s19.7,6.5,20.8,16.9c1.1,10.4-6.5,19.7-16.9,20.8Z"/>
        <path class="st11" d="M818.6,1520.3c6,13.6,2.8,63-1,64.7-3.9,1.7-42.3-29.4-48.3-43.1-6-13.6.2-29.5,13.9-35.5,13.6-6,29.5.2,35.5,13.9Z"/>
        <path class="st11" d="M878.4,1604c-14.8,1.5-60.9-16.5-61.3-20.7-.4-4.2,40.9-31.3,55.7-32.9s28,9.2,29.6,24c1.5,14.8-9.2,28-24,29.6Z"/>
      </g>
      <g>
        <path class="st9" d="M447.5,1793.7c-.2,0-.4,0-.5,0-1.5-.2-2.6-1.5-2.4-3,47.8-390.5,104.3-670.2,159.1-787.4,1.2-2.6,2.1-4.5,2.4-5.4.5-1.4,2-2.2,3.4-1.8,1.4.5,2.2,2,1.8,3.4-.4,1.2-1.2,3.1-2.6,6-54.6,116.7-110.9,395.8-158.6,785.7-.2,1.3-1.2,2.3-2.5,2.4Z"/>
        <path class="st9" d="M651.1,975.4c-6.6,13.2-46.3,42.3-50.1,40.4-3.8-1.9-4.5-51.1,2.2-64.3,6.6-13.2,22.7-18.6,35.9-12,13.2,6.6,18.6,22.7,12,35.9Z"/>
        <path class="st9" d="M573.4,1025.6c6.7,13.5,6,63.8,2.2,65.8-3.9,1.9-44.5-27.8-51.2-41.3-6.7-13.5-1.2-30,12.3-36.7,13.5-6.7,30-1.2,36.7,12.3Z"/>
        <path class="st9" d="M639.9,1101.9c-14.7,3.5-63.6-8.5-64.6-12.7-1-4.2,37.1-37.1,51.8-40.6s29.5,5.6,33,20.3c3.5,14.7-5.6,29.5-20.3,33Z"/>
        <path class="st9" d="M488.3,1293.6c13.7,21.4,21.6,105.5,15.5,109.4-6.1,3.9-79.2-38.4-92.9-59.7s-7.5-49.8,13.9-63.5c21.4-13.7,49.8-7.5,63.5,13.9Z"/>
        <path class="st9" d="M612.9,1409c-23.9,8.5-107.6-2.7-110-9.5-2.4-6.8,55.2-68.5,79.1-77.1,23.9-8.5,50.2,3.9,58.8,27.8,8.5,23.9-3.9,50.2-27.8,58.8Z"/>
        <path class="st9" d="M439.2,1397.7c22.1,21.8,54.2,120.1,48,126.4-6.2,6.3-104.9-24.4-127-46.3-22.1-21.8-22.4-57.5-.5-79.6,21.8-22.1,57.5-22.4,79.6-.5Z"/>
        <path class="st9" d="M614.6,1546.5c-30.2,7.4-130.6-16.8-132.8-25.5-2.1-8.6,75.8-76.5,106-83.9,30.2-7.4,60.6,11.1,68,41.3,7.4,30.2-11.1,60.6-41.3,68Z"/>
        <path class="st9" d="M419.7,1525.7c22.1,21.8,54.2,120.1,48,126.4-6.2,6.3-104.9-24.4-127-46.3-22.1-21.8-22.4-57.5-.5-79.6,21.8-22.1,57.5-22.4,79.6-.5Z"/>
        <path class="st9" d="M595.2,1674.5c-30.2,7.4-130.7-16.8-132.8-25.5-2.1-8.6,75.8-76.5,106-83.9,30.2-7.4,60.6,11.1,68,41.3,7.4,30.2-11.1,60.6-41.3,68Z"/>
        <path class="st9" d="M357.6,1693c28.8,11.8,95.8,90.4,92.5,98.6-3.4,8.2-106.3,17.3-135.1,5.6-28.8-11.8-42.6-44.6-30.8-73.4,11.8-28.8,44.6-42.6,73.4-30.8Z"/>
        <path class="st9" d="M580.2,1800.4c-29,11.1-131.7-.4-134.9-8.7-3.2-8.3,65.7-85.4,94.7-96.5,29-11.1,61.6,3.4,72.7,32.5,11.1,29-3.4,61.6-32.5,72.7Z"/>
        <path class="st9" d="M547.3,1109c6.9,13.8,6.1,64.9,2.2,66.8-3.9,2-45.2-28.2-52-42-6.9-13.8-1.3-30.5,12.5-37.3,13.8-6.9,30.5-1.3,37.3,12.5Z"/>
        <path class="st9" d="M613,1187.8c-14.9,3.6-64.6-8.6-65.6-12.9-1-4.3,37.7-37.6,52.6-41.2,14.9-3.6,30,5.6,33.5,20.6,3.6,14.9-5.6,30-20.6,33.5Z"/>
        <path class="st9" d="M514.7,1187.8c11.3,18.7,16.2,91.1,10.9,94.4-5.3,3.2-67.2-34.7-78.5-53.4-11.3-18.7-5.3-43,13.4-54.3,18.7-11.3,43-5.3,54.3,13.4Z"/>
        <path class="st9" d="M617.7,1298.2c-21.2,5.1-91.8-12.3-93.2-18.3-1.5-6.1,53.6-53.5,74.8-58.6,21.2-5.1,42.6,8,47.7,29.2,5.1,21.2-8,42.6-29.2,47.7Z"/>
      </g>
      <g>
        <path class="st10" d="M1201.4,1521.3s34.8-67.9,30.8-93.8c-3.9-25.8-25.1-99.3-19.6-126.7,1.7-8.5,19.7-73.8,36-82.7,11-6,35.3,18.7,26.8,52.1-14.8,58,2.8,92.2,12.4,116.9,16.3,42,22.6,67.1,23.1,46.7,0,0-7.6-62.9-4.6-90.3.8-7.4,17.2-64.2,32.9-69.4,8.5-2.8,35.1,11.3,24.6,63.6-6.9,34.3,12.3,56.8,26.5,80.6,12.2,20.5,71.8,72.6,71.8,72.6l-80.6,61.4-180.1-30.8Z"/>
        <path class="st2" d="M1149.5,1410.5s-37.9-107.5-40.8-151.6c-1.1-17.7.6-76.1,15.1-86.2,23.9-16.7,51.3,25.2,48.8,78.8-2.5,53.2,49.3,94.8,74.3,129.9,62.1,87.2,99.5,139.7,99.5,139.7l-196.9-110.6Z"/>
        <path class="st13" d="M1269.9,1026.6c-8-8,8-9.5,8-26.3v-14.9c0-48.1,10.9-88,32.6-119.7,21.8-31.7,57.1-62.8,106-93.4,27.5-16,47.5-29,60.1-38.9,12.6-9.9,21.6-20.2,26.9-30.9,5.3-10.7,8-24.4,8-41.2,0-28.3-10.5-50-31.5-65.3-21-15.3-51.4-22.9-91.1-22.9-62.6,0-118.8,16.4-168.4,49.3-9.2,5.4-15.3,8-18.3,8-6.9,0-31.5-10.9-36.1-19.3l-25.8-70c-3.1-5.3-4.6-9.9-4.6-13.8,0-6.9,4.2-13,12.6-18.3,71-48.1,159.2-72.2,264.6-72.2s154.6,19.7,207.3,59,79.1,94.1,79.1,164.4-10.7,83.6-32.1,113.4c-21.4,29.8-55.8,58-103.1,84.8-37.4,21.4-63,41.2-76.7,59.6-13.8,18.3-20.6,41.6-20.6,69.9v12.6c0,16.8-3.8,29.2-11.5,37.2-7.6,8-21,12-40.1,12h-85.9c-18.3,0-51.6-15-59.6-23ZM1269.9,1208.3c-11.8-9.5,0-12.1,0-28.1v-24.1c0-16.8,5.9-30,17.7-39.5,11.8-9.5,28.8-14.3,51-14.3h66.4c22.9,0,40.3,4.8,52.1,14.3,11.8,9.5,17.8,22.7,17.8,39.5v24.1c0,16.8-5.9,29.8-17.8,38.9-11.8,9.2-29.2,13.8-52.1,13.8h-66.4c-22.2,0-56.9-15-68.7-24.6Z"/>
        <g>
          <path class="st6" d="M2079.7,1567.7c-27.1-7.5-52.6-14.6-74.7-21.1-12.3-3.6-23.7-7-33.7-10.1-16.2-5-29-9.3-37.2-12.5-21.1-8.3-54.2-16.4-81.4-32.5h0c-18.4-10.9-34-25.4-41.2-46.2-18-51.4-114.1-142.4-201-201.8-47.4-32.4-95.8-85.4-113.3-106.8-13.8-16.9-61.7-89.4-80-95.2-10.8-3.4-36.8,26.4-40.1,43.4-7,36.5,18.5,82.6,69.3,152.7,48.4,66.7,54.4,105.4,52.3,141.6-1.4,23.5-6.2,47-34.7,68.1-3.4,2.5-13.4,11.1-28,19.7-30.5,18-80.7,35.7-129.8-3.6-.6-.5-1.2-.9-1.8-1.4h0s0,0,0,0c-21.3-16.4-48.3-26.7-72.7-38-25.6-11.8-48.3-24.8-58.6-47.1-12.5-27.2-34.6-51.4-57.4-78.7h0c-16.5-19.8-33.5-41.1-47.5-66.4-34.1-61.7-73.5-57.8-87.1-32-7.4,14,26.9,111.5,33.7,125.2,9,18.3,82.3,140.6,98.1,160.1,38.8,48.2,206.1,192.1,238,216.7,54,41.7,202.2,51.4,324.8,71.9,8.2,1.4,16.4,2.9,24.6,4.5h0c44.8,8.8,88.9,20.8,131.9,36.1,13.6,4.8,27.1,10,40.5,15.4,6,2.5,12.1,5,18,7.6,86.1-94.1,146.4-183.9,189-269.5Z"/>
          <polygon class="st7" points="1861.4 1853.9 1699.5 1777.7 1852.5 1491.5 2010.3 1535.3 1861.4 1853.9"/>
          <path class="st5" d="M2619.3,1684.5l-639.8-164.3-2.9,5.8-5.3,10.6-139.1,277.6-10.5,21-9.6,19.1,477,269.3c108.6-100.7,211-328.7,330.3-439.1Z"/>
          <path class="st5" d="M1894.1,1543.6c5,4.7,13,4.5,17.7-.5,4.7-5,4.5-13-.5-17.7-5-4.7-13-4.5-17.7.5-4.7,5-4.5,13,.5,17.7Z"/>
        </g>
        <path class="st15" d="M1264.1,1021.9c-8-8-12-20.4-12-37.2v-14.9c0-48.1,10.9-88,32.6-119.7s57.1-62.8,106-93.4c27.5-16,47.5-29,60.1-38.9s21.6-20.2,26.9-30.9c5.3-10.7,8-24.4,8-41.2,0-28.3-10.5-50-31.5-65.3-21-15.3-51.4-22.9-91.1-22.9-62.6,0-118.8,16.4-168.4,49.3-9.2,5.4-15.3,8-18.3,8-6.9,0-12.6-4.2-17.2-12.6l-44.7-76.7c-3.1-5.3-4.6-9.9-4.6-13.8,0-6.9,4.2-13,12.6-18.3,71-48.1,159.2-72.2,264.6-72.2s154.6,19.7,207.3,59c52.7,39.3,79.1,94.1,79.1,164.4s-10.7,83.6-32.1,113.4c-21.4,29.8-55.8,58-103.1,84.8-37.4,21.4-63,41.2-76.7,59.6-13.8,18.3-20.6,41.6-20.6,69.9v12.6c0,16.8-3.8,29.2-11.5,37.2-7.6,8-21,12-40.1,12h-85.9c-18.3,0-31.5-4-39.5-12ZM1261.8,1202.9c-11.8-9.5-17.7-22.3-17.7-38.4v-24.1c0-16.8,5.9-30,17.7-39.5,11.8-9.5,28.8-14.3,51-14.3h66.4c22.9,0,40.3,4.8,52.1,14.3,11.8,9.5,17.8,22.7,17.8,39.5v24.1c0,16.8-5.9,29.8-17.8,38.9-11.8,9.2-29.2,13.8-52.1,13.8h-66.4c-22.2,0-39.2-4.8-51-14.3Z"/>
        <path class="st6" d="M1801.2,1424.4c-31.6-52.6-114.7-128.8-190.7-180.8-47.4-32.4-95.8-85.4-113.3-106.8-13.8-16.9-61.7-89.4-80-95.2-10.8-3.4-36.8,26.4-40.1,43.4-7,36.5,18.4,82.6,69.3,152.7,48.4,66.7,54.4,105.4,52.3,141.6,0,.8-.1,1.6-.2,2.5l302.7,42.7Z"/>
      </g>
    </g>
  </g>
  <g class="st14">
    <path class="st1" d="M1908.7,490.4l-163.3,55.4c-8.2,2.8-17-1.6-19.8-9.8h0c-2.8-8.2,1.6-17,9.8-19.8l163.3-55.4c8.2-2.8,17,1.6,19.8,9.8h0c2.8,8.2-1.6,17-9.8,19.8Z"/>
  </g>
  <g class="st8">
    <path class="st1" d="M1739.6,363.1l-53.2,96.6c-3.4,6.2-11.1,8.4-17.3,5l-5-2.8c-6.2-3.4-8.4-11.1-5-17.3l53.2-96.6c3.4-6.2,11.1-8.4,17.3-5l5,2.8c6.2,3.4,8.4,11.1,5,17.3Z"/>
  </g>
  <g class="st0">
    <path class="st1" d="M1582.3,325.2l-5.2,74c-.4,5.8-5.4,10.1-11.2,9.7l-9.1-.6c-5.8-.4-10.1-5.4-9.7-11.2l5.2-74c.4-5.8,5.4-10.1,11.2-9.7l9.1.6c5.8.4,10.1,5.4,9.7,11.2Z"/>
  </g>
</svg>