<?xml version="1.0" encoding="UTF-8"?>
<svg id="Layer_1" xmlns="http://www.w3.org/2000/svg" version="1.1" viewBox="0 0 750 500">
  <!-- Generator: Adobe Illustrator 29.1.0, SVG Export Plug-In . SVG Version: 2.1.0 Build 142)  -->
  <defs>
    <style>
      .st0 {
        fill: #28364c;
      }

      .st1 {
        fill: #0f43aa;
      }

      .st2 {
        fill: #f2f5f9;
      }

      .st3 {
        fill: #011e3b;
      }

      .st4, .st5, .st6, .st7, .st8, .st9, .st10, .st11, .st12, .st13, .st14 {
        stroke-linejoin: round;
      }

      .st4, .st15, .st16, .st17, .st18, .st7, .st8, .st19, .st10, .st20, .st21, .st22, .st23, .st24, .st11, .st12, .st25, .st26, .st27, .st13, .st28, .st14, .st29 {
        fill: none;
      }

      .st4, .st9 {
        stroke: #7c8bd8;
      }

      .st5, .st6, .st30, .st9 {
        fill: #fff;
      }

      .st5, .st10, .st13 {
        stroke: #c5c8ef;
      }

      .st31, .st12, .st25 {
        isolation: isolate;
        opacity: .3;
      }

      .st31, .st32 {
        fill: #abb3ed;
      }

      .st15 {
        stroke: #edeef7;
      }

      .st15, .st16, .st17, .st18, .st19, .st20, .st21, .st22, .st23, .st24, .st25, .st26, .st27, .st28, .st29 {
        stroke-miterlimit: 10;
      }

      .st33 {
        fill: #ffcbc2;
      }

      .st16 {
        stroke: #3a53ce;
      }

      .st16, .st17, .st18, .st8, .st19, .st21, .st22, .st23, .st24, .st26, .st27, .st28, .st14 {
        stroke-width: .8px;
      }

      .st6, .st12, .st25 {
        stroke: #abb3ed;
      }

      .st17 {
        stroke: #a5634c;
      }

      .st34 {
        fill: #ccd2ed;
      }

      .st18, .st14 {
        stroke: #4152a5;
      }

      .st35 {
        fill: #dcddef;
      }

      .st36 {
        fill: #995037;
      }

      .st7 {
        stroke: #212237;
      }

      .st7, .st10, .st12 {
        stroke-linecap: round;
      }

      .st7, .st20, .st11, .st29 {
        stroke-width: .5px;
      }

      .st37 {
        fill: #edeef7;
      }

      .st38 {
        fill: #050c26;
      }

      .st39 {
        fill: #e5eaf9;
      }

      .st8, .st19 {
        stroke: #6d221d;
      }

      .st40 {
        fill: #1f2677;
      }

      .st41 {
        fill: #b8c4e8;
      }

      .st42 {
        fill: #ffe1cc;
      }

      .st20, .st23 {
        stroke: #f7a794;
      }

      .st21 {
        stroke: #0f1d49;
      }

      .st22 {
        stroke: #28364c;
      }

      .st43 {
        fill: #f7958b;
      }

      .st24 {
        stroke: #30409e;
      }

      .st11 {
        stroke: #e88872;
      }

      .st12 {
        stroke-width: 2px;
      }

      .st44 {
        fill: #f7633a;
      }

      .st45 {
        fill: #7c8bd8;
      }

      .st46 {
        fill: #b2d1ff;
      }

      .st26 {
        stroke: #102059;
      }

      .st47 {
        fill: #2d1006;
      }

      .st48 {
        fill: #6d221d;
      }

      .st27 {
        stroke: #aa260c;
      }

      .st28 {
        stroke: #2c79e8;
      }

      .st49 {
        fill: #4a1a1a;
      }

      .st29 {
        stroke: #f7958b;
      }

      .st50 {
        fill: #212237;
      }

      .st51 {
        fill: #131c5e;
      }

      .st52 {
        fill: #f9bbaf;
      }

      .st53 {
        fill: #2c79e8;
      }
    </style>
  </defs>
  <g id="OBJECTS">
    <g>
      <g>
        <g>
          <path class="st37" d="M143.1,196.6c2.1,2.8,4.6,5.4,7.4,7.7,2.8,2.3,5.9,4.2,9,5.8l5-8.3c3,1.3,6,2.3,9.2,2.8l-.4,9.7c7.1,1,14.4.2,21.1-2.1l-2.4-9.4c3-1.1,5.8-2.6,8.5-4.5l6.6,7.2c2.8-2.1,5.4-4.6,7.7-7.4,2.3-2.8,4.2-5.9,5.8-9l-8.3-5c1.3-3,2.3-6,2.8-9.2l9.7.4c1-7.1.2-14.4-2.1-21.1l-9.4,2.4c-1.1-3-2.6-5.8-4.5-8.5l7.2-6.6c-2.1-2.8-4.6-5.4-7.4-7.7-2.8-2.3-5.9-4.2-9-5.8l-5,8.3c-3-1.3-6-2.3-9.2-2.8l.4-9.7c-7.1-1-14.4-.2-21.1,2.1l2.4,9.4c-3,1.1-5.8,2.6-8.5,4.5l-6.6-7.2c-2.8,2.1-5.4,4.6-7.7,7.4-2.3,2.8-4.2,5.9-5.8,9l8.3,5c-1.3,3-2.3,6-2.8,9.2l-9.7-.4c-1,7.1-.2,14.4,2.1,21.1l9.4-2.4c1.1,3,2.6,5.8,4.5,8.5l-7.2,6.6ZM162.4,155c7.7-9.4,21.6-10.8,31-3.1,9.4,7.7,10.8,21.6,3.1,31s-21.6,10.8-31,3.1c-9.4-7.7-10.8-21.6-3.1-31ZM168.3,159.8c5.1-6.2,14.2-7.1,20.4-2s7.1,14.2,2,20.4c-5.1,6.2-14.2,7.1-20.4,2-6.2-5.1-7.1-14.2-2-20.4Z"/>
          <path class="st37" d="M382.3,116.2c.7,4.4,1.9,8.7,3.6,13s4,8.2,6.6,11.8l10.5-6.3c2.5,3.3,5.4,6.1,8.5,8.6l-6.3,10.5c7.3,5.3,15.8,8.8,24.7,10.3l3-11.9c4,.5,8,.6,12.1,0l3,11.9c4.4-.7,8.7-1.9,13-3.6s8.2-4,11.8-6.6l-6.3-10.5c3.3-2.5,6.1-5.4,8.6-8.5l10.5,6.3c5.3-7.3,8.8-15.8,10.3-24.7l-11.9-3c.5-4,.6-8,0-12.1l11.9-3c-.7-4.4-1.9-8.7-3.6-13-1.8-4.3-4-8.2-6.6-11.8l-10.5,6.3c-2.5-3.3-5.4-6.1-8.5-8.6l6.3-10.5c-7.3-5.3-15.8-8.8-24.7-10.3l-3,11.9c-4-.5-8-.6-12.1,0l-3-11.9c-4.4.7-8.7,1.9-13,3.6s-8.2,4-11.8,6.6l6.3,10.5c-3.3,2.5-6.1,5.4-8.6,8.5l-10.5-6.3c-5.3,7.3-8.8,15.8-10.3,24.7l11.9,3c-.5,4-.6,8,0,12.1l-11.9,3ZM428.5,81.6c14.2-5.8,30.3.9,36.2,15.1,5.8,14.2-.9,30.3-15.1,36.2-14.2,5.8-30.3-.9-36.2-15.1-5.8-14.2.9-30.3,15.1-36.2ZM432.1,90.4c9.3-3.8,20,.6,23.8,9.9s-.6,20-9.9,23.8c-9.3,3.8-20-.6-23.8-9.9-3.8-9.3.6-20,9.9-23.8Z"/>
          <path class="st37" d="M543.7,161.4c1.7,2.2,3.6,4.2,5.8,6.1,2.2,1.8,4.6,3.3,7.1,4.5l3.9-6.6c2.3,1.1,4.8,1.8,7.2,2.2l-.3,7.7c5.6.8,11.3.2,16.6-1.7l-1.9-7.4c2.3-.9,4.6-2.1,6.7-3.6l5.2,5.7c2.2-1.7,4.2-3.6,6.1-5.8s3.3-4.6,4.5-7.1l-6.6-3.9c1.1-2.3,1.8-4.8,2.2-7.2l7.7.4c.8-5.6.2-11.3-1.7-16.6l-7.4,1.9c-.9-2.3-2.1-4.6-3.6-6.7l5.7-5.2c-1.7-2.2-3.6-4.2-5.8-6.1-2.2-1.8-4.6-3.3-7.1-4.5l-3.9,6.6c-2.3-1.1-4.8-1.8-7.2-2.2l.3-7.7c-5.6-.8-11.3-.2-16.6,1.7l1.9,7.4c-2.3.9-4.6,2.1-6.7,3.6l-5.2-5.7c-2.2,1.7-4.2,3.6-6.1,5.8-1.8,2.2-3.3,4.6-4.5,7.1l6.6,3.9c-1.1,2.3-1.8,4.8-2.2,7.2l-7.7-.4c-.8,5.6-.2,11.3,1.7,16.6l7.4-1.9c.9,2.3,2.1,4.6,3.6,6.7l-5.7,5.2ZM558.9,128.7c6.1-7.4,17-8.5,24.4-2.4,7.4,6.1,8.5,17,2.4,24.4-6.1,7.4-17,8.5-24.4,2.4-7.4-6.1-8.5-17-2.4-24.4ZM563.5,132.5c4-4.9,11.2-5.6,16-1.6,4.9,4,5.6,11.2,1.6,16-4,4.9-11.2,5.6-16,1.6-4.9-4-5.6-11.2-1.6-16Z"/>
          <path class="st37" d="M232.1,107.6c.8-1.7,1.4-3.4,1.7-5.3.4-1.9.5-3.7.5-5.5l-5.1-.3c-.1-1.7-.4-3.3-1-4.9l4.6-2.2c-1.3-3.5-3.4-6.7-6.1-9.2l-3.8,3.4c-1.2-1.1-2.6-2-4.1-2.8l1.7-4.8c-1.7-.8-3.4-1.4-5.3-1.7-1.9-.4-3.7-.5-5.5-.5l-.3,5.1c-1.7,0-3.3.4-4.9,1l-2.2-4.6c-3.5,1.3-6.7,3.4-9.2,6.1l3.4,3.8c-1.1,1.2-2,2.6-2.8,4.1l-4.8-1.7c-.8,1.7-1.4,3.4-1.7,5.3-.4,1.9-.5,3.7-.5,5.5l5.1.3c.1,1.7.4,3.3,1,4.9l-4.6,2.2c1.3,3.5,3.4,6.7,6.1,9.2l3.8-3.4c1.2,1.1,2.6,2,4.1,2.8l-1.7,4.8c1.7.8,3.4,1.4,5.3,1.7,1.9.4,3.7.5,5.5.5l.3-5.1c1.7,0,3.3-.4,4.9-1l2.2,4.6c3.5-1.3,6.7-3.4,9.2-6.1l-3.4-3.8c1.1-1.2,2-2.6,2.8-4.1l4.8,1.7ZM208.3,108.8c-6.2-1.3-10.2-7.3-8.9-13.5s7.3-10.2,13.5-8.9c6.2,1.3,10.2,7.3,8.9,13.5-1.3,6.2-7.3,10.2-13.5,8.9Z"/>
          <path class="st37" d="M632.1,199.4c1.1-1.3,2-2.6,2.8-4.2s1.4-3.1,1.7-4.7l-4.3-1.5c.3-1.5.4-3,.4-4.5l4.5-.8c-.3-3.4-1.3-6.6-3.1-9.5l-4.1,2c-.8-1.3-1.8-2.4-2.9-3.4l2.6-3.7c-1.3-1.1-2.6-2-4.2-2.8-1.5-.8-3.1-1.4-4.7-1.7l-1.5,4.3c-1.5-.3-3-.4-4.5-.4l-.8-4.5c-3.4.3-6.6,1.3-9.5,3.1l2,4.1c-1.3.8-2.4,1.8-3.4,2.9l-3.7-2.6c-1.1,1.3-2,2.6-2.8,4.2-.8,1.5-1.4,3.1-1.7,4.7l4.3,1.5c-.3,1.5-.4,3-.4,4.5l-4.5.8c.3,3.4,1.3,6.6,3.1,9.5l4.1-2c.8,1.3,1.8,2.4,2.9,3.4l-2.6,3.7c1.3,1.1,2.6,2,4.2,2.8,1.5.8,3.1,1.4,4.7,1.7l1.5-4.3c1.5.3,3,.4,4.5.4l.8,4.5c3.4-.3,6.6-1.3,9.5-3.1l-2-4.1c1.3-.8,2.4-1.8,3.4-2.9l3.7,2.6ZM611.1,194.7c-5.1-2.6-7.1-8.8-4.5-13.9,2.6-5.1,8.8-7.1,13.9-4.5,5.1,2.6,7.1,8.8,4.5,13.9-2.6,5.1-8.8,7.1-13.9,4.5Z"/>
          <path class="st37" d="M50,281.5h-3.4c-.6,0-1.1-.5-1.1-1.1v-3.4c0-.6.5-1.1,1.1-1.1h3.4c.6,0,1.1.5,1.1,1.1v3.4c0,.6-.5,1.1-1.1,1.1Z"/>
          <path class="st37" d="M704.5,234h-3.4c-.6,0-1.1-.5-1.1-1.1v-3.4c0-.6.5-1.1,1.1-1.1h3.4c.6,0,1.1.5,1.1,1.1v3.4c0,.6-.5,1.1-1.1,1.1Z"/>
          <path class="st37" d="M371.1,64.5h-3.4c-.6,0-1.1-.5-1.1-1.1v-3.4c0-.6.5-1.1,1.1-1.1h3.4c.6,0,1.1.5,1.1,1.1v3.4c0,.6-.5,1.1-1.1,1.1Z"/>
          <path class="st37" d="M587.5,204.6h-3.4c-.6,0-1.1-.5-1.1-1.1v-3.4c0-.6.5-1.1,1.1-1.1h3.4c.6,0,1.1.5,1.1,1.1v3.4c0,.6-.5,1.1-1.1,1.1Z"/>
          <path class="st37" d="M266.7,110.6h-3.4c-.6,0-1.1-.5-1.1-1.1v-3.4c0-.6.5-1.1,1.1-1.1h3.4c.6,0,1.1.5,1.1,1.1v3.4c0,.6-.5,1.1-1.1,1.1Z"/>
        </g>
        <path class="st13" d="M210.2,218.8c0,2.5-2.1,4.6-4.6,4.6s-4.6-2.1-4.6-4.6,2.1-4.6,4.6-4.6,4.6,2.1,4.6,4.6Z"/>
        <path class="st13" d="M148.8,111.9c0,2.5-2.1,4.6-4.6,4.6s-4.6-2.1-4.6-4.6,2.1-4.6,4.6-4.6c2.5,0,4.6,2.1,4.6,4.6Z"/>
        <path class="st13" d="M668,163c0,2.5-2.1,4.6-4.6,4.6s-4.6-2.1-4.6-4.6,2.1-4.6,4.6-4.6c2.5,0,4.6,2.1,4.6,4.6Z"/>
        <path class="st13" d="M178.9,107c0,1.3-1.1,2.4-2.4,2.4s-2.4-1.1-2.4-2.4,1.1-2.4,2.4-2.4,2.4,1.1,2.4,2.4Z"/>
        <circle class="st13" cx="60.2" cy="222.8" r="2.4"/>
        <path class="st13" d="M282.8,98.2c0,1.3-1.1,2.4-2.4,2.4s-2.4-1.1-2.4-2.4,1.1-2.4,2.4-2.4,2.4,1.1,2.4,2.4Z"/>
        <circle class="st13" cx="622.3" cy="132.1" r="2.4"/>
        <circle class="st13" cx="573.5" cy="286" r="2.4"/>
        <line class="st13" x1="103.4" y1="151.6" x2="115.7" y2="151.6"/>
        <line class="st13" x1="86" y1="145.5" x2="109.5" y2="145.5"/>
        <line class="st13" x1="312.2" y1="71.9" x2="329.5" y2="71.9"/>
        <line class="st13" x1="328.4" y1="77.9" x2="340.7" y2="77.9"/>
        <line class="st13" x1="667.5" y1="206.2" x2="683.1" y2="206.2"/>
        <line class="st13" x1="687.9" y1="206.2" x2="695.5" y2="206.2"/>
        <line class="st13" x1="306.7" y1="120.9" x2="319" y2="120.9"/>
        <g>
          <line class="st10" x1="108.5" y1="185.5" x2="108.5" y2="190.5"/>
          <line class="st10" x1="111" y1="188" x2="106" y2="188"/>
        </g>
        <g>
          <line class="st10" x1="519.6" y1="106.9" x2="519.6" y2="111.9"/>
          <line class="st10" x1="522" y1="109.4" x2="517.1" y2="109.4"/>
        </g>
        <g>
          <line class="st10" x1="351.7" y1="102.7" x2="351.7" y2="107.7"/>
          <line class="st10" x1="354.2" y1="105.2" x2="349.2" y2="105.2"/>
        </g>
        <g>
          <line class="st10" x1="695.5" y1="316.6" x2="695.5" y2="321.5"/>
          <line class="st10" x1="698" y1="319.1" x2="693" y2="319.1"/>
        </g>
      </g>
      <g>
        <rect class="st9" x="220.8" y="120.7" width="308.5" height="205.7"/>
        <rect class="st4" x="230.8" y="130.7" width="288.5" height="185.7"/>
        <g>
          <path class="st9" d="M332.5,223.6c0-23.5,19-42.5,42.5-42.5s42.5,19,42.5,42.5-3,18-8.1,25h0c-6.1,9.1-21.8,19.5-21.8,25.6v7.1c0,1.4-1.1,2.6-2.6,2.6h-19.9c-1.4,0-2.6-1.1-2.6-2.6v-7.1c0-6.2-15.8-16.5-21.8-25.6h0c-5.1-7-8.1-15.7-8.1-25Z"/>
          <path class="st45" d="M379.8,283.2c0-1.1-.8-18.1.6-33.1-1.7.2-3.5.3-5.4.3s-3.7-.1-5.4-.3c1.4,14.9.6,32,.6,33.1h-.7c0-.3.8-17.9-.6-33.2-12.6-1.8-18.2-8.9-19.3-15.6-.6-3.9.8-7.9,3.2-9.3,1.5-.9,3.3-1.1,5.2-.5,3,.9,5.9,3.4,7.6,6.9,2.1,4,3.3,10.7,4,17.9,1.7.2,3.5.3,5.5.3s3.8-.1,5.5-.3c.7-7.2,1.9-13.9,4-17.9,1.8-3.5,4.6-6.1,7.6-6.9,1.9-.5,3.7-.4,5.2.5,2.4,1.5,3.8,5.4,3.2,9.3-1,6.7-6.7,13.9-19.3,15.6-1.4,15.2-.6,32.9-.6,33.1h-.7ZM394.1,225c-.6,0-1.2,0-1.9.3-2.8.8-5.5,3.2-7.2,6.5-2,3.9-3.2,10.3-3.8,17.4,12.1-1.7,17.5-8.5,18.4-15,.5-3.6-.7-7.3-2.8-8.6-.8-.5-1.7-.7-2.7-.7ZM355.9,225c-1,0-1.9.2-2.7.7-2.2,1.3-3.4,5-2.8,8.6,1,6.4,6.4,13.2,18.4,15-.7-7.1-1.9-13.6-3.8-17.4-1.7-3.3-4.4-5.7-7.2-6.5-.7-.2-1.3-.3-1.9-.3Z"/>
          <path class="st37" d="M410.4,226c-1.3,0-2.4-1.1-2.4-2.4,0-15.1-10.2-28.3-24.9-32-1.3-.3-2.1-1.7-1.8-3,.3-1.3,1.7-2.1,3-1.8,16.8,4.3,28.5,19.3,28.5,36.7,0,1.3-1.1,2.4-2.4,2.4Z"/>
          <circle class="st37" cx="376.6" cy="188.1" r="2.4"/>
          <path class="st9" d="M388.5,277.3h-27v12.9c0,2.1.6,4.2,1.7,5.9h0c2.1,3.4,5.8,5.4,9.8,5.4h4c4,0,7.7-2,9.8-5.4h0c1.1-1.8,1.7-3.8,1.7-5.9v-12.9Z"/>
          <path class="st9" d="M387.4,297.7c0,0-.2,0-.2,0l-25.6-2.2c-.9,0-1.6-.9-1.4-1.8s1-1.6,1.9-1.5l25.6,2.2c.9,0,1.6.9,1.4,1.8-.1.8-.8,1.5-1.7,1.5Z"/>
          <path class="st9" d="M388.5,286.2c0,0-.2,0-.2,0l-27-2.3c-.9,0-1.6-.9-1.4-1.8s1-1.6,1.9-1.5l27,2.3c.9,0,1.6.9,1.4,1.8-.1.8-.8,1.5-1.7,1.5Z"/>
          <path class="st9" d="M388.5,292.1c0,0-.2,0-.2,0l-27-2.3c-.9,0-1.6-.9-1.4-1.8s1-1.6,1.9-1.5l27,2.3c.9,0,1.6.9,1.4,1.8-.1.9-.8,1.5-1.7,1.5Z"/>
          <g>
            <line class="st4" x1="375.1" y1="159.9" x2="375.1" y2="174.6"/>
            <line class="st4" x1="420.3" y1="178.7" x2="409.9" y2="189.1"/>
            <line class="st4" x1="329.8" y1="178.6" x2="340.2" y2="189"/>
            <line class="st4" x1="350.6" y1="164.8" x2="356.2" y2="178.3"/>
            <line class="st4" x1="399.6" y1="164.8" x2="394" y2="178.4"/>
            <line class="st4" x1="434.2" y1="199.5" x2="420.6" y2="205.1"/>
            <line class="st4" x1="315.9" y1="199.4" x2="329.4" y2="205"/>
          </g>
        </g>
        <g>
          <g>
            <g>
              <rect class="st31" x="246.8" y="176.3" width="18.8" height="15.1"/>
              <line class="st25" x1="274.2" y1="176.3" x2="287.2" y2="176.3"/>
              <line class="st25" x1="274.2" y1="191.5" x2="300.5" y2="191.5"/>
              <line class="st25" x1="274.2" y1="186.6" x2="300.5" y2="186.6"/>
              <line class="st25" x1="274.2" y1="181.9" x2="300.5" y2="181.9"/>
            </g>
            <g>
              <rect class="st31" x="246.8" y="206.5" width="18.8" height="15.1"/>
              <line class="st25" x1="274.2" y1="206.5" x2="287.2" y2="206.5"/>
              <line class="st25" x1="274.2" y1="221.6" x2="300.5" y2="221.6"/>
              <line class="st25" x1="274.2" y1="216.7" x2="300.5" y2="216.7"/>
              <line class="st25" x1="274.2" y1="212" x2="300.5" y2="212"/>
            </g>
            <g>
              <rect class="st31" x="246.8" y="236.6" width="18.8" height="15.1"/>
              <line class="st25" x1="274.2" y1="236.6" x2="287.2" y2="236.6"/>
              <line class="st25" x1="274.2" y1="251.7" x2="300.5" y2="251.7"/>
              <line class="st25" x1="274.2" y1="246.9" x2="300.5" y2="246.9"/>
              <line class="st25" x1="274.2" y1="242.1" x2="300.5" y2="242.1"/>
            </g>
            <g>
              <rect class="st31" x="246.8" y="266.7" width="18.8" height="15.1"/>
              <line class="st25" x1="274.2" y1="266.7" x2="287.2" y2="266.7"/>
              <line class="st25" x1="274.2" y1="281.9" x2="300.5" y2="281.9"/>
              <line class="st25" x1="274.2" y1="277" x2="300.5" y2="277"/>
              <line class="st25" x1="274.2" y1="272.3" x2="300.5" y2="272.3"/>
            </g>
          </g>
          <g>
            <g>
              <rect class="st31" x="449.5" y="176.3" width="18.8" height="15.1"/>
              <line class="st25" x1="476.9" y1="176.3" x2="489.9" y2="176.3"/>
              <line class="st25" x1="476.9" y1="191.5" x2="503.2" y2="191.5"/>
              <line class="st25" x1="476.9" y1="186.6" x2="503.2" y2="186.6"/>
              <line class="st25" x1="476.9" y1="181.9" x2="503.2" y2="181.9"/>
            </g>
            <g>
              <rect class="st31" x="449.5" y="206.5" width="18.8" height="15.1"/>
              <line class="st25" x1="476.9" y1="206.5" x2="489.9" y2="206.5"/>
              <line class="st25" x1="476.9" y1="221.6" x2="503.2" y2="221.6"/>
              <line class="st25" x1="476.9" y1="216.7" x2="503.2" y2="216.7"/>
              <line class="st25" x1="476.9" y1="212" x2="503.2" y2="212"/>
            </g>
            <g>
              <rect class="st31" x="449.5" y="236.6" width="18.8" height="15.1"/>
              <line class="st25" x1="476.9" y1="236.6" x2="489.9" y2="236.6"/>
              <line class="st25" x1="476.9" y1="251.7" x2="503.2" y2="251.7"/>
              <line class="st25" x1="476.9" y1="246.9" x2="503.2" y2="246.9"/>
              <line class="st25" x1="476.9" y1="242.1" x2="503.2" y2="242.1"/>
            </g>
            <g>
              <rect class="st31" x="449.5" y="266.7" width="18.8" height="15.1"/>
              <line class="st25" x1="476.9" y1="266.7" x2="489.9" y2="266.7"/>
              <line class="st25" x1="476.9" y1="281.9" x2="503.2" y2="281.9"/>
              <line class="st25" x1="476.9" y1="277" x2="503.2" y2="277"/>
              <line class="st25" x1="476.9" y1="272.3" x2="503.2" y2="272.3"/>
            </g>
          </g>
        </g>
        <g>
          <line class="st4" x1="501.9" y1="120.7" x2="501.9" y2="85.1"/>
          <circle class="st4" cx="501.9" cy="82.2" r="2.8"/>
          <line class="st4" x1="248.1" y1="120.7" x2="248.1" y2="85.1"/>
          <circle class="st4" cx="248.1" cy="82.2" r="2.8"/>
        </g>
        <line class="st12" x1="333.2" y1="140.3" x2="416.8" y2="140.3"/>
        <line class="st12" x1="309.2" y1="149.4" x2="440.8" y2="149.4"/>
      </g>
      <g>
        <g>
          <g>
            <path class="st5" d="M589.3,385.1c-5.8-16.2-20.2-51.2-7.1-101.8,22.9,28.3,24.3,69.1,22,106"/>
            <path class="st13" d="M582.2,283.3s4.9,64.4,13.9,105.1"/>
            <path class="st13" d="M582.2,283.3s-5.3,46,9.8,104.3"/>
            <path class="st13" d="M598.9,387.9s-6.7-80.8-16.6-104.6"/>
            <path class="st13" d="M601.4,388s.9-76-19.1-104.7"/>
          </g>
          <g>
            <path class="st5" d="M577.5,392.8c-8.7-11.5-29.3-36.2-25.5-76.7,27.7,18.3,36.6,49.3,41,77.8"/>
            <path class="st13" d="M552,316.1s9.5,48.4,29,76.6"/>
            <path class="st13" d="M584.7,393.9s-24.7-66.8-32.8-77.8"/>
            <path class="st13" d="M589.3,393.9s-14.7-60.2-37.4-77.8"/>
          </g>
          <g>
            <path class="st5" d="M617.7,384.3c7.4-16.7,25.5-52.8,13.7-106.4-27.2,28.7-31.2,71.4-30.6,110.1"/>
            <path class="st13" d="M631.4,277.9s-9.2,67.3-21.6,109.6"/>
            <path class="st13" d="M631.4,277.9s3.3,48.4-16.9,108.9"/>
            <path class="st13" d="M606.8,386.8s12.1-84.4,24.5-108.9"/>
            <path class="st13" d="M604,386.8s3.3-79.7,27.3-108.9"/>
          </g>
          <g>
            <path class="st5" d="M622.3,404.5c9.1-13.4,30.4-41.8,31.4-91.4-27,20.1-38.4,57.1-45.5,91.5"/>
            <path class="st13" d="M653.8,313.1s-13.9,58.2-34.6,91.1"/>
            <path class="st13" d="M615.7,405.2s29.6-79.5,38.1-92.2"/>
            <path class="st13" d="M611.5,404.8s19.9-72.2,42.2-91.8"/>
          </g>
          <path class="st39" d="M637.7,384.2v15.3c0,33.9-13.8,55.7-13.8,55.7h-42.8s-13.8-21.8-13.8-55.7v-15.3h70.4Z"/>
        </g>
        <g>
          <g>
            <path class="st5" d="M79.2,383.8c-5.1-22.8-18.1-71.9-2.5-144.2,21.8,39.2,21.4,97.1,17.4,149.5"/>
            <path class="st13" d="M76.7,239.6s2.1,91.2,9.3,148.6"/>
            <path class="st13" d="M76.7,239.6s-7.4,65.5,5.1,147.6"/>
            <path class="st13" d="M88.7,387.4s-3.1-114.4-12-147.8"/>
            <path class="st13" d="M91.3,387.5s4.4-107.9-14.5-147.8"/>
          </g>
          <g>
            <path class="st5" d="M68.3,392.6c-8.7-14.3-29.3-44.8-25.5-95,27.7,22.7,36.6,61.1,41,96.3"/>
            <path class="st13" d="M42.8,297.6s9.5,59.9,29,94.9"/>
            <path class="st13" d="M75.6,393.9s-24.7-82.8-32.8-96.3"/>
            <path class="st13" d="M80.2,393.9s-14.7-74.5-37.4-96.3"/>
          </g>
          <g>
            <path class="st5" d="M110,383.5c7-20,24.1-63.2,12.5-127.5-25.9,34.2-29.4,85.5-28.7,131.9"/>
            <path class="st13" d="M122.4,256s-8.4,80.7-20,131.3"/>
            <path class="st13" d="M122.4,256s3.4,58.1-15.5,130.5"/>
            <path class="st13" d="M99.6,386.5s11.1-101.2,22.9-130.5"/>
            <path class="st13" d="M96.9,386.5s2.7-95.6,25.5-130.5"/>
          </g>
          <g>
            <path class="st5" d="M115.2,404.5c9.1-13.4,30.4-41.8,31.4-91.4-27,20.1-38.4,57.1-45.5,91.5"/>
            <path class="st13" d="M146.6,313.1s-13.9,58.2-34.6,91.1"/>
            <path class="st13" d="M108.5,405.2s29.6-79.5,38.1-92.2"/>
            <path class="st13" d="M104.4,404.8s19.9-72.2,42.2-91.8"/>
          </g>
          <path class="st39" d="M130.5,384.2v15.3c0,33.9-13.8,55.7-13.8,55.7h-42.7s-13.8-21.8-13.8-55.7v-15.3h70.4Z"/>
        </g>
        <g>
          <g>
            <path class="st5" d="M472.3,404.9c-3.5-11.8-12.5-37.5,2.3-70.4,16.8,24,14.5,50.2,9.6,75.1"/>
            <path class="st13" d="M474.6,334.5s-5.7,31.1,2,72.8"/>
            <path class="st13" d="M477.6,407.6s3.1-55.6-3.1-73.1"/>
            <path class="st13" d="M479.7,408s9-51.4-5.1-73.5"/>
          </g>
          <g>
            <path class="st5" d="M460.7,412.7c-7-6.3-23.3-19.3-25.4-47.7,20.3,7.4,29.6,26.9,35.7,45.6"/>
            <path class="st13" d="M435.3,365s7.1,24,28.6,48.2"/>
            <path class="st13" d="M467.3,411.4s-23.7-34.3-32-46.4"/>
            <path class="st13" d="M468.9,410.7s-16.4-34.5-33.6-45.8"/>
          </g>
          <g>
            <path class="st5" d="M467.3,405.7c-5.6-8.2-21.8-32.8-16.8-59,18.8,14.1,26.3,41.9,27.8,60.9"/>
            <path class="st13" d="M450.5,346.7s7,39.3,19.4,59.2"/>
            <path class="st13" d="M472.4,406.9s-16.8-52.5-22-60.2"/>
            <path class="st13" d="M475.7,407.3s-10.1-47.4-25.2-60.6"/>
          </g>
          <g>
            <path class="st5" d="M494.1,405.2c4.8-10.6,16.4-33.5,8.5-67.5-17.5,18.1-19.9,45.3-19.4,69.9"/>
            <path class="st13" d="M502.6,337.7s-8.3,39.4-14.5,68.8"/>
            <path class="st13" d="M502.6,337.7s1.9,30.8-11,69.1"/>
            <path class="st13" d="M485.3,406.8s3.6-46.2,17.3-69.1"/>
          </g>
          <g>
            <path class="st5" d="M494.7,416.3c6.2-7.1,22-24.7,23.3-48.4-18.3,10.6-26,30.3-30.8,48.4"/>
            <path class="st13" d="M518,367.9s-11.4,30-25.4,47.4"/>
            <path class="st13" d="M489.2,415.3s17.1-36,28.8-47.4"/>
          </g>
          <path class="st39" d="M508.5,403.3v11.2c0,24.8-12,40.8-12,40.8h-37.3s-12-16-12-40.8v-11.2h61.4Z"/>
        </g>
      </g>
      <line class="st4" x1="47.2" y1="455.8" x2="702.8" y2="455.8"/>
      <g>
        <g>
          <path class="st33" d="M652.8,207.8l1.4,11.9s-4.5,4.8-11.2,4.8-6.7-4.5-6.7-4.5l1.3-10.3,10.4-10.9,4.9,8.9"/>
          <path class="st52" d="M634.2,199.9c0-.4-.6-.7-1-.6-.6,0-1.1.5-1.4,1.1-.3.6-.4,1.2-.4,1.8,0,.6,0,1.2.3,1.7.5.9,1.7,1.3,2.6.9"/>
          <path class="st33" d="M634.8,191.8s-3.6,13.6-1.6,16.4c2.9,4.2,9.9,4.5,12.9,2.6,2.5-1.6,4.5-10.3,4.5-12.5,0-6.1-12.5-9.6-15.7-6.4Z"/>
          <path class="st50" d="M655,202c.1-.4.2-.9.4-1.3.4-1.1,1-2,1.4-3.1.8-2.1.1-4.7-1.6-6.1-.3-.2-.7-.5-.9-.8-.6-.6-.8-1.6-1.2-2.4-.3-.7-.7-1.3-1.4-1.7-1.5-.8-3.5.3-5-.5-.3-.2-.6-.4-.9-.6-2.1-1.6-4.6-1.2-6.9-.4-1.1.4-1.4.8-2.4,1.5-1,.8-2.4.7-3.4,1.5-1,.8-1.3,2.2-1.3,3.6,0,.5,0,1,.2,1.4.3.6.8.9,1.3,1.2,1.3.6,2.8.4,4.3.3,1.4-.1,3-1.1,4.3-.6,1.3.5,1.7,2.1,3.3,2.2.6,0,1.4,0,1.8.4.4.6.2,1.5.5,2.2.3.6.9,1.2,1.3,1.8.8,1.2,2,2,1.6,3.5-.3,1.1-1.5,2.8-1,3.9.3.7,1.9.7,3.2-.2,1.3-1,1.6-2.8,2-4.3.1-.5.2-1.1.3-1.6Z"/>
          <path class="st23" d="M637.3,211.5s4.7.9,7.9-.8c2.5-1.4,3.5-4.5,3.5-4.5"/>
          <path class="st33" d="M647.1,201.7c.3-.5,1.3-1.2,1.8-1.1s1,.4,1.4.8c1.8,2-.2,5.8-2.9,5.4-1-.2-.7-1.5-.7-1.5"/>
          <path class="st20" d="M637.1,198.9s-2.1,3.2-1.9,4.1c.2.9,2.3,1,2.3,1"/>
          <path class="st30" d="M635.2,205.1l5.8.8s-1.1,3-4.2,2.3c-2.2-.5-1.5-3.1-1.5-3.1Z"/>
          <path class="st50" d="M634.7,197.9c-.1.2-.2.5-.3.7-.1.5.6.7.8.2,0-.3.1-.5.2-.8,0-.4-.5-.6-.7-.2h0Z"/>
          <path class="st7" d="M636.6,196.5s-.9-1.2-2.2-.3"/>
          <path class="st50" d="M641.3,199.4c0,.2-.2.5-.2.7-.1.5.7.7.8.2,0-.3.1-.6.1-.9,0-.4-.6-.4-.7,0h0Z"/>
          <path class="st7" d="M641,197.2s1.4-.5,2.9,1.2"/>
        </g>
        <g>
          <g>
            <g>
              <path class="st33" d="M632,416l-2.7,27.6.2,8.7-34-.2c-.8,0-1.5-.7-1.5-1.5h0c0-.6.4-1.2,1-1.4l14.7-6.7,1.4-28.7"/>
              <path class="st3" d="M592.5,451.7c.3-1.1,1-2.3,1.6-2.6l15.6-6.7c8.6,3.5,19.7.8,19.7.8l2,11.7c0,.4-.3.7-.7.7h-37.9c-.8,0-.3-3.9-.3-3.9Z"/>
              <path class="st28" d="M606.3,443.1c.9,1.1,1.6,2.4,2.2,3.7"/>
              <path class="st28" d="M604.4,444.2c.9,1.2,1.3,2,1.8,3.1"/>
              <path class="st28" d="M602.7,445.1c.6.8,1.2,2,1.7,2.9"/>
            </g>
            <line class="st28" x1="631.1" y1="453.1" x2="592.3" y2="452.9"/>
            <path class="st28" d="M630.1,447.4s-9.1.2-9.9,5.7"/>
            <path class="st28" d="M597.3,447.7s2.5,3.6,3,5.2"/>
          </g>
          <path class="st40" d="M616.1,297.5c-5.8,42-11.1,141.3-11.1,141.3h29.3s6-62,11.2-106.9c12.9-21.3,11.9-44.4,13.3-47.5"/>
          <path class="st16" d="M630.3,438.7s7.2-68.5,12.4-113.4"/>
          <g>
            <g>
              <path class="st33" d="M679.1,416l1.3,27.6.2,8.7-34-.2c-.8,0-1.5-.7-1.5-1.5h0c0-.6.4-1.2,1-1.4l14.7-6.7-2.6-28.7"/>
              <path class="st3" d="M643.5,451.7c.3-1.1,1-2.3,1.6-2.6l15.6-6.7c8.6,3.5,19.7.8,19.7.8l2,11.7c0,.4-.3.7-.7.7h-37.9c-.8,0-.3-3.9-.3-3.9Z"/>
              <path class="st28" d="M657.4,443.1c.9,1.1,1.6,2.4,2.2,3.7"/>
              <path class="st28" d="M655.4,444.2c.9,1.2,1.3,2,1.8,3.1"/>
              <path class="st28" d="M653.7,445.1c.6.8,1.2,2,1.7,2.9"/>
            </g>
            <line class="st28" x1="682.2" y1="453.1" x2="643.4" y2="452.9"/>
            <path class="st28" d="M681.1,447.4s-9.1.2-9.9,5.7"/>
            <path class="st28" d="M648.4,447.7s2.5,3.6,3,5.2"/>
          </g>
          <path class="st40" d="M678.2,293.6c.8,9.5.7,21.3-.7,32.8,2.5,50.6,6,112.3,6,112.3h-29.3s-14.1-112-14.8-146"/>
          <path class="st16" d="M673.2,293.6c.8,9.5.7,21.3-.7,32.8,2.5,50.6,6,112.3,6,112.3"/>
          <path class="st16" d="M643.7,347.8s-4.1-35.1-4.4-48"/>
          <line class="st16" x1="683.1" y1="433" x2="653.4" y2="433"/>
          <line class="st16" x1="634.9" y1="432.9" x2="605.4" y2="432.9"/>
          <path class="st16" d="M673.5,313.9s-8.4.7-13.1-11.3"/>
          <path class="st16" d="M640.6,313.9s-2.9-.8-3.2-1.8-1.1-11.8-1.1-11.8"/>
          <path class="st16" d="M625.5,302.7s-.7,9.8-11.4,11.3"/>
        </g>
        <g>
          <path class="st33" d="M585.9,237.6s-13.9-14.7-14.8-14.6c-.9.1,1,2.9.3,2.8s-5.1-6.1-5.9-5.7c-1.1.5,3,5.8,3,5.8,0,0-1.1-1-1.9-.3-.6.5.2,2.2.2,2.2,0,0-1.1-.5-1.7,0-.6.5.2,2,.2,2,0,0-1.1-1.1-1.7,0-.6,1,3.5,9.4,10.2,18.4"/>
          <path class="st46" d="M636.6,217.4c-7,.6-14.5,4-19.1,10-7.8,10-17.6,22.7-17.6,22.7l-16.1-16.5-15.2,12.6s21,29.6,31.4,29.7c9.4,0,25.2-13.4,29.8-20.6,9.2-14.6,6.8-37.9,6.8-37.9Z"/>
          <path class="st44" d="M653.8,216s-1.9,2.9-9.8,3.7c-5.9.6-7.4-2.2-7.4-2.2,0,0-14.3,7.6-18.6,39.2-4.2,31.6-4.7,48.1-4.7,48.1h67.2s.2-24-1.7-44.7c-2-21.3-6.5-39.2-25.1-44.1Z"/>
          <path class="st29" d="M572.4,227.2s.7,3.1,1.9,5.6"/>
          <path class="st43" d="M564,231.8c.6.7,1.2,1.3,1.8,1.9.3.3.6.6,1,.9.2.1.4.3.5.3.2.1.4.1.4,0,0,0,0-.3,0-.5,0-.2-.1-.4-.2-.6-.2-.4-.4-.8-.6-1.2-.4-.8-.9-1.5-1.4-2.2l.4-.2c.6.8,1.2,1.6,1.9,2.3.3.4.7.7,1,1,.2.2.4.3.6.4,0,0,.2,0,.1,0,0,0,0,0,0-.1-.1-.9-.6-1.8-1-2.7-.4-.9-.9-1.8-1.4-2.6l.4-.2c.5.9,1.1,1.7,1.8,2.5.3.4.6.8,1,1.2.2.2.4.3.6.5,0,0,.2,0,.2,0,0,0,0,0,0-.2,0-.4-.2-1-.3-1.4-.2-.5-.4-1-.6-1.4-.4-.9-.9-1.9-1.3-2.8.5.9,1,1.8,1.5,2.7.4.9,1,1.8,1.1,2.9,0,.1,0,.4-.3.4-.2,0-.4,0-.5,0-.3-.1-.5-.3-.6-.5-.4-.4-.7-.8-1-1.2-.7-.8-1.2-1.6-1.8-2.5l.4-.2c.5.9,1,1.8,1.4,2.7.2.5.4.9.6,1.4.2.5.4.9.4,1.5,0,.1,0,.4-.2.5-.2.1-.5,0-.6,0-.3-.1-.5-.3-.7-.5-.4-.3-.7-.7-1.1-1.1-.7-.8-1.3-1.6-1.9-2.4l.4-.2c.5.8.9,1.5,1.4,2.3.2.4.4.8.6,1.2,0,.2.2.4.2.7,0,.2.1.5,0,.8-.3.3-.6.1-.8,0-.2-.1-.4-.3-.6-.4-.3-.3-.7-.6-1-.9-.6-.7-1.2-1.3-1.7-2Z"/>
          <path class="st46" d="M636.6,217.4c-13.8,26.5-14.7,91.8-14.7,91.8h-10.5s.5-42.3,8.5-69.9c3.4-11.7,12.1-21,16.8-21.9"/>
          <path class="st14" d="M614,270.3s2.3-25.6,6.9-34.4"/>
          <path class="st14" d="M626.7,253.1l-2.1-20.3,3.5-1.9-3.5-2.2s3.1-5.9,5.8-10"/>
          <path class="st46" d="M653.5,216c-8.3,17.8-.9,93.2-.9,93.2h32s-1.5-27.6-2.8-38.3c-1.3-10.7-10-45.1-10-45.1l-18.2-9.8Z"/>
          <g>
            <path class="st35" d="M673.6,287.3l-30.9.4v1.9s32.7-.5,32.7-.5h0c0-1-.8-1.9-1.8-1.9Z"/>
            <path class="st35" d="M605,290.2l43.4-.6-8.7-29c-.4-1.5-1.7-2.5-3.2-2.5l-39.2.6c-.9,0-1.5.9-1.2,1.8l8.9,29.7Z"/>
            <path class="st2" d="M603.1,290.2l43.4-.6-8.7-29c-.4-1.5-1.7-2.5-3.2-2.5l-39.2.6c-.9,0-1.5.9-1.2,1.8l8.9,29.7Z"/>
            <path class="st35" d="M615.7,274.7c.3,1.4,1.8,2.4,3.4,2.4,1.6,0,2.7-1.1,2.4-2.5-.3-1.4-1.8-2.4-3.4-2.4-1.6,0-2.7,1.1-2.4,2.5Z"/>
          </g>
          <g>
            <path class="st33" d="M665.2,254s8.5,14.9,8,18.3c-.4,2.6-23.5,8.5-23.5,8.5l1,14.6s38.7-3.3,43.2-11.1c6.2-10.6-10.9-38.1-10.9-38.1"/>
            <path class="st33" d="M654.1,280c-3.2.6-19.9,4-19.7,4.8.2.8,5.1.7,5,1.1-.2.7-3.8,1.5-5.9,1.8-1.9.3-4.8,1-4.8,1.8,0,1.6,10.2,0,10.2,0,0,0-11.3-.3-11.4,1-.2,1.9,11.8,1.8,12.2,2.2,0,0-10.4-2.8-10.5-1.4-.1,1.4,9.1,4.1,11.9,3.9-2.4-.3-9.6-3.8-9.6-2.5,0,1.3,6.2,3.1,7.2,3.2,8.2.6,15.6-1.2,15.6-1.2"/>
            <path class="st43" d="M629.8,290.2c1.3-.2,2.7-.4,4-.4,1.3,0,2.7-.1,4,0-.7.2-1.3.3-2,.4-.7,0-1.3.1-2,.2-1.3,0-2.7,0-4,0Z"/>
            <path class="st43" d="M631,291.9c2.9,0,5.8.3,8.7.4-.7.2-1.4.2-2.2.3-.7,0-1.5,0-2.2,0-1.5-.1-2.9-.3-4.3-.7Z"/>
            <path class="st43" d="M632.9,293.6c1.3,0,2.6.2,3.9.3,1.3.2,2.5.4,3.8.6-.6,0-1.3,0-2,0-.7,0-1.3,0-1.9-.2-1.3-.2-2.6-.4-3.8-.8Z"/>
          </g>
          <path class="st46" d="M653.5,216c9,1.5,20.3,4.3,24.9,10.2,7,9.1,25.7,47.4,18.8,56.8-5.9,8-38.6,14-38.6,14l-8.8-18,22.4-8.3-13.9-30.3"/>
          <polyline class="st18" points="649.8 279 672.1 270.7 660.9 246.2"/>
          <line class="st18" x1="658.6" y1="297.1" x2="683.4" y2="291"/>
          <line class="st18" x1="652.7" y1="277.9" x2="662" y2="296.2"/>
          <path class="st14" d="M649.6,254c1.4-9.4,7.5-17.1,7.5-17.1l-3.7-4.1,5.2-1.9s2.4-10,4.1-13.1"/>
        </g>
      </g>
      <g>
        <g>
          <path class="st33" d="M555.5,241.2s5.2,11.8,6.5,20.6-10.9,33.8-10.9,33.8l-10.5-6.2s3.2-18.6,3.2-25.2-6-15.8-6-15.8"/>
          <path class="st33" d="M541.1,288.1c-1.4,4.1-7.2,15.3-6.6,16,.6.6,2.7-3.3,3.1-2.6.4.6-2.5,6.9-1.7,7.4,1,.7,3.6-5.9,3.6-5.9,0,0-2.5,7.3-1.4,7.6.8.2,2.9-5.3,4-7.3-.9,2.3-1.9,6.2-1.1,6.5.8.2,2.3-3.5,3.6-6.3-.7,1.8-1.7,5.2-1,5.4.7.2,5.1-8.5,8.9-17"/>
        </g>
        <g>
          <g>
            <path class="st33" d="M534,340.8c-1.3,29.6,6.9,103.7,6.9,103.7l-9.1,5.8s28.1,1.3,29,.5c.8-.8-1-6.5-1-6.5,0,0,.8-87.5,1.6-100.5.8-13-26-32.7-27.3-3.1Z"/>
            <path class="st3" d="M553.7,450.7l6.7-3.7-.5-1.9-8.8,5.6h-2.8s-9.8-4.8-9.8-4.8l-10.6,6.6c-1.2.8-.7,2.7.8,2.7h14.2c0,0,4.5-3.2,4.5-3.2h1.3s0,3.1,0,3.1h12.3s0-4.4,0-4.4h-7.4Z"/>
          </g>
          <g>
            <path class="st33" d="M496.4,345.8c-2,41.6-1.3,98.6-1.3,98.6l-9.1,5.9s28.1,1.2,29,.4c.8-.8-1.1-6.5-1.1-6.5,0,0,7.8-72.2,10.6-99.3,2.8-27-26.1-40.8-28.1.8Z"/>
            <path class="st3" d="M508,450.6l6.7-3.7-.5-1.9-8.7,5.6h-2.8s-9.8-4.8-9.8-4.8l-10.6,6.7c-1.2.8-.7,2.7.8,2.6h14.2c0-.1,4.5-3.3,4.5-3.3h1.3s0,3.1,0,3.1h12.3c0,0,0-4.5,0-4.5h-7.5Z"/>
          </g>
          <path class="st1" d="M547.4,277.9c2.4,1.7,7.8,9.4,10.1,16.9,5.3,17.8,5.4,57.1,5.4,57.1h-67.9s.4-37.8,3-54.2c1.4-8.8,5.3-16.4,7.6-19.7"/>
          <path class="st21" d="M509.5,277.4c-2,1.7-5.5,8.1-6.4,15.3-3.3,24.4-2.6,59.2-2.6,59.2"/>
        </g>
        <g>
          <path class="st53" d="M530.8,216.3c20.3,1.3,27,26.7,27,26.7l-14.3,9.9"/>
          <line class="st21" x1="549.7" y1="244.5" x2="556.8" y2="239.7"/>
          <path class="st33" d="M493.9,228.5s-15.2,11.7-17.6,11.7c-2.5,0-22.1-18.2-22.1-18.2l-10.3,12s20.6,28.1,31.7,28.1,30.3-16.1,30.3-16.1"/>
          <path class="st53" d="M515.9,216.4s2.3,1.8,6.9,1.3,8.2-1.5,8.2-1.5c0,.1,18.3,8.5,18.9,19.1.7,11.8.6,18.8-2.5,42.8-7.8,0-43,0-41.8,0,0,0-6.5-29.3-6.5-40.5,0-11.2,16.7-21,16.7-21Z"/>
          <path class="st53" d="M515.9,216.4s-6.2-.3-11.5,2.7c-9.2,5.2-16.9,13.4-16.9,13.4l12.2,21.5,12.8-9"/>
          <path class="st21" d="M550.2,248.3c.3-9.9-1.2-16.6-1.2-16.6"/>
          <line class="st21" x1="490.6" y1="229.5" x2="503" y2="252.1"/>
          <line class="st21" x1="500.9" y1="253.6" x2="511.6" y2="246"/>
          <path class="st33" d="M461.7,228.8s-17.3-16-18.4-15.6c-1.1.4,2,3.4,1.1,3.6-.9.1-7.8-7.1-8.8-6.5-1.3.9,4.6,6.9,4.6,6.9,0,0-1.6-1.1-2.5,0-.6.8,1.2,3.2,1.2,3.2,0,0-1.8-1.2-2.5-.4-.7.8,1,3.3,1,3.3,0,0-1.3-.9-1.7,0-.7,1.4,7.9,11.4,15.8,20.2"/>
        </g>
        <g>
          <path class="st33" d="M530,205.6l1.6,11.6s-7.6,7.8-15.6-.8l-.5-6.5,14.5-4.3Z"/>
          <path class="st33" d="M517.3,190.4s-10.9,12.4-6.9,17.5c2.1,2.7,11.1,5.9,14.3,3.9,2.4-1.5,6.9-12,5.9-14-3.9-7.8-13.2-7.4-13.2-7.4Z"/>
          <path class="st3" d="M517.8,192.6c-.7,7.2,1.5,10.9,1.5,10.9,0,0-4.8,15.1-3.7,16.5s16.4,3.7,23.9.5c0,0,1.2-22.8-5.7-28.5-6.5-5.5-15-5-19.6-2.1,0,0,.4,1.4,2.1,2.1.8.4,1.7.8,1.7.8"/>
          <path class="st33" d="M517.7,201.7c1.3-1.7,2.4-1.4,3-.5.8,1.2-.8,3.8-1.5,4.3-1.5.9-2.7.8-2.8-.4"/>
          <path class="st11" d="M515.5,211c1.6,0,2.1-1.3,2.1-1.3"/>
          <path class="st0" d="M514.4,197.4c-.5.4-.9,1.1-.6,1.6,0,.1.2.2.4.2,1-.1,1.2-2.6.3-1.8Z"/>
          <path class="st22" d="M514.5,195.5c.6.2,1.7.8,2.1,1.6"/>
          <path class="st30" d="M513.2,203l-2.3-1.2s-1.5,2.8-.4,3.4c1.2.6,2.7-2.1,2.7-2.1Z"/>
          <path class="st3" d="M529.9,189.8c-1-.2-1.6-1.3-1.6-2.2s.7-1.9,1.6-2.4c.9-.5,1.9-.5,2.9-.2.4.1.7.2,1,.5,1.2.9,1.2,2.9.3,4.2-.4.5-.9,1-1.5,1.1-.6.1-1.3,0-1.6-.7"/>
        </g>
      </g>
      <g>
        <g>
          <path class="st6" d="M373.9,422.3c-18.6-5.6-30.9-12-41-22.1-10.8-10.7-14.6-21.2-17.5-35.8-4.1-20.4-8.5-52.8-30.5-60.6-20.5-7.2-38.7,9.1-49.2,25.8-13.4,21.5-17.5,43-17.5,68.3,0,20.4,5.2,57.9,69.8,57.9h76.8c42.4,0,35.8-25.5,9.1-33.5Z"/>
          <path class="st37" d="M368.1,420.9c-3.8-7.8-19.9-5.5-37.4-23.7-10.1-10.6-14.3-19.7-17.1-33.5-2.4-11.6-11.5-50.5-27.6-52-6.5-.6-13.1.2-18.8,3.3-7.9,4.4-14.1,11.5-18.4,19.4-4.4,7.9-7,16.6-9.2,25.4-3,12.2-5.1,20.8-3.6,33.2,2.6,21.1,15.9,39.8,36.5,44.7,20.8,5,39.6,3.3,64.2,3,9.4,0,39.3-3.7,31.4-19.9Z"/>
          <path class="st32" d="M260.8,319.1c-8.6,7.4-14.7,17.5-18.9,28-4.7,11.7-7.3,24.4-7.3,37,0,11.7,2.4,23.8,8.7,33.9,7.1,11.4,18.4,17.7,31.1,21,20.2,5.3,41.8,3.9,62.4,2.1.4,0,.4-.7,0-.6-18,.5-36.1,2.1-54-1-13.9-2.4-27.8-7.4-36.5-19.1-14.3-19.2-12.6-47-5.2-68.6,4.1-12,10.5-23.8,20.1-32.3.3-.2-.1-.6-.4-.4h0Z"/>
        </g>
        <g>
          <g>
            <g>
              <path class="st36" d="M376,425l26.2,19.5,4.9,7.6,28.1-19.2c.7-.5.9-1.4.4-2.1h0c-.4-.5-1-.8-1.6-.6l-15.9,2.6-25.9-21.4"/>
              <path class="st42" d="M437.5,430.9c-.9-.7-2.1-1.4-2.8-1.2l-16.6,3.1c-5.2,7.7-15.9,11.7-15.9,11.7l4.9,10.8c.2.3.7.4,1,.2l31.4-21.2c.6-.4-2-3.4-2-3.4Z"/>
              <path class="st17" d="M421.2,431.5c0,1.4,0,2.9.2,4.3"/>
              <path class="st17" d="M423.5,431.4c0,1.5,0,2.3.3,3.6"/>
              <path class="st17" d="M425.3,431.2c0,1,0,2.3.2,3.3"/>
            </g>
            <line class="st17" x1="406.2" y1="453.7" x2="438.3" y2="431.8"/>
            <path class="st17" d="M403.9,448.3s7.7-4.9,11.4-.8"/>
            <path class="st17" d="M431.3,430.3s0,4.4.4,6"/>
          </g>
          <g>
            <g>
              <path class="st36" d="M338.2,416l11.2,27.3v9c-.1,0,33.9-.2,33.9-.2.8,0,1.5-.7,1.5-1.5h0c0-.6-.4-1.2-1-1.4l-14.7-6.7-9.9-28.7"/>
              <path class="st42" d="M386.2,451.7c-.3-1.1-1-2.3-1.6-2.6l-15.6-6.7c-8.6,3.5-19.7.8-19.7.8l-2,11.7c0,.4.3.7.7.7h37.9c.8,0,.3-3.9.3-3.9Z"/>
              <path class="st17" d="M372.4,443.1c-.9,1.1-1.6,2.4-2.2,3.7"/>
              <path class="st17" d="M374.4,444.2c-.9,1.2-1.3,2-1.8,3.1"/>
              <path class="st17" d="M376,445.1c-.6.8-1.2,2-1.7,2.9"/>
            </g>
            <line class="st17" x1="347.6" y1="453.1" x2="386.4" y2="452.9"/>
            <path class="st17" d="M348.7,447.4s9.1.2,9.9,5.7"/>
            <path class="st17" d="M381.4,447.7s-2.5,3.6-3,5.2"/>
          </g>
          <g>
            <g>
              <path class="st36" d="M289.6,301.6s7.4,11.7,4.2,16.7c-1.6,2.6-7.8,4.4-11,2.9-2.3-1.1-7.4-10.3-6.7-12.2,2.8-7.5,13.4-7.4,13.4-7.4Z"/>
              <path class="st36" d="M275.7,318.1l-.7,9.1s5.8,14.4,16.2,1.4l-.5-10-15-.5Z"/>
              <path class="st47" d="M272.5,315.3c-1.1-2.6-2-4-2.4-7.1-.5-3.3,2.2-4.3,2.2-4.3,0,0-.5.4,1-2.5,1.4-2.7,6-2.6,8.8-3,3.7-.6,9.1-3.8,11.2-2.4.9.6.9,6.3-2,7.9-1.7.9-4.5.4-6.5.7-3.7.6-4.5,1.4-5,3.7-.2,1.3-2.7,1.1-1.3,3.7.2.4.3.8.3,1.1l-1.5,1c-1.9,1.3,2.2,4.5,1.9,6.1-.2.8-1.8,1.2-3.3.5-1.5-.7-2.4-2.6-3.6-5.4Z"/>
              <path class="st36" d="M278.4,314.3c-1.7-1.7-2.8-1.3-3.3-.2-.7,1.4,1.3,4.1,2.2,4.5,1.7.8,3,.6,3-.8"/>
              <path class="st8" d="M290.8,321.2c-5.6,1.2-8.5-.4-8.5-.4"/>
              <path class="st19" d="M288.9,308.7s2.7,2.9,2.6,3.8c0,.9-2.2,1.4-2.2,1.4"/>
              <path class="st30" d="M292.6,314.3l-5.7,1.8s1.6,2.8,4.7,1.6c2.2-.9,1-3.5,1-3.5Z"/>
              <path class="st50" d="M290.5,307.5c0,.3.2.6.3.8.2.5.9,0,.7-.4-.1-.2-.2-.5-.4-.7-.2-.3-.8-.1-.6.3h0Z"/>
              <path class="st7" d="M289,306.2s.7-1.4,2.2-.6"/>
              <path class="st50" d="M284.1,310.2c0,.3.2.5.3.8.2.5,1,.3.8-.2-.1-.3-.2-.6-.4-.8-.2-.3-.7-.1-.6.3h0Z"/>
              <path class="st7" d="M284.6,307.6s-1.5-.2-2.7,1.7"/>
            </g>
            <g>
              <path class="st36" d="M318,346.9s8.9,17.1,11.5,17.5c3.1.4,27.7-17.8,27.7-17.8l9.9,12s-23,27.9-38.5,27.9-29.9-27.9-29.9-27.9"/>
              <path class="st42" d="M275,327.1s2.3,4.1,8.9,3.8c5.1-.2,7.3-2.3,7.3-2.3,0,0,15.1,3.9,18.1,23.8,2.7,18.5,6.2,50.2,6.2,50.2l-57.4,3.9s-1.4-20.8.7-45c1.6-18.1,16.2-34.3,16.2-34.3Z"/>
              <g>
                <path class="st35" d="M273.6,389.7l30.9.4v1.9s-32.7-.5-32.7-.5h0c0-1,.8-1.9,1.8-1.9Z"/>
                <path class="st35" d="M342.1,392.6l-43.4-.6,8.7-29c.4-1.5,1.7-2.5,3.2-2.5l39.2.5c.9,0,1.5.9,1.2,1.8l-8.9,29.7Z"/>
                <path class="st2" d="M344.1,392.6l-43.4-.6,8.7-29c.4-1.5,1.7-2.5,3.2-2.5l39.2.6c.9,0,1.5.9,1.2,1.8l-8.9,29.7Z"/>
                <path class="st35" d="M331.5,375.3c-.3,1.4-1.8,2.4-3.4,2.4-1.6,0-2.7-1.1-2.4-2.5.3-1.4,1.8-2.4,3.4-2.4,1.6,0,2.7,1.1,2.4,2.5Z"/>
              </g>
              <path class="st42" d="M291.2,328.5c5.7-.4,13.1,1,17.1,3.7,10.7,7,15.2,21.9,15.2,21.9l-14.8,3.8"/>
              <g>
                <path class="st36" d="M269.8,361s-4.3,15.2-3.3,18.6c.8,2.5,22.7,5.6,22.7,5.6l1.1,14.6s-38.8,2.5-44.4-4.5c-7.7-9.6,1.1-38.7,1.1-38.7"/>
                <path class="st36" d="M284.6,385c3.2,0,20.3.9,20.2,1.8,0,.8-4.9,1.4-4.7,1.8.3.6,4,.9,6.1.9,1.9,0,4.9.3,5,1.1.2,1.6-10.1,1.5-10.1,1.5,0,0,11.1-2,11.4-.7.4,1.8-11.4,3.5-11.7,4,0,0,9.8-4.3,10.2-2.9s-8.4,5.4-11.2,5.6c2.3-.6,8.9-5.2,9.1-3.9s-5.7,4-6.6,4.2c-8,1.8-15.6,1.2-15.6,1.2"/>
                <path class="st48" d="M310.1,391.5c-1.3.3-2.6.5-4,.7-.7,0-1.3.1-2,.1-.7,0-1.3,0-2,0,1.3-.3,2.6-.4,4-.5,1.3-.1,2.7-.2,4-.2Z"/>
                <path class="st48" d="M309.2,393.4c-1.3.6-2.7,1-4.2,1.3-.7.1-1.4.3-2.2.4-.7,0-1.5.1-2.2,0,2.9-.6,5.6-1.3,8.5-1.7Z"/>
                <path class="st48" d="M307.6,395.3c-1.2.6-2.4,1-3.6,1.4-.6.2-1.3.3-1.9.4-.6.1-1.3.2-1.9.2,1.2-.4,2.5-.8,3.7-1.1,1.2-.3,2.5-.7,3.8-.9Z"/>
              </g>
              <path class="st42" d="M275,327.1s-11.6.8-16,4.1c-11.8,8.9-14.5,26.3-14.5,26.3l26,6.8,4.7-14.3"/>
              <path class="st17" d="M269.3,364.4c1.4-6.6,3.5-12,3.5-12"/>
              <path class="st17" d="M310.1,357.4c-1.9-9.9-4.3-16-4.3-16"/>
              <line class="st17" x1="245.3" y1="353.5" x2="270.1" y2="360.8"/>
              <line class="st17" x1="322.2" y1="350.6" x2="309.4" y2="354.1"/>
              <path class="st17" d="M272.5,327.4s3.1,6.1,12.2,5.5,9.5-4.3,9.5-4.3"/>
              <path class="st36" d="M350.6,351.6s17.1-13.3,18-13c.9.3-1.5,2.8-.8,2.9.7,0,6.2-5.5,7-5,1.1.7-4.5,6-4.5,6,0,0,6.5-5.5,7.2-4.6.5.6-5.8,6.7-5.8,6.7,0,0,6.4-4.7,7-4.1.5.6-5.1,6-5.1,6,0,0,4.5-3.9,5.2-3.3.7.7-8.8,12.8-17,21"/>
              <path class="st8" d="M366.6,342.2s-1.2,3.1-2.8,5.5"/>
              <path class="st8" d="M365.9,349.1c1.8-1.9,4.3-2.2,6.5-2.1"/>
            </g>
          </g>
          <g>
            <path class="st38" d="M283.1,428.6s-1.5,9.3,7.9,8.7c23-1.5,59.6-28.9,59.6-28.9l44.5,34.4,18.3-19.5s-30.1-25.1-39-31.9c-3.7-2.8-11.3-9.2-19.9-8.7s-57,19.4-57,19.4"/>
            <path class="st26" d="M290.6,432.3c19.8-1.3,49.7-22.9,57.6-27.7,1.2-.7,2.7-.6,3.8.2l45.4,35.4"/>
            <path class="st51" d="M260,406.3s-3.9,34,24.4,32.1c19.9-1.3,45-29.7,45-29.7l15.4,34.8,26.2-7.8s-12.9-32.4-17.3-43.3c-3.8-9.3-10.5-16.7-17.3-17.6s-13.9,2.2-22.4,7.1c-6.8,4-28,22.6-28,22.6"/>
            <path class="st24" d="M267.5,405.8s-1.7,28.1,18.6,26.7c12.1-.8,36-24.9,42.7-30.7.9-.8,2.3-.5,2.8.6l17.5,39.8"/>
            <path class="st24" d="M267.7,412.8s8-1,8.6-7.6"/>
            <line class="st24" x1="342.7" y1="438.7" x2="369" y2="430.8"/>
            <line class="st26" x1="390.7" y1="439.5" x2="409.1" y2="419.8"/>
          </g>
        </g>
      </g>
      <g>
        <g>
          <path class="st52" d="M171.3,199.9c0-.4.6-.7,1-.6.6,0,1.1.5,1.4,1.1.3.6.4,1.2.4,1.8,0,.6,0,1.2-.3,1.7-.5.9-1.7,1.3-2.6.9"/>
          <path class="st33" d="M170.8,191.8s3.6,13.6,1.6,16.4c-2.9,4.2-9.9,4.5-12.9,2.6-2.5-1.6-4.5-10.3-4.5-12.5,0-6.1,12.5-9.6,15.7-6.4Z"/>
          <path class="st33" d="M152.7,207.8l-1.4,11.9s4.5,4.8,11.2,4.8,6.7-4.5,6.7-4.5l-1.3-10.3-10.4-10.9-4.9,8.9"/>
          <path class="st49" d="M159,197.8c0-.8,0-1.6,0-2.3,0-.2,0-1.8-.2-1.9,3.3.7,6.8.9,10.1.7,1.1,0,2.2-.2,3.1-.8.8-.5.7-8.3-9.2-8.7-1.9,0-3.9,0-5.5.9-1.7.9-4.2,2.6-4.3,4.5-2.4.8-5,5.6-3.6,10.7.8,2.9,1.3,5.8,3.4,6.9,2.7-1.1,4.5-4.1,5-4.7,1-1.4,1.3-3.6,1.3-5.2Z"/>
          <path class="st23" d="M168.2,211.5s-4.7.9-7.9-.8c-2.5-1.4-3.5-4.5-3.5-4.5"/>
          <path class="st33" d="M158.5,201.7c-.3-.5-1.3-1.2-1.8-1.1s-1,.4-1.4.8c-1.8,2,.2,5.8,2.9,5.4,1-.2.7-1.5.7-1.5"/>
          <path class="st20" d="M168.5,198.9s2.1,3.2,1.9,4.1c-.2.9-2.3,1-2.3,1"/>
          <path class="st30" d="M170.4,205.1l-5.8.8s1.1,3,4.2,2.3c2.2-.5,1.5-3.1,1.5-3.1Z"/>
          <path class="st50" d="M170.2,198.1c0,.3,0,.5.2.8.1.5.9.3.8-.2,0-.3-.2-.5-.3-.7-.2-.4-.7-.3-.7.2h0Z"/>
          <path class="st7" d="M169,196.5s.9-1.2,2.2-.3"/>
          <path class="st50" d="M163.6,199.5c0,.3,0,.6.1.9.1.5.9.3.8-.2,0-.3-.1-.5-.2-.7-.1-.3-.7-.3-.7,0h0Z"/>
          <path class="st7" d="M164.6,197.2s-1.4-.5-2.9,1.2"/>
        </g>
        <g>
          <g>
            <g>
              <path class="st33" d="M173.6,416l2.7,27.6-.2,8.7,34-.2c.8,0,1.5-.7,1.5-1.5h0c0-.6-.4-1.2-1-1.4l-14.7-6.7-1.4-28.7"/>
              <path class="st3" d="M213.1,451.7c-.3-1.1-1-2.3-1.6-2.6l-15.6-6.7c-8.6,3.5-19.7.8-19.7.8l-2,11.7c0,.4.3.7.7.7h37.9c.8,0,.3-3.9.3-3.9Z"/>
              <path class="st28" d="M199.3,443.1c-.9,1.1-1.6,2.4-2.2,3.7"/>
              <path class="st28" d="M201.2,444.2c-.9,1.2-1.3,2-1.8,3.1"/>
              <path class="st28" d="M202.9,445.1c-.6.8-1.2,2-1.7,2.9"/>
            </g>
            <line class="st28" x1="174.4" y1="453.1" x2="213.2" y2="452.9"/>
            <path class="st28" d="M175.5,447.4s9.1.2,9.9,5.7"/>
            <path class="st28" d="M208.3,447.7s-2.5,3.6-3,5.2"/>
          </g>
          <path class="st53" d="M189.5,297.5c5.8,42,11.1,141.3,11.1,141.3h-29.3s-6-62-11.2-106.9c-12.9-21.3-11.9-44.4-13.3-47.5"/>
          <path class="st21" d="M175.3,438.7s-7.2-68.5-12.4-113.4"/>
          <g>
            <g>
              <path class="st33" d="M126.5,416l-1.3,27.6-.2,8.7,34-.2c.8,0,1.5-.7,1.5-1.5h0c0-.6-.4-1.2-1-1.4l-14.7-6.7,2.6-28.7"/>
              <path class="st3" d="M162,451.7c-.3-1.1-1-2.3-1.6-2.6l-15.6-6.7c-8.6,3.5-19.7.8-19.7.8l-2,11.7c0,.4.3.7.7.7h37.9c.8,0,.3-3.9.3-3.9Z"/>
              <path class="st28" d="M148.2,443.1c-.9,1.1-1.6,2.4-2.2,3.7"/>
              <path class="st28" d="M150.2,444.2c-.9,1.2-1.3,2-1.8,3.1"/>
              <path class="st28" d="M151.8,445.1c-.6.8-1.2,2-1.7,2.9"/>
            </g>
            <line class="st28" x1="123.4" y1="453.1" x2="162.2" y2="452.9"/>
            <path class="st28" d="M124.5,447.4s9.1.2,9.9,5.7"/>
            <path class="st28" d="M157.2,447.7s-2.5,3.6-3,5.2"/>
          </g>
          <path class="st53" d="M127.4,293.6c-.8,9.5-.7,21.3.7,32.8-2.5,50.6-6,112.3-6,112.3h29.3s14.1-112,14.8-146"/>
          <path class="st21" d="M132.4,293.6c-.8,9.5-.7,21.3.7,32.8-2.5,50.6-6,112.3-6,112.3"/>
          <path class="st21" d="M161.9,347.8s4.1-35.1,4.4-48"/>
          <line class="st21" x1="122.5" y1="433" x2="152.2" y2="433"/>
          <line class="st21" x1="170.7" y1="432.9" x2="200.2" y2="432.9"/>
          <path class="st21" d="M132.1,313.9s8.4.7,13.1-11.3"/>
          <path class="st21" d="M165,313.9s2.9-.8,3.2-1.8c.3-.9,1.1-11.8,1.1-11.8"/>
          <path class="st21" d="M180,302.7s.7,9.8,11.4,11.3"/>
        </g>
        <g>
          <path class="st33" d="M196.5,241.2s6.8,9.5,9,10,21.1-20.7,21.1-20.7l11.5,8.9s-17.2,34.7-33.3,35.6c-13.9.8-27.4-20.9-27.4-20.9"/>
          <path class="st44" d="M151.8,216s1.9,2.9,9.8,3.7c5.9.6,7.4-2.2,7.4-2.2,0,0,14.3,7.6,18.6,39.2,4.2,31.6,4.7,48.1,4.7,48.1h-67.2s-.2-24,1.7-44.7c2-21.3,6.5-39.2,25.1-44.1Z"/>
          <g>
            <polygon class="st37" points="173.6 311 142.7 305 141.7 304 152.8 258.2 185.7 266.1 186.7 267.1 173.6 311"/>
            <polygon class="st34" points="173.6 311 142.7 305 141.7 304 152.8 258.2 153.8 259.2 173.6 311"/>
            <rect class="st41" x="141.1" y="269.1" width="47.2" height="33.9" transform="translate(-152 379.1) rotate(-76.4)"/>
            <g>
              <path class="st30" d="M176,313.9l-33-8s7.1-29.9,8.3-34.5c0,0,2.1-5.3,6-7.2,2.2-1.1,5.1-1.7,7.7-1.5l22,5.3-11.1,45.9Z"/>
              <g>
                <line class="st15" x1="172.7" y1="309" x2="148.1" y2="303.4"/>
                <line class="st15" x1="173.4" y1="306.4" x2="148.8" y2="300.7"/>
                <line class="st15" x1="174.1" y1="303.7" x2="149.5" y2="298"/>
                <line class="st15" x1="174.7" y1="301" x2="150.1" y2="295.3"/>
                <line class="st15" x1="175.4" y1="298.3" x2="150.8" y2="292.6"/>
                <line class="st15" x1="176.1" y1="295.6" x2="151.5" y2="289.9"/>
                <line class="st15" x1="176.7" y1="292.9" x2="152.1" y2="287.3"/>
                <line class="st15" x1="177.4" y1="290.3" x2="152.8" y2="284.6"/>
                <line class="st15" x1="178.1" y1="287.6" x2="153.5" y2="281.9"/>
                <line class="st15" x1="178.8" y1="284.9" x2="154.1" y2="279.2"/>
                <line class="st15" x1="179.4" y1="282.2" x2="154.8" y2="276.5"/>
                <line class="st15" x1="180.1" y1="279.5" x2="155.5" y2="273.8"/>
                <line class="st15" x1="180.8" y1="276.8" x2="156.1" y2="271.1"/>
                <line class="st15" x1="181.4" y1="274.2" x2="156.8" y2="268.5"/>
                <line class="st15" x1="177.5" y1="269" x2="164.1" y2="266"/>
              </g>
              <path class="st37" d="M157.4,264.3c-3.9,2-6,7.2-6,7.2,0,0,4.9-5,9.8-4.7,0-2.6,3.9-4.1,3.9-4.1-2.5-.2-5.4.4-7.7,1.5Z"/>
            </g>
          </g>
          <path class="st44" d="M169,217.4c7,.6,14.7,3.3,18.7,8.3,7.9,9.9,13.9,21,13.9,21l-18.9,13.3-13.7-42.7Z"/>
          <path class="st27" d="M187.6,256.4c-1.1-8.9-3.5-20.2-3.5-20.2"/>
          <line class="st27" x1="187" y1="252.1" x2="199.8" y2="243.3"/>
          <g>
            <path class="st33" d="M136.5,258.4s-6.6,14.4-6.1,17.9c.4,2.6,21.6,9,21.6,9l-1,14.6s-38.7-3.3-43.2-11.1c-6.2-10.6,6.8-38.1,6.8-38.1"/>
            <path class="st33" d="M147.6,284.3c3.2.6,19.9,4,19.7,4.8-.2.8-5.1.7-5,1.1.2.7,3.8,1.5,5.9,1.8,1.9.3,4.8,1,4.8,1.8,0,1.6-10.2,0-10.2,0,0,0,11.3-.3,11.4,1,.2,1.9-11.8,1.8-12.2,2.2,0,0,10.4-2.8,10.5-1.4.1,1.4-9.1,4.1-11.9,3.9,2.4-.3,9.6-3.8,9.6-2.5s-6.2,3.1-7.2,3.2c-8.2.6-15.6-1.2-15.6-1.2"/>
            <path class="st43" d="M171.8,294.5c-1.3.1-2.7.1-4,0-.7,0-1.3,0-2-.2-.7,0-1.3-.2-2-.4,1.3,0,2.7,0,4,0,1.3,0,2.7.2,4,.4Z"/>
            <path class="st43" d="M170.6,296.3c-1.4.4-2.9.6-4.3.7-.7,0-1.5,0-2.2,0-.7,0-1.5,0-2.2-.3,2.9-.1,5.7-.4,8.7-.4Z"/>
            <path class="st43" d="M168.8,297.9c-1.2.4-2.5.6-3.8.8-.6,0-1.3.1-1.9.2-.6,0-1.3,0-1.9,0,1.3-.2,2.5-.4,3.8-.6,1.3-.2,2.6-.3,3.9-.3Z"/>
          </g>
          <path class="st44" d="M152,216c-7.9-.1-15.7,1.4-20.6,5-9.3,6.9-18.1,29.6-18.1,29.6l25.7,9.9,11.2-21.8"/>
          <line class="st27" x1="137.3" y1="260.1" x2="145.9" y2="245.1"/>
          <line class="st27" x1="139.7" y1="255.9" x2="115.6" y2="245.8"/>
          <path class="st27" d="M148.6,216s4.3,5.7,13.1,5.7,9.7-4,9.7-4"/>
          <path class="st33" d="M221.8,236s12.6-15.8,13.5-15.8c.9,0-.8,2.9,0,2.9.7,0,4.6-6.5,5.4-6.2,1.1.4-2.5,6.1-2.5,6.1,0,0,1-1.1,1.9-.4.6.4,0,2.2,0,2.2,0,0,1-.6,1.7-.1.6.5,0,2,0,2,0,0,1-1.2,1.7-.2.7.9-2.7,9.6-8.6,19.1"/>
          <path class="st29" d="M234.3,224.5s-.5,3.2-1.4,5.8"/>
          <path class="st43" d="M243.1,228.4c-.5.7-1,1.5-1.5,2.2-.3.4-.6.7-.9,1-.2.2-.3.3-.5.4-.2.1-.5.3-.8,0-.2-.3-.1-.5,0-.8,0-.2,0-.4.2-.7.1-.4.3-.9.5-1.3.4-.8.7-1.6,1.2-2.4l.4.2c-.5.9-1.1,1.7-1.7,2.5-.3.4-.6.8-1,1.2-.2.2-.4.4-.6.5-.1,0-.3.2-.6,0-.2-.2-.3-.4-.3-.5,0-.6.1-1.1.3-1.6.2-.5.3-1,.5-1.4.4-.9.8-1.9,1.2-2.8l.4.2c-.5.9-1,1.8-1.6,2.7-.3.4-.6.8-.9,1.2-.2.2-.4.4-.6.5-.1,0-.3.2-.5.1-.2,0-.3-.3-.3-.4,0-1.1.4-2.1.8-3,.4-1,.8-1.9,1.3-2.8-.4.9-.8,1.9-1.1,2.9-.2.5-.3,1-.4,1.5-.1.5-.3,1-.2,1.5,0,.1,0,.2,0,.2,0,0,.1,0,.2,0,.2-.1.4-.3.5-.5.3-.4.6-.8.9-1.2.5-.9,1.1-1.7,1.5-2.6l.4.2c-.4.9-.8,1.8-1.2,2.8-.3.9-.7,1.9-.8,2.8,0,.1,0,.2,0,.1,0,0,0,0,.1,0,.2,0,.4-.3.5-.4.3-.3.6-.7.9-1.1.6-.8,1.1-1.6,1.7-2.5l.4.2c-.4.8-.8,1.6-1.2,2.4-.2.4-.4.8-.5,1.2,0,.2-.1.4-.2.6,0,.2,0,.4,0,.5,0,0,.3,0,.4,0,.2-.1.3-.2.5-.4.3-.3.6-.6.9-.9.6-.7,1.1-1.4,1.7-2.1Z"/>
        </g>
      </g>
    </g>
  </g>
</svg>