<?xml version="1.0" encoding="utf-8"?>
<!-- Generator: Adobe Illustrator 27.5.0, SVG Export Plug-In . SVG Version: 6.00 Build 0)  -->
<svg version="1.1" id="Capa_1" xmlns="http://www.w3.org/2000/svg" xmlns:xlink="http://www.w3.org/1999/xlink" x="0px" y="0px"
	 viewBox="0 0 1929 2334" style="enable-background:new 0 0 1929 2334;" xml:space="preserve">
<g>
	<path style="fill:#40BEE3;" d="M1411.244,752.919c-59.261,0-107.302-48.042-107.302-107.302c0-9.574,1.374-18.807,3.727-27.641
		H624.782c2.352,8.834,3.727,18.067,3.727,27.641c0,59.26-48.042,107.302-107.302,107.302c-8.662,0-17.041-1.139-25.109-3.076
		v1030.362c8.068-1.938,16.446-3.076,25.109-3.076c59.26,0,107.302,48.042,107.302,107.302c0,13.518-2.604,26.398-7.168,38.31
		h689.768c-4.56-11.913-7.167-24.793-7.167-38.31c0-59.26,48.041-107.302,107.302-107.302c7.301,0,14.426,0.743,21.317,2.133
		V750.786C1425.67,752.177,1418.545,752.919,1411.244,752.919z"/>
	<path style="fill:#F8DB58;" d="M628.509,1884.431c0-59.26-48.042-107.302-107.302-107.302c-8.662,0-17.041,1.139-25.109,3.076
		v84.007c0,32.191,26.338,58.529,58.529,58.529h32.957h33.757C625.905,1910.828,628.509,1897.948,628.509,1884.431z"/>
	<path style="fill:#F8DB58;" d="M1303.942,1884.431c0,13.518,2.607,26.398,7.167,38.31h34.722h28.201
		c32.193,0,58.529-26.339,58.529-58.529v-84.95c-6.891-1.391-14.016-2.133-21.317-2.133
		C1351.983,1777.129,1303.942,1825.171,1303.942,1884.431z"/>
	<path style="fill:#F8DB58;" d="M628.509,645.617c0-9.574-1.375-18.807-3.727-27.641h-70.155c-32.19,0-58.529,26.341-58.529,58.532
		v73.335c8.068,1.937,16.446,3.076,25.109,3.076C580.467,752.919,628.509,704.877,628.509,645.617z"/>
	<path style="fill:#F8DB58;" d="M1374.032,617.976h-66.363c-2.353,8.834-3.727,18.067-3.727,27.641
		c0,59.26,48.041,107.302,107.302,107.302c7.301,0,14.426-0.743,21.317-2.133v-74.278
		C1432.561,644.317,1406.225,617.976,1374.032,617.976z"/>
	<path style="fill:#333333;" d="M835.034,458.188v-4.745V319.65h-24.192c-17.681,0-32.866-11.106-39.009-26.676v160.469v4.745
		v159.788h63.202V458.188z"/>
	<path style="fill:#333333;" d="M1117.818,319.65h-23.33v133.793v4.745v159.788h63.204V458.188v-4.745V290.621
		C1152.211,307.418,1136.38,319.65,1117.818,319.65z"/>
	<path style="fill:#333333;" d="M1272.422,1922.741v84.655l0.051,0.485c5.311-36.968,35.663-65.779,73.359-68.673v-16.467h-34.722
		H1272.422z"/>
	<path style="fill:#1A1A1A;" d="M1352.059,1938.895c-2.101,0-4.164,0.155-6.227,0.313c-37.696,2.894-68.048,31.706-73.359,68.673
		c-0.544,3.773-0.919,7.596-0.919,11.519c0,44.462,36.044,80.505,80.505,80.505c44.459,0,80.502-36.043,80.502-80.505
		C1432.561,1974.938,1396.518,1938.895,1352.059,1938.895z"/>
	
		<ellipse transform="matrix(0.7071 -0.7071 0.7071 0.7071 -1031.9226 1547.5183)" style="fill:#FFFFFF;" cx="1352.059" cy="2019.4" rx="37.399" ry="37.399"/>
	<path style="fill:#333333;" d="M587.584,1922.741v16.467c37.699,2.894,68.054,31.711,73.359,68.684l0.051-0.496v-84.655h-39.653
		H587.584z"/>
	<path style="fill:#2AABD1;" d="M720.115,834.643h-2.564c-6.176,0-12.06,1.294-17.413,3.607
		c15.736,6.794,26.826,22.477,26.826,40.633v782.952c0,18.158-11.09,33.841-26.826,40.635c5.354,2.313,11.237,3.607,17.413,3.607
		h2.564c24.334,0,44.242-19.908,44.242-44.242V878.882C764.357,854.551,744.449,834.643,720.115,834.643z"/>
	<path style="fill:#2AABD1;" d="M1001.379,834.643h-2.564c-7.784,0-15.107,2.058-21.478,5.627
		c13.545,7.585,22.762,22.068,22.762,38.613v782.952c0,16.548-9.217,31.03-22.762,38.618c6.371,3.569,13.694,5.624,21.478,5.624
		h2.564c24.334,0,44.242-19.908,44.242-44.242V878.882C1045.622,854.551,1025.713,834.643,1001.379,834.643z"/>
	<path style="fill:#2AABD1;" d="M1264.887,834.643h-2.567c-7.784,0-15.106,2.058-21.478,5.627
		c13.545,7.585,22.762,22.068,22.762,38.613v782.952c0,16.548-9.217,31.03-22.762,38.618c6.372,3.569,13.694,5.624,21.478,5.624
		h2.567c24.331,0,44.24-19.908,44.24-44.242V878.882C1309.127,854.551,1289.219,834.643,1264.887,834.643z"/>
	<path style="fill:#FFFFFF;" d="M1263.604,1661.835V878.882c0-16.545-9.217-31.027-22.762-38.613
		c-6.371-3.569-13.692-5.627-21.478-5.627h-2.567c-24.332,0-44.24,19.908-44.24,44.239v782.952c0,24.334,19.908,44.242,44.24,44.242
		h2.567c7.786,0,15.106-2.055,21.478-5.624C1254.387,1692.865,1263.604,1678.383,1263.604,1661.835z"/>
	<path style="fill:#1A1A1A;" d="M660.943,2007.892c-5.305-36.973-35.66-65.79-73.359-68.684c-2.061-0.158-4.124-0.313-6.227-0.313
		c-44.462,0-80.505,36.044-80.505,80.505c0,44.462,36.043,80.505,80.505,80.505c44.462,0,80.502-36.043,80.502-80.505
		C661.859,2015.483,661.484,2011.659,660.943,2007.892z"/>
	
		<ellipse transform="matrix(0.9808 -0.195 0.195 0.9808 -382.5674 152.1019)" style="fill:#FFFFFF;" cx="581.357" cy="2019.4" rx="37.399" ry="37.399"/>
	<path style="fill:#FFFFFF;" d="M726.964,1661.835V878.882c0-18.156-11.09-33.838-26.826-40.633
		c-5.354-2.312-11.24-3.607-17.416-3.607h-2.564c-24.332,0-44.24,19.908-44.24,44.239v782.952c0,24.334,19.908,44.242,44.24,44.242
		h2.564c6.175,0,12.062-1.294,17.416-3.607C715.874,1695.676,726.964,1679.993,726.964,1661.835z"/>
	<path style="fill:#FFFFFF;" d="M1000.099,1661.835V878.882c0-16.545-9.217-31.027-22.762-38.613
		c-6.371-3.569-13.692-5.627-21.478-5.627h-2.567c-24.332,0-44.24,19.908-44.24,44.239v782.952c0,24.334,19.908,44.242,44.24,44.242
		h2.567c7.787,0,15.107-2.055,21.478-5.624C990.881,1692.865,1000.099,1678.383,1000.099,1661.835z"/>
	<path style="fill:#40BEE3;" d="M1117.818,233.322H810.842c-23.07,0-41.946,18.876-41.946,41.948v2.43
		c0,5.388,1.066,10.53,2.936,15.272c6.144,15.57,21.328,26.676,39.009,26.676h306.976c18.563,0,34.393-12.231,39.875-29.028
		c1.332-4.076,2.071-8.413,2.071-12.92v-2.43C1159.764,252.198,1140.887,233.322,1117.818,233.322z"/>
	<path style="fill:#FFFFFF;" d="M850.626,282.122h126.631c8.574,0,15.591-7.017,15.591-15.591v-0.903
		c0-8.574-7.017-15.589-15.591-15.589H850.626c-8.574,0-15.591,7.014-15.591,15.589v0.903
		C835.034,275.105,842.051,282.122,850.626,282.122z"/>
</g>
</svg>
